  0
SECTION
  2
HEADER
  9
$ACADVER
  1
AC1015
  9
$ACADMAINTVER
 70
     6
  9
$DWGCODEPAGE
  3
ANSI_936
  9
$INSBASE
 10
0.0
 20
0.0
 30
0.0
  9
$EXTMIN
 10
0.0
 20
0.0
 30
0.0
  9
$EXTMAX
 10
594.0
 20
420.0
 30
0.0
  9
$LIMMIN
 10
0.0
 20
0.0
  9
$LIMMAX
 10
594.0
 20
420.0
  9
$ORTHOMODE
 70
     0
  9
$REGENMODE
 70
     1
  9
$FILLMODE
 70
     1
  9
$QTEXTMODE
 70
     0
  9
$MIRRTEXT
 70
     1
  9
$LTSCALE
 40
1.0
  9
$ATTMODE
 70
     1
  9
$TEXTSIZE
 40
3.5
  9
$TRACEWID
 40
1.0
  9
$TEXTSTYLE
  7
Standard
  9
$CLAYER
  8
0
  9
$CELTYPE
  6
ByLayer
  9
$CECOLOR
 62
   256
  9
$CELTSCALE
 40
1.0
  9
$DISPSILH
 70
     0
  9
$DIMSCALE
 40
1.0
  9
$DIMASZ
 40
6.0
  9
$DIMEXO
 40
1.0
  9
$DIMDLI
 40
3.75
  9
$DIMRND
 40
0.0
  9
$DIMDLE
 40
0.0
  9
$DIMEXE
 40
1.0
  9
$DIMTP
 40
0.0
  9
$DIMTM
 40
0.0
  9
$DIMTXT
 40
3.5
  9
$DIMCEN
 40
2.5
  9
$DIMTSZ
 40
0.0
  9
$DIMTOL
 70
     0
  9
$DIMLIM
 70
     0
  9
$DIMTIH
 70
     1
  9
$DIMTOH
 70
     1
  9
$DIMSE1
 70
     0
  9
$DIMSE2
 70
     0
  9
$DIMTAD
 70
     1
  9
$DIMZIN
 70
     0
  9
$DIMBLK
  1

  9
$DIMASO
 70
     1
  9
$DIMSHO
 70
     1
  9
$DIMPOST
  1

  9
$DIMAPOST
  1

  9
$DIMALT
 70
     0
  9
$DIMALTD
 70
     3
  9
$DIMALTF
 40
0.0393700787
  9
$DIMLFAC
 40
1.0
  9
$DIMTOFL
 70
     1
  9
$DIMTVP
 40
0.0
  9
$DIMTIX
 70
     0
  9
$DIMSOXD
 70
     0
  9
$DIMSAH
 70
     0
  9
$DIMBLK1
  1

  9
$DIMBLK2
  1

  9
$DIMSTYLE
  2
ISO-25
  9
$DIMCLRD
 70
     0
  9
$DIMCLRE
 70
     0
  9
$DIMCLRT
 70
     0
  9
$DIMTFAC
 40
1.0
  9
$DIMGAP
 40
1.524
  9
$DIMJUST
 70
     0
  9
$DIMSD1
 70
     0
  9
$DIMSD2
 70
     0
  9
$DIMTOLJ
 70
     0
  9
$DIMTZIN
 70
     0
  9
$DIMALTZ
 70
     0
  9
$DIMALTTZ
 70
     0
  9
$DIMUPT
 70
     0
  9
$DIMDEC
 70
     3
  9
$DIMTDEC
 70
     3
  9
$DIMALTU
 70
     2
  9
$DIMALTTD
 70
     3
  9
$DIMTXSTY
  7
Standard
  9
$DIMAUNIT
 70
     0
  9
$DIMADEC
 70
     2
  9
$DIMALTRND
 40
0.0
  9
$DIMAZIN
 70
     0
  9
$DIMDSEP
 70
    44
  9
$DIMATFIT
 70
     3
  9
$DIMFRAC
 70
     0
  9
$DIMLDRBLK
  1

  9
$DIMLUNIT
 70
     2
  9
$DIMLWD
 70
    -2
  9
$DIMLWE
 70
    -2
  9
$DIMTMOVE
 70
     0
  9
$LUNITS
 70
     2
  9
$LUPREC
 70
     2
  9
$SKETCHINC
 40
1.0
  9
$FILLETRAD
 40
10.0
  9
$AUNITS
 70
     0
  9
$AUPREC
 70
     2
  9
$MENU
  1
.
  9
$ELEVATION
 40
0.0
  9
$PELEVATION
 40
0.0
  9
$THICKNESS
 40
0.0
  9
$LIMCHECK
 70
     0
  9
$CHAMFERA
 40
10.0
  9
$CHAMFERB
 40
10.0
  9
$CHAMFERC
 40
20.0
  9
$CHAMFERD
 40
0.0
  9
$SKPOLY
 70
     0
  9
$TDCREATE
 40
2455780.781060012
  9
$TDUCREATE
 40
2455780.447726678
  9
$TDUPDATE
 40
2455780.781060023
  9
$TDUUPDATE
 40
2455780.44772669
  9
$TDINDWG
 40
0.0000000116
  9
$TDUSRTIMER
 40
0.0000000116
  9
$USRTIMER
 70
     1
  9
$ANGBASE
 50
0.0
  9
$ANGDIR
 70
     0
  9
$PDMODE
 70
     0
  9
$PDSIZE
 40
-1.0
  9
$PLINEWID
 40
0.0
  9
$SPLFRAME
 70
     0
  9
$SPLINETYPE
 70
     6
  9
$SPLINESEGS
 70
     8
  9
$HANDSEED
  5
1EE
  9
$SURFTAB1
 70
     6
  9
$SURFTAB2
 70
     6
  9
$SURFTYPE
 70
     6
  9
$SURFU
 70
     6
  9
$SURFV
 70
     6
  9
$UCSBASE
  2

  9
$UCSNAME
  2

  9
$UCSORG
 10
0.0
 20
0.0
 30
0.0
  9
$UCSXDIR
 10
1.0
 20
0.0
 30
0.0
  9
$UCSYDIR
 10
0.0
 20
1.0
 30
0.0
  9
$UCSORTHOREF
  2

  9
$UCSORTHOVIEW
 70
     0
  9
$UCSORGTOP
 10
0.0
 20
0.0
 30
0.0
  9
$UCSORGBOTTOM
 10
0.0
 20
0.0
 30
0.0
  9
$UCSORGLEFT
 10
0.0
 20
0.0
 30
0.0
  9
$UCSORGRIGHT
 10
0.0
 20
0.0
 30
0.0
  9
$UCSORGFRONT
 10
0.0
 20
0.0
 30
0.0
  9
$UCSORGBACK
 10
0.0
 20
0.0
 30
0.0
  9
$PUCSBASE
  2

  9
$PUCSNAME
  2

  9
$PUCSORG
 10
0.0
 20
0.0
 30
0.0
  9
$PUCSXDIR
 10
1.0
 20
0.0
 30
0.0
  9
$PUCSYDIR
 10
0.0
 20
1.0
 30
0.0
  9
$PUCSORTHOREF
  2

  9
$PUCSORTHOVIEW
 70
     0
  9
$PUCSORGTOP
 10
0.0
 20
0.0
 30
0.0
  9
$PUCSORGBOTTOM
 10
0.0
 20
0.0
 30
0.0
  9
$PUCSORGLEFT
 10
0.0
 20
0.0
 30
0.0
  9
$PUCSORGRIGHT
 10
0.0
 20
0.0
 30
0.0
  9
$PUCSORGFRONT
 10
0.0
 20
0.0
 30
0.0
  9
$PUCSORGBACK
 10
0.0
 20
0.0
 30
0.0
  9
$USERI1
 70
     0
  9
$USERI2
 70
     0
  9
$USERI3
 70
     0
  9
$USERI4
 70
     0
  9
$USERI5
 70
     0
  9
$USERR1
 40
0.0
  9
$USERR2
 40
0.0
  9
$USERR3
 40
0.0
  9
$USERR4
 40
0.0
  9
$USERR5
 40
0.0
  9
$WORLDVIEW
 70
     1
  9
$SHADEDGE
 70
     3
  9
$SHADEDIF
 70
    70
  9
$TILEMODE
 70
     1
  9
$MAXACTVP
 70
    64
  9
$PINSBASE
 10
0.0
 20
0.0
 30
0.0
  9
$PLIMCHECK
 70
     0
  9
$PEXTMIN
 10
1.0000000000E+20
 20
1.0000000000E+20
 30
1.0000000000E+20
  9
$PEXTMAX
 10
-1.0000000000E+20
 20
-1.0000000000E+20
 30
-1.0000000000E+20
  9
$PLIMMIN
 10
0.0
 20
0.0
  9
$PLIMMAX
 10
420.0
 20
297.0
  9
$UNITMODE
 70
     0
  9
$VISRETAIN
 70
     1
  9
$PLINEGEN
 70
     0
  9
$PSLTSCALE
 70
     1
  9
$TREEDEPTH
 70
  3020
  9
$CMLSTYLE
  2
Standard
  9
$CMLJUST
 70
     0
  9
$CMLSCALE
 40
20.0
  9
$PROXYGRAPHICS
 70
     1
  9
$MEASUREMENT
 70
     1
  9
$CELWEIGHT
370
    -1
  9
$ENDCAPS
280
     0
  9
$JOINSTYLE
280
     0
  9
$LWDISPLAY
290
     1
  9
$INSUNITS
 70
     4
  9
$HYPERLINKBASE
  1

  9
$STYLESHEET
  1

  9
$XEDIT
290
     1
  9
$CEPSNTYPE
380
     0
  9
$PSTYLEMODE
290
     1
  9
$FINGERPRINTGUID
  2
{4FCDDE60-9B9D-40D0-8DED-9D5927F938B7}
  9
$VERSIONGUID
  2
{FAEB1C32-E019-11D5-929B-00C0DF256EC4}
  9
$EXTNAMES
290
     1
  9
$PSVPSCALE
 40
0.0
  9
$OLESTARTUP
290
     0
  0
ENDSEC
  0
SECTION
  2
CLASSES
  0
CLASS
  1
ACDBDICTIONARYWDFLT
  2
AcDbDictionaryWithDefault
  3
ObjectDBX Classes
 90
        0
280
     0
281
     0
  0
CLASS
  1
VISUALSTYLE
  2
AcDbVisualStyle
  3
ObjectDBX Classes
 90
     4095
280
     0
281
     0
  0
CLASS
  1
MATERIAL
  2
AcDbMaterial
  3
ObjectDBX Classes
 90
     1153
280
     0
281
     0
  0
CLASS
  1
ACDBPLACEHOLDER
  2
AcDbPlaceHolder
  3
ObjectDBX Classes
 90
        0
280
     0
281
     0
  0
CLASS
  1
LAYOUT
  2
AcDbLayout
  3
ObjectDBX Classes
 90
        0
280
     0
281
     0
  0
ENDSEC
  0
SECTION
  2
TABLES
  0
TABLE
  2
VPORT
  5
8
330
0
100
AcDbSymbolTable
 70
     1
  0
VPORT
  5
29
330
8
100
AcDbSymbolTableRecord
100
AcDbViewportTableRecord
  2
*Active
 70
     0
 10
0.0
 20
0.0
 11
1.0
 21
1.0
 12
297.0
 22
210.0
 13
0.0
 23
0.0
 14
10.0
 24
10.0
 15
10.0
 25
10.0
 16
0.0
 26
0.0
 36
1.0
 17
0.0
 27
0.0
 37
0.0
 40
420.0
 41
1.4142857143
 42
50.0
 43
0.0
 44
0.0
 50
0.0
 51
0.0
 71
     0
 72
  2000
 73
     1
 74
     3
 75
     0
 76
     0
 77
     0
 78
     0
281
     0
 65
     1
110
0.0
120
0.0
130
0.0
111
1.0
121
0.0
131
0.0
112
0.0
122
1.0
132
0.0
 79
     0
146
0.0
  0
ENDTAB
  0
TABLE
  2
LTYPE
  5
5
330
0
100
AcDbSymbolTable
 70
     6
  0
LTYPE
  5
14
330
5
100
AcDbSymbolTableRecord
100
AcDbLinetypeTableRecord
  2
ByBlock
 70
     0
  3

 72
    65
 73
     0
 40
0.0
  0
LTYPE
  5
15
330
5
100
AcDbSymbolTableRecord
100
AcDbLinetypeTableRecord
  2
ByLayer
 70
     0
  3

 72
    65
 73
     0
 40
0.0
  0
LTYPE
  5
16
330
5
100
AcDbSymbolTableRecord
100
AcDbLinetypeTableRecord
  2
Continuous
 70
     0
  3
Solid line
 72
    65
 73
     0
 40
0.0
  0
LTYPE
  5
3F
330
5
100
AcDbSymbolTableRecord
100
AcDbLinetypeTableRecord
  2
HIDDEN
 70
     0
  3
Hidden __ __ __ __ __ __ __ __ __ __ __ __ __ __
 72
    65
 73
     2
 40
1.905
 49
1.27
 74
     0
 49
-0.635
 74
     0
  0
LTYPE
  5
40
330
5
100
AcDbSymbolTableRecord
100
AcDbLinetypeTableRecord
  2
PHANTOM
 70
     0
  3
Phantom ______  __  __  ______  __  __  ______
 72
    65
 73
     6
 40
12.7
 49
6.35
 74
     0
 49
-1.27
 74
     0
 49
1.27
 74
     0
 49
-1.27
 74
     0
 49
1.27
 74
     0
 49
-1.27
 74
     0
  0
LTYPE
  5
41
330
5
100
AcDbSymbolTableRecord
100
AcDbLinetypeTableRecord
  2
CENTER
 70
     0
  3
Center ____ _ ____ _ ____ _ ____ _ ____ _ ____
 72
    65
 73
     4
 40
10.16
 49
6.35
 74
     0
 49
-1.27
 74
     0
 49
1.27
 74
     0
 49
-1.27
 74
     0
  0
LTYPE
  5
42
330
5
100
AcDbSymbolTableRecord
100
AcDbLinetypeTableRecord
  2
CENTERX2
 70
     0
  3
Center (2x) ________  __  ________  __  _____
 72
    65
 73
     4
 40
20.32
 49
12.7
 74
     0
 49
-2.54
 74
     0
 49
2.54
 74
     0
 49
-2.54
 74
     0
  0
LTYPE
  5
43
330
5
100
AcDbSymbolTableRecord
100
AcDbLinetypeTableRecord
  2
DOT2
 70
     0
  3
Dot (.5x) ........................................
 72
    65
 73
     2
 40
0.635
 49
0.0
 74
     0
 49
-0.635
 74
     0
  0
ENDTAB
  0
TABLE
  2
LAYER
  5
2
330
0
100
AcDbSymbolTable
 70
     2
  0
LAYER
  5
10
330
2
100
AcDbSymbolTableRecord
100
AcDbLayerTableRecord
  2
0
 70
     0
 62
     7
  6
Continuous
370
    -3
390
F
  0
LAYER
  5
44
330
2
100
AcDbSymbolTableRecord
100
AcDbLayerTableRecord
  2
FORMAT
 70
     0
 62
     7
  6
Continuous
370
    -3
390
F
  0
ENDTAB
  0
TABLE
  2
STYLE
  5
3
330
0
100
AcDbSymbolTable
 70
     5
  0
STYLE
  5
11
330
3
100
AcDbSymbolTableRecord
100
AcDbTextStyleTableRecord
  2
Standard
 70
     0
 40
0.0
 41
1.0
 50
0.0
 71
     0
 42
2.5
  3
txt
  4

  0
STYLE
  5
66
330
3
100
AcDbSymbolTableRecord
100
AcDbTextStyleTableRecord
  2
SLDTEXTSTYLE0
 70
     0
 40
0.0
 41
0.75
 50
0.0
 71
     0
 42
0.2
  3
TXT
  4
bigfont
  0
STYLE
  5
68
330
3
100
AcDbSymbolTableRecord
100
AcDbTextStyleTableRecord
  2
SLDTEXTSTYLE1
 70
     0
 40
0.0
 41
0.6964285714
 50
0.0
 71
     0
 42
0.2
  3
TXT
  4
bigfont
  0
STYLE
  5
6A
330
3
100
AcDbSymbolTableRecord
100
AcDbTextStyleTableRecord
  2
SLDTEXTSTYLE2
 70
     0
 40
0.0
 41
0.75
 50
0.0
 71
     0
 42
0.2
  3
TXT
  4

  0
STYLE
  5
6E
330
3
100
AcDbSymbolTableRecord
100
AcDbTextStyleTableRecord
  2
SLDTEXTSTYLE3
 70
     0
 40
0.0
 41
0.6875
 50
0.0
 71
     0
 42
0.2
  3
TXT
  4

  0
ENDTAB
  0
TABLE
  2
VIEW
  5
6
330
0
100
AcDbSymbolTable
 70
     0
  0
ENDTAB
  0
TABLE
  2
UCS
  5
7
330
0
100
AcDbSymbolTable
 70
     0
  0
ENDTAB
  0
TABLE
  2
APPID
  5
9
330
0
100
AcDbSymbolTable
 70
     1
  0
APPID
  5
12
330
9
100
AcDbSymbolTableRecord
100
AcDbRegAppTableRecord
  2
ACAD
 70
     0
  0
ENDTAB
  0
TABLE
  2
DIMSTYLE
  5
A
330
0
100
AcDbSymbolTable
 70
     6
100
AcDbDimStyleTable
  0
DIMSTYLE
105
27
330
A
100
AcDbSymbolTableRecord
100
AcDbDimStyleTableRecord
  2
ISO-25
 70
     0
 41
2.5
 42
0.625
 43
3.75
 44
1.25
 73
     0
 74
     0
 77
     1
 78
     8
140
2.5
141
2.5
143
0.0393700787
147
0.625
171
     3
172
     1
178
     0
271
     2
272
     2
274
     3
278
    44
283
     0
284
     8
340
11
  0
DIMSTYLE
105
B4
102
{ACAD_REACTORS
330
B3
330
C7
102
}
330
A
100
AcDbSymbolTableRecord
100
AcDbDimStyleTableRecord
  2
SLDDIMSTYLE0
 70
     0
 41
6.0
 44
0.0
 45
0.000000001
 73
     0
 74
     0
 77
     1
 78
     4
 79
     1
140
3.5
147
0.875
172
     1
173
     1
178
     0
271
     2
272
     2
276
     2
284
    12
289
     0
340
6A
341
B5
343
B5
344
B5
  0
DIMSTYLE
105
D4
102
{ACAD_REACTORS
330
D3
330
F3
330
128
102
}
330
A
100
AcDbSymbolTableRecord
100
AcDbDimStyleTableRecord
  2
SLDDIMSTYLE1
 70
     0
 41
6.0
 44
0.0
 45
0.000000001
 73
     0
 74
     0
 77
     1
 78
     4
 79
     1
140
3.5
147
0.875
173
     1
178
     0
271
     2
272
     2
276
     2
284
    12
340
6A
341
B5
343
B5
344
B5
  0
DIMSTYLE
105
DF
102
{ACAD_REACTORS
330
DE
330
E9
330
FE
330
109
330
114
330
11E
330
133
330
13D
330
147
330
15B
102
}
330
A
100
AcDbSymbolTableRecord
100
AcDbDimStyleTableRecord
  2
SLDDIMSTYLE2
 70
     0
 41
6.0
 44
0.0
 45
0.000000001
 73
     0
 74
     0
 77
     1
 78
    12
 79
     3
140
3.5
147
0.875
173
     1
178
     0
271
     2
272
     2
276
     2
284
    12
340
6A
341
B5
343
B5
344
B5
  0
DIMSTYLE
105
152
102
{ACAD_REACTORS
330
151
102
}
330
A
100
AcDbSymbolTableRecord
100
AcDbDimStyleTableRecord
  2
SLDDIMSTYLE3
 70
     0
 41
6.0
 44
0.0
 45
0.000000001
 73
     0
 74
     0
 77
     1
 78
    12
 79
     3
140
3.5
141
0.0
147
0.875
173
     1
178
     0
271
     2
272
     2
276
     2
284
    12
340
6A
341
B5
343
B5
344
B5
  0
DIMSTYLE
105
1E2
102
{ACAD_REACTORS
330
1E1
102
}
330
A
100
AcDbSymbolTableRecord
100
AcDbDimStyleTableRecord
  2
SLDDIMSTYLE4
 70
     0
 41
6.0
 44
0.0
 45
0.000000001
 73
     0
 74
     0
 77
     1
 78
    12
 79
     3
140
3.5
147
0.875
172
     1
173
     1
178
     0
271
     2
272
     2
276
     2
284
    12
289
     0
340
6A
341
B5
343
B5
344
B5
  0
ENDTAB
  0
TABLE
  2
BLOCK_RECORD
  5
1
330
0
100
AcDbSymbolTable
 70
    21
  0
BLOCK_RECORD
  5
1F
330
1
100
AcDbSymbolTableRecord
100
AcDbBlockTableRecord
  2
*Model_Space
340
22
  0
BLOCK_RECORD
  5
1B
330
1
100
AcDbSymbolTableRecord
100
AcDbBlockTableRecord
  2
*Paper_Space
340
1E
  0
BLOCK_RECORD
  5
23
330
1
100
AcDbSymbolTableRecord
100
AcDbBlockTableRecord
  2
*Paper_Space0
340
26
  0
BLOCK_RECORD
  5
79
330
1
100
AcDbSymbolTableRecord
100
AcDbBlockTableRecord
  2
SW_NOTE_0
340
0
102
{BLKREFS
331
7F
102
}
  0
BLOCK_RECORD
  5
81
330
1
100
AcDbSymbolTableRecord
100
AcDbBlockTableRecord
  2
SW_NOTE_1
340
0
102
{BLKREFS
331
8A
102
}
  0
BLOCK_RECORD
  5
B5
330
1
100
AcDbSymbolTableRecord
100
AcDbBlockTableRecord
  2
_CLOSED
340
0
102
{BLKREFS
331
BF
331
C0
331
CB
331
CC
331
D8
331
D9
331
E3
331
E4
331
ED
331
EE
331
F7
331
F8
331
102
331
103
331
10D
331
10E
331
118
331
119
331
122
331
123
331
12C
331
12D
331
137
331
138
331
141
331
142
331
14B
331
14C
331
157
331
15F
331
160
331
1E6
331
1E7
102
}
  0
BLOCK_RECORD
  5
BC
330
1
100
AcDbSymbolTableRecord
100
AcDbBlockTableRecord
  2
*D4
340
0
  0
BLOCK_RECORD
  5
C8
330
1
100
AcDbSymbolTableRecord
100
AcDbBlockTableRecord
  2
*D5
340
0
  0
BLOCK_RECORD
  5
D5
330
1
100
AcDbSymbolTableRecord
100
AcDbBlockTableRecord
  2
*D6
340
0
  0
BLOCK_RECORD
  5
E0
330
1
100
AcDbSymbolTableRecord
100
AcDbBlockTableRecord
  2
*D7
340
0
  0
BLOCK_RECORD
  5
EA
330
1
100
AcDbSymbolTableRecord
100
AcDbBlockTableRecord
  2
*D8
340
0
  0
BLOCK_RECORD
  5
F4
330
1
100
AcDbSymbolTableRecord
100
AcDbBlockTableRecord
  2
*D9
340
0
  0
BLOCK_RECORD
  5
FF
330
1
100
AcDbSymbolTableRecord
100
AcDbBlockTableRecord
  2
*D10
340
0
  0
BLOCK_RECORD
  5
10A
330
1
100
AcDbSymbolTableRecord
100
AcDbBlockTableRecord
  2
*D11
340
0
  0
BLOCK_RECORD
  5
115
330
1
100
AcDbSymbolTableRecord
100
AcDbBlockTableRecord
  2
*D12
340
0
  0
BLOCK_RECORD
  5
11F
330
1
100
AcDbSymbolTableRecord
100
AcDbBlockTableRecord
  2
*D13
340
0
  0
BLOCK_RECORD
  5
129
330
1
100
AcDbSymbolTableRecord
100
AcDbBlockTableRecord
  2
*D14
340
0
  0
BLOCK_RECORD
  5
134
330
1
100
AcDbSymbolTableRecord
100
AcDbBlockTableRecord
  2
*D15
340
0
  0
BLOCK_RECORD
  5
13E
330
1
100
AcDbSymbolTableRecord
100
AcDbBlockTableRecord
  2
*D16
340
0
  0
BLOCK_RECORD
  5
148
330
1
100
AcDbSymbolTableRecord
100
AcDbBlockTableRecord
  2
*D17
340
0
  0
BLOCK_RECORD
  5
153
330
1
100
AcDbSymbolTableRecord
100
AcDbBlockTableRecord
  2
*D18
340
0
  0
BLOCK_RECORD
  5
15C
330
1
100
AcDbSymbolTableRecord
100
AcDbBlockTableRecord
  2
*D19
340
0
  0
BLOCK_RECORD
  5
1E3
330
1
100
AcDbSymbolTableRecord
100
AcDbBlockTableRecord
  2
*D20
340
0
  0
ENDTAB
  0
ENDSEC
  0
SECTION
  2
BLOCKS
  0
BLOCK
  5
20
330
1F
100
AcDbEntity
  8
0
100
AcDbBlockBegin
  2
*Model_Space
 70
     0
 10
0.0
 20
0.0
 30
0.0
  3
*Model_Space
  1

  0
ENDBLK
  5
21
330
1F
100
AcDbEntity
  8
0
100
AcDbBlockEnd
  0
BLOCK
  5
1C
330
1B
100
AcDbEntity
 67
     1
  8
0
100
AcDbBlockBegin
  2
*Paper_Space
 70
     0
 10
0.0
 20
0.0
 30
0.0
  3
*Paper_Space
  1

  0
ENDBLK
  5
1D
330
1B
100
AcDbEntity
 67
     1
  8
0
100
AcDbBlockEnd
  0
BLOCK
  5
24
330
23
100
AcDbEntity
  8
0
100
AcDbBlockBegin
  2
*Paper_Space0
 70
     0
 10
0.0
 20
0.0
 30
0.0
  3
*Paper_Space0
  1

  0
ENDBLK
  5
25
330
23
100
AcDbEntity
  8
0
100
AcDbBlockEnd
  0
BLOCK
  5
7A
330
79
100
AcDbEntity
  8
0
100
AcDbBlockBegin
  2
SW_NOTE_0
 70
     0
 10
0.0
 20
0.0
 30
0.0
  3
SW_NOTE_0
  1

  0
MTEXT
  5
7C
330
79
100
AcDbEntity
  8
0
  6
Continuous
 62
     0
370
     0
100
AcDbMText
 10
0.0
 20
1.9336016097
 30
0.0
 40
1.5
 41
0.0
 71
     1
 72
     1
  1
DEBUR AND
  7
SLDTEXTSTYLE2
 73
     1
 44
1.0
  0
MTEXT
  5
7D
330
79
100
AcDbEntity
  8
0
  6
Continuous
 62
     0
370
     0
100
AcDbMText
 10
0.0
 20
-0.5663983345
 30
0.0
 40
1.5
 41
0.0
 71
     1
 72
     1
  1
BREAK SHARP
  7
SLDTEXTSTYLE2
 73
     1
 44
1.0
  0
MTEXT
  5
7E
330
79
100
AcDbEntity
  8
0
  6
Continuous
 62
     0
370
     0
100
AcDbMText
 10
0.0
 20
-3.0663982786
 30
0.0
 40
1.5
 41
0.0
 71
     1
 72
     1
  1
EDGES
  7
SLDTEXTSTYLE2
 73
     1
 44
1.0
  0
ENDBLK
  5
7B
330
79
100
AcDbEntity
  8
0
100
AcDbBlockEnd
  0
BLOCK
  5
82
330
81
100
AcDbEntity
  8
0
100
AcDbBlockBegin
  2
SW_NOTE_1
 70
     0
 10
0.0
 20
0.0
 30
0.0
  3
SW_NOTE_1
  1

  0
MTEXT
  5
84
330
81
100
AcDbEntity
  8
0
  6
Continuous
 62
     0
370
     0
100
AcDbMText
 10
0.0
 20
1.9336016097
 30
0.0
 40
1.5
 41
0.0
 71
     1
 72
     1
  1
UNLESS OTHERWISE SPECIFIED:
  7
SLDTEXTSTYLE2
 73
     1
 44
1.0
  0
MTEXT
  5
85
330
81
100
AcDbEntity
  8
0
  6
Continuous
 62
     0
370
     0
100
AcDbMText
 10
0.0
 20
-0.5663983345
 30
0.0
 40
1.5
 41
0.0
 71
     1
 72
     1
  1
DIMENSIONS ARE IN MILLIMETERS
  7
SLDTEXTSTYLE2
 73
     1
 44
1.0
  0
MTEXT
  5
86
330
81
100
AcDbEntity
  8
0
  6
Continuous
 62
     0
370
     0
100
AcDbMText
 10
0.0
 20
-3.0663982786
 30
0.0
 40
1.5
 41
0.0
 71
     1
 72
     1
  1
SURFACE FINISH:
  7
SLDTEXTSTYLE2
 73
     1
 44
1.0
  0
MTEXT
  5
87
330
81
100
AcDbEntity
  8
0
  6
Continuous
 62
     0
370
     0
100
AcDbMText
 10
0.0
 20
-5.5663982227
 30
0.0
 40
1.5
 41
0.0
 71
     1
 72
     1
  1
TOLERANCES:
  7
SLDTEXTSTYLE2
 73
     1
 44
1.0
  0
MTEXT
  5
88
330
81
100
AcDbEntity
  8
0
  6
Continuous
 62
     0
370
     0
100
AcDbMText
 10
1.6875
 20
-8.0663981668
 30
0.0
 40
1.5
 41
0.0
 71
     1
 72
     1
  1
LINEAR:
  7
SLDTEXTSTYLE2
 73
     1
 44
1.0
  0
MTEXT
  5
89
330
81
100
AcDbEntity
  8
0
  6
Continuous
 62
     0
370
     0
100
AcDbMText
 10
1.6875
 20
-10.5663981109
 30
0.0
 40
1.5
 41
0.0
 71
     1
 72
     1
  1
ANGULAR:
  7
SLDTEXTSTYLE2
 73
     1
 44
1.0
  0
ENDBLK
  5
83
330
81
100
AcDbEntity
  8
0
100
AcDbBlockEnd
  0
BLOCK
  5
B6
330
B5
100
AcDbEntity
  8
0
100
AcDbBlockBegin
  2
_CLOSED
 70
     0
 10
0.0
 20
0.0
 30
0.0
  3
_CLOSED
  1

  0
LINE
  5
B8
330
B5
100
AcDbEntity
  8
0
  6
ByBlock
 62
     0
370
    -2
100
AcDbLine
 10
-1.0
 20
0.166667
 30
0.0
 11
0.0
 21
0.0
 31
0.0
  0
LINE
  5
B9
330
B5
100
AcDbEntity
  8
0
  6
ByBlock
 62
     0
370
    -2
100
AcDbLine
 10
0.0
 20
0.0
 30
0.0
 11
-1.0
 21
-0.166667
 31
0.0
  0
LINE
  5
BA
330
B5
100
AcDbEntity
  8
0
  6
ByBlock
 62
     0
370
    -2
100
AcDbLine
 10
-1.0
 20
0.166667
 30
0.0
 11
-1.0
 21
-0.166667
 31
0.0
  0
LINE
  5
BB
330
B5
100
AcDbEntity
  8
0
  6
ByBlock
 62
     0
370
    -2
100
AcDbLine
 10
0.0
 20
0.0
 30
0.0
 11
-1.0
 21
0.0
 31
0.0
  0
ENDBLK
  5
B7
330
B5
100
AcDbEntity
  8
0
100
AcDbBlockEnd
  0
BLOCK
  5
BD
330
BC
100
AcDbEntity
  8
0
100
AcDbBlockBegin
  2
*D4
 70
     1
 10
0.0
 20
0.0
 30
0.0
  3
*D4
  1

  0
INSERT
  5
BF
330
BC
100
AcDbEntity
  8
0
  6
Continuous
 62
     7
370
     0
100
AcDbBlockReference
  2
_CLOSED
 10
177.9966867128
 20
362.0823694036
 30
-0.4
 41
6.0
 42
6.0
 50
342.5820292078
  0
INSERT
  5
C0
330
BC
100
AcDbEntity
  8
0
  6
Continuous
 62
     7
370
     0
100
AcDbBlockReference
  2
_CLOSED
 10
183.0059557727
 20
360.5108340122
 30
-0.4
 41
6.0
 42
6.0
 50
162.5820292078
  0
LINE
  5
C1
330
BC
100
AcDbEntity
  8
0
  6
Continuous
 62
     7
370
     0
100
AcDbLine
 10
172.8172393863
 20
345.5728810503
 30
0.0
 11
178.2960267874
 21
363.0365158911
 31
0.0
  0
LINE
  5
C2
330
BC
100
AcDbEntity
  8
0
  6
Continuous
 62
     7
370
     0
100
AcDbLine
 10
177.8265084462
 20
344.001345659
 30
0.0
 11
183.3052958472
 21
361.4649804998
 31
0.0
  0
LINE
  5
C3
330
BC
100
AcDbEntity
  8
0
  6
Continuous
 62
     7
370
     0
100
AcDbLine
 10
177.9966867128
 20
362.0823694036
 30
0.0
 11
166.5469288618
 21
365.674450298
 31
0.0
  0
LINE
  5
C4
330
BC
100
AcDbEntity
  8
0
  6
Continuous
 62
     7
370
     0
100
AcDbLine
 10
177.9966867128
 20
362.0823694036
 30
0.0
 11
183.0059557727
 21
360.5108340122
 31
0.0
  0
LINE
  5
C5
330
BC
100
AcDbEntity
  8
0
  6
Continuous
 62
     7
370
     0
100
AcDbLine
 10
183.0059557727
 20
360.5108340122
 30
0.0
 11
190.659591755
 21
358.1096933119
 31
0.0
  0
MTEXT
  5
C6
330
BC
100
AcDbEntity
  8
0
  6
Continuous
 62
     7
370
     0
100
AcDbMText
 10
178.1929014083
 20
366.7493697551
 30
-0.4
 40
3.5
 41
0.0
 71
     1
 72
     1
  1
5.250
  7
SLDTEXTSTYLE2
 11
0.9541464875877269
 21
-0.2993400745373124
 31
0.0
 73
     1
 44
1.0
  0
ENDBLK
  5
BE
330
BC
100
AcDbEntity
  8
0
100
AcDbBlockEnd
  0
BLOCK
  5
C9
330
C8
100
AcDbEntity
  8
0
100
AcDbBlockBegin
  2
*D5
 70
     1
 10
0.0
 20
0.0
 30
0.0
  3
*D5
  1

  0
INSERT
  5
CB
330
C8
100
AcDbEntity
  8
0
  6
Continuous
 62
     7
370
     0
100
AcDbBlockReference
  2
_CLOSED
 10
111.6916169076
 20
347.8758276288
 30
-0.4
 41
6.0
 42
6.0
 50
72.5820292078
  0
INSERT
  5
CC
330
C8
100
AcDbEntity
  8
0
  6
Continuous
 62
     7
370
     0
100
AcDbBlockReference
  2
_CLOSED
 10
116.2116520331
 20
362.2834395913
 30
-0.4
 41
6.0
 42
6.0
 50
252.5820292078
  0
LINE
  5
CD
330
C8
100
AcDbEntity
  8
0
  6
Continuous
 62
     7
370
     0
100
AcDbLine
 10
167.0437176987
 20
330.5104626747
 30
0.0
 11
110.73747042
 21
348.1751677033
 31
0.0
  0
LINE
  5
CE
330
C8
100
AcDbEntity
  8
0
  6
Continuous
 62
     7
370
     0
100
AcDbLine
 10
171.5637528242
 20
344.9180746373
 30
0.0
 11
115.2575055455
 21
362.5827796659
 31
0.0
  0
LINE
  5
CF
330
C8
100
AcDbEntity
  8
0
  6
Continuous
 62
     7
370
     0
100
AcDbLine
 10
111.6916169076
 20
347.8758276288
 30
0.0
 11
108.0995360131
 21
336.4260697777
 31
0.0
  0
LINE
  5
D0
330
C8
100
AcDbEntity
  8
0
  6
Continuous
 62
     7
370
     0
100
AcDbLine
 10
111.6916169076
 20
347.8758276288
 30
0.0
 11
116.2116520331
 21
362.2834395913
 31
0.0
  0
LINE
  5
D1
330
C8
100
AcDbEntity
  8
0
  6
Continuous
 62
     7
370
     0
100
AcDbLine
 10
116.2116520331
 20
362.2834395913
 30
0.0
 11
119.8037329275
 21
373.7331974424
 31
0.0
  0
MTEXT
  5
D2
330
C8
100
AcDbEntity
  8
0
  6
Continuous
 62
     7
370
     0
100
AcDbMText
 10
108.9662036069
 20
354.260851049
 30
-0.4
 40
3.5
 41
0.0
 71
     1
 72
     1
  1
15.100
  7
SLDTEXTSTYLE2
 11
0.2993400745373248
 21
0.954146487587723
 31
0.0
 73
     1
 44
1.0
  0
ENDBLK
  5
CA
330
C8
100
AcDbEntity
  8
0
100
AcDbBlockEnd
  0
BLOCK
  5
D6
330
D5
100
AcDbEntity
  8
0
100
AcDbBlockBegin
  2
*D6
 70
     1
 10
0.0
 20
0.0
 30
0.0
  3
*D6
  1

  0
INSERT
  5
D8
330
D5
100
AcDbEntity
  8
0
  6
Continuous
 62
     7
370
     0
100
AcDbBlockReference
  2
_CLOSED
 10
115.5346598363
 20
346.6701671021
 30
-0.4
 41
6.0
 42
6.0
 50
72.5820292078
  0
INSERT
  5
D9
330
D5
100
AcDbEntity
  8
0
  6
Continuous
 62
     7
370
     0
100
AcDbBlockReference
  2
_CLOSED
 10
52.7031781909
 20
146.3948193574
 30
-0.4
 41
6.0
 42
6.0
 50
252.5820292078
  0
LINE
  5
DA
330
D5
100
AcDbEntity
  8
0
  6
Continuous
 62
     7
370
     0
100
AcDbLine
 10
167.0437176987
 20
330.5104626747
 30
0.0
 11
114.5805133487
 21
346.9695071766
 31
0.0
  0
LINE
  5
DB
330
D5
100
AcDbEntity
  8
0
  6
Continuous
 62
     7
370
     0
100
AcDbLine
 10
104.2122360533
 20
130.23511493
 30
0.0
 11
51.7490317034
 21
146.694159432
 31
0.0
  0
LINE
  5
DC
330
D5
100
AcDbEntity
  8
0
  6
Continuous
 62
     7
370
     0
100
AcDbLine
 10
115.5346598363
 20
346.6701671021
 30
0.0
 11
52.7031781909
 21
146.3948193574
 31
0.0
  0
MTEXT
  5
DD
330
D5
100
AcDbEntity
  8
0
  6
Continuous
 62
     7
370
     0
100
AcDbMText
 10
78.3664802581
 20
243.2688730127
 30
-0.4
 40
3.5
 41
0.0
 71
     1
 72
     1
  1
209.900
  7
SLDTEXTSTYLE2
 11
0.299340074537319
 21
0.9541464875877248
 31
0.0
 73
     1
 44
1.0
  0
ENDBLK
  5
D7
330
D5
100
AcDbEntity
  8
0
100
AcDbBlockEnd
  0
BLOCK
  5
E1
330
E0
100
AcDbEntity
  8
0
100
AcDbBlockBegin
  2
*D7
 70
     1
 10
0.0
 20
0.0
 30
0.0
  3
*D7
  1

  0
INSERT
  5
E3
330
E0
100
AcDbEntity
  8
0
  6
Continuous
 62
     7
370
     0
100
AcDbBlockReference
  2
_CLOSED
 10
224.0867578935
 20
65.2269706887
 30
-0.4
 41
6.0
 42
6.0
 50
0.0
  0
INSERT
  5
E4
330
E0
100
AcDbEntity
  8
0
  6
Continuous
 62
     7
370
     0
100
AcDbBlockReference
  2
_CLOSED
 10
99.0867578935
 20
65.2269706887
 30
-0.4
 41
6.0
 42
6.0
 50
180.0
  0
LINE
  5
E5
330
E0
100
AcDbEntity
  8
0
  6
Continuous
 62
     7
370
     0
100
AcDbLine
 10
224.0867578935
 20
100.7876810322
 30
0.0
 11
224.0867578935
 21
64.2269706887
 31
0.0
  0
LINE
  5
E6
330
E0
100
AcDbEntity
  8
0
  6
Continuous
 62
     7
370
     0
100
AcDbLine
 10
99.0867578935
 20
100.7876810322
 30
0.0
 11
99.0867578935
 21
64.2269706887
 31
0.0
  0
LINE
  5
E7
330
E0
100
AcDbEntity
  8
0
  6
Continuous
 62
     7
370
     0
100
AcDbLine
 10
224.0867578935
 20
65.2269706887
 30
0.0
 11
99.0867578935
 21
65.2269706887
 31
0.0
  0
MTEXT
  5
E8
330
E0
100
AcDbEntity
  8
0
  6
Continuous
 62
     7
370
     0
100
AcDbMText
 10
156.1900543038
 20
69.7387076033
 30
-0.4
 40
3.5
 41
0.0
 71
     1
 72
     1
  1
125
  7
SLDTEXTSTYLE2
 73
     1
 44
1.0
  0
ENDBLK
  5
E2
330
E0
100
AcDbEntity
  8
0
100
AcDbBlockEnd
  0
BLOCK
  5
EB
330
EA
100
AcDbEntity
  8
0
100
AcDbBlockBegin
  2
*D8
 70
     1
 10
0.0
 20
0.0
 30
0.0
  3
*D8
  1

  0
INSERT
  5
ED
330
EA
100
AcDbEntity
  8
0
  6
Continuous
 62
     7
370
     0
100
AcDbBlockReference
  2
_CLOSED
 10
224.0867578935
 20
390.9378584629
 30
-0.4
 41
6.0
 42
6.0
 50
0.0
  0
INSERT
  5
EE
330
EA
100
AcDbEntity
  8
0
  6
Continuous
 62
     7
370
     0
100
AcDbBlockReference
  2
_CLOSED
 10
179.0867578935
 20
390.9378584629
 30
-0.4
 41
6.0
 42
6.0
 50
180.0
  0
LINE
  5
EF
330
EA
100
AcDbEntity
  8
0
  6
Continuous
 62
     7
370
     0
100
AcDbLine
 10
224.0867578935
 20
357.7876810322
 30
0.0
 11
224.0867578935
 21
391.9378584629
 31
0.0
  0
LINE
  5
F0
330
EA
100
AcDbEntity
  8
0
  6
Continuous
 62
     7
370
     0
100
AcDbLine
 10
179.0867578935
 20
357.7876810322
 30
0.0
 11
179.0867578935
 21
391.9378584629
 31
0.0
  0
LINE
  5
F1
330
EA
100
AcDbEntity
  8
0
  6
Continuous
 62
     7
370
     0
100
AcDbLine
 10
224.0867578935
 20
390.9378584629
 30
0.0
 11
179.0867578935
 21
390.9378584629
 31
0.0
  0
MTEXT
  5
F2
330
EA
100
AcDbEntity
  8
0
  6
Continuous
 62
     7
370
     0
100
AcDbMText
 10
197.2465307512
 20
395.4495953775
 30
-0.4
 40
3.5
 41
0.0
 71
     1
 72
     1
  1
45
  7
SLDTEXTSTYLE2
 73
     1
 44
1.0
  0
ENDBLK
  5
EC
330
EA
100
AcDbEntity
  8
0
100
AcDbBlockEnd
  0
BLOCK
  5
F5
330
F4
100
AcDbEntity
  8
0
100
AcDbBlockBegin
  2
*D9
 70
     1
 10
0.0
 20
0.0
 30
0.0
  3
*D9
  1

  0
INSERT
  5
F7
330
F4
100
AcDbEntity
  8
0
  6
Continuous
 62
     7
370
     0
100
AcDbBlockReference
  2
_CLOSED
 10
297.0461465657
 20
247.5376810322
 30
-2.4
 41
6.0
 42
6.0
 50
270.0
  0
INSERT
  5
F8
330
F4
100
AcDbEntity
  8
0
  6
Continuous
 62
     7
370
     0
100
AcDbBlockReference
  2
_CLOSED
 10
297.0461465657
 20
346.0376810322
 30
-2.4
 41
6.0
 42
6.0
 50
90.0
  0
LINE
  5
F9
330
F4
100
AcDbEntity
  8
0
  6
Continuous
 62
     7
370
     0
100
AcDbLine
 10
225.0867578935
 20
247.5376810322
 30
0.0
 11
298.0461465657
 21
247.5376810322
 31
0.0
  0
LINE
  5
FA
330
F4
100
AcDbEntity
  8
0
  6
Continuous
 62
     7
370
     0
100
AcDbLine
 10
225.0867578935
 20
346.0376810322
 30
0.0
 11
298.0461465657
 21
346.0376810322
 31
0.0
  0
LINE
  5
FB
330
F4
100
AcDbEntity
  8
0
  6
Continuous
 62
     7
370
     0
100
AcDbLine
 10
297.0461465657
 20
247.5376810322
 30
0.0
 11
297.0461465657
 21
346.0376810322
 31
0.0
  0
MTEXT
  5
FC
330
F4
100
AcDbEntity
  8
0
  6
Continuous
 62
     7
370
     0
100
AcDbMText
 10
292.5344094765
 20
304.8162981241
 30
-2.4
 40
3.5
 41
0.0
 71
     1
 72
     1
  1
%%c
  7
SLDTEXTSTYLE2
 11
6.123233995736766E-17
 21
1.0
 31
0.0
 73
     1
 44
1.0
  0
MTEXT
  5
FD
330
F4
100
AcDbEntity
  8
0
  6
Continuous
 62
     7
370
     0
100
AcDbMText
 10
292.4809372999
 20
310.0947355225
 30
-2.4
 40
3.5
 41
0.0
 71
     1
 72
     1
  1
98.500
  7
SLDTEXTSTYLE2
 11
6.123233995736766E-17
 21
1.0
 31
0.0
 73
     1
 44
1.0
  0
ENDBLK
  5
F6
330
F4
100
AcDbEntity
  8
0
100
AcDbBlockEnd
  0
BLOCK
  5
100
330
FF
100
AcDbEntity
  8
0
100
AcDbBlockBegin
  2
*D10
 70
     1
 10
0.0
 20
0.0
 30
0.0
  3
*D10
  1

  0
INSERT
  5
102
330
FF
100
AcDbEntity
  8
0
  6
Continuous
 62
     7
370
     0
100
AcDbBlockReference
  2
_CLOSED
 10
35.7459913828
 20
161.7876810322
 30
-2.4
 41
6.0
 42
6.0
 50
90.0
  0
INSERT
  5
103
330
FF
100
AcDbEntity
  8
0
  6
Continuous
 62
     7
370
     0
100
AcDbBlockReference
  2
_CLOSED
 10
35.7459913828
 20
101.7876810322
 30
-2.4
 41
6.0
 42
6.0
 50
270.0
  0
LINE
  5
104
330
FF
100
AcDbEntity
  8
0
  6
Continuous
 62
     7
370
     0
100
AcDbLine
 10
153.0867578935
 20
161.7876810322
 30
0.0
 11
34.7459913828
 21
161.7876810322
 31
0.0
  0
LINE
  5
105
330
FF
100
AcDbEntity
  8
0
  6
Continuous
 62
     7
370
     0
100
AcDbLine
 10
88.9678663873
 20
101.7876810322
 30
0.0
 11
34.7459913828
 21
101.7876810322
 31
0.0
  0
LINE
  5
106
330
FF
100
AcDbEntity
  8
0
  6
Continuous
 62
     7
370
     0
100
AcDbLine
 10
35.7459913828
 20
161.7876810322
 30
0.0
 11
35.7459913828
 21
226.3866315132
 31
0.0
  0
LINE
  5
107
330
FF
100
AcDbEntity
  8
0
  6
Continuous
 62
     7
370
     0
100
AcDbLine
 10
35.7459913828
 20
161.7876810322
 30
0.0
 11
35.7459913828
 21
101.7876810322
 31
0.0
  0
MTEXT
  5
108
330
FF
100
AcDbEntity
  8
0
  6
Continuous
 62
     7
370
     0
100
AcDbMText
 10
31.2342544683
 20
218.3706589511
 30
-2.4
 40
3.5
 41
0.0
 71
     1
 72
     1
  1
60
  7
SLDTEXTSTYLE2
 11
-7.044195017643634E-15
 21
1.0
 31
0.0
 73
     1
 44
1.0
  0
ENDBLK
  5
101
330
FF
100
AcDbEntity
  8
0
100
AcDbBlockEnd
  0
BLOCK
  5
10B
330
10A
100
AcDbEntity
  8
0
100
AcDbBlockBegin
  2
*D11
 70
     1
 10
0.0
 20
0.0
 30
0.0
  3
*D11
  1

  0
INSERT
  5
10D
330
10A
100
AcDbEntity
  8
0
  6
Continuous
 62
     7
370
     0
100
AcDbBlockReference
  2
_CLOSED
 10
333.3676596619
 20
296.7876810322
 30
-2.4
 41
6.0
 42
6.0
 50
270.0
  0
INSERT
  5
10E
330
10A
100
AcDbEntity
  8
0
  6
Continuous
 62
     7
370
     0
100
AcDbBlockReference
  2
_CLOSED
 10
333.3676596619
 20
356.7876810322
 30
-2.4
 41
6.0
 42
6.0
 50
90.0
  0
LINE
  5
10F
330
10A
100
AcDbEntity
  8
0
  6
Continuous
 62
     7
370
     0
100
AcDbLine
 10
225.0867578935
 20
296.7876810322
 30
0.0
 11
334.3676596619
 21
296.7876810322
 31
0.0
  0
LINE
  5
110
330
10A
100
AcDbEntity
  8
0
  6
Continuous
 62
     7
370
     0
100
AcDbLine
 10
280.83585859
 20
356.7876810322
 30
0.0
 11
334.3676596619
 21
356.7876810322
 31
0.0
  0
LINE
  5
111
330
10A
100
AcDbEntity
  8
0
  6
Continuous
 62
     7
370
     0
100
AcDbLine
 10
333.3676596619
 20
296.7876810322
 30
0.0
 11
333.3676596619
 21
356.7876810322
 31
0.0
  0
LINE
  5
112
330
10A
100
AcDbEntity
  8
0
  6
Continuous
 62
     7
370
     0
100
AcDbLine
 10
333.3676596619
 20
356.7876810322
 30
0.0
 11
333.3676596619
 21
394.7956673132
 31
0.0
  0
MTEXT
  5
113
330
10A
100
AcDbEntity
  8
0
  6
Continuous
 62
     7
370
     0
100
AcDbMText
 10
328.8559227473
 20
386.7796947511
 30
-2.4
 40
3.5
 41
0.0
 71
     1
 72
     1
  1
60
  7
SLDTEXTSTYLE2
 11
6.123233995736766E-17
 21
1.0
 31
0.0
 73
     1
 44
1.0
  0
ENDBLK
  5
10C
330
10A
100
AcDbEntity
  8
0
100
AcDbBlockEnd
  0
BLOCK
  5
116
330
115
100
AcDbEntity
  8
0
100
AcDbBlockBegin
  2
*D12
 70
     1
 10
0.0
 20
0.0
 30
0.0
  3
*D12
  1

  0
INSERT
  5
118
330
115
100
AcDbEntity
  8
0
  6
Continuous
 62
     7
370
     0
100
AcDbBlockReference
  2
_CLOSED
 10
154.0867578935
 20
83.0095560366
 30
-2.4
 41
6.0
 42
6.0
 50
180.0
  0
INSERT
  5
119
330
115
100
AcDbEntity
  8
0
  6
Continuous
 62
     7
370
     0
100
AcDbBlockReference
  2
_CLOSED
 10
294.0867578935
 20
83.0095560366
 30
-2.4
 41
6.0
 42
6.0
 50
0.0
  0
LINE
  5
11A
330
115
100
AcDbEntity
  8
0
  6
Continuous
 62
     7
370
     0
100
AcDbLine
 10
154.0867578935
 20
160.7876810322
 30
0.0
 11
154.0867578935
 21
82.0095560366
 31
0.0
  0
LINE
  5
11B
330
115
100
AcDbEntity
  8
0
  6
Continuous
 62
     7
370
     0
100
AcDbLine
 10
294.0867578935
 20
160.7876810322
 30
0.0
 11
294.0867578935
 21
82.0095560366
 31
0.0
  0
LINE
  5
11C
330
115
100
AcDbEntity
  8
0
  6
Continuous
 62
     7
370
     0
100
AcDbLine
 10
154.0867578935
 20
83.0095560366
 30
0.0
 11
294.0867578935
 21
83.0095560366
 31
0.0
  0
MTEXT
  5
11D
330
115
100
AcDbEntity
  8
0
  6
Continuous
 62
     7
370
     0
100
AcDbMText
 10
194.4670166616
 20
87.5212929512
 30
-2.4
 40
3.5
 41
0.0
 71
     1
 72
     1
  1
140
  7
SLDTEXTSTYLE2
 73
     1
 44
1.0
  0
ENDBLK
  5
117
330
115
100
AcDbEntity
  8
0
100
AcDbBlockEnd
  0
BLOCK
  5
120
330
11F
100
AcDbEntity
  8
0
100
AcDbBlockBegin
  2
*D13
 70
     1
 10
0.0
 20
0.0
 30
0.0
  3
*D13
  1

  0
INSERT
  5
122
330
11F
100
AcDbEntity
  8
0
  6
Continuous
 62
     7
370
     0
100
AcDbBlockReference
  2
_CLOSED
 10
358.1589340202
 20
296.7876810322
 30
-2.4
 41
6.0
 42
6.0
 50
90.0
  0
INSERT
  5
123
330
11F
100
AcDbEntity
  8
0
  6
Continuous
 62
     7
370
     0
100
AcDbBlockReference
  2
_CLOSED
 10
358.1589340202
 20
161.7876810322
 30
-2.4
 41
6.0
 42
6.0
 50
270.0
  0
LINE
  5
124
330
11F
100
AcDbEntity
  8
0
  6
Continuous
 62
     7
370
     0
100
AcDbLine
 10
225.0867578935
 20
296.7876810322
 30
0.0
 11
359.1589340202
 21
296.7876810322
 31
0.0
  0
LINE
  5
125
330
11F
100
AcDbEntity
  8
0
  6
Continuous
 62
     7
370
     0
100
AcDbLine
 10
155.0867578935
 20
161.7876810322
 30
0.0
 11
359.1589340202
 21
161.7876810322
 31
0.0
  0
LINE
  5
126
330
11F
100
AcDbEntity
  8
0
  6
Continuous
 62
     7
370
     0
100
AcDbLine
 10
358.1589340202
 20
296.7876810322
 30
0.0
 11
358.1589340202
 21
161.7876810322
 31
0.0
  0
MTEXT
  5
127
330
11F
100
AcDbEntity
  8
0
  6
Continuous
 62
     7
370
     0
100
AcDbMText
 10
353.6471971056
 20
217.0776037036
 30
-2.4
 40
3.5
 41
0.0
 71
     1
 72
     1
  1
135
  7
SLDTEXTSTYLE2
 11
-7.044195017643634E-15
 21
1.0
 31
0.0
 73
     1
 44
1.0
  0
ENDBLK
  5
121
330
11F
100
AcDbEntity
  8
0
100
AcDbBlockEnd
  0
BLOCK
  5
12A
330
129
100
AcDbEntity
  8
0
100
AcDbBlockBegin
  2
*D14
 70
     1
 10
0.0
 20
0.0
 30
0.0
  3
*D14
  1

  0
INSERT
  5
12C
330
129
100
AcDbEntity
  8
0
  6
Continuous
 62
     7
370
     0
100
AcDbBlockReference
  2
_CLOSED
 10
47.7459913828
 20
229.2876810322
 30
-2.4
 41
6.0
 42
6.0
 50
90.0
  0
INSERT
  5
12D
330
129
100
AcDbEntity
  8
0
  6
Continuous
 62
     7
370
     0
100
AcDbBlockReference
  2
_CLOSED
 10
47.7459913828
 20
101.7876810322
 30
-2.4
 41
6.0
 42
6.0
 50
270.0
  0
LINE
  5
12E
330
129
100
AcDbEntity
  8
0
  6
Continuous
 62
     7
370
     0
100
AcDbLine
 10
142.3015907171
 20
229.2876810322
 30
0.0
 11
46.7459913828
 21
229.2876810322
 31
0.0
  0
LINE
  5
12F
330
129
100
AcDbEntity
  8
0
  6
Continuous
 62
     7
370
     0
100
AcDbLine
 10
88.9678663873
 20
101.7876810322
 30
0.0
 11
46.7459913828
 21
101.7876810322
 31
0.0
  0
LINE
  5
130
330
129
100
AcDbEntity
  8
0
  6
Continuous
 62
     7
370
     0
100
AcDbLine
 10
47.7459913828
 20
229.2876810322
 30
0.0
 11
47.7459913828
 21
307.3550923352
 31
0.0
  0
LINE
  5
131
330
129
100
AcDbEntity
  8
0
  6
Continuous
 62
     7
370
     0
100
AcDbLine
 10
47.7459913828
 20
229.2876810322
 30
0.0
 11
47.7459913828
 21
101.7876810322
 31
0.0
  0
MTEXT
  5
132
330
129
100
AcDbEntity
  8
0
  6
Continuous
 62
     7
370
     0
100
AcDbMText
 10
43.2342544683
 20
287.7016192858
 30
-2.4
 40
3.5
 41
0.0
 71
     1
 72
     1
  1
127.500
  7
SLDTEXTSTYLE2
 11
-7.044195017643634E-15
 21
1.0
 31
0.0
 73
     1
 44
1.0
  0
ENDBLK
  5
12B
330
129
100
AcDbEntity
  8
0
100
AcDbBlockEnd
  0
BLOCK
  5
135
330
134
100
AcDbEntity
  8
0
100
AcDbBlockBegin
  2
*D15
 70
     1
 10
0.0
 20
0.0
 30
0.0
  3
*D15
  1

  0
INSERT
  5
137
330
134
100
AcDbEntity
  8
0
  6
Continuous
 62
     7
370
     0
100
AcDbBlockReference
  2
_CLOSED
 10
84.0867578935
 20
53.8398009086
 30
-2.4
 41
6.0
 42
6.0
 50
180.0
  0
INSERT
  5
138
330
134
100
AcDbEntity
  8
0
  6
Continuous
 62
     7
370
     0
100
AcDbBlockReference
  2
_CLOSED
 10
364.0867578935
 20
53.8398009086
 30
-2.4
 41
6.0
 42
6.0
 50
0.0
  0
LINE
  5
139
330
134
100
AcDbEntity
  8
0
  6
Continuous
 62
     7
370
     0
100
AcDbLine
 10
84.0867578935
 20
100.7876810322
 30
0.0
 11
84.0867578935
 21
52.8398009086
 31
0.0
  0
LINE
  5
13A
330
134
100
AcDbEntity
  8
0
  6
Continuous
 62
     7
370
     0
100
AcDbLine
 10
364.0867578935
 20
100.7876810322
 30
0.0
 11
364.0867578935
 21
52.8398009086
 31
0.0
  0
LINE
  5
13B
330
134
100
AcDbEntity
  8
0
  6
Continuous
 62
     7
370
     0
100
AcDbLine
 10
84.0867578935
 20
53.8398009086
 30
0.0
 11
364.0867578935
 21
53.8398009086
 31
0.0
  0
MTEXT
  5
13C
330
134
100
AcDbEntity
  8
0
  6
Continuous
 62
     7
370
     0
100
AcDbMText
 10
225.0183028197
 20
58.3515378232
 30
-2.4
 40
3.5
 41
0.0
 71
     1
 72
     1
  1
280
  7
SLDTEXTSTYLE2
 73
     1
 44
1.0
  0
ENDBLK
  5
136
330
134
100
AcDbEntity
  8
0
100
AcDbBlockEnd
  0
BLOCK
  5
13F
330
13E
100
AcDbEntity
  8
0
100
AcDbBlockBegin
  2
*D16
 70
     1
 10
0.0
 20
0.0
 30
0.0
  3
*D16
  1

  0
INSERT
  5
141
330
13E
100
AcDbEntity
  8
0
  6
Continuous
 62
     7
370
     0
100
AcDbBlockReference
  2
_CLOSED
 10
164.0867578935
 20
383.5574744249
 30
-2.4
 41
6.0
 42
6.0
 50
180.0
  0
INSERT
  5
142
330
13E
100
AcDbEntity
  8
0
  6
Continuous
 62
     7
370
     0
100
AcDbBlockReference
  2
_CLOSED
 10
284.0867578935
 20
383.5574744249
 30
-2.4
 41
6.0
 42
6.0
 50
0.0
  0
LINE
  5
143
330
13E
100
AcDbEntity
  8
0
  6
Continuous
 62
     7
370
     0
100
AcDbLine
 10
164.0867578935
 20
357.7876810322
 30
0.0
 11
164.0867578935
 21
384.5574744249
 31
0.0
  0
LINE
  5
144
330
13E
100
AcDbEntity
  8
0
  6
Continuous
 62
     7
370
     0
100
AcDbLine
 10
284.0867578935
 20
357.7876810322
 30
0.0
 11
284.0867578935
 21
384.5574744249
 31
0.0
  0
LINE
  5
145
330
13E
100
AcDbEntity
  8
0
  6
Continuous
 62
     7
370
     0
100
AcDbLine
 10
164.0867578935
 20
383.5574744249
 30
0.0
 11
284.0867578935
 21
383.5574744249
 31
0.0
  0
MTEXT
  5
146
330
13E
100
AcDbEntity
  8
0
  6
Continuous
 62
     7
370
     0
100
AcDbMText
 10
194.4670166616
 20
388.0692113395
 30
-2.4
 40
3.5
 41
0.0
 71
     1
 72
     1
  1
120
  7
SLDTEXTSTYLE2
 73
     1
 44
1.0
  0
ENDBLK
  5
140
330
13E
100
AcDbEntity
  8
0
100
AcDbBlockEnd
  0
BLOCK
  5
149
330
148
100
AcDbEntity
  8
0
100
AcDbBlockBegin
  2
*D17
 70
     1
 10
0.0
 20
0.0
 30
0.0
  3
*D17
  1

  0
INSERT
  5
14B
330
148
100
AcDbEntity
  8
0
  6
Continuous
 62
     7
370
     0
100
AcDbBlockReference
  2
_CLOSED
 10
137.5903929639
 20
264.3212079382
 30
-2.4
 41
6.0
 42
6.0
 50
9.2589624483
  0
INSERT
  5
14C
330
148
100
AcDbEntity
  8
0
  6
Continuous
 62
     7
370
     0
100
AcDbBlockReference
  2
_CLOSED
 10
98.1115445458
 20
257.8853297868
 30
-2.4
 41
6.0
 42
6.0
 50
189.2589624483
  0
LINE
  5
14D
330
148
100
AcDbEntity
  8
0
  6
Continuous
 62
     7
370
     0
100
AcDbLine
 10
143.1406937633
 20
230.2746522426
 30
0.0
 11
137.4294960102
 21
265.3081791486
 31
0.0
  0
LINE
  5
14E
330
148
100
AcDbEntity
  8
0
  6
Continuous
 62
     7
370
     0
100
AcDbLine
 10
103.6618453452
 20
223.8387740912
 30
0.0
 11
97.950647592
 21
258.8723009972
 31
0.0
  0
LINE
  5
14F
330
148
100
AcDbEntity
  8
0
  6
Continuous
 62
     7
370
     0
100
AcDbLine
 10
137.5903929639
 20
264.3212079382
 30
0.0
 11
98.1115445458
 21
257.8853297868
 31
0.0
  0
MTEXT
  5
150
330
148
100
AcDbEntity
  8
0
  6
Continuous
 62
     7
370
     0
100
AcDbMText
 10
109.4824233983
 20
264.3103162673
 30
-2.4
 40
3.5
 41
0.0
 71
     1
 72
     1
  1
40
  7
SLDTEXTSTYLE2
 11
0.9869712104527975
 21
0.1608969537851475
 31
0.0
 73
     1
 44
1.0
  0
ENDBLK
  5
14A
330
148
100
AcDbEntity
  8
0
100
AcDbBlockEnd
  0
BLOCK
  5
154
330
153
100
AcDbEntity
  8
0
100
AcDbBlockBegin
  2
*D18
 70
     1
 10
0.0
 20
0.0
 30
0.0
  3
*D18
  1

  0
ARC
  5
156
330
153
100
AcDbEntity
  8
0
  6
Continuous
 62
     7
370
     0
100
AcDbCircle
 10
108.1786432254
 20
218.4959019543
 30
0.0
 40
4.999999999999995
100
AcDbArc
 50
182.0509700257
 51
210.0079457864
  0
INSERT
  5
157
330
153
100
AcDbEntity
  8
0
  6
Continuous
 62
     7
370
     0
100
AcDbBlockReference
  2
_CLOSED
 10
103.4425362544
 20
216.8930012214
 30
-2.4
 41
6.0
 42
6.0
 50
18.6980133124
  0
LINE
  5
158
330
153
100
AcDbEntity
  8
0
  6
Continuous
 62
     7
370
     0
100
AcDbLine
 10
103.4425362544
 20
216.8930012214
 30
0.0
 11
65.4312779015
 21
204.0283690985
 31
0.0
  0
LINE
  5
159
330
153
100
AcDbEntity
  8
0
  6
Continuous
 62
     7
370
     0
100
AcDbLine
 10
103.4425362544
 20
216.8930012214
 30
0.0
 11
108.1786432254
 21
218.4959019543
 31
0.0
  0
MTEXT
  5
15A
330
153
100
AcDbEntity
  8
0
  6
Continuous
 62
     7
370
     0
100
AcDbMText
 10
63.9869331691
 20
208.2959890545
 30
-2.4
 40
3.5
 41
0.0
 71
     1
 72
     1
  1
R5
  7
SLDTEXTSTYLE2
 11
0.9472213941883537
 21
0.3205801465965593
 31
0.0
 73
     1
 44
1.0
  0
ENDBLK
  5
155
330
153
100
AcDbEntity
  8
0
100
AcDbBlockEnd
  0
BLOCK
  5
15D
330
15C
100
AcDbEntity
  8
0
100
AcDbBlockBegin
  2
*D19
 70
     1
 10
0.0
 20
0.0
 30
0.0
  3
*D19
  1

  0
INSERT
  5
15F
330
15C
100
AcDbEntity
  8
0
  6
Continuous
 62
     7
370
     0
100
AcDbBlockReference
  2
_CLOSED
 10
373.2056493997
 20
101.7876810322
 30
-2.4
 41
6.0
 42
6.0
 50
270.0
  0
INSERT
  5
160
330
15C
100
AcDbEntity
  8
0
  6
Continuous
 62
     7
370
     0
100
AcDbBlockReference
  2
_CLOSED
 10
373.2056493997
 20
356.7876810322
 30
-2.4
 41
6.0
 42
6.0
 50
90.0
  0
LINE
  5
161
330
15C
100
AcDbEntity
  8
0
  6
Continuous
 62
     7
370
     0
100
AcDbLine
 10
359.2056493997
 20
101.7876810322
 30
0.0
 11
374.2056493997
 21
101.7876810322
 31
0.0
  0
LINE
  5
162
330
15C
100
AcDbEntity
  8
0
  6
Continuous
 62
     7
370
     0
100
AcDbLine
 10
280.83585859
 20
356.7876810322
 30
0.0
 11
374.2056493997
 21
356.7876810322
 31
0.0
  0
LINE
  5
163
330
15C
100
AcDbEntity
  8
0
  6
Continuous
 62
     7
370
     0
100
AcDbLine
 10
373.2056493997
 20
101.7876810322
 30
0.0
 11
373.2056493997
 21
356.7876810322
 31
0.0
  0
MTEXT
  5
164
330
15C
100
AcDbEntity
  8
0
  6
Continuous
 62
     7
370
     0
100
AcDbMText
 10
368.6939124851
 20
217.0776037036
 30
-2.4
 40
3.5
 41
0.0
 71
     1
 72
     1
  1
255
  7
SLDTEXTSTYLE2
 11
6.123233995736766E-17
 21
1.0
 31
0.0
 73
     1
 44
1.0
  0
ENDBLK
  5
15E
330
15C
100
AcDbEntity
  8
0
100
AcDbBlockEnd
  0
BLOCK
  5
1E4
330
1E3
100
AcDbEntity
  8
0
100
AcDbBlockBegin
  2
*D20
 70
     1
 10
0.0
 20
0.0
 30
0.0
  3
*D20
  1

  0
INSERT
  5
1E6
330
1E3
100
AcDbEntity
  8
0
  6
Continuous
 62
     7
370
     0
100
AcDbBlockReference
  2
_CLOSED
 10
379.2056493997
 20
42.3408067364
 30
-127.4
 41
6.0
 42
6.0
 50
270.0
  0
INSERT
  5
1E7
330
1E3
100
AcDbEntity
  8
0
  6
Continuous
 62
     7
370
     0
100
AcDbBlockReference
  2
_CLOSED
 10
379.2056493997
 20
40.3408067364
 30
-127.4
 41
6.0
 42
6.0
 50
90.0
  0
LINE
  5
1E8
330
1E3
100
AcDbEntity
  8
0
  6
Continuous
 62
     7
370
     0
100
AcDbLine
 10
364.140505452
 20
42.3408067364
 30
0.0
 11
380.2056493997
 21
42.3408067364
 31
0.0
  0
LINE
  5
1E9
330
1E3
100
AcDbEntity
  8
0
  6
Continuous
 62
     7
370
     0
100
AcDbLine
 10
364.140505452
 20
40.3408067364
 30
0.0
 11
380.2056493997
 21
40.3408067364
 31
0.0
  0
LINE
  5
1EA
330
1E3
100
AcDbEntity
  8
0
  6
Continuous
 62
     7
370
     0
100
AcDbLine
 10
379.2056493997
 20
42.3408067364
 30
0.0
 11
379.2056493997
 21
55.0557373043
 31
0.0
  0
LINE
  5
1EB
330
1E3
100
AcDbEntity
  8
0
  6
Continuous
 62
     7
370
     0
100
AcDbLine
 10
379.2056493997
 20
42.3408067364
 30
0.0
 11
379.2056493997
 21
40.3408067364
 31
0.0
  0
LINE
  5
1EC
330
1E3
100
AcDbEntity
  8
0
  6
Continuous
 62
     7
370
     0
100
AcDbLine
 10
379.2056493997
 20
40.3408067364
 30
0.0
 11
379.2056493997
 21
28.3408067364
 31
0.0
  0
MTEXT
  5
1ED
330
1E3
100
AcDbEntity
  8
0
  6
Continuous
 62
     7
370
     0
100
AcDbMText
 10
374.6939124851
 20
49.6258761685
 30
-127.4
 40
3.5
 41
0.0
 71
     1
 72
     1
  1
2
  7
SLDTEXTSTYLE2
 11
-7.044195017643634E-15
 21
1.0
 31
0.0
 73
     1
 44
1.0
  0
ENDBLK
  5
1E5
330
1E3
100
AcDbEntity
  8
0
100
AcDbBlockEnd
  0
ENDSEC
  0
SECTION
  2
ENTITIES
  0
LINE
  5
45
330
1F
100
AcDbEntity
  8
0
  6
Continuous
 62
     7
370
    40
100
AcDbLine
 10
25.0788435654
 20
10.2147801566
 30
0.0
 11
25.0788435654
 21
410.2147801566
 31
0.0
  0
LINE
  5
46
330
1F
100
AcDbEntity
  8
0
  6
Continuous
 62
     7
370
    40
100
AcDbLine
 10
0.0788435654
 20
0.2147801566
 30
0.0
 11
594.0788435654
 21
0.2147801566
 31
0.0
  0
LINE
  5
47
330
1F
100
AcDbEntity
  8
0
  6
Continuous
 62
     7
370
    40
100
AcDbLine
 10
0.0788435654
 20
0.2147801566
 30
0.0
 11
0.0788435654
 21
420.2147801566
 31
0.0
  0
LINE
  5
48
330
1F
100
AcDbEntity
  8
0
  6
Continuous
 62
     7
370
    40
100
AcDbLine
 10
0.0788435654
 20
420.2147801566
 30
0.0
 11
594.0788435654
 21
420.2147801566
 31
0.0
  0
LINE
  5
49
330
1F
100
AcDbEntity
  8
0
  6
Continuous
 62
     7
370
    40
100
AcDbLine
 10
594.0788435654
 20
0.2147801566
 30
0.0
 11
594.0788435654
 21
420.2147801566
 31
0.0
  0
LINE
  5
4A
330
1F
100
AcDbEntity
  8
0
  6
Continuous
 62
     7
370
    40
100
AcDbLine
 10
25.0788435654
 20
410.2147801566
 30
0.0
 11
584.0788435654
 21
410.2147801566
 31
0.0
  0
LINE
  5
4B
330
1F
100
AcDbEntity
  8
0
  6
Continuous
 62
     7
370
    40
100
AcDbLine
 10
25.0788435654
 20
10.2147801566
 30
0.0
 11
584.0788435654
 21
10.2147801566
 31
0.0
  0
LINE
  5
4C
330
1F
100
AcDbEntity
  8
0
  6
Continuous
 62
     7
370
    40
100
AcDbLine
 10
584.0788435654
 20
410.2147801566
 30
0.0
 11
584.0788435654
 21
10.2147801566
 31
0.0
  0
LINE
  5
4D
330
1F
100
AcDbEntity
  8
0
  6
Continuous
 62
     7
370
    40
100
AcDbLine
 10
396.8788435654
 20
14.4647801566
 30
0.0
 11
584.0788435654
 21
14.4647801566
 31
0.0
  0
LINE
  5
4E
330
1F
100
AcDbEntity
  8
0
  6
Continuous
 62
     7
370
    40
100
AcDbLine
 10
584.0788435654
 20
48.4647801566
 30
0.0
 11
396.8788435654
 21
48.4647801566
 31
0.0
  0
LINE
  5
4F
330
1F
100
AcDbEntity
  8
0
  6
Continuous
 62
     7
370
    40
100
AcDbLine
 10
396.8788435654
 20
65.4647801566
 30
0.0
 11
584.0788435654
 21
65.4647801566
 31
0.0
  0
LINE
  5
50
330
1F
100
AcDbEntity
  8
0
  6
Continuous
 62
     7
370
    40
100
AcDbLine
 10
423.8697959991
 20
48.4647801566
 30
0.0
 11
423.8697959991
 21
10.2147801566
 31
0.0
  0
LINE
  5
51
330
1F
100
AcDbEntity
  8
0
  6
Continuous
 62
     7
370
    40
100
AcDbLine
 10
495.6788435654
 20
31.4647801566
 30
0.0
 11
396.8788435654
 21
31.4647801566
 31
0.0
  0
LINE
  5
52
330
1F
100
AcDbEntity
  8
0
  6
Continuous
 62
     7
370
    40
100
AcDbLine
 10
495.6788435654
 20
35.7147801566
 30
0.0
 11
396.8788435654
 21
35.7147801566
 31
0.0
  0
LINE
  5
53
330
1F
100
AcDbEntity
  8
0
  6
Continuous
 62
     7
370
    40
100
AcDbLine
 10
495.6788435654
 20
39.9647801566
 30
0.0
 11
396.8788435654
 21
39.9647801566
 31
0.0
  0
LINE
  5
54
330
1F
100
AcDbEntity
  8
0
  6
Continuous
 62
     7
370
    40
100
AcDbLine
 10
495.6788435654
 20
44.2147801566
 30
0.0
 11
396.8788435654
 21
44.2147801566
 31
0.0
  0
LINE
  5
55
330
1F
100
AcDbEntity
  8
0
  6
Continuous
 62
     7
370
    40
100
AcDbLine
 10
451.4788435654
 20
10.2147801566
 30
0.0
 11
451.4788435654
 21
48.4647801566
 31
0.0
  0
LINE
  5
56
330
1F
100
AcDbEntity
  8
0
  6
Continuous
 62
     7
370
    40
100
AcDbLine
 10
396.8788435654
 20
65.4647801566
 30
0.0
 11
396.8788435654
 21
10.2147801566
 31
0.0
  0
LINE
  5
57
330
1F
100
AcDbEntity
  8
0
  6
Continuous
 62
     7
370
    40
100
AcDbLine
 10
404.6788435654
 20
48.4647801566
 30
0.0
 11
404.6788435654
 21
10.2147801566
 31
0.0
  0
LINE
  5
58
330
1F
100
AcDbEntity
  8
0
  6
Continuous
 62
     7
370
    40
100
AcDbLine
 10
430.6788435654
 20
48.4647801566
 30
0.0
 11
430.6788435654
 21
65.4647801566
 31
0.0
  0
LINE
  5
59
330
1F
100
AcDbEntity
  8
0
  6
Continuous
 62
     7
370
    40
100
AcDbLine
 10
441.2777697289
 20
48.4647801566
 30
0.0
 11
441.2777697289
 21
10.2147801566
 31
0.0
  0
LINE
  5
5A
330
1F
100
AcDbEntity
  8
0
  6
Continuous
 62
     7
370
    40
100
AcDbLine
 10
461.8788435654
 20
31.4647801566
 30
0.0
 11
461.8788435654
 21
48.4647801566
 31
0.0
  0
LINE
  5
5B
330
1F
100
AcDbEntity
  8
0
  6
Continuous
 62
     7
370
    40
100
AcDbLine
 10
451.4788435654
 20
18.7147801566
 30
0.0
 11
396.8788435654
 21
18.7147801566
 31
0.0
  0
LINE
  5
5C
330
1F
100
AcDbEntity
  8
0
  6
Continuous
 62
     7
370
    40
100
AcDbLine
 10
477.4788435654
 20
65.4647801566
 30
0.0
 11
477.4788435654
 21
27.2147801566
 31
0.0
  0
LINE
  5
5D
330
1F
100
AcDbEntity
  8
0
  6
Continuous
 62
     7
370
    40
100
AcDbLine
 10
451.4788435654
 20
22.9647081566
 30
0.0
 11
396.8788435654
 21
22.9647081566
 31
0.0
  0
LINE
  5
5E
330
1F
100
AcDbEntity
  8
0
  6
Continuous
 62
     7
370
    40
100
AcDbLine
 10
451.4788435654
 20
27.2147801566
 30
0.0
 11
396.8788435654
 21
27.2147801566
 31
0.0
  0
LINE
  5
5F
330
1F
100
AcDbEntity
  8
0
  6
Continuous
 62
     7
370
    40
100
AcDbLine
 10
451.4788435654
 20
27.2147801566
 30
0.0
 11
584.0788435654
 21
27.2147801566
 31
0.0
  0
LINE
  5
60
330
1F
100
AcDbEntity
  8
0
  6
Continuous
 62
     7
370
    40
100
AcDbLine
 10
495.6788435654
 20
65.4647801566
 30
0.0
 11
495.6788435654
 21
10.2147801566
 31
0.0
  0
LINE
  5
61
330
1F
100
AcDbEntity
  8
0
  6
Continuous
 62
     7
370
    40
100
AcDbLine
 10
539.8788435654
 20
10.2147801566
 30
0.0
 11
539.8788435654
 21
14.4647801566
 31
0.0
  0
LINE
  5
62
330
1F
100
AcDbEntity
  8
0
  6
Continuous
 62
     7
370
    40
100
AcDbLine
 10
547.6788435654
 20
59.0897801566
 30
0.0
 11
547.6788435654
 21
65.4647801566
 31
0.0
  0
LINE
  5
63
330
1F
100
AcDbEntity
  8
0
  6
Continuous
 62
     7
370
    40
100
AcDbLine
 10
571.0788435654
 20
14.4647801566
 30
0.0
 11
571.0788435654
 21
27.2147801566
 31
0.0
  0
LINE
  5
64
330
1F
100
AcDbEntity
  8
0
  6
Continuous
 62
     7
370
    40
100
AcDbLine
 10
584.0788435654
 20
59.0897801566
 30
0.0
 11
495.6788435654
 21
59.0897801566
 31
0.0
  0
LINE
  5
65
330
1F
100
AcDbEntity
  8
0
  6
Continuous
 62
     7
370
    40
100
AcDbLine
 10
584.0788435654
 20
18.7147801566
 30
0.0
 11
571.0788435654
 21
18.7147801566
 31
0.0
  0
MTEXT
  5
67
330
1F
100
AcDbEntity
  8
0
  6
Continuous
 62
     7
370
     0
100
AcDbMText
 10
51.3618940774
 20
56.7312006956
 30
0.0
 40
5.0
 41
0.0
 71
     1
 72
     1
  1
\M+18DB6\M+18945\M+18FCC
  7
SLDTEXTSTYLE0
 73
     1
 44
1.0
  0
MTEXT
  5
69
330
1F
100
AcDbEntity
  8
0
  6
Continuous
 62
     7
370
     0
100
AcDbMText
 10
539.9884050811
 20
41.2496795977
 30
0.0
 40
6.35
 41
0.0
 71
     2
 72
     1
  1
\M+196CA\M+194C2 / Top Plate
  7
SLDTEXTSTYLE1
 73
     1
 44
1.0
  0
MTEXT
  5
6B
330
1F
100
AcDbEntity
  8
0
  6
Continuous
 62
     7
370
     0
100
AcDbMText
 10
536.7803537177
 20
24.8465185664
 30
0.0
 40
6.35
 41
0.0
 71
     2
 72
     1
  1
Popn Asc
  7
SLDTEXTSTYLE2
 73
     1
 44
1.0
  0
MTEXT
  5
6C
330
1F
100
AcDbEntity
  8
0
  6
Continuous
 62
     7
370
     0
100
AcDbMText
 10
452.4966546935
 20
13.1640920602
 30
0.0
 40
1.4986
 41
0.0
 71
     1
 72
     1
  1
WEIGHT:
  7
SLDTEXTSTYLE2
 73
     1
 44
1.0
  0
MTEXT
  5
6D
330
1F
100
AcDbEntity
  8
0
  6
Continuous
 62
     7
370
     0
100
AcDbMText
 10
574.9998284117
 20
24.5152246096
 30
0.0
 40
2.9104166667
 41
0.0
 71
     1
 72
     1
  1
A2
  7
SLDTEXTSTYLE2
 73
     1
 44
1.0
  0
MTEXT
  5
6F
330
1F
100
AcDbEntity
  8
0
  6
Continuous
 62
     7
370
     0
100
AcDbMText
 10
541.3571379932
 20
13.114867664
 30
0.0
 40
1.5
 41
0.0
 71
     1
 72
     1
  1
SHEET 1 OF 4
  7
SLDTEXTSTYLE3
 73
     1
 44
1.0
  0
MTEXT
  5
70
330
1F
100
AcDbEntity
  8
0
  6
Continuous
 62
     7
370
     0
100
AcDbMText
 10
496.9528096828
 20
13.114867664
 30
0.0
 40
1.5
 41
0.0
 71
     1
 72
     1
  1
SCALE:1:1
  7
SLDTEXTSTYLE2
 73
     1
 44
1.0
  0
MTEXT
  5
71
330
1F
100
AcDbEntity
  8
0
  6
Continuous
 62
     7
370
     0
100
AcDbMText
 10
496.9528096828
 20
25.0834182165
 30
0.0
 40
1.5
 41
0.0
 71
     1
 72
     1
  1
DWG NO.
  7
SLDTEXTSTYLE2
 73
     1
 44
1.0
  0
MTEXT
  5
72
330
1F
100
AcDbEntity
  8
0
  6
Continuous
 62
     7
370
     0
100
AcDbMText
 10
496.835030502
 20
46.4931146755
 30
0.0
 40
1.5
 41
0.0
 71
     1
 72
     1
  1
TITLE:
  7
SLDTEXTSTYLE2
 73
     1
 44
1.0
  0
MTEXT
  5
73
330
1F
100
AcDbEntity
  8
0
  6
Continuous
 62
     7
370
     0
100
AcDbMText
 10
550.2064252647
 20
62.5496890699
 30
0.0
 40
1.5
 41
0.0
 71
     1
 72
     1
  1
REVISION
  7
SLDTEXTSTYLE2
 73
     1
 44
1.0
  0
MTEXT
  5
74
330
1F
100
AcDbEntity
  8
0
  6
Continuous
 62
     7
370
     0
100
AcDbMText
 10
509.4934840882
 20
62.7477739645
 30
0.0
 40
1.5
 41
0.0
 71
     1
 72
     1
  1
DO NOT SCALE DRAWING
  7
SLDTEXTSTYLE2
 73
     1
 44
1.0
  0
MTEXT
  5
75
330
1F
100
AcDbEntity
  8
0
  6
Continuous
 62
     7
370
     0
100
AcDbMText
 10
452.5247058741
 20
26.2008366787
 30
0.0
 40
1.5
 41
0.0
 71
     1
 72
     1
  1
MATERIAL:
  7
SLDTEXTSTYLE2
 73
     1
 44
1.0
  0
MTEXT
  5
76
330
1F
100
AcDbEntity
  8
0
  6
Continuous
 62
     7
370
     0
100
AcDbMText
 10
444.0935455311
 20
46.7909596107
 30
0.0
 40
1.5
 41
0.0
 71
     1
 72
     1
  1
DATE
  7
SLDTEXTSTYLE2
 73
     1
 44
1.0
  0
MTEXT
  5
77
330
1F
100
AcDbEntity
  8
0
  6
Continuous
 62
     7
370
     0
100
AcDbMText
 10
426.9124311285
 20
46.776536769
 30
0.0
 40
1.5
 41
0.0
 71
     1
 72
     1
  1
SIGNATURE
  7
SLDTEXTSTYLE2
 73
     1
 44
1.0
  0
MTEXT
  5
78
330
1F
100
AcDbEntity
  8
0
  6
Continuous
 62
     7
370
     0
100
AcDbMText
 10
411.201082783
 20
46.7162630229
 30
0.0
 40
1.5
 41
0.0
 71
     1
 72
     1
  1
NAME
  7
SLDTEXTSTYLE2
 73
     1
 44
1.0
  0
INSERT
  5
7F
330
1F
100
AcDbEntity
  8
0
  6
Continuous
 62
     7
370
     0
100
AcDbBlockReference
  2
SW_NOTE_0
 10
478.1880592516
 20
62.2842700325
 30
0.0
  0
MTEXT
  5
80
330
1F
100
AcDbEntity
  8
0
  6
Continuous
 62
     7
370
     0
100
AcDbMText
 10
431.2501357322
 20
64.1340523846
 30
0.0
 40
1.5
 41
0.0
 71
     1
 72
     1
  1
FINISH:
  7
SLDTEXTSTYLE2
 73
     1
 44
1.0
  0
INSERT
  5
8A
330
1F
100
AcDbEntity
  8
0
  6
Continuous
 62
     7
370
     0
100
AcDbBlockReference
  2
SW_NOTE_1
 10
397.472512311
 20
62.2021502637
 30
0.0
  0
MTEXT
  5
8B
330
1F
100
AcDbEntity
  8
0
  6
Continuous
 62
     7
370
     0
100
AcDbMText
 10
397.5478864275
 20
25.5644295968
 30
0.0
 40
1.5
 41
0.0
 71
     1
 72
     1
  1
Q.A
  7
SLDTEXTSTYLE2
 73
     1
 44
1.0
  0
MTEXT
  5
8C
330
1F
100
AcDbEntity
  8
0
  6
Continuous
 62
     7
370
     0
100
AcDbMText
 10
397.3340300644
 20
29.9484850401
 30
0.0
 40
1.5
 41
0.0
 71
     1
 72
     1
  1
MFG
  7
SLDTEXTSTYLE2
 73
     1
 44
1.0
  0
MTEXT
  5
8D
330
1F
100
AcDbEntity
  8
0
  6
Continuous
 62
     7
370
     0
100
AcDbMText
 10
397.2805659737
 20
34.2790763926
 30
0.0
 40
1.5
 41
0.0
 71
     1
 72
     1
  1
APPV'D
  7
SLDTEXTSTYLE2
 73
     1
 44
1.0
  0
MTEXT
  5
8E
330
1F
100
AcDbEntity
  8
0
  6
Continuous
 62
     7
370
     0
100
AcDbMText
 10
397.289312433
 20
38.3691875495
 30
0.0
 40
1.5
 41
0.0
 71
     1
 72
     1
  1
CHK'D
  7
SLDTEXTSTYLE2
 73
     1
 44
1.0
  0
MTEXT
  5
8F
330
1F
100
AcDbEntity
  8
0
  6
Continuous
 62
     7
370
     0
100
AcDbMText
 10
397.0909928094
 20
42.6444952754
 30
0.0
 40
1.5
 41
0.0
 71
     1
 72
     1
  1
DRAWN
  7
SLDTEXTSTYLE2
 73
     1
 44
1.0
  0
CIRCLE
  5
90
330
1F
100
AcDbEntity
  8
0
  6
Continuous
 62
     7
370
    15
100
AcDbCircle
 10
294.0867578935
 20
161.7876810322
 30
0.0
 40
49.24999999999997
  0
CIRCLE
  5
91
330
1F
100
AcDbEntity
  8
0
  6
Continuous
 62
     7
370
    15
100
AcDbCircle
 10
224.0867578935
 20
296.7876810322
 30
0.0
 40
49.25000000000003
  0
LINE
  5
92
330
1F
100
AcDbEntity
  8
0
  6
Continuous
 62
     7
370
    15
100
AcDbLine
 10
139.7501745596
 20
228.7087259063
 30
0.0
 11
107.3741584564
 21
223.4307580066
 31
0.0
  0
ARC
  5
93
330
1F
100
AcDbEntity
  8
0
  6
Continuous
 62
     7
370
    15
100
AcDbCircle
 10
138.9456897906
 20
233.6435819586
 30
0.0
 40
4.999999999999998
100
AcDbArc
 50
279.2589624483
 51
350.7410375517
  0
LINE
  5
94
330
1F
100
AcDbEntity
  8
0
  6
Continuous
 62
     7
370
    15
100
AcDbLine
 10
163.4028011447
 20
352.5921658011
 30
0.0
 11
143.8805458429
 21
232.8390971896
 31
0.0
  0
ARC
  5
95
330
1F
100
AcDbEntity
  8
0
  6
Continuous
 62
     7
370
    15
100
AcDbCircle
 10
168.337657197
 20
351.7876810322
 30
0.0
 40
5.000000000000031
100
AcDbArc
 50
90.0
 51
170.7410375517
  0
LINE
  5
96
330
1F
100
AcDbEntity
  8
0
  6
Continuous
 62
     7
370
    15
100
AcDbLine
 10
279.83585859
 20
356.7876810322
 30
0.0
 11
168.337657197
 21
356.7876810322
 31
0.0
  0
ARC
  5
97
330
1F
100
AcDbEntity
  8
0
  6
Continuous
 62
     7
370
    15
100
AcDbCircle
 10
279.83585859
 20
351.7876810322
 30
0.0
 40
5.0
100
AcDbArc
 50
9.2589624483
 51
90.0
  0
LINE
  5
98
330
1F
100
AcDbEntity
  8
0
  6
Continuous
 62
     7
370
    15
100
AcDbLine
 10
304.2929699441
 20
232.8390971896
 30
0.0
 11
284.7707146423
 21
352.5921658011
 31
0.0
  0
ARC
  5
99
330
1F
100
AcDbEntity
  8
0
  6
Continuous
 62
     7
370
    15
100
AcDbCircle
 10
309.2278259964
 20
233.6435819586
 30
0.0
 40
5.000000000000027
100
AcDbArc
 50
189.2589624483
 51
260.7410375517
  0
LINE
  5
9A
330
1F
100
AcDbEntity
  8
0
  6
Continuous
 62
     7
370
    15
100
AcDbLine
 10
340.7993573306
 20
223.4307580066
 30
0.0
 11
308.4233412274
 21
228.7087259063
 31
0.0
  0
ARC
  5
9B
330
1F
100
AcDbEntity
  8
0
  6
Continuous
 62
     7
370
    15
100
AcDbCircle
 10
339.9948725617
 20
218.4959019543
 30
0.0
 40
5.000000000000004
100
AcDbArc
 50
9.2589624483
 51
80.7410375517
  0
LINE
  5
9C
330
1F
100
AcDbEntity
  8
0
  6
Continuous
 62
     7
370
    15
100
AcDbLine
 10
363.140505452
 20
107.5921658011
 30
0.0
 11
344.9297286139
 21
219.3003867233
 31
0.0
  0
ARC
  5
9D
330
1F
100
AcDbEntity
  8
0
  6
Continuous
 62
     7
370
    15
100
AcDbCircle
 10
358.2056493997
 20
106.7876810322
 30
0.0
 40
5.0
100
AcDbArc
 50
270.0
 51
9.2589624483
  0
LINE
  5
9E
330
1F
100
AcDbEntity
  8
0
  6
Continuous
 62
     7
370
    15
100
AcDbLine
 10
89.9678663873
 20
101.7876810322
 30
0.0
 11
358.2056493997
 21
101.7876810322
 31
0.0
  0
ARC
  5
9F
330
1F
100
AcDbEntity
  8
0
  6
Continuous
 62
     7
370
    15
100
AcDbCircle
 10
89.9678663873
 20
106.7876810322
 30
0.0
 40
5.0
100
AcDbArc
 50
170.7410375517
 51
270.0
  0
LINE
  5
A0
330
1F
100
AcDbEntity
  8
0
  6
Continuous
 62
     7
370
    15
100
AcDbLine
 10
103.2437871731
 20
219.3003867233
 30
0.0
 11
85.033010335
 21
107.5921658011
 31
0.0
  0
ARC
  5
A1
330
1F
100
AcDbEntity
  8
0
  6
Continuous
 62
     7
370
    15
100
AcDbCircle
 10
108.1786432254
 20
218.4959019543
 30
0.0
 40
5.000000000000012
100
AcDbArc
 50
99.2589624483
 51
170.7410375517
  0
CIRCLE
  5
A2
330
1F
100
AcDbEntity
  8
0
  6
Continuous
 62
     7
370
    15
100
AcDbCircle
 10
154.0867578935
 20
161.7876810322
 30
0.0
 40
49.24999999999997
  0
LINE
  5
A3
330
1F
100
AcDbEntity
  8
0
  6
Continuous
 62
     7
370
    15
100
AcDbLine
 10
342.5178993118
 20
113.9566275016
 30
0.0
 11
347.5271683716
 21
115.5281628929
 31
0.0
  0
LINE
  5
A4
330
1F
100
AcDbEntity
  8
0
  6
Continuous
 62
     7
370
    15
100
AcDbLine
 10
347.5271683716
 20
115.5281628929
 30
0.0
 11
343.0071332461
 21
129.9357748555
 31
0.0
  0
LINE
  5
A5
330
1F
100
AcDbEntity
  8
0
  6
Continuous
 62
     7
370
    15
100
AcDbLine
 10
343.0071332461
 20
129.9357748555
 30
0.0
 11
337.9978641863
 21
128.3642394642
 31
0.0
  0
LINE
  5
A6
330
1F
100
AcDbEntity
  8
0
  6
Continuous
 62
     7
370
    15
100
AcDbLine
 10
337.9978641863
 20
128.3642394642
 30
0.0
 11
342.5178993118
 21
113.9566275016
 31
0.0
  0
LINE
  5
A7
330
1F
100
AcDbEntity
  8
0
  6
Continuous
 62
     7
370
    15
100
AcDbLine
 10
173.0071332461
 20
328.6395872088
 30
0.0
 11
177.5271683716
 21
343.0471991714
 31
0.0
  0
LINE
  5
A8
330
1F
100
AcDbEntity
  8
0
  6
Continuous
 62
     7
370
    15
100
AcDbLine
 10
177.5271683716
 20
343.0471991714
 30
0.0
 11
172.5178993118
 21
344.6187345627
 31
0.0
  0
LINE
  5
A9
330
1F
100
AcDbEntity
  8
0
  6
Continuous
 62
     7
370
    15
100
AcDbLine
 10
172.5178993118
 20
344.6187345627
 30
0.0
 11
167.9978641863
 21
330.2111226002
 31
0.0
  0
LINE
  5
AA
330
1F
100
AcDbEntity
  8
0
  6
Continuous
 62
     7
370
    15
100
AcDbLine
 10
167.9978641863
 20
330.2111226002
 30
0.0
 11
173.0071332461
 21
328.6395872088
 31
0.0
  0
LINE
  5
AB
330
1F
100
AcDbEntity
  8
0
  6
Continuous
 62
     7
370
    15
100
AcDbLine
 10
105.6556164752
 20
113.9566275016
 30
0.0
 11
110.1756516007
 21
128.3642394642
 31
0.0
  0
LINE
  5
AC
330
1F
100
AcDbEntity
  8
0
  6
Continuous
 62
     7
370
    15
100
AcDbLine
 10
110.1756516007
 20
128.3642394642
 30
0.0
 11
105.1663825409
 21
129.9357748555
 31
0.0
  0
LINE
  5
AD
330
1F
100
AcDbEntity
  8
0
  6
Continuous
 62
     7
370
    15
100
AcDbLine
 10
105.1663825409
 20
129.9357748555
 30
0.0
 11
100.6463474154
 21
115.5281628929
 31
0.0
  0
LINE
  5
AE
330
1F
100
AcDbEntity
  8
0
  6
Continuous
 62
     7
370
    15
100
AcDbLine
 10
100.6463474154
 20
115.5281628929
 30
0.0
 11
105.6556164752
 21
113.9566275016
 31
0.0
  0
LINE
  5
AF
330
1F
100
AcDbEntity
  8
0
  6
Continuous
 62
     7
370
    15
100
AcDbLine
 10
275.6556164752
 20
344.6187345627
 30
0.0
 11
270.6463474154
 21
343.0471991714
 31
0.0
  0
LINE
  5
B0
330
1F
100
AcDbEntity
  8
0
  6
Continuous
 62
     7
370
    15
100
AcDbLine
 10
270.6463474154
 20
343.0471991714
 30
0.0
 11
275.1663825409
 21
328.6395872088
 31
0.0
  0
LINE
  5
B1
330
1F
100
AcDbEntity
  8
0
  6
Continuous
 62
     7
370
    15
100
AcDbLine
 10
275.1663825409
 20
328.6395872088
 30
0.0
 11
280.1756516007
 21
330.2111226002
 31
0.0
  0
LINE
  5
B2
330
1F
100
AcDbEntity
  8
0
  6
Continuous
 62
     7
370
    15
100
AcDbLine
 10
280.1756516007
 20
330.2111226002
 30
0.0
 11
275.6556164752
 21
344.6187345627
 31
0.0
  0
DIMENSION
  5
B3
330
1F
100
AcDbEntity
  8
0
  6
Continuous
 62
     7
370
     0
100
AcDbDimension
  2
*D4
 10
183.8375599159
 20
363.1615722188
 30
0.0
 11
184.5825788928
 21
362.9278407751
 31
0.0
 70
   160
 71
     2
 42
-1.0
  3
SLDDIMSTYLE0
100
AcDbAlignedDimension
 13
172.5178993118
 23
344.6187345627
 33
0.0
 14
177.5271683716
 24
343.0471991714
 34
0.0
 50
-17.4179707922
100
AcDbRotatedDimension
  0
DIMENSION
  5
C7
330
1F
100
AcDbEntity
  8
0
  6
Continuous
 62
     7
370
     0
100
AcDbDimension
  2
*D5
 10
113.5609138265
 20
363.1150437346
 30
0.0
 11
113.1747959805
 21
361.8842931005
 31
0.0
 70
   160
 71
     2
 42
-1.0
  3
SLDDIMSTYLE0
100
AcDbAlignedDimension
 13
167.9978641863
 23
330.2111226002
 33
0.0
 14
172.5178993118
 24
344.6187345627
 34
0.0
 50
72.5820292078
100
AcDbRotatedDimension
  0
DIMENSION
  5
D3
330
1F
100
AcDbEntity
  8
0
  6
Continuous
 62
     7
370
     0
100
AcDbDimension
  2
*D6
 10
50.0524399844
 20
147.2264235007
 30
0.0
 11
82.9621360253
 21
252.1260796311
 31
0.0
 70
   160
 71
     2
 42
-1.0
  3
SLDDIMSTYLE1
100
AcDbAlignedDimension
 13
167.9978641863
 23
330.2111226002
 33
0.0
 14
105.1663825409
 24
129.9357748555
 34
0.0
 50
72.5820292078
100
AcDbRotatedDimension
  0
DIMENSION
  5
DE
330
1F
100
AcDbEntity
  8
0
  6
Continuous
 62
     7
370
     0
100
AcDbDimension
  2
*D7
 10
99.0867578935
 20
68.0050956843
 30
0.0
 11
161.4910958324
 21
68.0050956843
 31
0.0
 70
   160
 71
     2
 42
-1.0
  3
SLDDIMSTYLE2
100
AcDbAlignedDimension
 13
224.0867578935
 23
101.7876810322
 33
0.0
 14
99.0867578935
 24
101.7876810322
 34
0.0
 50
0.0
100
AcDbRotatedDimension
  0
DIMENSION
  5
E9
330
1F
100
AcDbEntity
  8
0
  6
Continuous
 62
     7
370
     0
100
AcDbDimension
  2
*D8
 10
179.0867578935
 20
393.7159834584
 30
0.0
 11
201.2545170323
 21
393.7159834584
 31
0.0
 70
   160
 71
     2
 42
-1.0
  3
SLDDIMSTYLE2
100
AcDbAlignedDimension
 13
224.0867578935
 23
356.7876810322
 33
0.0
 14
179.0867578935
 24
356.7876810322
 34
0.0
100
AcDbRotatedDimension
  0
DIMENSION
  5
F3
330
1F
100
AcDbEntity
  8
0
  6
Continuous
 62
     7
370
     0
100
AcDbDimension
  2
*D9
 10
294.2412853946
 20
346.0376810322
 30
0.0
 11
294.2412853946
 21
315.9891981005
 31
0.0
 70
   160
  1
%%c<>
 71
     2
 42
-1.0
  3
SLDDIMSTYLE1
100
AcDbAlignedDimension
 13
224.0867578935
 23
247.5376810322
 33
0.0
 14
224.0867578935
 24
346.0376810322
 34
0.0
 50
90.0
100
AcDbRotatedDimension
  0
DIMENSION
  5
FE
330
1F
100
AcDbEntity
  8
0
  6
Continuous
 62
     7
370
     0
100
AcDbDimension
  2
*D10
 10
32.9678663873
 20
101.7876810322
 30
0.0
 11
32.9678663873
 21
222.3786452321
 31
0.0
 70
   160
 71
     2
 42
-1.0
  3
SLDDIMSTYLE2
100
AcDbAlignedDimension
 13
154.0867578935
 23
161.7876810322
 33
0.0
 14
89.9678663873
 24
101.7876810322
 34
0.0
 50
90.0
100
AcDbRotatedDimension
  0
DIMENSION
  5
109
330
1F
100
AcDbEntity
  8
0
  6
Continuous
 62
     7
370
     0
100
AcDbDimension
  2
*D11
 10
330.5895346664
 20
356.7876810322
 30
0.0
 11
330.5895346664
 21
390.7876810322
 31
0.0
 70
   160
 71
     2
 42
-1.0
  3
SLDDIMSTYLE2
100
AcDbAlignedDimension
 13
224.0867578935
 23
296.7876810322
 33
0.0
 14
279.83585859
 24
356.7876810322
 34
0.0
 50
90.0
100
AcDbRotatedDimension
  0
DIMENSION
  5
114
330
1F
100
AcDbEntity
  8
0
  6
Continuous
 62
     7
370
     0
100
AcDbDimension
  2
*D12
 10
294.0867578935
 20
85.7876810322
 30
0.0
 11
199.7680581902
 21
85.7876810322
 31
0.0
 70
   160
 71
     2
 42
-1.0
  3
SLDDIMSTYLE2
100
AcDbAlignedDimension
 13
154.0867578935
 23
161.7876810322
 33
0.0
 14
294.0867578935
 24
161.7876810322
 34
0.0
100
AcDbRotatedDimension
  0
DIMENSION
  5
11E
330
1F
100
AcDbEntity
  8
0
  6
Continuous
 62
     7
370
     0
100
AcDbDimension
  2
*D13
 10
355.3808090246
 20
161.7876810322
 30
0.0
 11
355.3808090246
 21
222.3786452321
 31
0.0
 70
   160
 71
     2
 42
-1.0
  3
SLDDIMSTYLE2
100
AcDbAlignedDimension
 13
224.0867578935
 23
296.7876810322
 33
0.0
 14
154.0867578935
 24
161.7876810322
 34
0.0
 50
90.0
100
AcDbRotatedDimension
  0
DIMENSION
  5
128
330
1F
100
AcDbEntity
  8
0
  6
Continuous
 62
     7
370
     0
100
AcDbDimension
  2
*D14
 10
44.9678663873
 20
101.7876810322
 30
0.0
 11
44.9678663873
 21
297.5283558105
 31
0.0
 70
   160
 71
     2
 42
-1.0
  3
SLDDIMSTYLE1
100
AcDbAlignedDimension
 13
143.3015907171
 23
229.2876810322
 33
0.0
 14
89.9678663873
 24
101.7876810322
 34
0.0
 50
90.0
100
AcDbRotatedDimension
  0
DIMENSION
  5
133
330
1F
100
AcDbEntity
  8
0
  6
Continuous
 62
     7
370
     0
100
AcDbDimension
  2
*D15
 10
364.0867578935
 20
56.6179259041
 30
0.0
 11
230.3193443483
 21
56.6179259041
 31
0.0
 70
   160
 71
     2
 42
-1.0
  3
SLDDIMSTYLE2
100
AcDbAlignedDimension
 13
84.0867578935
 23
101.7876810322
 33
0.0
 14
364.0867578935
 24
101.7876810322
 34
0.0
 50
0.0
100
AcDbRotatedDimension
  0
DIMENSION
  5
13D
330
1F
100
AcDbEntity
  8
0
  6
Continuous
 62
     7
370
     0
100
AcDbDimension
  2
*D16
 10
284.0867578935
 20
386.3355994205
 30
0.0
 11
199.7680581902
 21
386.3355994205
 31
0.0
 70
   160
 71
     2
 42
-1.0
  3
SLDDIMSTYLE2
100
AcDbAlignedDimension
 13
164.0867578935
 23
356.7876810322
 33
0.0
 14
284.0867578935
 24
356.7876810322
 34
0.0
100
AcDbRotatedDimension
  0
DIMENSION
  5
147
330
1F
100
AcDbEntity
  8
0
  6
Continuous
 62
     7
370
     0
100
AcDbDimension
  2
*D17
 10
97.6645526968
 20
260.6272591764
 30
0.0
 11
113.7171233464
 21
263.2441639965
 31
0.0
 70
   160
 71
     2
 42
-1.0
  3
SLDDIMSTYLE2
100
AcDbAlignedDimension
 13
143.3015907171
 23
229.2876810322
 33
0.0
 14
103.8227422989
 24
222.8518028808
 34
0.0
 50
9.2589624483
100
AcDbRotatedDimension
  0
DIMENSION
  5
151
330
1F
100
AcDbEntity
  8
0
  6
Continuous
 62
     7
370
     0
100
AcDbDimension
  2
*D18
 10
108.1786432254
 20
218.4959019543
 30
0.0
 11
69.2565013569
 21
205.3229945895
 31
0.0
 70
   164
  1
<>
 71
     1
 42
-1.0
  3
SLDDIMSTYLE3
100
AcDbRadialDimension
 15
103.4425362544
 25
216.8930012214
 35
0.0
 40
0.0
  0
DIMENSION
  5
15B
330
1F
100
AcDbEntity
  8
0
  6
Continuous
 62
     7
370
     0
100
AcDbDimension
  2
*D19
 10
373.2056493997
 20
356.7876810322
 30
0.0
 11
373.2056493997
 21
222.3786452321
 31
0.0
 70
   160
 71
     2
 42
-1.0
  3
SLDDIMSTYLE2
100
AcDbAlignedDimension
 13
358.2056493997
 23
101.7876810322
 33
0.0
 14
279.83585859
 24
356.7876810322
 34
0.0
 50
90.0
100
AcDbRotatedDimension
  0
LINE
  5
165
330
1F
100
AcDbEntity
  8
0
  6
Continuous
 62
     7
370
    15
100
AcDbLine
 10
435.3284812568
 20
401.7617282137
 30
0.0
 11
433.9142676944
 21
400.9453201019
 31
0.0
  0
LINE
  5
166
330
1F
100
AcDbEntity
  8
0
  6
Continuous
 62
     7
370
    15
100
AcDbLine
 10
573.1708061744
 20
114.7274480612
 30
0.0
 11
574.5850197368
 21
115.543856173
 31
0.0
  0
LINE
  5
167
330
1F
100
AcDbEntity
  8
0
  6
Continuous
 62
     7
370
    15
100
AcDbLine
 10
392.7896345279
 20
317.4807042107
 30
0.0
 11
391.3754209656
 21
316.6642960989
 31
0.0
  0
LWPOLYLINE
  5
168
330
1F
100
AcDbEntity
  8
0
  6
Continuous
 62
     7
370
    15
100
AcDbPolyline
 90
       87
 70
   128
 43
0.0
 10
525.3321063566
 20
149.9263936148
 10
527.8741688447
 20
148.5661734158
 10
530.4026683295
 20
147.4277730575
 10
532.9041141723
 20
146.5172663984
 10
535.3651600772
 20
145.8395113855
 10
537.7726752995
 20
145.398124135
 10
540.1138147038
 20
145.1954596388
 10
542.3760872984
 20
145.2325991998
 10
544.5474228802
 20
145.5093446622
 10
546.6162364344
 20
146.0242194695
 10
548.5714899456
 20
146.7744765415
 10
550.4027512902
 20
147.7561129324
 10
552.1002498968
 20
148.9638911871
 10
553.6549288757
 20
150.3913672862
 10
555.058493342
 20
152.0309250269
 10
556.3034546719
 20
153.8738166595
 10
557.3831704581
 20
155.9102095596
 10
558.2918799496
 20
158.12923869
 10
559.0247347883
 20
160.5190645702
 10
559.5778248764
 20
163.0669364452
 10
559.948199239
 20
165.759260316
 10
560.1338817686
 20
168.5816714699
 10
560.1338817686
 20
171.5191111223
 10
559.948199239
 20
174.5559067616
 10
559.5778248764
 20
177.6758557692
 10
559.0247347883
 20
180.8623118672
 10
558.2918799496
 20
184.0982739336
 10
557.3831704581
 20
187.3664767107
 10
556.3034546719
 20
190.6494829226
 10
555.058493342
 20
193.9297763107
 10
553.6549288757
 20
197.1898550905
 10
552.1002498968
 20
200.4123253311
 10
550.4027512902
 20
203.5799937595
 10
548.5714899456
 20
206.6759594941
 10
546.6162364344
 20
209.6837042182
 10
544.5474228802
 20
212.5871803123
 10
542.3760872984
 20
215.3708964752
 10
540.1138147038
 20
218.0200003767
 10
537.7726752995
 20
220.5203579012
 10
535.3651600772
 20
222.8586285597
 10
532.9041141723
 20
225.0223366663
 10
530.4026683295
 20
226.9999379022
 10
527.8741688447
 20
228.7808809091
 10
525.3321063566
 20
230.3556635856
 10
522.7900438685
 20
231.7158837846
 10
520.2615443837
 20
232.8542841429
 10
517.7600985409
 20
233.764790802
 10
515.299052636
 20
234.4425458149
 10
512.8915374137
 20
234.8839330654
 10
510.5503980094
 20
235.0865975616
 10
508.2881254148
 20
235.0494580006
 10
506.116789833
 20
234.7727125381
 10
504.0479762788
 20
234.2578377309
 10
502.0927227677
 20
233.5075806588
 10
500.261461423
 20
232.525944268
 10
498.5639628164
 20
231.3181660133
 10
497.0092838375
 20
229.8906899142
 10
495.6057193712
 20
228.2511321734
 10
494.3607580413
 20
226.4082405409
 10
493.2810422552
 20
224.3718476408
 10
492.3723327636
 20
222.1528185104
 10
491.6394779249
 20
219.7629926302
 10
491.0863878369
 20
217.2151207552
 10
490.7160134743
 20
214.5227968844
 10
490.5303309447
 20
211.7003857305
 10
490.5303309447
 20
208.7629460781
 10
490.7160134743
 20
205.7261504387
 10
491.0863878369
 20
202.6062014312
 10
491.6394779249
 20
199.4197453332
 10
492.3723327636
 20
196.1837832668
 10
493.2810422552
 20
192.9155804897
 10
494.3607580413
 20
189.6325742778
 10
495.6057193712
 20
186.3522808897
 10
497.0092838375
 20
183.0922021099
 10
498.5639628164
 20
179.8697318693
 10
500.261461423
 20
176.7020634409
 10
502.0927227677
 20
173.6060977062
 10
504.0479762788
 20
170.5983529821
 10
506.116789833
 20
167.694876888
 10
508.2881254148
 20
164.9111607252
 10
510.5503980094
 20
162.2620568237
 10
512.8915374137
 20
159.7616992991
 10
515.299052636
 20
157.4234286407
 10
517.7600985409
 20
155.2597205341
 10
520.2615443837
 20
153.2821192982
 10
522.7900438685
 20
151.5011762913
 10
525.3321063566
 20
149.9263936148
  0
LWPOLYLINE
  5
169
330
1F
100
AcDbEntity
  8
0
  6
Continuous
 62
     7
370
    15
100
AcDbPolyline
 90
       87
 70
   128
 43
0.0
 10
475.8346316736
 20
288.7336871332
 10
478.3766941616
 20
287.3734669342
 10
480.9051936465
 20
286.2350665759
 10
483.4066394893
 20
285.3245599168
 10
485.8676853942
 20
284.6468049039
 10
488.2752006165
 20
284.2054176533
 10
490.6163400207
 20
284.0027531572
 10
492.8786126153
 20
284.0398927181
 10
495.0499481971
 20
284.3166381806
 10
497.1187617513
 20
284.8315129878
 10
499.0740152625
 20
285.5817700599
 10
500.9052766072
 20
286.5634064507
 10
502.6027752138
 20
287.7711847055
 10
504.1574541927
 20
289.1986608045
 10
505.5610186589
 20
290.8382185453
 10
506.8059799888
 20
292.6811101779
 10
507.885695775
 20
294.7175030779
 10
508.7944052666
 20
296.9365322084
 10
509.5272601052
 20
299.3263580886
 10
510.0803501933
 20
301.8742299635
 10
510.4507245559
 20
304.5665538343
 10
510.6364070855
 20
307.3889649883
 10
510.6364070855
 20
310.3264046407
 10
510.4507245559
 20
313.36320028
 10
510.0803501933
 20
316.4831492876
 10
509.5272601052
 20
319.6696053856
 10
508.7944052666
 20
322.905567452
 10
507.885695775
 20
326.1737702291
 10
506.8059799888
 20
329.456776441
 10
505.5610186589
 20
332.7370698291
 10
504.1574541927
 20
335.9971486088
 10
502.6027752138
 20
339.2196188494
 10
500.9052766072
 20
342.3872872779
 10
499.0740152625
 20
345.4832530125
 10
497.1187617513
 20
348.4909977366
 10
495.0499481971
 20
351.3944738307
 10
492.8786126153
 20
354.1781899936
 10
490.6163400207
 20
356.827293895
 10
488.2752006165
 20
359.3276514196
 10
485.8676853942
 20
361.665922078
 10
483.4066394893
 20
363.8296301847
 10
480.9051936465
 20
365.8072314206
 10
478.3766941616
 20
367.5881744275
 10
475.8346316736
 20
369.1629571039
 10
473.2925691855
 20
370.5231773029
 10
470.7640697006
 20
371.6615776612
 10
468.2626238578
 20
372.5720843203
 10
465.8015779529
 20
373.2498393333
 10
463.3940627306
 20
373.6912265838
 10
461.0529233264
 20
373.89389108
 10
458.7906507318
 20
373.856751519
 10
456.61931515
 20
373.5800060565
 10
454.5505015958
 20
373.0651312493
 10
452.5952480846
 20
372.3148741772
 10
450.7639867399
 20
371.3332377864
 10
449.0664881334
 20
370.1254595316
 10
447.5118091544
 20
368.6979834326
 10
446.1082446882
 20
367.0584256918
 10
444.8632833583
 20
365.2155340593
 10
443.7835675721
 20
363.1791411592
 10
442.8748580805
 20
360.9601120288
 10
442.1420032419
 20
358.5702861485
 10
441.5889131538
 20
356.0224142736
 10
441.2185387912
 20
353.3300904028
 10
441.0328562616
 20
350.5076792488
 10
441.0328562616
 20
347.5702395964
 10
441.2185387912
 20
344.5334439571
 10
441.5889131538
 20
341.4134949495
 10
442.1420032419
 20
338.2270388515
 10
442.8748580805
 20
334.9910767851
 10
443.7835675721
 20
331.722874008
 10
444.8632833583
 20
328.4398677961
 10
446.1082446882
 20
325.159574408
 10
447.5118091544
 20
321.8994956283
 10
449.0664881334
 20
318.6770253877
 10
450.7639867399
 20
315.5093569592
 10
452.5952480846
 20
312.4133912246
 10
454.5505015958
 20
309.4056465005
 10
456.61931515
 20
306.5021704064
 10
458.7906507318
 20
303.7184542436
 10
461.0529233264
 20
301.0693503421
 10
463.3940627306
 20
298.5689928175
 10
465.8015779529
 20
296.2307221591
 10
468.2626238578
 20
294.0670140525
 10
470.7640697006
 20
292.0894128165
 10
473.2925691855
 20
290.3084698096
 10
475.8346316736
 20
288.7336871332
  0
LINE
  5
16A
330
1F
100
AcDbEntity
  8
0
  6
Continuous
 62
     7
370
    15
100
AcDbLine
 10
416.199661696
 20
307.7856122064
 30
0.0
 11
393.3063611617
 21
316.6919571
 31
0.0
  0
ARC
  5
16B
330
1F
100
AcDbEntity
  8
0
  6
Continuous
 62
     7
370
    15
100
AcDbCircle
 10
417.1135528577
 20
309.5751179701
 30
0.0
 40
2.009360080609009
100
AcDbArc
 50
242.9468384821
 51
357.0639132726
  0
LINE
  5
16C
330
1F
100
AcDbEntity
  8
0
  6
Continuous
 62
     7
370
    15
100
AcDbLine
 10
432.9245943473
 20
399.2863986922
 30
0.0
 11
419.1202752393
 21
309.4721946172
 31
0.0
  0
LWPOLYLINE
  5
16D
330
1F
100
AcDbEntity
  8
0
  6
Continuous
 62
     7
370
    15
100
AcDbPolyline
 90
        9
 70
   128
 43
0.0
 10
436.414064526
 20
400.6977798494
 10
435.7944972745
 20
400.9922715469
 10
435.1941047244
 20
401.1512954293
 10
434.6314681483
 20
401.1699299396
 10
434.1240003263
 20
401.047598367
 10
433.6874066463
 20
400.7880866949
 10
433.335199045
 20
400.3994264307
 10
433.0782778333
 20
399.8936460417
 10
432.9245943473
 20
399.2863986922
  0
LINE
  5
16E
330
1F
100
AcDbEntity
  8
0
  6
Continuous
 62
     7
370
    15
100
AcDbLine
 10
515.2551988211
 20
355.183761814
 30
0.0
 11
436.414064526
 21
400.6977798494
 31
0.0
  0
ARC
  5
16F
330
1F
100
AcDbEntity
  8
0
  6
Continuous
 62
     7
370
    15
100
AcDbCircle
 10
511.0109235839
 20
348.6221797556
 30
0.0
 40
7.814616522775825
100
AcDbArc
 50
8.2500338923
 51
57.1037093831
  0
LINE
  5
170
330
1F
100
AcDbEntity
  8
0
  6
Continuous
 62
     7
370
    15
100
AcDbLine
 10
532.5489881078
 20
243.9911924805
 30
0.0
 11
518.7446689998
 21
349.743524145
 31
0.0
  0
ARC
  5
171
330
1F
100
AcDbEntity
  8
0
  6
Continuous
 62
     7
370
    15
100
AcDbCircle
 10
540.4868369707
 20
245.2016776459
 30
0.0
 40
8.029615115653593
100
AcDbArc
 50
188.6705419634
 51
231.3294581822
  0
LINE
  5
172
330
1F
100
AcDbEntity
  8
0
  6
Continuous
 62
     7
370
    15
100
AcDbLine
 10
558.3629021854
 20
221.4068441677
 30
0.0
 11
535.4696016511
 21
238.9325414491
 31
0.0
  0
ARC
  5
173
330
1F
100
AcDbEntity
  8
0
  6
Continuous
 62
     7
370
    15
100
AcDbCircle
 10
553.3456668658
 20
215.1377079709
 30
0.0
 40
8.029615115652476
100
AcDbArc
 50
8.6705419634
 51
51.3294581822
  0
LINE
  5
174
330
1F
100
AcDbEntity
  8
0
  6
Continuous
 62
     7
370
    15
100
AcDbLine
 10
574.1604795216
 20
117.7001587636
 30
0.0
 11
561.2835157287
 21
216.3481931363
 31
0.0
  0
LWPOLYLINE
  5
175
330
1F
100
AcDbEntity
  8
0
  6
Continuous
 62
     7
370
    15
100
AcDbPolyline
 90
        9
 70
   128
 43
0.0
 10
570.6710093428
 20
114.9749883137
 10
571.4306575545
 20
114.6318057279
 10
572.1548220627
 20
114.4953594272
 10
572.8096766327
 20
114.5720229146
 10
573.3646325461
 20
114.8582151844
 10
573.7937674208
 20
115.340567994
 10
574.0770360644
 20
115.9965503037
 10
574.2012067988
 20
116.7955207173
 10
574.1604795216
 20
117.7001587636
  0
LINE
  5
176
330
1F
100
AcDbEntity
  8
0
  6
Continuous
 62
     7
370
    15
100
AcDbLine
 10
380.9982540043
 20
224.470739288
 30
0.0
 11
570.6710093428
 21
114.9749883137
 31
0.0
  0
ARC
  5
177
330
1F
100
AcDbEntity
  8
0
  6
Continuous
 62
     7
370
    15
100
AcDbCircle
 10
384.938765026
 20
230.785036981
 30
0.0
 40
7.442982095131296
100
AcDbArc
 50
176.6130093317
 51
238.0332945864
  0
LINE
  5
178
330
1F
100
AcDbEntity
  8
0
  6
Continuous
 62
     7
370
    15
100
AcDbLine
 10
390.3857476184
 20
315.0053746892
 30
0.0
 11
377.5087838256
 21
231.2247662497
 31
0.0
  0
ARC
  5
179
330
1F
100
AcDbEntity
  8
0
  6
Continuous
 62
     7
370
    15
100
AcDbCircle
 10
392.3924700001
 20
314.9024513363
 30
0.0
 40
2.009360080608858
100
AcDbArc
 50
62.9468384821
 51
177.0639132726
  0
LWPOLYLINE
  5
17A
330
1F
100
AcDbEntity
  8
0
  6
Continuous
 62
     7
370
    15
100
AcDbPolyline
 90
       87
 70
   128
 43
0.0
 10
426.3371569905
 20
207.0749614424
 10
428.8792194786
 20
205.7147412434
 10
431.4077189634
 20
204.5763408851
 10
433.9091648062
 20
203.665834226
 10
436.3702107111
 20
202.9880792131
 10
438.7777259334
 20
202.5466919625
 10
441.1188653377
 20
202.3440274664
 10
443.3811379323
 20
202.3811670274
 10
445.5524735141
 20
202.6579124898
 10
447.6212870683
 20
203.1727872971
 10
449.5765405795
 20
203.9230443691
 10
451.4078019241
 20
204.90468076
 10
453.1053005307
 20
206.1124590147
 10
454.6599795096
 20
207.5399351138
 10
456.0635439759
 20
209.1794928545
 10
457.3085053058
 20
211.0223844871
 10
458.388221092
 20
213.0587773872
 10
459.2969305835
 20
215.2778065176
 10
460.0297854222
 20
217.6676323978
 10
460.5828755103
 20
220.2155042728
 10
460.9532498728
 20
222.9078281436
 10
461.1389324024
 20
225.7302392975
 10
461.1389324024
 20
228.6676789499
 10
460.9532498728
 20
231.7044745892
 10
460.5828755103
 20
234.8244235968
 10
460.0297854222
 20
238.0108796948
 10
459.2969305835
 20
241.2468417612
 10
458.388221092
 20
244.5150445383
 10
457.3085053058
 20
247.7980507502
 10
456.0635439759
 20
251.0783441383
 10
454.6599795096
 20
254.3384229181
 10
453.1053005307
 20
257.5608931587
 10
451.4078019241
 20
260.7285615871
 10
449.5765405795
 20
263.8245273217
 10
447.6212870683
 20
266.8322720458
 10
445.5524735141
 20
269.7357481399
 10
443.3811379323
 20
272.5194643028
 10
441.1188653377
 20
275.1685682043
 10
438.7777259334
 20
277.6689257288
 10
436.3702107111
 20
280.0071963873
 10
433.9091648062
 20
282.1709044939
 10
431.4077189634
 20
284.1485057298
 10
428.8792194786
 20
285.9294487367
 10
426.3371569905
 20
287.5042314132
 10
423.7950945024
 20
288.8644516122
 10
421.2665950176
 20
290.0028519704
 10
418.7651491748
 20
290.9133586295
 10
416.3041032699
 20
291.5911136425
 10
413.8965880476
 20
292.032500893
 10
411.5554486433
 20
292.2351653892
 10
409.2931760487
 20
292.1980258282
 10
407.1218404669
 20
291.9212803657
 10
405.0530269127
 20
291.4064055585
 10
403.0977734015
 20
290.6561484864
 10
401.2665120569
 20
289.6745120956
 10
399.5690134503
 20
288.4667338409
 10
398.0143344714
 20
287.0392577418
 10
396.6107700051
 20
285.399700001
 10
395.3658086752
 20
283.5568083685
 10
394.286092889
 20
281.5204154684
 10
393.3773833975
 20
279.301386338
 10
392.6445285588
 20
276.9115604577
 10
392.0914384707
 20
274.3636885828
 10
391.7210641082
 20
271.671364712
 10
391.5353815786
 20
268.848953558
 10
391.5353815786
 20
265.9115139057
 10
391.7210641082
 20
262.8747182663
 10
392.0914384707
 20
259.7547692587
 10
392.6445285588
 20
256.5683131608
 10
393.3773833975
 20
253.3323510943
 10
394.286092889
 20
250.0641483173
 10
395.3658086752
 20
246.7811421054
 10
396.6107700051
 20
243.5008487173
 10
398.0143344714
 20
240.2407699375
 10
399.5690134503
 20
237.0182996969
 10
401.2665120569
 20
233.8506312685
 10
403.0977734015
 20
230.7546655338
 10
405.0530269127
 20
227.7469208097
 10
407.1218404669
 20
224.8434447156
 10
409.2931760487
 20
222.0597285528
 10
411.5554486433
 20
219.4106246513
 10
413.8965880476
 20
216.9102671267
 10
416.3041032699
 20
214.5719964683
 10
418.7651491748
 20
212.4082883617
 10
421.2665950176
 20
210.4306871258
 10
423.7950945024
 20
208.6497441188
 10
426.3371569905
 20
207.0749614424
  0
LINE
  5
17B
330
1F
100
AcDbEntity
  8
0
  6
Continuous
 62
     7
370
    15
100
AcDbLine
 10
559.5780948741
 20
131.3152329576
 30
0.0
 11
563.1201829951
 21
130.5536517946
 31
0.0
  0
LINE
  5
17C
330
1F
100
AcDbEntity
  8
0
  6
Continuous
 62
     7
370
    15
100
AcDbLine
 10
563.1201829951
 20
130.5536517946
 30
0.0
 11
559.9240355066
 21
144.1631516349
 31
0.0
  0
LINE
  5
17D
330
1F
100
AcDbEntity
  8
0
  6
Continuous
 62
     7
370
    15
100
AcDbLine
 10
559.9240355066
 20
144.1631516349
 30
0.0
 11
556.3819473856
 21
144.924732798
 31
0.0
  0
LINE
  5
17E
330
1F
100
AcDbEntity
  8
0
  6
Continuous
 62
     7
370
    15
100
AcDbLine
 10
556.3819473856
 20
144.924732798
 30
0.0
 11
559.5780948741
 21
131.3152329576
 31
0.0
  0
LINE
  5
17F
330
1F
100
AcDbEntity
  8
0
  6
Continuous
 62
     7
370
    15
100
AcDbLine
 10
439.7158827049
 20
375.8076134037
 30
0.0
 11
442.9120301934
 21
385.7269199018
 31
0.0
  0
LINE
  5
180
330
1F
100
AcDbEntity
  8
0
  6
Continuous
 62
     7
370
    15
100
AcDbLine
 10
442.9120301934
 20
385.7269199018
 30
0.0
 11
439.3699420724
 21
389.0549466335
 31
0.0
  0
LINE
  5
181
330
1F
100
AcDbEntity
  8
0
  6
Continuous
 62
     7
370
    15
100
AcDbLine
 10
439.3699420724
 20
389.0549466335
 30
0.0
 11
436.1737945839
 21
379.1356401354
 31
0.0
  0
LINE
  5
182
330
1F
100
AcDbEntity
  8
0
  6
Continuous
 62
     7
370
    15
100
AcDbLine
 10
436.1737945839
 20
379.1356401354
 30
0.0
 11
439.7158827049
 21
375.8076134037
 31
0.0
  0
LINE
  5
183
330
1F
100
AcDbEntity
  8
0
  6
Continuous
 62
     7
370
    15
100
AcDbLine
 10
392.091168473
 20
228.0033775039
 30
0.0
 11
395.2873159615
 21
237.9226840021
 31
0.0
  0
LINE
  5
184
330
1F
100
AcDbEntity
  8
0
  6
Continuous
 62
     7
370
    15
100
AcDbLine
 10
395.2873159615
 20
237.9226840021
 30
0.0
 11
391.7452278405
 21
241.2507107338
 31
0.0
  0
LINE
  5
185
330
1F
100
AcDbEntity
  8
0
  6
Continuous
 62
     7
370
    15
100
AcDbLine
 10
391.7452278405
 20
241.2507107338
 30
0.0
 11
388.549080352
 21
231.3314042357
 31
0.0
  0
LINE
  5
186
330
1F
100
AcDbEntity
  8
0
  6
Continuous
 62
     7
370
    15
100
AcDbLine
 10
388.549080352
 20
231.3314042357
 30
0.0
 11
392.091168473
 21
228.0033775039
 31
0.0
  0
LINE
  5
187
330
1F
100
AcDbEntity
  8
0
  6
Continuous
 62
     7
370
    15
100
AcDbLine
 10
512.2993212747
 20
346.95371217
 30
0.0
 11
508.7572331537
 21
347.715293333
 31
0.0
  0
LINE
  5
188
330
1F
100
AcDbEntity
  8
0
  6
Continuous
 62
     7
370
    15
100
AcDbLine
 10
508.7572331537
 20
347.715293333
 30
0.0
 11
511.9533806422
 21
334.1057934927
 31
0.0
  0
LINE
  5
189
330
1F
100
AcDbEntity
  8
0
  6
Continuous
 62
     7
370
    15
100
AcDbLine
 10
511.9533806422
 20
334.1057934927
 30
0.0
 11
515.4954687632
 21
333.3442123296
 31
0.0
  0
LINE
  5
18A
330
1F
100
AcDbEntity
  8
0
  6
Continuous
 62
     7
370
    15
100
AcDbLine
 10
515.4954687632
 20
333.3442123296
 30
0.0
 11
512.2993212747
 21
346.95371217
 31
0.0
  0
LINE
  5
18B
330
1F
100
AcDbEntity
  8
0
  6
Continuous
 62
     7
370
    15
100
AcDbLine
 10
532.5489881078
 20
243.9911924805
 30
0.0
 11
533.9632016702
 21
244.8076005923
 31
0.0
  0
LINE
  5
18C
330
1F
100
AcDbEntity
  8
0
  6
Continuous
 62
     7
370
    15
100
AcDbLine
 10
518.7446689998
 20
349.743524145
 30
0.0
 11
520.1588825622
 21
350.5599322569
 31
0.0
  0
LINE
  5
18D
330
1F
100
AcDbEntity
  8
0
  6
Continuous
 62
     7
370
    15
100
AcDbLine
 10
533.9632016702
 20
244.8076005923
 30
0.0
 11
520.1588825622
 21
350.5599322569
 31
0.0
  0
LINE
  5
18E
330
1F
100
AcDbEntity
  8
0
  6
Continuous
 62
     7
370
    15
100
AcDbLine
 10
515.2551988211
 20
355.183761814
 30
0.0
 11
516.6694123835
 21
356.0001699258
 31
0.0
  0
ARC
  5
18F
330
1F
100
AcDbEntity
  8
0
  6
Continuous
 62
     7
370
    15
100
AcDbCircle
 10
512.4251371463
 20
349.4385878674
 30
0.0
 40
7.814616522775447
100
AcDbArc
 50
8.2500338923
 51
57.1037093831
  0
LINE
  5
190
330
1F
100
AcDbEntity
  8
0
  6
Continuous
 62
     7
370
    15
100
AcDbLine
 10
436.414064526
 20
400.6977798494
 30
0.0
 11
437.8282780884
 21
401.5141879613
 31
0.0
  0
LINE
  5
191
330
1F
100
AcDbEntity
  8
0
  6
Continuous
 62
     7
370
    15
100
AcDbLine
 10
516.6694123835
 20
356.0001699258
 30
0.0
 11
437.8282780884
 21
401.5141879613
 31
0.0
  0
LWPOLYLINE
  5
192
330
1F
100
AcDbEntity
  8
0
  6
Continuous
 62
     7
370
    15
100
AcDbPolyline
 90
       12
 70
   128
 43
0.0
 10
477.2488452359
 20
289.550095245
 10
479.790907724
 20
288.189875046
 10
482.3194072088
 20
287.0514746877
 10
484.8208530517
 20
286.1409680286
 10
487.2818989566
 20
285.4632130157
 10
489.6894141788
 20
285.0218257651
 10
492.0305535831
 20
284.819161269
 10
494.2928261777
 20
284.85630083
 10
496.4641617595
 20
285.1330462924
 10
498.5329753137
 20
285.6479210997
 10
500.4882288249
 20
286.3981781717
 10
501.1545853436
 20
286.7212052184
  0
LWPOLYLINE
  5
193
330
1F
100
AcDbEntity
  8
0
  6
Continuous
 62
     7
370
    15
100
AcDbPolyline
 90
       33
 70
   128
 43
0.0
 10
451.9288915662
 20
371.9918471308
 10
450.4807016957
 20
370.9418676435
 10
448.9260227168
 20
369.5143915444
 10
447.5224582505
 20
367.8748338036
 10
446.2774969206
 20
366.0319421711
 10
445.1977811345
 20
363.995549271
 10
444.2890716429
 20
361.7765201406
 10
443.5562168043
 20
359.3866942604
 10
443.0031267162
 20
356.8388223854
 10
442.6327523536
 20
354.1464985146
 10
442.447069824
 20
351.3240873606
 10
442.447069824
 20
348.3866477083
 10
442.6327523536
 20
345.3498520689
 10
443.0031267162
 20
342.2299030613
 10
443.5562168043
 20
339.0434469634
 10
444.2890716429
 20
335.8074848969
 10
445.1977811345
 20
332.5392821199
 10
446.2774969206
 20
329.256275908
 10
447.5224582505
 20
325.9759825199
 10
448.9260227168
 20
322.7159037401
 10
450.4807016957
 20
319.4934334995
 10
452.1782003023
 20
316.3257650711
 10
454.009461647
 20
313.2297993364
 10
455.9647151581
 20
310.2220546123
 10
458.0335287123
 20
307.3185785182
 10
460.2048642941
 20
304.5348623554
 10
462.4671368887
 20
301.8857584539
 10
464.808276293
 20
299.3854009293
 10
467.2157915153
 20
297.0471302709
 10
469.6768374202
 20
294.8834221643
 10
472.178283263
 20
292.9058209284
 10
474.7067827478
 20
291.1248779214
 10
477.2488452359
 20
289.550095245
  0
LINE
  5
194
330
1F
100
AcDbEntity
  8
0
  6
Continuous
 62
     7
370
    15
100
AcDbLine
 10
513.3675942046
 20
334.9222016045
 30
0.0
 11
511.9533806422
 21
334.1057934927
 31
0.0
  0
LINE
  5
195
330
1F
100
AcDbEntity
  8
0
  6
Continuous
 62
     7
370
    15
100
AcDbLine
 10
510.4485807914
 20
347.3516382073
 30
0.0
 11
513.3675942046
 21
334.9222016045
 31
0.0
  0
LINE
  5
196
330
1F
100
AcDbEntity
  8
0
  6
Continuous
 62
     7
370
    15
100
AcDbLine
 10
513.3675942046
 20
334.9222016045
 30
0.0
 11
515.2183346879
 21
334.5242755672
 31
0.0
  0
LINE
  5
197
330
1F
100
AcDbEntity
  8
0
  6
Continuous
 62
     7
370
    15
100
AcDbLine
 10
574.1604795216
 20
117.7001587636
 30
0.0
 11
575.5746930839
 21
118.5165668754
 31
0.0
  0
LINE
  5
198
330
1F
100
AcDbEntity
  8
0
  6
Continuous
 62
     7
370
    15
100
AcDbLine
 10
561.2835157287
 20
216.3481931363
 30
0.0
 11
562.6977292911
 21
217.1646012481
 31
0.0
  0
LINE
  5
199
330
1F
100
AcDbEntity
  8
0
  6
Continuous
 62
     7
370
    15
100
AcDbLine
 10
575.5746930839
 20
118.5165668754
 30
0.0
 11
562.6977292911
 21
217.1646012481
 31
0.0
  0
LINE
  5
19A
330
1F
100
AcDbEntity
  8
0
  6
Continuous
 62
     7
370
    15
100
AcDbLine
 10
558.3629021854
 20
221.4068441677
 30
0.0
 11
559.7771157478
 21
222.2232522795
 31
0.0
  0
LINE
  5
19B
330
1F
100
AcDbEntity
  8
0
  6
Continuous
 62
     7
370
    15
100
AcDbLine
 10
535.4696016511
 20
238.9325414491
 30
0.0
 11
536.8838152135
 21
239.748949561
 31
0.0
  0
LINE
  5
19C
330
1F
100
AcDbEntity
  8
0
  6
Continuous
 62
     7
370
    15
100
AcDbLine
 10
559.7771157478
 20
222.2232522795
 30
0.0
 11
536.8838152135
 21
239.748949561
 31
0.0
  0
ARC
  5
19D
330
1F
100
AcDbEntity
  8
0
  6
Continuous
 62
     7
370
    15
100
AcDbCircle
 10
554.7598804282
 20
215.9541160828
 30
0.0
 40
8.02961511565358
100
AcDbArc
 50
8.6705419634
 51
51.3294581822
  0
LWPOLYLINE
  5
19E
330
1F
100
AcDbEntity
  8
0
  6
Continuous
 62
     7
370
    15
100
AcDbPolyline
 90
       12
 70
   128
 43
0.0
 10
526.746319919
 20
150.7428017266
 10
529.2883824071
 20
149.3825815276
 10
531.8168818919
 20
148.2441811693
 10
534.3183277347
 20
147.3336745102
 10
536.7793736396
 20
146.6559194973
 10
539.1868888619
 20
146.2145322468
 10
541.5280282662
 20
146.0118677506
 10
543.7903008608
 20
146.0490073116
 10
545.9616364426
 20
146.3257527741
 10
548.0304499968
 20
146.8406275813
 10
549.9857035079
 20
147.5908846534
 10
550.6520600266
 20
147.9139117
  0
LWPOLYLINE
  5
19F
330
1F
100
AcDbEntity
  8
0
  6
Continuous
 62
     7
370
    15
100
AcDbPolyline
 90
       33
 70
   128
 43
0.0
 10
501.426366249
 20
233.1845536122
 10
499.9781763788
 20
232.1345741251
 10
498.4234973999
 20
230.707098026
 10
497.0199329336
 20
229.0675402853
 10
495.7749716037
 20
227.2246486527
 10
494.6952558175
 20
225.1882557526
 10
493.786546326
 20
222.9692266222
 10
493.0536914873
 20
220.579400742
 10
492.5006013992
 20
218.031528867
 10
492.1302270367
 20
215.3392049962
 10
491.944544507
 20
212.5167938423
 10
491.944544507
 20
209.5793541899
 10
492.1302270367
 20
206.5425585506
 10
492.5006013992
 20
203.422609543
 10
493.0536914873
 20
200.236153445
 10
493.786546326
 20
197.0001913786
 10
494.6952558175
 20
193.7319886015
 10
495.7749716037
 20
190.4489823896
 10
497.0199329336
 20
187.1686890015
 10
498.4234973999
 20
183.9086102217
 10
499.9781763788
 20
180.6861399811
 10
501.6756749854
 20
177.5184715527
 10
503.50693633
 20
174.4225058181
 10
505.4621898412
 20
171.414761094
 10
507.5310033954
 20
168.5112849999
 10
509.7023389772
 20
165.727568837
 10
511.9646115718
 20
163.0784649355
 10
514.3057509761
 20
160.578107411
 10
516.7132661984
 20
158.2398367525
 10
519.1743121033
 20
156.0761286459
 10
521.6757579461
 20
154.09852741
 10
524.2042574309
 20
152.3175844031
 10
526.746319919
 20
150.7428017266
  0
ARC
  5
1A0
330
1F
100
AcDbEntity
  8
0
  6
Continuous
 62
     7
370
    15
100
AcDbCircle
 10
541.9010505331
 20
246.0180857577
 30
0.0
 40
8.0296151156529
100
AcDbArc
 50
188.6705419634
 51
231.3294581822
  0
ARC
  5
1A1
330
1F
100
AcDbEntity
  8
0
  6
Continuous
 62
     7
370
    15
100
AcDbCircle
 10
436.3718171545
 20
399.5519768254
 30
0.0
 40
2.443675713707382
100
AcDbArc
 50
53.4151652204
 51
115.2743763505
  0
LINE
  5
1A2
330
1F
100
AcDbEntity
  8
0
  6
Continuous
 62
     7
370
    15
100
AcDbLine
 10
437.5880081463
 20
379.9520482472
 30
0.0
 11
436.1737945839
 21
379.1356401354
 31
0.0
  0
LINE
  5
1A3
330
1F
100
AcDbEntity
  8
0
  6
Continuous
 62
     7
370
    15
100
AcDbLine
 10
440.2535818171
 20
388.2247084827
 30
0.0
 11
437.5880081463
 21
379.9520482472
 31
0.0
  0
LINE
  5
1A4
330
1F
100
AcDbEntity
  8
0
  6
Continuous
 62
     7
370
    15
100
AcDbLine
 10
437.5880081463
 20
379.9520482472
 30
0.0
 11
440.2464565225
 21
377.4542596663
 31
0.0
  0
LINE
  5
1A5
330
1F
100
AcDbEntity
  8
0
  6
Continuous
 62
     7
370
    15
100
AcDbLine
 10
560.9923084365
 20
132.1316410694
 30
0.0
 11
559.5780948741
 21
131.3152329576
 31
0.0
  0
LINE
  5
1A6
330
1F
100
AcDbEntity
  8
0
  6
Continuous
 62
     7
370
    15
100
AcDbLine
 10
558.0732950233
 20
144.5610776723
 30
0.0
 11
560.9923084365
 21
132.1316410694
 31
0.0
  0
ARC
  5
1A7
330
1F
100
AcDbEntity
  8
0
  6
Continuous
 62
     7
370
    15
100
AcDbCircle
 10
572.8341394876
 20
117.777854469
 30
0.0
 40
2.838367494464701
100
AcDbArc
 50
308.0873209366
 51
15.085466811
  0
LINE
  5
1A8
330
1F
100
AcDbEntity
  8
0
  6
Continuous
 62
     7
370
    15
100
AcDbLine
 10
560.9923084365
 20
132.1316410694
 30
0.0
 11
562.8430489198
 21
131.7337150321
 31
0.0
  0
LWPOLYLINE
  5
1A9
330
1F
100
AcDbEntity
  8
0
  6
Continuous
 62
     7
370
    15
100
AcDbPolyline
 90
       12
 70
   128
 43
0.0
 10
427.7513705529
 20
207.8913695542
 10
430.293433041
 20
206.5311493552
 10
432.8219325258
 20
205.3927489969
 10
435.3233783686
 20
204.4822423378
 10
437.7844242735
 20
203.8044873249
 10
440.1919394958
 20
203.3631000744
 10
442.5330789001
 20
203.1604355782
 10
444.7953514947
 20
203.1975751392
 10
446.9666870765
 20
203.4743206017
 10
449.0355006307
 20
203.9891954089
 10
450.9907541418
 20
204.739452481
 10
451.6571106605
 20
205.0624795276
  0
LWPOLYLINE
  5
1AA
330
1F
100
AcDbEntity
  8
0
  6
Continuous
 62
     7
370
    15
100
AcDbPolyline
 90
       33
 70
   128
 43
0.0
 10
402.4314168829
 20
290.3331214398
 10
400.9832270127
 20
289.2831419527
 10
399.4285480338
 20
287.8556658536
 10
398.0249835675
 20
286.2161081128
 10
396.7800222376
 20
284.3732164803
 10
395.7003064514
 20
282.3368235802
 10
394.7915969598
 20
280.1177944498
 10
394.0587421212
 20
277.7279685696
 10
393.5056520331
 20
275.1800966946
 10
393.1352776705
 20
272.4877728238
 10
392.9495951409
 20
269.6653616699
 10
392.9495951409
 20
266.7279220175
 10
393.1352776705
 20
263.6911263782
 10
393.5056520331
 20
260.5711773706
 10
394.0587421212
 20
257.3847212726
 10
394.7915969598
 20
254.1487592062
 10
395.7003064514
 20
250.8805564291
 10
396.7800222376
 20
247.5975502172
 10
398.0249835675
 20
244.3172568291
 10
399.4285480338
 20
241.0571780493
 10
400.9832270127
 20
237.8347078087
 10
402.6807256192
 20
234.6670393803
 10
404.5119869639
 20
231.5710736456
 10
406.4672404751
 20
228.5633289215
 10
408.5360540293
 20
225.6598528275
 10
410.7073896111
 20
222.8761366646
 10
412.9696622057
 20
220.2270327631
 10
415.31080161
 20
217.7266752386
 10
417.7183168322
 20
215.3884045801
 10
420.1793627371
 20
213.2246964735
 10
422.68080858
 20
211.2470952376
 10
425.2093080648
 20
209.4661522307
 10
427.7513705529
 20
207.8913695542
  0
LINE
  5
1AB
330
1F
100
AcDbEntity
  8
0
  6
Continuous
 62
     7
370
    15
100
AcDbLine
 10
416.199661696
 20
307.7856122064
 30
0.0
 11
417.6138752584
 21
308.6020203182
 31
0.0
  0
ARC
  5
1AC
330
1F
100
AcDbEntity
  8
0
  6
Continuous
 62
     7
370
    15
100
AcDbCircle
 10
418.6342336247
 20
311.0297961234
 30
0.0
 40
2.633481831277211
100
AcDbArc
 50
247.203702672
 51
272.2070206107
  0
LINE
  5
1AD
330
1F
100
AcDbEntity
  8
0
  6
Continuous
 62
     7
370
    15
100
AcDbLine
 10
393.3063611617
 20
316.6919571
 30
0.0
 11
394.7205747241
 21
317.5083652118
 31
0.0
  0
LINE
  5
1AE
330
1F
100
AcDbEntity
  8
0
  6
Continuous
 62
     7
370
    15
100
AcDbLine
 10
417.6138752584
 20
308.6020203182
 30
0.0
 11
394.7205747241
 21
317.5083652118
 31
0.0
  0
ARC
  5
1AF
330
1F
100
AcDbEntity
  8
0
  6
Continuous
 62
     7
370
    15
100
AcDbCircle
 10
393.7836898041
 20
315.4990802056
 30
0.0
 40
2.216975324555647
100
AcDbArc
 50
65.0014069063
 51
116.6400216888
  0
LINE
  5
1B0
330
1F
100
AcDbEntity
  8
0
  6
Continuous
 62
     7
370
    15
100
AcDbLine
 10
389.9632939144
 20
232.1478123475
 30
0.0
 11
388.549080352
 21
231.3314042357
 31
0.0
  0
LINE
  5
1B1
330
1F
100
AcDbEntity
  8
0
  6
Continuous
 62
     7
370
    15
100
AcDbLine
 10
392.6288675852
 20
240.420472583
 30
0.0
 11
389.9632939144
 21
232.1478123475
 31
0.0
  0
LINE
  5
1B2
330
1F
100
AcDbEntity
  8
0
  6
Continuous
 62
     7
370
    15
100
AcDbLine
 10
389.9632939144
 20
232.1478123475
 30
0.0
 11
392.6217422906
 21
229.6500237666
 31
0.0
  0
LINE
  5
1B3
330
1F
100
AcDbEntity
  8
0
  6
Continuous
 62
     7
370
    15
100
AcDbLine
 10
84.9678663873
 20
42.3408067364
 30
0.0
 11
84.9678663873
 21
40.3408067364
 31
0.0
  0
LINE
  5
1B4
330
1F
100
AcDbEntity
  8
0
  6
Continuous
 62
     7
370
    15
100
AcDbLine
 10
363.2056493997
 20
40.3408067364
 30
0.0
 11
363.2056493997
 21
42.3408067364
 31
0.0
  0
LINE
  5
1B5
330
1F
100
AcDbEntity
  8
0
  6
Continuous
 62
     7
370
    15
100
AcDbLine
 10
279.83585859
 20
40.3408067364
 30
0.0
 11
279.83585859
 21
42.3408067364
 31
0.0
  0
LINE
  5
1B6
330
1F
100
AcDbEntity
  8
0
  6
Continuous
 62
     7
370
    15
100
AcDbLine
 10
168.337657197
 20
40.3408067364
 30
0.0
 11
168.337657197
 21
42.3408067364
 31
0.0
  0
LINE
  5
1B7
330
1F
100
AcDbEntity
  8
0
  6
Continuous
 62
     7
370
    15
100
AcDbLine
 10
279.83585859
 20
42.3408067364
 30
0.0
 11
168.337657197
 21
42.3408067364
 31
0.0
  0
LINE
  5
1B8
330
1F
100
AcDbEntity
  8
0
  6
Continuous
 62
     7
370
    15
100
AcDbLine
 10
279.83585859
 20
40.3408067364
 30
0.0
 11
168.337657197
 21
40.3408067364
 31
0.0
  0
LINE
  5
1B9
330
1F
100
AcDbEntity
  8
0
  6
Continuous
 62
     7
370
    15
100
AcDbLine
 10
284.7707146423
 20
40.3408067364
 30
0.0
 11
284.7707146423
 21
42.3408067364
 31
0.0
  0
LINE
  5
1BA
330
1F
100
AcDbEntity
  8
0
  6
Continuous
 62
     7
370
    15
100
AcDbLine
 10
284.7707146423
 20
42.3408067364
 30
0.0
 11
279.83585859
 21
42.3408067364
 31
0.0
  0
LINE
  5
1BB
330
1F
100
AcDbEntity
  8
0
  6
Continuous
 62
     7
370
    15
100
AcDbLine
 10
284.7707146423
 20
40.3408067364
 30
0.0
 11
279.83585859
 21
40.3408067364
 31
0.0
  0
LINE
  5
1BC
330
1F
100
AcDbEntity
  8
0
  6
Continuous
 62
     7
370
    15
100
AcDbLine
 10
163.4028011447
 20
40.3408067364
 30
0.0
 11
163.4028011447
 21
42.3408067364
 31
0.0
  0
LINE
  5
1BD
330
1F
100
AcDbEntity
  8
0
  6
Continuous
 62
     7
370
    15
100
AcDbLine
 10
168.337657197
 20
42.3408067364
 30
0.0
 11
163.4028011447
 21
42.3408067364
 31
0.0
  0
LINE
  5
1BE
330
1F
100
AcDbEntity
  8
0
  6
Continuous
 62
     7
370
    15
100
AcDbLine
 10
168.337657197
 20
40.3408067364
 30
0.0
 11
163.4028011447
 21
40.3408067364
 31
0.0
  0
LINE
  5
1BF
330
1F
100
AcDbEntity
  8
0
  6
Continuous
 62
     7
370
    15
100
AcDbLine
 10
304.2929699441
 20
40.3408067364
 30
0.0
 11
304.2929699441
 21
42.3408067364
 31
0.0
  0
LINE
  5
1C0
330
1F
100
AcDbEntity
  8
0
  6
Continuous
 62
     7
370
    15
100
AcDbLine
 10
304.2929699441
 20
42.3408067364
 30
0.0
 11
284.7707146423
 21
42.3408067364
 31
0.0
  0
LINE
  5
1C1
330
1F
100
AcDbEntity
  8
0
  6
Continuous
 62
     7
370
    15
100
AcDbLine
 10
304.2929699441
 20
40.3408067364
 30
0.0
 11
284.7707146423
 21
40.3408067364
 31
0.0
  0
LINE
  5
1C2
330
1F
100
AcDbEntity
  8
0
  6
Continuous
 62
     7
370
    15
100
AcDbLine
 10
143.8805458429
 20
40.3408067364
 30
0.0
 11
143.8805458429
 21
42.3408067364
 31
0.0
  0
LINE
  5
1C3
330
1F
100
AcDbEntity
  8
0
  6
Continuous
 62
     7
370
    15
100
AcDbLine
 10
163.4028011447
 20
42.3408067364
 30
0.0
 11
143.8805458429
 21
42.3408067364
 31
0.0
  0
LINE
  5
1C4
330
1F
100
AcDbEntity
  8
0
  6
Continuous
 62
     7
370
    15
100
AcDbLine
 10
163.4028011447
 20
40.3408067364
 30
0.0
 11
143.8805458429
 21
40.3408067364
 31
0.0
  0
LINE
  5
1C5
330
1F
100
AcDbEntity
  8
0
  6
Continuous
 62
     7
370
    15
100
AcDbLine
 10
139.7501745596
 20
40.3408067364
 30
0.0
 11
139.7501745596
 21
42.3408067364
 31
0.0
  0
LINE
  5
1C6
330
1F
100
AcDbEntity
  8
0
  6
Continuous
 62
     7
370
    15
100
AcDbLine
 10
143.8805458429
 20
42.3408067364
 30
0.0
 11
139.7501745596
 21
42.3408067364
 31
0.0
  0
LINE
  5
1C7
330
1F
100
AcDbEntity
  8
0
  6
Continuous
 62
     7
370
    15
100
AcDbLine
 10
143.8805458429
 20
40.3408067364
 30
0.0
 11
139.7501745596
 21
40.3408067364
 31
0.0
  0
LINE
  5
1C8
330
1F
100
AcDbEntity
  8
0
  6
Continuous
 62
     7
370
    15
100
AcDbLine
 10
308.4233412274
 20
40.3408067364
 30
0.0
 11
308.4233412274
 21
42.3408067364
 31
0.0
  0
LINE
  5
1C9
330
1F
100
AcDbEntity
  8
0
  6
Continuous
 62
     7
370
    15
100
AcDbLine
 10
308.4233412274
 20
42.3408067364
 30
0.0
 11
304.2929699441
 21
42.3408067364
 31
0.0
  0
LINE
  5
1CA
330
1F
100
AcDbEntity
  8
0
  6
Continuous
 62
     7
370
    15
100
AcDbLine
 10
308.4233412274
 20
40.3408067364
 30
0.0
 11
304.2929699441
 21
40.3408067364
 31
0.0
  0
LINE
  5
1CB
330
1F
100
AcDbEntity
  8
0
  6
Continuous
 62
     7
370
    15
100
AcDbLine
 10
340.7993573306
 20
40.3408067364
 30
0.0
 11
340.7993573306
 21
42.3408067364
 31
0.0
  0
LINE
  5
1CC
330
1F
100
AcDbEntity
  8
0
  6
Continuous
 62
     7
370
    15
100
AcDbLine
 10
340.7993573306
 20
42.3408067364
 30
0.0
 11
308.4233412274
 21
42.3408067364
 31
0.0
  0
LINE
  5
1CD
330
1F
100
AcDbEntity
  8
0
  6
Continuous
 62
     7
370
    15
100
AcDbLine
 10
340.7993573306
 20
40.3408067364
 30
0.0
 11
308.4233412274
 21
40.3408067364
 31
0.0
  0
LINE
  5
1CE
330
1F
100
AcDbEntity
  8
0
  6
Continuous
 62
     7
370
    15
100
AcDbLine
 10
107.3741584564
 20
40.3408067364
 30
0.0
 11
107.3741584564
 21
42.3408067364
 31
0.0
  0
LINE
  5
1CF
330
1F
100
AcDbEntity
  8
0
  6
Continuous
 62
     7
370
    15
100
AcDbLine
 10
139.7501745596
 20
42.3408067364
 30
0.0
 11
107.3741584564
 21
42.3408067364
 31
0.0
  0
LINE
  5
1D0
330
1F
100
AcDbEntity
  8
0
  6
Continuous
 62
     7
370
    15
100
AcDbLine
 10
139.7501745596
 20
40.3408067364
 30
0.0
 11
107.3741584564
 21
40.3408067364
 31
0.0
  0
LINE
  5
1D1
330
1F
100
AcDbEntity
  8
0
  6
Continuous
 62
     7
370
    15
100
AcDbLine
 10
103.2437871731
 20
40.3408067364
 30
0.0
 11
103.2437871731
 21
42.3408067364
 31
0.0
  0
LINE
  5
1D2
330
1F
100
AcDbEntity
  8
0
  6
Continuous
 62
     7
370
    15
100
AcDbLine
 10
107.3741584564
 20
42.3408067364
 30
0.0
 11
103.2437871731
 21
42.3408067364
 31
0.0
  0
LINE
  5
1D3
330
1F
100
AcDbEntity
  8
0
  6
Continuous
 62
     7
370
    15
100
AcDbLine
 10
107.3741584564
 20
40.3408067364
 30
0.0
 11
103.2437871731
 21
40.3408067364
 31
0.0
  0
LINE
  5
1D4
330
1F
100
AcDbEntity
  8
0
  6
Continuous
 62
     7
370
    15
100
AcDbLine
 10
344.9297286139
 20
40.3408067364
 30
0.0
 11
344.9297286139
 21
42.3408067364
 31
0.0
  0
LINE
  5
1D5
330
1F
100
AcDbEntity
  8
0
  6
Continuous
 62
     7
370
    15
100
AcDbLine
 10
344.9297286139
 20
42.3408067364
 30
0.0
 11
340.7993573306
 21
42.3408067364
 31
0.0
  0
LINE
  5
1D6
330
1F
100
AcDbEntity
  8
0
  6
Continuous
 62
     7
370
    15
100
AcDbLine
 10
344.9297286139
 20
40.3408067364
 30
0.0
 11
340.7993573306
 21
40.3408067364
 31
0.0
  0
LINE
  5
1D7
330
1F
100
AcDbEntity
  8
0
  6
Continuous
 62
     7
370
    15
100
AcDbLine
 10
85.033010335
 20
40.3408067364
 30
0.0
 11
85.033010335
 21
42.3408067364
 31
0.0
  0
LINE
  5
1D8
330
1F
100
AcDbEntity
  8
0
  6
Continuous
 62
     7
370
    15
100
AcDbLine
 10
103.2437871731
 20
42.3408067364
 30
0.0
 11
85.033010335
 21
42.3408067364
 31
0.0
  0
LINE
  5
1D9
330
1F
100
AcDbEntity
  8
0
  6
Continuous
 62
     7
370
    15
100
AcDbLine
 10
103.2437871731
 20
40.3408067364
 30
0.0
 11
85.033010335
 21
40.3408067364
 31
0.0
  0
LINE
  5
1DA
330
1F
100
AcDbEntity
  8
0
  6
Continuous
 62
     7
370
    15
100
AcDbLine
 10
363.140505452
 20
40.3408067364
 30
0.0
 11
363.140505452
 21
42.3408067364
 31
0.0
  0
LINE
  5
1DB
330
1F
100
AcDbEntity
  8
0
  6
Continuous
 62
     7
370
    15
100
AcDbLine
 10
363.140505452
 20
42.3408067364
 30
0.0
 11
344.9297286139
 21
42.3408067364
 31
0.0
  0
LINE
  5
1DC
330
1F
100
AcDbEntity
  8
0
  6
Continuous
 62
     7
370
    15
100
AcDbLine
 10
363.140505452
 20
40.3408067364
 30
0.0
 11
344.9297286139
 21
40.3408067364
 31
0.0
  0
LINE
  5
1DD
330
1F
100
AcDbEntity
  8
0
  6
Continuous
 62
     7
370
    15
100
AcDbLine
 10
85.033010335
 20
42.3408067364
 30
0.0
 11
84.9678663873
 21
42.3408067364
 31
0.0
  0
LINE
  5
1DE
330
1F
100
AcDbEntity
  8
0
  6
Continuous
 62
     7
370
    15
100
AcDbLine
 10
85.033010335
 20
40.3408067364
 30
0.0
 11
84.9678663873
 21
40.3408067364
 31
0.0
  0
LINE
  5
1DF
330
1F
100
AcDbEntity
  8
0
  6
Continuous
 62
     7
370
    15
100
AcDbLine
 10
363.2056493997
 20
42.3408067364
 30
0.0
 11
363.140505452
 21
42.3408067364
 31
0.0
  0
LINE
  5
1E0
330
1F
100
AcDbEntity
  8
0
  6
Continuous
 62
     7
370
    15
100
AcDbLine
 10
363.2056493997
 20
40.3408067364
 30
0.0
 11
363.140505452
 21
40.3408067364
 31
0.0
  0
DIMENSION
  5
1E1
330
1F
100
AcDbEntity
  8
0
  6
Continuous
 62
     7
370
     0
100
AcDbDimension
  2
*D20
 10
379.2056493997
 20
40.3408067364
 30
0.0
 11
379.2056493997
 21
52.3408067364
 31
0.0
 70
   160
 71
     2
 42
-1.0
  3
SLDDIMSTYLE4
100
AcDbAlignedDimension
 13
363.140505452
 23
42.3408067364
 33
0.0
 14
363.140505452
 24
40.3408067364
 34
0.0
 50
90.0
100
AcDbRotatedDimension
  0
ENDSEC
  0
SECTION
  2
OBJECTS
  0
DICTIONARY
  5
C
330
0
100
AcDbDictionary
281
     1
  3
ACAD_GROUP
350
D
  3
ACAD_LAYOUT
350
1A
  3
ACAD_MLINESTYLE
350
17
  3
ACAD_PLOTSETTINGS
350
19
  3
ACAD_PLOTSTYLENAME
350
E
  0
DICTIONARY
  5
D
102
{ACAD_REACTORS
330
C
102
}
330
C
100
AcDbDictionary
281
     1
  0
DICTIONARY
  5
1A
102
{ACAD_REACTORS
330
C
102
}
330
C
100
AcDbDictionary
281
     1
  3
Layout1
350
1E
  3
Layout2
350
26
  3
Model
350
22
  0
DICTIONARY
  5
17
102
{ACAD_REACTORS
330
C
102
}
330
C
100
AcDbDictionary
281
     1
  3
Standard
350
18
  0
DICTIONARY
  5
19
102
{ACAD_REACTORS
330
C
102
}
330
C
100
AcDbDictionary
281
     1
  0
ACDBDICTIONARYWDFLT
  5
E
102
{ACAD_REACTORS
330
C
102
}
330
C
100
AcDbDictionary
281
     1
  3
Normal
350
F
100
AcDbDictionaryWithDefault
340
F
  0
LAYOUT
  5
1E
102
{ACAD_REACTORS
330
1A
102
}
330
1A
100
AcDbPlotSettings
  1

  2
none_device
  4

  6

 40
0.0
 41
0.0
 42
0.0
 43
0.0
 44
0.0
 45
0.0
 46
0.0
 47
0.0
 48
0.0
 49
0.0
140
0.0
141
0.0
142
1.0
143
1.0
 70
   688
 72
     0
 73
     0
 74
     5
  7

 75
    16
147
1.0
148
0.0
149
0.0
100
AcDbLayout
  1
Layout1
 70
     1
 71
     1
 10
0.0
 20
0.0
 11
420.0
 21
297.0
 12
0.0
 22
0.0
 32
0.0
 14
1.0000000000E+20
 24
1.0000000000E+20
 34
1.0000000000E+20
 15
-1.0000000000E+20
 25
-1.0000000000E+20
 35
-1.0000000000E+20
146
0.0
 13
0.0
 23
0.0
 33
0.0
 16
1.0
 26
0.0
 36
0.0
 17
0.0
 27
1.0
 37
0.0
 76
     0
330
1B
  0
LAYOUT
  5
26
102
{ACAD_REACTORS
330
1A
102
}
330
1A
100
AcDbPlotSettings
  1

  2
none_device
  4

  6

 40
0.0
 41
0.0
 42
0.0
 43
0.0
 44
0.0
 45
0.0
 46
0.0
 47
0.0
 48
0.0
 49
0.0
140
0.0
141
0.0
142
1.0
143
1.0
 70
   688
 72
     0
 73
     0
 74
     5
  7

 75
    16
147
1.0
148
0.0
149
0.0
100
AcDbLayout
  1
Layout2
 70
     1
 71
     2
 10
0.0
 20
0.0
 11
0.0
 21
0.0
 12
0.0
 22
0.0
 32
0.0
 14
0.0
 24
0.0
 34
0.0
 15
0.0
 25
0.0
 35
0.0
146
0.0
 13
0.0
 23
0.0
 33
0.0
 16
1.0
 26
0.0
 36
0.0
 17
0.0
 27
1.0
 37
0.0
 76
     0
330
23
  0
LAYOUT
  5
22
102
{ACAD_REACTORS
330
1A
102
}
330
1A
100
AcDbPlotSettings
  1

  2
none_device
  4

  6

 40
0.0
 41
0.0
 42
0.0
 43
0.0
 44
0.0
 45
0.0
 46
0.0
 47
0.0
 48
0.0
 49
0.0
140
0.0
141
0.0
142
1.0
143
1.0
 70
  1712
 72
     0
 73
     0
 74
     0
  7

 75
     0
147
1.0
148
0.0
149
0.0
100
AcDbLayout
  1
Model
 70
     1
 71
     0
 10
0.0
 20
0.0
 11
594.0
 21
420.0
 12
0.0
 22
0.0
 32
0.0
 14
0.0
 24
0.0
 34
0.0
 15
594.0
 25
420.0
 35
0.0
146
0.0
 13
0.0
 23
0.0
 33
0.0
 16
1.0
 26
0.0
 36
0.0
 17
0.0
 27
1.0
 37
0.0
 76
     0
330
1F
331
29
  0
MLINESTYLE
  5
18
102
{ACAD_REACTORS
330
17
102
}
330
17
100
AcDbMlineStyle
  2
Standard
 70
     0
  3

 62
   256
 51
90.0
 52
90.0
 71
     2
 49
0.5
 62
   256
  6
BYLAYER
 49
-0.5
 62
   256
  6
BYLAYER
  0
ACDBPLACEHOLDER
  5
F
102
{ACAD_REACTORS
330
E
102
}
330
E
  0
ENDSEC
  0
EOF
