  0
SECTION
  2
HEADER
  9
$ACADVER
  1
AC1015
  9
$ACADMAINTVER
 70
     6
  9
$DWGCODEPAGE
  3
ANSI_936
  9
$INSBASE
 10
0.0
 20
0.0
 30
0.0
  9
$EXTMIN
 10
0.0
 20
0.0
 30
0.0
  9
$EXTMAX
 10
594.0
 20
420.0
 30
0.0
  9
$LIMMIN
 10
0.0
 20
0.0
  9
$LIMMAX
 10
594.0
 20
420.0
  9
$ORTHOMODE
 70
     0
  9
$REGENMODE
 70
     1
  9
$FILLMODE
 70
     1
  9
$QTEXTMODE
 70
     0
  9
$MIRRTEXT
 70
     1
  9
$LTSCALE
 40
1.0
  9
$ATTMODE
 70
     1
  9
$TEXTSIZE
 40
3.5
  9
$TRACEWID
 40
1.0
  9
$TEXTSTYLE
  7
Standard
  9
$CLAYER
  8
0
  9
$CELTYPE
  6
ByLayer
  9
$CECOLOR
 62
   256
  9
$CELTSCALE
 40
1.0
  9
$DISPSILH
 70
     0
  9
$DIMSCALE
 40
1.0
  9
$DIMASZ
 40
6.0
  9
$DIMEXO
 40
1.0
  9
$DIMDLI
 40
3.75
  9
$DIMRND
 40
0.0
  9
$DIMDLE
 40
0.0
  9
$DIMEXE
 40
1.0
  9
$DIMTP
 40
0.0
  9
$DIMTM
 40
0.0
  9
$DIMTXT
 40
3.5
  9
$DIMCEN
 40
2.5
  9
$DIMTSZ
 40
0.0
  9
$DIMTOL
 70
     0
  9
$DIMLIM
 70
     0
  9
$DIMTIH
 70
     1
  9
$DIMTOH
 70
     1
  9
$DIMSE1
 70
     0
  9
$DIMSE2
 70
     0
  9
$DIMTAD
 70
     1
  9
$DIMZIN
 70
     0
  9
$DIMBLK
  1

  9
$DIMASO
 70
     1
  9
$DIMSHO
 70
     1
  9
$DIMPOST
  1

  9
$DIMAPOST
  1

  9
$DIMALT
 70
     0
  9
$DIMALTD
 70
     3
  9
$DIMALTF
 40
0.0393700787
  9
$DIMLFAC
 40
1.0
  9
$DIMTOFL
 70
     1
  9
$DIMTVP
 40
0.0
  9
$DIMTIX
 70
     0
  9
$DIMSOXD
 70
     0
  9
$DIMSAH
 70
     0
  9
$DIMBLK1
  1

  9
$DIMBLK2
  1

  9
$DIMSTYLE
  2
ISO-25
  9
$DIMCLRD
 70
     0
  9
$DIMCLRE
 70
     0
  9
$DIMCLRT
 70
     0
  9
$DIMTFAC
 40
1.0
  9
$DIMGAP
 40
1.524
  9
$DIMJUST
 70
     0
  9
$DIMSD1
 70
     0
  9
$DIMSD2
 70
     0
  9
$DIMTOLJ
 70
     0
  9
$DIMTZIN
 70
     0
  9
$DIMALTZ
 70
     0
  9
$DIMALTTZ
 70
     0
  9
$DIMUPT
 70
     0
  9
$DIMDEC
 70
     3
  9
$DIMTDEC
 70
     3
  9
$DIMALTU
 70
     2
  9
$DIMALTTD
 70
     3
  9
$DIMTXSTY
  7
Standard
  9
$DIMAUNIT
 70
     0
  9
$DIMADEC
 70
     2
  9
$DIMALTRND
 40
0.0
  9
$DIMAZIN
 70
     0
  9
$DIMDSEP
 70
    44
  9
$DIMATFIT
 70
     3
  9
$DIMFRAC
 70
     0
  9
$DIMLDRBLK
  1

  9
$DIMLUNIT
 70
     2
  9
$DIMLWD
 70
    -2
  9
$DIMLWE
 70
    -2
  9
$DIMTMOVE
 70
     0
  9
$LUNITS
 70
     2
  9
$LUPREC
 70
     2
  9
$SKETCHINC
 40
1.0
  9
$FILLETRAD
 40
10.0
  9
$AUNITS
 70
     0
  9
$AUPREC
 70
     2
  9
$MENU
  1
.
  9
$ELEVATION
 40
0.0
  9
$PELEVATION
 40
0.0
  9
$THICKNESS
 40
0.0
  9
$LIMCHECK
 70
     0
  9
$CHAMFERA
 40
10.0
  9
$CHAMFERB
 40
10.0
  9
$CHAMFERC
 40
20.0
  9
$CHAMFERD
 40
0.0
  9
$SKPOLY
 70
     0
  9
$TDCREATE
 40
2455776.9738739
  9
$TDUCREATE
 40
2455776.640540567
  9
$TDUPDATE
 40
2455776.973873912
  9
$TDUUPDATE
 40
2455776.640540579
  9
$TDINDWG
 40
0.0000000116
  9
$TDUSRTIMER
 40
0.0000000116
  9
$USRTIMER
 70
     1
  9
$ANGBASE
 50
0.0
  9
$ANGDIR
 70
     0
  9
$PDMODE
 70
     0
  9
$PDSIZE
 40
-1.0
  9
$PLINEWID
 40
0.0
  9
$SPLFRAME
 70
     0
  9
$SPLINETYPE
 70
     6
  9
$SPLINESEGS
 70
     8
  9
$HANDSEED
  5
203
  9
$SURFTAB1
 70
     6
  9
$SURFTAB2
 70
     6
  9
$SURFTYPE
 70
     6
  9
$SURFU
 70
     6
  9
$SURFV
 70
     6
  9
$UCSBASE
  2

  9
$UCSNAME
  2

  9
$UCSORG
 10
0.0
 20
0.0
 30
0.0
  9
$UCSXDIR
 10
1.0
 20
0.0
 30
0.0
  9
$UCSYDIR
 10
0.0
 20
1.0
 30
0.0
  9
$UCSORTHOREF
  2

  9
$UCSORTHOVIEW
 70
     0
  9
$UCSORGTOP
 10
0.0
 20
0.0
 30
0.0
  9
$UCSORGBOTTOM
 10
0.0
 20
0.0
 30
0.0
  9
$UCSORGLEFT
 10
0.0
 20
0.0
 30
0.0
  9
$UCSORGRIGHT
 10
0.0
 20
0.0
 30
0.0
  9
$UCSORGFRONT
 10
0.0
 20
0.0
 30
0.0
  9
$UCSORGBACK
 10
0.0
 20
0.0
 30
0.0
  9
$PUCSBASE
  2

  9
$PUCSNAME
  2

  9
$PUCSORG
 10
0.0
 20
0.0
 30
0.0
  9
$PUCSXDIR
 10
1.0
 20
0.0
 30
0.0
  9
$PUCSYDIR
 10
0.0
 20
1.0
 30
0.0
  9
$PUCSORTHOREF
  2

  9
$PUCSORTHOVIEW
 70
     0
  9
$PUCSORGTOP
 10
0.0
 20
0.0
 30
0.0
  9
$PUCSORGBOTTOM
 10
0.0
 20
0.0
 30
0.0
  9
$PUCSORGLEFT
 10
0.0
 20
0.0
 30
0.0
  9
$PUCSORGRIGHT
 10
0.0
 20
0.0
 30
0.0
  9
$PUCSORGFRONT
 10
0.0
 20
0.0
 30
0.0
  9
$PUCSORGBACK
 10
0.0
 20
0.0
 30
0.0
  9
$USERI1
 70
     0
  9
$USERI2
 70
     0
  9
$USERI3
 70
     0
  9
$USERI4
 70
     0
  9
$USERI5
 70
     0
  9
$USERR1
 40
0.0
  9
$USERR2
 40
0.0
  9
$USERR3
 40
0.0
  9
$USERR4
 40
0.0
  9
$USERR5
 40
0.0
  9
$WORLDVIEW
 70
     1
  9
$SHADEDGE
 70
     3
  9
$SHADEDIF
 70
    70
  9
$TILEMODE
 70
     1
  9
$MAXACTVP
 70
    64
  9
$PINSBASE
 10
0.0
 20
0.0
 30
0.0
  9
$PLIMCHECK
 70
     0
  9
$PEXTMIN
 10
1.0000000000E+20
 20
1.0000000000E+20
 30
1.0000000000E+20
  9
$PEXTMAX
 10
-1.0000000000E+20
 20
-1.0000000000E+20
 30
-1.0000000000E+20
  9
$PLIMMIN
 10
0.0
 20
0.0
  9
$PLIMMAX
 10
420.0
 20
297.0
  9
$UNITMODE
 70
     0
  9
$VISRETAIN
 70
     1
  9
$PLINEGEN
 70
     0
  9
$PSLTSCALE
 70
     1
  9
$TREEDEPTH
 70
  3020
  9
$CMLSTYLE
  2
Standard
  9
$CMLJUST
 70
     0
  9
$CMLSCALE
 40
20.0
  9
$PROXYGRAPHICS
 70
     1
  9
$MEASUREMENT
 70
     1
  9
$CELWEIGHT
370
    -1
  9
$ENDCAPS
280
     0
  9
$JOINSTYLE
280
     0
  9
$LWDISPLAY
290
     1
  9
$INSUNITS
 70
     4
  9
$HYPERLINKBASE
  1

  9
$STYLESHEET
  1

  9
$XEDIT
290
     1
  9
$CEPSNTYPE
380
     0
  9
$PSTYLEMODE
290
     1
  9
$FINGERPRINTGUID
  2
{0853E696-299E-4028-A44E-5FD8EE13A8C9}
  9
$VERSIONGUID
  2
{FAEB1C32-E019-11D5-929B-00C0DF256EC4}
  9
$EXTNAMES
290
     1
  9
$PSVPSCALE
 40
0.0
  9
$OLESTARTUP
290
     0
  0
ENDSEC
  0
SECTION
  2
CLASSES
  0
CLASS
  1
ACDBDICTIONARYWDFLT
  2
AcDbDictionaryWithDefault
  3
ObjectDBX Classes
 90
        0
280
     0
281
     0
  0
CLASS
  1
VISUALSTYLE
  2
AcDbVisualStyle
  3
ObjectDBX Classes
 90
     4095
280
     0
281
     0
  0
CLASS
  1
MATERIAL
  2
AcDbMaterial
  3
ObjectDBX Classes
 90
     1153
280
     0
281
     0
  0
CLASS
  1
ACDBPLACEHOLDER
  2
AcDbPlaceHolder
  3
ObjectDBX Classes
 90
        0
280
     0
281
     0
  0
CLASS
  1
LAYOUT
  2
AcDbLayout
  3
ObjectDBX Classes
 90
        0
280
     0
281
     0
  0
ENDSEC
  0
SECTION
  2
TABLES
  0
TABLE
  2
VPORT
  5
8
330
0
100
AcDbSymbolTable
 70
     1
  0
VPORT
  5
29
330
8
100
AcDbSymbolTableRecord
100
AcDbViewportTableRecord
  2
*Active
 70
     0
 10
0.0
 20
0.0
 11
1.0
 21
1.0
 12
297.0
 22
210.0
 13
0.0
 23
0.0
 14
10.0
 24
10.0
 15
10.0
 25
10.0
 16
0.0
 26
0.0
 36
1.0
 17
0.0
 27
0.0
 37
0.0
 40
420.0
 41
1.4142857143
 42
50.0
 43
0.0
 44
0.0
 50
0.0
 51
0.0
 71
     0
 72
  2000
 73
     1
 74
     3
 75
     0
 76
     0
 77
     0
 78
     0
281
     0
 65
     1
110
0.0
120
0.0
130
0.0
111
1.0
121
0.0
131
0.0
112
0.0
122
1.0
132
0.0
 79
     0
146
0.0
  0
ENDTAB
  0
TABLE
  2
LTYPE
  5
5
330
0
100
AcDbSymbolTable
 70
     6
  0
LTYPE
  5
14
330
5
100
AcDbSymbolTableRecord
100
AcDbLinetypeTableRecord
  2
ByBlock
 70
     0
  3

 72
    65
 73
     0
 40
0.0
  0
LTYPE
  5
15
330
5
100
AcDbSymbolTableRecord
100
AcDbLinetypeTableRecord
  2
ByLayer
 70
     0
  3

 72
    65
 73
     0
 40
0.0
  0
LTYPE
  5
16
330
5
100
AcDbSymbolTableRecord
100
AcDbLinetypeTableRecord
  2
Continuous
 70
     0
  3
Solid line
 72
    65
 73
     0
 40
0.0
  0
LTYPE
  5
3F
330
5
100
AcDbSymbolTableRecord
100
AcDbLinetypeTableRecord
  2
HIDDEN
 70
     0
  3
Hidden __ __ __ __ __ __ __ __ __ __ __ __ __ __
 72
    65
 73
     2
 40
1.905
 49
1.27
 74
     0
 49
-0.635
 74
     0
  0
LTYPE
  5
40
330
5
100
AcDbSymbolTableRecord
100
AcDbLinetypeTableRecord
  2
PHANTOM
 70
     0
  3
Phantom ______  __  __  ______  __  __  ______
 72
    65
 73
     6
 40
12.7
 49
6.35
 74
     0
 49
-1.27
 74
     0
 49
1.27
 74
     0
 49
-1.27
 74
     0
 49
1.27
 74
     0
 49
-1.27
 74
     0
  0
LTYPE
  5
41
330
5
100
AcDbSymbolTableRecord
100
AcDbLinetypeTableRecord
  2
CENTER
 70
     0
  3
Center ____ _ ____ _ ____ _ ____ _ ____ _ ____
 72
    65
 73
     4
 40
10.16
 49
6.35
 74
     0
 49
-1.27
 74
     0
 49
1.27
 74
     0
 49
-1.27
 74
     0
  0
LTYPE
  5
42
330
5
100
AcDbSymbolTableRecord
100
AcDbLinetypeTableRecord
  2
CENTERX2
 70
     0
  3
Center (2x) ________  __  ________  __  _____
 72
    65
 73
     4
 40
20.32
 49
12.7
 74
     0
 49
-2.54
 74
     0
 49
2.54
 74
     0
 49
-2.54
 74
     0
  0
LTYPE
  5
43
330
5
100
AcDbSymbolTableRecord
100
AcDbLinetypeTableRecord
  2
DOT2
 70
     0
  3
Dot (.5x) ........................................
 72
    65
 73
     2
 40
0.635
 49
0.0
 74
     0
 49
-0.635
 74
     0
  0
ENDTAB
  0
TABLE
  2
LAYER
  5
2
330
0
100
AcDbSymbolTable
 70
     2
  0
LAYER
  5
10
330
2
100
AcDbSymbolTableRecord
100
AcDbLayerTableRecord
  2
0
 70
     0
 62
     7
  6
Continuous
370
    -3
390
F
  0
LAYER
  5
44
330
2
100
AcDbSymbolTableRecord
100
AcDbLayerTableRecord
  2
FORMAT
 70
     0
 62
     7
  6
Continuous
370
    -3
390
F
  0
ENDTAB
  0
TABLE
  2
STYLE
  5
3
330
0
100
AcDbSymbolTable
 70
     4
  0
STYLE
  5
11
330
3
100
AcDbSymbolTableRecord
100
AcDbTextStyleTableRecord
  2
Standard
 70
     0
 40
0.0
 41
1.0
 50
0.0
 71
     0
 42
2.5
  3
txt
  4

  0
STYLE
  5
66
330
3
100
AcDbSymbolTableRecord
100
AcDbTextStyleTableRecord
  2
SLDTEXTSTYLE0
 70
     0
 40
0.0
 41
0.75
 50
0.0
 71
     0
 42
0.2
  3
TXT
  4
bigfont
  0
STYLE
  5
69
330
3
100
AcDbSymbolTableRecord
100
AcDbTextStyleTableRecord
  2
SLDTEXTSTYLE1
 70
     0
 40
0.0
 41
0.75
 50
0.0
 71
     0
 42
0.2
  3
TXT
  4

  0
STYLE
  5
6D
330
3
100
AcDbSymbolTableRecord
100
AcDbTextStyleTableRecord
  2
SLDTEXTSTYLE2
 70
     0
 40
0.0
 41
0.6875
 50
0.0
 71
     0
 42
0.2
  3
TXT
  4

  0
ENDTAB
  0
TABLE
  2
VIEW
  5
6
330
0
100
AcDbSymbolTable
 70
     0
  0
ENDTAB
  0
TABLE
  2
UCS
  5
7
330
0
100
AcDbSymbolTable
 70
     0
  0
ENDTAB
  0
TABLE
  2
APPID
  5
9
330
0
100
AcDbSymbolTable
 70
     1
  0
APPID
  5
12
330
9
100
AcDbSymbolTableRecord
100
AcDbRegAppTableRecord
  2
ACAD
 70
     0
  0
ENDTAB
  0
TABLE
  2
DIMSTYLE
  5
A
330
0
100
AcDbSymbolTable
 70
     7
100
AcDbDimStyleTable
  0
DIMSTYLE
105
27
330
A
100
AcDbSymbolTableRecord
100
AcDbDimStyleTableRecord
  2
ISO-25
 70
     0
 41
2.5
 42
0.625
 43
3.75
 44
1.25
 73
     0
 74
     0
 77
     1
 78
     8
140
2.5
141
2.5
143
0.0393700787
147
0.625
171
     3
172
     1
178
     0
271
     2
272
     2
274
     3
278
    44
283
     0
284
     8
340
11
  0
DIMSTYLE
105
B3
102
{ACAD_REACTORS
330
B2
102
}
330
A
100
AcDbSymbolTableRecord
100
AcDbDimStyleTableRecord
  2
SLDDIMSTYLE0
 70
     0
 41
6.0
 44
0.0
 45
0.000000001
 73
     0
 74
     0
 77
     1
 78
     4
 79
     1
140
3.5
147
0.875
172
     1
173
     1
178
     0
271
     2
272
     2
276
     2
284
    12
289
     0
340
69
341
B4
343
B4
344
B4
  0
DIMSTYLE
105
C7
102
{ACAD_REACTORS
330
C6
330
1F7
102
}
330
A
100
AcDbSymbolTableRecord
100
AcDbDimStyleTableRecord
  2
SLDDIMSTYLE1
 70
     0
 41
6.0
 44
0.0
 45
0.000000001
 73
     0
 74
     0
 77
     1
 78
    12
 79
     3
140
3.5
147
0.875
172
     1
173
     1
178
     0
271
     2
272
     2
276
     2
284
    12
289
     0
340
69
341
B4
343
B4
344
B4
  0
DIMSTYLE
105
D4
102
{ACAD_REACTORS
330
D3
330
DE
330
E8
330
F2
330
113
330
11E
330
129
330
133
330
149
330
153
330
15D
330
171
102
}
330
A
100
AcDbSymbolTableRecord
100
AcDbDimStyleTableRecord
  2
SLDDIMSTYLE2
 70
     0
 41
6.0
 44
0.0
 45
0.000000001
 73
     0
 74
     0
 77
     1
 78
    12
 79
     3
140
3.5
147
0.875
173
     1
178
     0
271
     2
272
     2
276
     2
284
    12
340
69
341
B4
343
B4
344
B4
  0
DIMSTYLE
105
FE
102
{ACAD_REACTORS
330
FD
330
10A
102
}
330
A
100
AcDbSymbolTableRecord
100
AcDbDimStyleTableRecord
  2
SLDDIMSTYLE3
 70
     0
 41
6.0
 44
0.0
 45
0.000000001
 73
     0
 74
     0
 77
     1
 78
    12
 79
     3
140
3.5
141
0.0
147
0.875
172
     1
173
     1
178
     0
271
     2
272
     2
276
     2
284
    12
340
69
341
FF
343
FF
344
B4
  0
DIMSTYLE
105
13E
102
{ACAD_REACTORS
330
13D
102
}
330
A
100
AcDbSymbolTableRecord
100
AcDbDimStyleTableRecord
  2
SLDDIMSTYLE4
 70
     0
 41
6.0
 44
0.0
 45
0.000000001
 73
     0
 74
     0
 77
     1
 78
     4
 79
     1
140
3.5
147
0.875
173
     1
178
     0
271
     2
272
     2
276
     2
284
    12
340
69
341
B4
343
B4
344
B4
  0
DIMSTYLE
105
168
102
{ACAD_REACTORS
330
167
102
}
330
A
100
AcDbSymbolTableRecord
100
AcDbDimStyleTableRecord
  2
SLDDIMSTYLE5
 70
     0
 41
6.0
 44
0.0
 45
0.000000001
 73
     0
 74
     0
 77
     1
 78
    12
 79
     3
140
3.5
141
0.0
147
0.875
173
     1
178
     0
271
     2
272
     2
276
     2
284
    12
340
69
341
B4
343
B4
344
B4
  0
ENDTAB
  0
TABLE
  2
BLOCK_RECORD
  5
1
330
0
100
AcDbSymbolTable
 70
    24
  0
BLOCK_RECORD
  5
1F
330
1
100
AcDbSymbolTableRecord
100
AcDbBlockTableRecord
  2
*Model_Space
340
22
  0
BLOCK_RECORD
  5
1B
330
1
100
AcDbSymbolTableRecord
100
AcDbBlockTableRecord
  2
*Paper_Space
340
1E
  0
BLOCK_RECORD
  5
23
330
1
100
AcDbSymbolTableRecord
100
AcDbBlockTableRecord
  2
*Paper_Space0
340
26
  0
BLOCK_RECORD
  5
78
330
1
100
AcDbSymbolTableRecord
100
AcDbBlockTableRecord
  2
SW_NOTE_0
340
0
102
{BLKREFS
331
7E
102
}
  0
BLOCK_RECORD
  5
80
330
1
100
AcDbSymbolTableRecord
100
AcDbBlockTableRecord
  2
SW_NOTE_1
340
0
102
{BLKREFS
331
89
102
}
  0
BLOCK_RECORD
  5
B4
330
1
100
AcDbSymbolTableRecord
100
AcDbBlockTableRecord
  2
_CLOSED
340
0
102
{BLKREFS
331
BE
331
BF
331
CB
331
CC
331
D8
331
D9
331
E2
331
E3
331
EC
331
ED
331
F6
331
F7
331
105
331
10E
331
117
331
118
331
122
331
123
331
12D
331
12E
331
137
331
138
331
142
331
143
331
14D
331
14E
331
157
331
158
331
161
331
162
331
16D
331
175
331
176
331
1FB
331
1FC
102
}
  0
BLOCK_RECORD
  5
BB
330
1
100
AcDbSymbolTableRecord
100
AcDbBlockTableRecord
  2
*D4
340
0
  0
BLOCK_RECORD
  5
C8
330
1
100
AcDbSymbolTableRecord
100
AcDbBlockTableRecord
  2
*D5
340
0
  0
BLOCK_RECORD
  5
D5
330
1
100
AcDbSymbolTableRecord
100
AcDbBlockTableRecord
  2
*D6
340
0
  0
BLOCK_RECORD
  5
DF
330
1
100
AcDbSymbolTableRecord
100
AcDbBlockTableRecord
  2
*D7
340
0
  0
BLOCK_RECORD
  5
E9
330
1
100
AcDbSymbolTableRecord
100
AcDbBlockTableRecord
  2
*D8
340
0
  0
BLOCK_RECORD
  5
F3
330
1
100
AcDbSymbolTableRecord
100
AcDbBlockTableRecord
  2
*D9
340
0
  0
BLOCK_RECORD
  5
FF
330
1
100
AcDbSymbolTableRecord
100
AcDbBlockTableRecord
  2
_NONE
340
0
  0
BLOCK_RECORD
  5
102
330
1
100
AcDbSymbolTableRecord
100
AcDbBlockTableRecord
  2
*D11
340
0
  0
BLOCK_RECORD
  5
10B
330
1
100
AcDbSymbolTableRecord
100
AcDbBlockTableRecord
  2
*D12
340
0
  0
BLOCK_RECORD
  5
114
330
1
100
AcDbSymbolTableRecord
100
AcDbBlockTableRecord
  2
*D13
340
0
  0
BLOCK_RECORD
  5
11F
330
1
100
AcDbSymbolTableRecord
100
AcDbBlockTableRecord
  2
*D14
340
0
  0
BLOCK_RECORD
  5
12A
330
1
100
AcDbSymbolTableRecord
100
AcDbBlockTableRecord
  2
*D15
340
0
  0
BLOCK_RECORD
  5
134
330
1
100
AcDbSymbolTableRecord
100
AcDbBlockTableRecord
  2
*D16
340
0
  0
BLOCK_RECORD
  5
13F
330
1
100
AcDbSymbolTableRecord
100
AcDbBlockTableRecord
  2
*D17
340
0
  0
BLOCK_RECORD
  5
14A
330
1
100
AcDbSymbolTableRecord
100
AcDbBlockTableRecord
  2
*D18
340
0
  0
BLOCK_RECORD
  5
154
330
1
100
AcDbSymbolTableRecord
100
AcDbBlockTableRecord
  2
*D19
340
0
  0
BLOCK_RECORD
  5
15E
330
1
100
AcDbSymbolTableRecord
100
AcDbBlockTableRecord
  2
*D20
340
0
  0
BLOCK_RECORD
  5
169
330
1
100
AcDbSymbolTableRecord
100
AcDbBlockTableRecord
  2
*D21
340
0
  0
BLOCK_RECORD
  5
172
330
1
100
AcDbSymbolTableRecord
100
AcDbBlockTableRecord
  2
*D22
340
0
  0
BLOCK_RECORD
  5
1F8
330
1
100
AcDbSymbolTableRecord
100
AcDbBlockTableRecord
  2
*D23
340
0
  0
ENDTAB
  0
ENDSEC
  0
SECTION
  2
BLOCKS
  0
BLOCK
  5
20
330
1F
100
AcDbEntity
  8
0
100
AcDbBlockBegin
  2
*Model_Space
 70
     0
 10
0.0
 20
0.0
 30
0.0
  3
*Model_Space
  1

  0
ENDBLK
  5
21
330
1F
100
AcDbEntity
  8
0
100
AcDbBlockEnd
  0
BLOCK
  5
1C
330
1B
100
AcDbEntity
 67
     1
  8
0
100
AcDbBlockBegin
  2
*Paper_Space
 70
     0
 10
0.0
 20
0.0
 30
0.0
  3
*Paper_Space
  1

  0
ENDBLK
  5
1D
330
1B
100
AcDbEntity
 67
     1
  8
0
100
AcDbBlockEnd
  0
BLOCK
  5
24
330
23
100
AcDbEntity
  8
0
100
AcDbBlockBegin
  2
*Paper_Space0
 70
     0
 10
0.0
 20
0.0
 30
0.0
  3
*Paper_Space0
  1

  0
ENDBLK
  5
25
330
23
100
AcDbEntity
  8
0
100
AcDbBlockEnd
  0
BLOCK
  5
79
330
78
100
AcDbEntity
  8
0
100
AcDbBlockBegin
  2
SW_NOTE_0
 70
     0
 10
0.0
 20
0.0
 30
0.0
  3
SW_NOTE_0
  1

  0
MTEXT
  5
7B
330
78
100
AcDbEntity
  8
0
  6
Continuous
 62
     0
370
     0
100
AcDbMText
 10
0.0
 20
1.9336016097
 30
0.0
 40
1.5
 41
0.0
 71
     1
 72
     1
  1
DEBUR AND
  7
SLDTEXTSTYLE1
 73
     1
 44
1.0
  0
MTEXT
  5
7C
330
78
100
AcDbEntity
  8
0
  6
Continuous
 62
     0
370
     0
100
AcDbMText
 10
0.0
 20
-0.5663983345
 30
0.0
 40
1.5
 41
0.0
 71
     1
 72
     1
  1
BREAK SHARP
  7
SLDTEXTSTYLE1
 73
     1
 44
1.0
  0
MTEXT
  5
7D
330
78
100
AcDbEntity
  8
0
  6
Continuous
 62
     0
370
     0
100
AcDbMText
 10
0.0
 20
-3.0663982786
 30
0.0
 40
1.5
 41
0.0
 71
     1
 72
     1
  1
EDGES
  7
SLDTEXTSTYLE1
 73
     1
 44
1.0
  0
ENDBLK
  5
7A
330
78
100
AcDbEntity
  8
0
100
AcDbBlockEnd
  0
BLOCK
  5
81
330
80
100
AcDbEntity
  8
0
100
AcDbBlockBegin
  2
SW_NOTE_1
 70
     0
 10
0.0
 20
0.0
 30
0.0
  3
SW_NOTE_1
  1

  0
MTEXT
  5
83
330
80
100
AcDbEntity
  8
0
  6
Continuous
 62
     0
370
     0
100
AcDbMText
 10
0.0
 20
1.9336016097
 30
0.0
 40
1.5
 41
0.0
 71
     1
 72
     1
  1
UNLESS OTHERWISE SPECIFIED:
  7
SLDTEXTSTYLE1
 73
     1
 44
1.0
  0
MTEXT
  5
84
330
80
100
AcDbEntity
  8
0
  6
Continuous
 62
     0
370
     0
100
AcDbMText
 10
0.0
 20
-0.5663983345
 30
0.0
 40
1.5
 41
0.0
 71
     1
 72
     1
  1
DIMENSIONS ARE IN MILLIMETERS
  7
SLDTEXTSTYLE1
 73
     1
 44
1.0
  0
MTEXT
  5
85
330
80
100
AcDbEntity
  8
0
  6
Continuous
 62
     0
370
     0
100
AcDbMText
 10
0.0
 20
-3.0663982786
 30
0.0
 40
1.5
 41
0.0
 71
     1
 72
     1
  1
SURFACE FINISH:
  7
SLDTEXTSTYLE1
 73
     1
 44
1.0
  0
MTEXT
  5
86
330
80
100
AcDbEntity
  8
0
  6
Continuous
 62
     0
370
     0
100
AcDbMText
 10
0.0
 20
-5.5663982227
 30
0.0
 40
1.5
 41
0.0
 71
     1
 72
     1
  1
TOLERANCES:
  7
SLDTEXTSTYLE1
 73
     1
 44
1.0
  0
MTEXT
  5
87
330
80
100
AcDbEntity
  8
0
  6
Continuous
 62
     0
370
     0
100
AcDbMText
 10
1.6875
 20
-8.0663981668
 30
0.0
 40
1.5
 41
0.0
 71
     1
 72
     1
  1
LINEAR:
  7
SLDTEXTSTYLE1
 73
     1
 44
1.0
  0
MTEXT
  5
88
330
80
100
AcDbEntity
  8
0
  6
Continuous
 62
     0
370
     0
100
AcDbMText
 10
1.6875
 20
-10.5663981109
 30
0.0
 40
1.5
 41
0.0
 71
     1
 72
     1
  1
ANGULAR:
  7
SLDTEXTSTYLE1
 73
     1
 44
1.0
  0
ENDBLK
  5
82
330
80
100
AcDbEntity
  8
0
100
AcDbBlockEnd
  0
BLOCK
  5
B5
330
B4
100
AcDbEntity
  8
0
100
AcDbBlockBegin
  2
_CLOSED
 70
     0
 10
0.0
 20
0.0
 30
0.0
  3
_CLOSED
  1

  0
LINE
  5
B7
330
B4
100
AcDbEntity
  8
0
  6
ByBlock
 62
     0
370
    -2
100
AcDbLine
 10
-1.0
 20
0.166667
 30
0.0
 11
0.0
 21
0.0
 31
0.0
  0
LINE
  5
B8
330
B4
100
AcDbEntity
  8
0
  6
ByBlock
 62
     0
370
    -2
100
AcDbLine
 10
0.0
 20
0.0
 30
0.0
 11
-1.0
 21
-0.166667
 31
0.0
  0
LINE
  5
B9
330
B4
100
AcDbEntity
  8
0
  6
ByBlock
 62
     0
370
    -2
100
AcDbLine
 10
-1.0
 20
0.166667
 30
0.0
 11
-1.0
 21
-0.166667
 31
0.0
  0
LINE
  5
BA
330
B4
100
AcDbEntity
  8
0
  6
ByBlock
 62
     0
370
    -2
100
AcDbLine
 10
0.0
 20
0.0
 30
0.0
 11
-1.0
 21
0.0
 31
0.0
  0
ENDBLK
  5
B6
330
B4
100
AcDbEntity
  8
0
100
AcDbBlockEnd
  0
BLOCK
  5
BC
330
BB
100
AcDbEntity
  8
0
100
AcDbBlockBegin
  2
*D4
 70
     1
 10
0.0
 20
0.0
 30
0.0
  3
*D4
  1

  0
INSERT
  5
BE
330
BB
100
AcDbEntity
  8
0
  6
Continuous
 62
     7
370
     0
100
AcDbBlockReference
  2
_CLOSED
 10
177.9817197091
 20
362.0346620792
 30
-0.4
 41
6.0
 42
6.0
 50
342.5820292078
  0
INSERT
  5
BF
330
BB
100
AcDbEntity
  8
0
  6
Continuous
 62
     7
370
     0
100
AcDbBlockReference
  2
_CLOSED
 10
182.9909887689
 20
360.4631266879
 30
-0.4
 41
6.0
 42
6.0
 50
162.5820292078
  0
LINE
  5
C0
330
BB
100
AcDbEntity
  8
0
  6
Continuous
 62
     7
370
     0
100
AcDbLine
 10
172.8022723826
 20
345.5251737259
 30
0.0
 11
178.2810597837
 21
362.9888085668
 31
0.0
  0
LINE
  5
C1
330
BB
100
AcDbEntity
  8
0
  6
Continuous
 62
     7
370
     0
100
AcDbLine
 10
177.8115414424
 20
343.9536383346
 30
0.0
 11
183.2903288435
 21
361.4172731754
 31
0.0
  0
LINE
  5
C2
330
BB
100
AcDbEntity
  8
0
  6
Continuous
 62
     7
370
     0
100
AcDbLine
 10
177.9817197091
 20
362.0346620792
 30
0.0
 11
166.5319618581
 21
365.6267429736
 31
0.0
  0
LINE
  5
C3
330
BB
100
AcDbEntity
  8
0
  6
Continuous
 62
     7
370
     0
100
AcDbLine
 10
177.9817197091
 20
362.0346620792
 30
0.0
 11
182.9909887689
 21
360.4631266879
 31
0.0
  0
LINE
  5
C4
330
BB
100
AcDbEntity
  8
0
  6
Continuous
 62
     7
370
     0
100
AcDbLine
 10
182.9909887689
 20
360.4631266879
 30
0.0
 11
190.6446247513
 21
358.0619859875
 31
0.0
  0
MTEXT
  5
C5
330
BB
100
AcDbEntity
  8
0
  6
Continuous
 62
     7
370
     0
100
AcDbMText
 10
178.1779344046
 20
366.7016624307
 30
-0.4
 40
3.5
 41
0.0
 71
     1
 72
     1
  1
5.250
  7
SLDTEXTSTYLE1
 11
0.9541464875877269
 21
-0.2993400745373124
 31
0.0
 73
     1
 44
1.0
  0
ENDBLK
  5
BD
330
BB
100
AcDbEntity
  8
0
100
AcDbBlockEnd
  0
BLOCK
  5
C9
330
C8
100
AcDbEntity
  8
0
100
AcDbBlockBegin
  2
*D5
 70
     1
 10
0.0
 20
0.0
 30
0.0
  3
*D5
  1

  0
INSERT
  5
CB
330
C8
100
AcDbEntity
  8
0
  6
Continuous
 62
     7
370
     0
100
AcDbBlockReference
  2
_CLOSED
 10
111.7065839113
 20
347.9235349531
 30
-0.4
 41
6.0
 42
6.0
 50
72.5820292078
  0
INSERT
  5
CC
330
C8
100
AcDbEntity
  8
0
  6
Continuous
 62
     7
370
     0
100
AcDbBlockReference
  2
_CLOSED
 10
116.1966850294
 20
362.235732267
 30
-0.4
 41
6.0
 42
6.0
 50
252.5820292078
  0
LINE
  5
CD
330
C8
100
AcDbEntity
  8
0
  6
Continuous
 62
     7
370
     0
100
AcDbLine
 10
167.0586847024
 20
330.5581699991
 30
0.0
 11
110.7524374237
 21
348.2228750277
 31
0.0
  0
LINE
  5
CE
330
C8
100
AcDbEntity
  8
0
  6
Continuous
 62
     7
370
     0
100
AcDbLine
 10
171.5487858205
 20
344.8703673129
 30
0.0
 11
115.2425385418
 21
362.5350723415
 31
0.0
  0
LINE
  5
CF
330
C8
100
AcDbEntity
  8
0
  6
Continuous
 62
     7
370
     0
100
AcDbLine
 10
111.7065839113
 20
347.9235349531
 30
0.0
 11
108.1145030168
 21
336.4737771021
 31
0.0
  0
LINE
  5
D0
330
C8
100
AcDbEntity
  8
0
  6
Continuous
 62
     7
370
     0
100
AcDbLine
 10
111.7065839113
 20
347.9235349531
 30
0.0
 11
116.1966850294
 21
362.235732267
 31
0.0
  0
LINE
  5
D1
330
C8
100
AcDbEntity
  8
0
  6
Continuous
 62
     7
370
     0
100
AcDbLine
 10
116.1966850294
 20
362.235732267
 30
0.0
 11
119.7887659238
 21
373.685490118
 31
0.0
  0
MTEXT
  5
D2
330
C8
100
AcDbEntity
  8
0
  6
Continuous
 62
     7
370
     0
100
AcDbMText
 10
110.3085154131
 20
358.5394699312
 30
-0.4
 40
3.5
 41
0.0
 71
     1
 72
     1
  1
15
  7
SLDTEXTSTYLE1
 11
0.2993400745373249
 21
0.9541464875877229
 31
0.0
 73
     1
 44
1.0
  0
ENDBLK
  5
CA
330
C8
100
AcDbEntity
  8
0
100
AcDbBlockEnd
  0
BLOCK
  5
D6
330
D5
100
AcDbEntity
  8
0
100
AcDbBlockBegin
  2
*D6
 70
     1
 10
0.0
 20
0.0
 30
0.0
  3
*D6
  1

  0
INSERT
  5
D8
330
D5
100
AcDbEntity
  8
0
  6
Continuous
 62
     7
370
     0
100
AcDbBlockReference
  2
_CLOSED
 10
115.5496268401
 20
346.7178744265
 30
-0.4
 41
6.0
 42
6.0
 50
72.5820292078
  0
INSERT
  5
D9
330
D5
100
AcDbEntity
  8
0
  6
Continuous
 62
     7
370
     0
100
AcDbBlockReference
  2
_CLOSED
 10
52.6882111872
 20
146.3471120331
 30
-0.4
 41
6.0
 42
6.0
 50
252.5820292078
  0
LINE
  5
DA
330
D5
100
AcDbEntity
  8
0
  6
Continuous
 62
     7
370
     0
100
AcDbLine
 10
167.0586847024
 20
330.5581699991
 30
0.0
 11
114.5954803525
 21
347.017214501
 31
0.0
  0
LINE
  5
DB
330
D5
100
AcDbEntity
  8
0
  6
Continuous
 62
     7
370
     0
100
AcDbLine
 10
104.1972690496
 20
130.1874076056
 30
0.0
 11
51.7340646996
 21
146.6464521076
 31
0.0
  0
LINE
  5
DC
330
D5
100
AcDbEntity
  8
0
  6
Continuous
 62
     7
370
     0
100
AcDbLine
 10
115.5496268401
 20
346.7178744265
 30
0.0
 11
52.6882111872
 21
146.3471120331
 31
0.0
  0
MTEXT
  5
DD
330
D5
100
AcDbEntity
  8
0
  6
Continuous
 62
     7
370
     0
100
AcDbMText
 10
79.7219138818
 20
247.589317688
 30
-0.4
 40
3.5
 41
0.0
 71
     1
 72
     1
  1
210
  7
SLDTEXTSTYLE1
 11
0.299340074537319
 21
0.9541464875877248
 31
0.0
 73
     1
 44
1.0
  0
ENDBLK
  5
D7
330
D5
100
AcDbEntity
  8
0
100
AcDbBlockEnd
  0
BLOCK
  5
E0
330
DF
100
AcDbEntity
  8
0
100
AcDbBlockBegin
  2
*D7
 70
     1
 10
0.0
 20
0.0
 30
0.0
  3
*D7
  1

  0
INSERT
  5
E2
330
DF
100
AcDbEntity
  8
0
  6
Continuous
 62
     7
370
     0
100
AcDbBlockReference
  2
_CLOSED
 10
224.0867578935
 20
65.2269706887
 30
-0.4
 41
6.0
 42
6.0
 50
0.0
  0
INSERT
  5
E3
330
DF
100
AcDbEntity
  8
0
  6
Continuous
 62
     7
370
     0
100
AcDbBlockReference
  2
_CLOSED
 10
99.0867578935
 20
65.2269706887
 30
-0.4
 41
6.0
 42
6.0
 50
180.0
  0
LINE
  5
E4
330
DF
100
AcDbEntity
  8
0
  6
Continuous
 62
     7
370
     0
100
AcDbLine
 10
224.0867578935
 20
100.7876810322
 30
0.0
 11
224.0867578935
 21
64.2269706887
 31
0.0
  0
LINE
  5
E5
330
DF
100
AcDbEntity
  8
0
  6
Continuous
 62
     7
370
     0
100
AcDbLine
 10
99.0867578935
 20
100.7876810322
 30
0.0
 11
99.0867578935
 21
64.2269706887
 31
0.0
  0
LINE
  5
E6
330
DF
100
AcDbEntity
  8
0
  6
Continuous
 62
     7
370
     0
100
AcDbLine
 10
224.0867578935
 20
65.2269706887
 30
0.0
 11
99.0867578935
 21
65.2269706887
 31
0.0
  0
MTEXT
  5
E7
330
DF
100
AcDbEntity
  8
0
  6
Continuous
 62
     7
370
     0
100
AcDbMText
 10
156.1900543038
 20
69.7387076033
 30
-0.4
 40
3.5
 41
0.0
 71
     1
 72
     1
  1
125
  7
SLDTEXTSTYLE1
 73
     1
 44
1.0
  0
ENDBLK
  5
E1
330
DF
100
AcDbEntity
  8
0
100
AcDbBlockEnd
  0
BLOCK
  5
EA
330
E9
100
AcDbEntity
  8
0
100
AcDbBlockBegin
  2
*D8
 70
     1
 10
0.0
 20
0.0
 30
0.0
  3
*D8
  1

  0
INSERT
  5
EC
330
E9
100
AcDbEntity
  8
0
  6
Continuous
 62
     7
370
     0
100
AcDbBlockReference
  2
_CLOSED
 10
224.0867578935
 20
390.9378584629
 30
-0.4
 41
6.0
 42
6.0
 50
0.0
  0
INSERT
  5
ED
330
E9
100
AcDbEntity
  8
0
  6
Continuous
 62
     7
370
     0
100
AcDbBlockReference
  2
_CLOSED
 10
179.0867578935
 20
390.9378584629
 30
-0.4
 41
6.0
 42
6.0
 50
180.0
  0
LINE
  5
EE
330
E9
100
AcDbEntity
  8
0
  6
Continuous
 62
     7
370
     0
100
AcDbLine
 10
224.0867578935
 20
357.7876810322
 30
0.0
 11
224.0867578935
 21
391.9378584629
 31
0.0
  0
LINE
  5
EF
330
E9
100
AcDbEntity
  8
0
  6
Continuous
 62
     7
370
     0
100
AcDbLine
 10
179.0867578935
 20
357.7876810322
 30
0.0
 11
179.0867578935
 21
391.9378584629
 31
0.0
  0
LINE
  5
F0
330
E9
100
AcDbEntity
  8
0
  6
Continuous
 62
     7
370
     0
100
AcDbLine
 10
224.0867578935
 20
390.9378584629
 30
0.0
 11
179.0867578935
 21
390.9378584629
 31
0.0
  0
MTEXT
  5
F1
330
E9
100
AcDbEntity
  8
0
  6
Continuous
 62
     7
370
     0
100
AcDbMText
 10
197.2465307512
 20
395.4495953775
 30
-0.4
 40
3.5
 41
0.0
 71
     1
 72
     1
  1
45
  7
SLDTEXTSTYLE1
 73
     1
 44
1.0
  0
ENDBLK
  5
EB
330
E9
100
AcDbEntity
  8
0
100
AcDbBlockEnd
  0
BLOCK
  5
F4
330
F3
100
AcDbEntity
  8
0
100
AcDbBlockBegin
  2
*D9
 70
     1
 10
0.0
 20
0.0
 30
0.0
  3
*D9
  1

  0
INSERT
  5
F6
330
F3
100
AcDbEntity
  8
0
  6
Continuous
 62
     7
370
     0
100
AcDbBlockReference
  2
_CLOSED
 10
297.0461465657
 20
246.7876810322
 30
-2.4
 41
6.0
 42
6.0
 50
270.0
  0
INSERT
  5
F7
330
F3
100
AcDbEntity
  8
0
  6
Continuous
 62
     7
370
     0
100
AcDbBlockReference
  2
_CLOSED
 10
297.0461465657
 20
346.7876810322
 30
-2.4
 41
6.0
 42
6.0
 50
90.0
  0
LINE
  5
F8
330
F3
100
AcDbEntity
  8
0
  6
Continuous
 62
     7
370
     0
100
AcDbLine
 10
225.0867578935
 20
246.7876810322
 30
0.0
 11
298.0461465657
 21
246.7876810322
 31
0.0
  0
LINE
  5
F9
330
F3
100
AcDbEntity
  8
0
  6
Continuous
 62
     7
370
     0
100
AcDbLine
 10
225.0867578935
 20
346.7876810322
 30
0.0
 11
298.0461465657
 21
346.7876810322
 31
0.0
  0
LINE
  5
FA
330
F3
100
AcDbEntity
  8
0
  6
Continuous
 62
     7
370
     0
100
AcDbLine
 10
297.0461465657
 20
246.7876810322
 30
0.0
 11
297.0461465657
 21
346.7876810322
 31
0.0
  0
MTEXT
  5
FB
330
F3
100
AcDbEntity
  8
0
  6
Continuous
 62
     7
370
     0
100
AcDbMText
 10
292.5344094765
 20
308.3413462964
 30
-2.4
 40
3.5
 41
0.0
 71
     1
 72
     1
  1
%%c
  7
SLDTEXTSTYLE1
 11
6.123233995736766E-17
 21
1.0
 31
0.0
 73
     1
 44
1.0
  0
MTEXT
  5
FC
330
F3
100
AcDbEntity
  8
0
  6
Continuous
 62
     7
370
     0
100
AcDbMText
 10
292.4809372999
 20
313.6197836948
 30
-2.4
 40
3.5
 41
0.0
 71
     1
 72
     1
  1
100
  7
SLDTEXTSTYLE1
 11
6.123233995736766E-17
 21
1.0
 31
0.0
 73
     1
 44
1.0
  0
ENDBLK
  5
F5
330
F3
100
AcDbEntity
  8
0
100
AcDbBlockEnd
  0
BLOCK
  5
100
330
FF
100
AcDbEntity
  8
0
100
AcDbBlockBegin
  2
_NONE
 70
     0
 10
0.0
 20
0.0
 30
0.0
  3
_NONE
  1

  0
ENDBLK
  5
101
330
FF
100
AcDbEntity
  8
0
100
AcDbBlockEnd
  0
BLOCK
  5
103
330
102
100
AcDbEntity
  8
0
100
AcDbBlockBegin
  2
*D11
 70
     1
 10
0.0
 20
0.0
 30
0.0
  3
*D11
  1

  0
INSERT
  5
105
330
102
100
AcDbEntity
  8
0
  6
Continuous
 62
     7
370
     0
100
AcDbBlockReference
  2
_CLOSED
 10
189.4420969528
 20
197.1430200915
 30
-2.4
 41
6.0
 42
6.0
 50
225.0
  0
LINE
  5
106
330
102
100
AcDbEntity
  8
0
  6
Continuous
 62
     7
370
     0
100
AcDbLine
 10
189.4420969528
 20
197.1430200915
 30
0.0
 11
205.8496619252
 21
213.5505850638
 31
0.0
  0
LINE
  5
107
330
102
100
AcDbEntity
  8
0
  6
Continuous
 62
     7
370
     0
100
AcDbLine
 10
189.4420969528
 20
197.1430200915
 30
0.0
 11
118.7314188342
 21
126.4323419728
 31
0.0
  0
MTEXT
  5
108
330
102
100
AcDbEntity
  8
0
  6
Continuous
 62
     7
370
     0
100
AcDbMText
 10
191.4319834507
 20
205.5098148155
 30
-2.4
 40
3.5
 41
0.0
 71
     1
 72
     1
  1
%%c
  7
SLDTEXTSTYLE1
 11
0.7071067811865462
 21
0.7071067811865488
 31
0.0
 73
     1
 44
1.0
  0
MTEXT
  5
109
330
102
100
AcDbEntity
  8
0
  6
Continuous
 62
     7
370
     0
100
AcDbMText
 10
195.1265917905
 20
209.2800442326
 30
-2.4
 40
3.5
 41
0.0
 71
     1
 72
     1
  1
100
  7
SLDTEXTSTYLE1
 11
0.7071067811865462
 21
0.7071067811865488
 31
0.0
 73
     1
 44
1.0
  0
ENDBLK
  5
104
330
102
100
AcDbEntity
  8
0
100
AcDbBlockEnd
  0
BLOCK
  5
10C
330
10B
100
AcDbEntity
  8
0
100
AcDbBlockBegin
  2
*D12
 70
     1
 10
0.0
 20
0.0
 30
0.0
  3
*D12
  1

  0
INSERT
  5
10E
330
10B
100
AcDbEntity
  8
0
  6
Continuous
 62
     7
370
     0
100
AcDbBlockReference
  2
_CLOSED
 10
258.7314188342
 20
197.1430200915
 30
-2.4
 41
6.0
 42
6.0
 50
315.0
  0
LINE
  5
10F
330
10B
100
AcDbEntity
  8
0
  6
Continuous
 62
     7
370
     0
100
AcDbLine
 10
258.7314188342
 20
197.1430200915
 30
0.0
 11
244.7262219265
 21
211.1482169991
 31
0.0
  0
LINE
  5
110
330
10B
100
AcDbEntity
  8
0
  6
Continuous
 62
     7
370
     0
100
AcDbLine
 10
258.7314188342
 20
197.1430200915
 30
0.0
 11
329.4420969528
 21
126.4323419728
 31
0.0
  0
MTEXT
  5
111
330
10B
100
AcDbEntity
  8
0
  6
Continuous
 62
     7
370
     0
100
AcDbMText
 10
247.9144707399
 20
214.3364658125
 30
-2.4
 40
3.5
 41
0.0
 71
     1
 72
     1
  1
%%c
  7
SLDTEXTSTYLE1
 11
0.7071067811865457
 21
-0.7071067811865493
 31
0.0
 73
     1
 44
1.0
  0
MTEXT
  5
112
330
10B
100
AcDbEntity
  8
0
  6
Continuous
 62
     7
370
     0
100
AcDbMText
 10
251.6847001571
 20
210.6418574728
 30
-2.4
 40
3.5
 41
0.0
 71
     1
 72
     1
  1
100
  7
SLDTEXTSTYLE1
 11
0.7071067811865457
 21
-0.7071067811865493
 31
0.0
 73
     1
 44
1.0
  0
ENDBLK
  5
10D
330
10B
100
AcDbEntity
  8
0
100
AcDbBlockEnd
  0
BLOCK
  5
115
330
114
100
AcDbEntity
  8
0
100
AcDbBlockBegin
  2
*D13
 70
     1
 10
0.0
 20
0.0
 30
0.0
  3
*D13
  1

  0
INSERT
  5
117
330
114
100
AcDbEntity
  8
0
  6
Continuous
 62
     7
370
     0
100
AcDbBlockReference
  2
_CLOSED
 10
35.7459913828
 20
161.7876810322
 30
-2.4
 41
6.0
 42
6.0
 50
90.0
  0
INSERT
  5
118
330
114
100
AcDbEntity
  8
0
  6
Continuous
 62
     7
370
     0
100
AcDbBlockReference
  2
_CLOSED
 10
35.7459913828
 20
101.7876810322
 30
-2.4
 41
6.0
 42
6.0
 50
270.0
  0
LINE
  5
119
330
114
100
AcDbEntity
  8
0
  6
Continuous
 62
     7
370
     0
100
AcDbLine
 10
153.0867578935
 20
161.7876810322
 30
0.0
 11
34.7459913828
 21
161.7876810322
 31
0.0
  0
LINE
  5
11A
330
114
100
AcDbEntity
  8
0
  6
Continuous
 62
     7
370
     0
100
AcDbLine
 10
88.9678663873
 20
101.7876810322
 30
0.0
 11
34.7459913828
 21
101.7876810322
 31
0.0
  0
LINE
  5
11B
330
114
100
AcDbEntity
  8
0
  6
Continuous
 62
     7
370
     0
100
AcDbLine
 10
35.7459913828
 20
161.7876810322
 30
0.0
 11
35.7459913828
 21
226.3866315132
 31
0.0
  0
LINE
  5
11C
330
114
100
AcDbEntity
  8
0
  6
Continuous
 62
     7
370
     0
100
AcDbLine
 10
35.7459913828
 20
161.7876810322
 30
0.0
 11
35.7459913828
 21
101.7876810322
 31
0.0
  0
MTEXT
  5
11D
330
114
100
AcDbEntity
  8
0
  6
Continuous
 62
     7
370
     0
100
AcDbMText
 10
31.2342544683
 20
218.3706589511
 30
-2.4
 40
3.5
 41
0.0
 71
     1
 72
     1
  1
60
  7
SLDTEXTSTYLE1
 11
-7.044195017643634E-15
 21
1.0
 31
0.0
 73
     1
 44
1.0
  0
ENDBLK
  5
116
330
114
100
AcDbEntity
  8
0
100
AcDbBlockEnd
  0
BLOCK
  5
120
330
11F
100
AcDbEntity
  8
0
100
AcDbBlockBegin
  2
*D14
 70
     1
 10
0.0
 20
0.0
 30
0.0
  3
*D14
  1

  0
INSERT
  5
122
330
11F
100
AcDbEntity
  8
0
  6
Continuous
 62
     7
370
     0
100
AcDbBlockReference
  2
_CLOSED
 10
333.3676596619
 20
296.7876810322
 30
-2.4
 41
6.0
 42
6.0
 50
270.0
  0
INSERT
  5
123
330
11F
100
AcDbEntity
  8
0
  6
Continuous
 62
     7
370
     0
100
AcDbBlockReference
  2
_CLOSED
 10
333.3676596619
 20
356.7876810322
 30
-2.4
 41
6.0
 42
6.0
 50
90.0
  0
LINE
  5
124
330
11F
100
AcDbEntity
  8
0
  6
Continuous
 62
     7
370
     0
100
AcDbLine
 10
225.0867578935
 20
296.7876810322
 30
0.0
 11
334.3676596619
 21
296.7876810322
 31
0.0
  0
LINE
  5
125
330
11F
100
AcDbEntity
  8
0
  6
Continuous
 62
     7
370
     0
100
AcDbLine
 10
280.83585859
 20
356.7876810322
 30
0.0
 11
334.3676596619
 21
356.7876810322
 31
0.0
  0
LINE
  5
126
330
11F
100
AcDbEntity
  8
0
  6
Continuous
 62
     7
370
     0
100
AcDbLine
 10
333.3676596619
 20
296.7876810322
 30
0.0
 11
333.3676596619
 21
356.7876810322
 31
0.0
  0
LINE
  5
127
330
11F
100
AcDbEntity
  8
0
  6
Continuous
 62
     7
370
     0
100
AcDbLine
 10
333.3676596619
 20
356.7876810322
 30
0.0
 11
333.3676596619
 21
394.7956673132
 31
0.0
  0
MTEXT
  5
128
330
11F
100
AcDbEntity
  8
0
  6
Continuous
 62
     7
370
     0
100
AcDbMText
 10
328.8559227473
 20
386.7796947511
 30
-2.4
 40
3.5
 41
0.0
 71
     1
 72
     1
  1
60
  7
SLDTEXTSTYLE1
 11
6.123233995736766E-17
 21
1.0
 31
0.0
 73
     1
 44
1.0
  0
ENDBLK
  5
121
330
11F
100
AcDbEntity
  8
0
100
AcDbBlockEnd
  0
BLOCK
  5
12B
330
12A
100
AcDbEntity
  8
0
100
AcDbBlockBegin
  2
*D15
 70
     1
 10
0.0
 20
0.0
 30
0.0
  3
*D15
  1

  0
INSERT
  5
12D
330
12A
100
AcDbEntity
  8
0
  6
Continuous
 62
     7
370
     0
100
AcDbBlockReference
  2
_CLOSED
 10
154.0867578935
 20
83.0095560366
 30
-2.4
 41
6.0
 42
6.0
 50
180.0
  0
INSERT
  5
12E
330
12A
100
AcDbEntity
  8
0
  6
Continuous
 62
     7
370
     0
100
AcDbBlockReference
  2
_CLOSED
 10
294.0867578935
 20
83.0095560366
 30
-2.4
 41
6.0
 42
6.0
 50
0.0
  0
LINE
  5
12F
330
12A
100
AcDbEntity
  8
0
  6
Continuous
 62
     7
370
     0
100
AcDbLine
 10
154.0867578935
 20
160.7876810322
 30
0.0
 11
154.0867578935
 21
82.0095560366
 31
0.0
  0
LINE
  5
130
330
12A
100
AcDbEntity
  8
0
  6
Continuous
 62
     7
370
     0
100
AcDbLine
 10
294.0867578935
 20
160.7876810322
 30
0.0
 11
294.0867578935
 21
82.0095560366
 31
0.0
  0
LINE
  5
131
330
12A
100
AcDbEntity
  8
0
  6
Continuous
 62
     7
370
     0
100
AcDbLine
 10
154.0867578935
 20
83.0095560366
 30
0.0
 11
294.0867578935
 21
83.0095560366
 31
0.0
  0
MTEXT
  5
132
330
12A
100
AcDbEntity
  8
0
  6
Continuous
 62
     7
370
     0
100
AcDbMText
 10
194.4670166616
 20
87.5212929512
 30
-2.4
 40
3.5
 41
0.0
 71
     1
 72
     1
  1
140
  7
SLDTEXTSTYLE1
 73
     1
 44
1.0
  0
ENDBLK
  5
12C
330
12A
100
AcDbEntity
  8
0
100
AcDbBlockEnd
  0
BLOCK
  5
135
330
134
100
AcDbEntity
  8
0
100
AcDbBlockBegin
  2
*D16
 70
     1
 10
0.0
 20
0.0
 30
0.0
  3
*D16
  1

  0
INSERT
  5
137
330
134
100
AcDbEntity
  8
0
  6
Continuous
 62
     7
370
     0
100
AcDbBlockReference
  2
_CLOSED
 10
358.1589340202
 20
296.7876810322
 30
-2.4
 41
6.0
 42
6.0
 50
90.0
  0
INSERT
  5
138
330
134
100
AcDbEntity
  8
0
  6
Continuous
 62
     7
370
     0
100
AcDbBlockReference
  2
_CLOSED
 10
358.1589340202
 20
161.7876810322
 30
-2.4
 41
6.0
 42
6.0
 50
270.0
  0
LINE
  5
139
330
134
100
AcDbEntity
  8
0
  6
Continuous
 62
     7
370
     0
100
AcDbLine
 10
225.0867578935
 20
296.7876810322
 30
0.0
 11
359.1589340202
 21
296.7876810322
 31
0.0
  0
LINE
  5
13A
330
134
100
AcDbEntity
  8
0
  6
Continuous
 62
     7
370
     0
100
AcDbLine
 10
155.0867578935
 20
161.7876810322
 30
0.0
 11
359.1589340202
 21
161.7876810322
 31
0.0
  0
LINE
  5
13B
330
134
100
AcDbEntity
  8
0
  6
Continuous
 62
     7
370
     0
100
AcDbLine
 10
358.1589340202
 20
296.7876810322
 30
0.0
 11
358.1589340202
 21
161.7876810322
 31
0.0
  0
MTEXT
  5
13C
330
134
100
AcDbEntity
  8
0
  6
Continuous
 62
     7
370
     0
100
AcDbMText
 10
353.6471971056
 20
217.0776037036
 30
-2.4
 40
3.5
 41
0.0
 71
     1
 72
     1
  1
135
  7
SLDTEXTSTYLE1
 11
-7.044195017643634E-15
 21
1.0
 31
0.0
 73
     1
 44
1.0
  0
ENDBLK
  5
136
330
134
100
AcDbEntity
  8
0
100
AcDbBlockEnd
  0
BLOCK
  5
140
330
13F
100
AcDbEntity
  8
0
100
AcDbBlockBegin
  2
*D17
 70
     1
 10
0.0
 20
0.0
 30
0.0
  3
*D17
  1

  0
INSERT
  5
142
330
13F
100
AcDbEntity
  8
0
  6
Continuous
 62
     7
370
     0
100
AcDbBlockReference
  2
_CLOSED
 10
47.7459913828
 20
229.2876810322
 30
-2.4
 41
6.0
 42
6.0
 50
90.0
  0
INSERT
  5
143
330
13F
100
AcDbEntity
  8
0
  6
Continuous
 62
     7
370
     0
100
AcDbBlockReference
  2
_CLOSED
 10
47.7459913828
 20
101.7876810322
 30
-2.4
 41
6.0
 42
6.0
 50
270.0
  0
LINE
  5
144
330
13F
100
AcDbEntity
  8
0
  6
Continuous
 62
     7
370
     0
100
AcDbLine
 10
142.3015907171
 20
229.2876810322
 30
0.0
 11
46.7459913828
 21
229.2876810322
 31
0.0
  0
LINE
  5
145
330
13F
100
AcDbEntity
  8
0
  6
Continuous
 62
     7
370
     0
100
AcDbLine
 10
88.9678663873
 20
101.7876810322
 30
0.0
 11
46.7459913828
 21
101.7876810322
 31
0.0
  0
LINE
  5
146
330
13F
100
AcDbEntity
  8
0
  6
Continuous
 62
     7
370
     0
100
AcDbLine
 10
47.7459913828
 20
229.2876810322
 30
0.0
 11
47.7459913828
 21
307.3550923352
 31
0.0
  0
LINE
  5
147
330
13F
100
AcDbEntity
  8
0
  6
Continuous
 62
     7
370
     0
100
AcDbLine
 10
47.7459913828
 20
229.2876810322
 30
0.0
 11
47.7459913828
 21
101.7876810322
 31
0.0
  0
MTEXT
  5
148
330
13F
100
AcDbEntity
  8
0
  6
Continuous
 62
     7
370
     0
100
AcDbMText
 10
43.2342544683
 20
287.7016192858
 30
-2.4
 40
3.5
 41
0.0
 71
     1
 72
     1
  1
127.500
  7
SLDTEXTSTYLE1
 11
-7.044195017643634E-15
 21
1.0
 31
0.0
 73
     1
 44
1.0
  0
ENDBLK
  5
141
330
13F
100
AcDbEntity
  8
0
100
AcDbBlockEnd
  0
BLOCK
  5
14B
330
14A
100
AcDbEntity
  8
0
100
AcDbBlockBegin
  2
*D18
 70
     1
 10
0.0
 20
0.0
 30
0.0
  3
*D18
  1

  0
INSERT
  5
14D
330
14A
100
AcDbEntity
  8
0
  6
Continuous
 62
     7
370
     0
100
AcDbBlockReference
  2
_CLOSED
 10
84.0867578935
 20
53.8398009086
 30
-2.4
 41
6.0
 42
6.0
 50
180.0
  0
INSERT
  5
14E
330
14A
100
AcDbEntity
  8
0
  6
Continuous
 62
     7
370
     0
100
AcDbBlockReference
  2
_CLOSED
 10
364.0867578935
 20
53.8398009086
 30
-2.4
 41
6.0
 42
6.0
 50
0.0
  0
LINE
  5
14F
330
14A
100
AcDbEntity
  8
0
  6
Continuous
 62
     7
370
     0
100
AcDbLine
 10
84.0867578935
 20
100.7876810322
 30
0.0
 11
84.0867578935
 21
52.8398009086
 31
0.0
  0
LINE
  5
150
330
14A
100
AcDbEntity
  8
0
  6
Continuous
 62
     7
370
     0
100
AcDbLine
 10
364.0867578935
 20
100.7876810322
 30
0.0
 11
364.0867578935
 21
52.8398009086
 31
0.0
  0
LINE
  5
151
330
14A
100
AcDbEntity
  8
0
  6
Continuous
 62
     7
370
     0
100
AcDbLine
 10
84.0867578935
 20
53.8398009086
 30
0.0
 11
364.0867578935
 21
53.8398009086
 31
0.0
  0
MTEXT
  5
152
330
14A
100
AcDbEntity
  8
0
  6
Continuous
 62
     7
370
     0
100
AcDbMText
 10
124.0951356643
 20
58.3515378232
 30
-2.4
 40
3.5
 41
0.0
 71
     1
 72
     1
  1
280
  7
SLDTEXTSTYLE1
 73
     1
 44
1.0
  0
ENDBLK
  5
14C
330
14A
100
AcDbEntity
  8
0
100
AcDbBlockEnd
  0
BLOCK
  5
155
330
154
100
AcDbEntity
  8
0
100
AcDbBlockBegin
  2
*D19
 70
     1
 10
0.0
 20
0.0
 30
0.0
  3
*D19
  1

  0
INSERT
  5
157
330
154
100
AcDbEntity
  8
0
  6
Continuous
 62
     7
370
     0
100
AcDbBlockReference
  2
_CLOSED
 10
164.0867578935
 20
383.5574744249
 30
-2.4
 41
6.0
 42
6.0
 50
180.0
  0
INSERT
  5
158
330
154
100
AcDbEntity
  8
0
  6
Continuous
 62
     7
370
     0
100
AcDbBlockReference
  2
_CLOSED
 10
284.0867578935
 20
383.5574744249
 30
-2.4
 41
6.0
 42
6.0
 50
0.0
  0
LINE
  5
159
330
154
100
AcDbEntity
  8
0
  6
Continuous
 62
     7
370
     0
100
AcDbLine
 10
164.0867578935
 20
357.7876810322
 30
0.0
 11
164.0867578935
 21
384.5574744249
 31
0.0
  0
LINE
  5
15A
330
154
100
AcDbEntity
  8
0
  6
Continuous
 62
     7
370
     0
100
AcDbLine
 10
284.0867578935
 20
357.7876810322
 30
0.0
 11
284.0867578935
 21
384.5574744249
 31
0.0
  0
LINE
  5
15B
330
154
100
AcDbEntity
  8
0
  6
Continuous
 62
     7
370
     0
100
AcDbLine
 10
164.0867578935
 20
383.5574744249
 30
0.0
 11
284.0867578935
 21
383.5574744249
 31
0.0
  0
MTEXT
  5
15C
330
154
100
AcDbEntity
  8
0
  6
Continuous
 62
     7
370
     0
100
AcDbMText
 10
194.4670166616
 20
388.0692113395
 30
-2.4
 40
3.5
 41
0.0
 71
     1
 72
     1
  1
120
  7
SLDTEXTSTYLE1
 73
     1
 44
1.0
  0
ENDBLK
  5
156
330
154
100
AcDbEntity
  8
0
100
AcDbBlockEnd
  0
BLOCK
  5
15F
330
15E
100
AcDbEntity
  8
0
100
AcDbBlockBegin
  2
*D20
 70
     1
 10
0.0
 20
0.0
 30
0.0
  3
*D20
  1

  0
INSERT
  5
161
330
15E
100
AcDbEntity
  8
0
  6
Continuous
 62
     7
370
     0
100
AcDbBlockReference
  2
_CLOSED
 10
137.5903929639
 20
264.3212079382
 30
-2.4
 41
6.0
 42
6.0
 50
9.2589624483
  0
INSERT
  5
162
330
15E
100
AcDbEntity
  8
0
  6
Continuous
 62
     7
370
     0
100
AcDbBlockReference
  2
_CLOSED
 10
98.1115445458
 20
257.8853297868
 30
-2.4
 41
6.0
 42
6.0
 50
189.2589624483
  0
LINE
  5
163
330
15E
100
AcDbEntity
  8
0
  6
Continuous
 62
     7
370
     0
100
AcDbLine
 10
143.1406937633
 20
230.2746522426
 30
0.0
 11
137.4294960102
 21
265.3081791486
 31
0.0
  0
LINE
  5
164
330
15E
100
AcDbEntity
  8
0
  6
Continuous
 62
     7
370
     0
100
AcDbLine
 10
103.6618453452
 20
223.8387740912
 30
0.0
 11
97.950647592
 21
258.8723009972
 31
0.0
  0
LINE
  5
165
330
15E
100
AcDbEntity
  8
0
  6
Continuous
 62
     7
370
     0
100
AcDbLine
 10
137.5903929639
 20
264.3212079382
 30
0.0
 11
98.1115445458
 21
257.8853297868
 31
0.0
  0
MTEXT
  5
166
330
15E
100
AcDbEntity
  8
0
  6
Continuous
 62
     7
370
     0
100
AcDbMText
 10
109.4824233983
 20
264.3103162673
 30
-2.4
 40
3.5
 41
0.0
 71
     1
 72
     1
  1
40
  7
SLDTEXTSTYLE1
 11
0.9869712104527975
 21
0.1608969537851475
 31
0.0
 73
     1
 44
1.0
  0
ENDBLK
  5
160
330
15E
100
AcDbEntity
  8
0
100
AcDbBlockEnd
  0
BLOCK
  5
16A
330
169
100
AcDbEntity
  8
0
100
AcDbBlockBegin
  2
*D21
 70
     1
 10
0.0
 20
0.0
 30
0.0
  3
*D21
  1

  0
ARC
  5
16C
330
169
100
AcDbEntity
  8
0
  6
Continuous
 62
     7
370
     0
100
AcDbCircle
 10
108.1786432254
 20
218.4959019543
 30
0.0
 40
4.999999999999995
100
AcDbArc
 50
182.0509700257
 51
210.0079457864
  0
INSERT
  5
16D
330
169
100
AcDbEntity
  8
0
  6
Continuous
 62
     7
370
     0
100
AcDbBlockReference
  2
_CLOSED
 10
103.4425362544
 20
216.8930012214
 30
-2.4
 41
6.0
 42
6.0
 50
18.6980133124
  0
LINE
  5
16E
330
169
100
AcDbEntity
  8
0
  6
Continuous
 62
     7
370
     0
100
AcDbLine
 10
103.4425362544
 20
216.8930012214
 30
0.0
 11
65.4312779015
 21
204.0283690985
 31
0.0
  0
LINE
  5
16F
330
169
100
AcDbEntity
  8
0
  6
Continuous
 62
     7
370
     0
100
AcDbLine
 10
103.4425362544
 20
216.8930012214
 30
0.0
 11
108.1786432254
 21
218.4959019543
 31
0.0
  0
MTEXT
  5
170
330
169
100
AcDbEntity
  8
0
  6
Continuous
 62
     7
370
     0
100
AcDbMText
 10
63.9869331691
 20
208.2959890545
 30
-2.4
 40
3.5
 41
0.0
 71
     1
 72
     1
  1
R5
  7
SLDTEXTSTYLE1
 11
0.9472213941883537
 21
0.3205801465965593
 31
0.0
 73
     1
 44
1.0
  0
ENDBLK
  5
16B
330
169
100
AcDbEntity
  8
0
100
AcDbBlockEnd
  0
BLOCK
  5
173
330
172
100
AcDbEntity
  8
0
100
AcDbBlockBegin
  2
*D22
 70
     1
 10
0.0
 20
0.0
 30
0.0
  3
*D22
  1

  0
INSERT
  5
175
330
172
100
AcDbEntity
  8
0
  6
Continuous
 62
     7
370
     0
100
AcDbBlockReference
  2
_CLOSED
 10
373.2056493997
 20
101.7876810322
 30
-2.4
 41
6.0
 42
6.0
 50
270.0
  0
INSERT
  5
176
330
172
100
AcDbEntity
  8
0
  6
Continuous
 62
     7
370
     0
100
AcDbBlockReference
  2
_CLOSED
 10
373.2056493997
 20
356.7876810322
 30
-2.4
 41
6.0
 42
6.0
 50
90.0
  0
LINE
  5
177
330
172
100
AcDbEntity
  8
0
  6
Continuous
 62
     7
370
     0
100
AcDbLine
 10
359.2056493997
 20
101.7876810322
 30
0.0
 11
374.2056493997
 21
101.7876810322
 31
0.0
  0
LINE
  5
178
330
172
100
AcDbEntity
  8
0
  6
Continuous
 62
     7
370
     0
100
AcDbLine
 10
280.83585859
 20
356.7876810322
 30
0.0
 11
374.2056493997
 21
356.7876810322
 31
0.0
  0
LINE
  5
179
330
172
100
AcDbEntity
  8
0
  6
Continuous
 62
     7
370
     0
100
AcDbLine
 10
373.2056493997
 20
101.7876810322
 30
0.0
 11
373.2056493997
 21
356.7876810322
 31
0.0
  0
MTEXT
  5
17A
330
172
100
AcDbEntity
  8
0
  6
Continuous
 62
     7
370
     0
100
AcDbMText
 10
368.6939124851
 20
217.0776037036
 30
-2.4
 40
3.5
 41
0.0
 71
     1
 72
     1
  1
255
  7
SLDTEXTSTYLE1
 11
6.123233995736766E-17
 21
1.0
 31
0.0
 73
     1
 44
1.0
  0
ENDBLK
  5
174
330
172
100
AcDbEntity
  8
0
100
AcDbBlockEnd
  0
BLOCK
  5
1F9
330
1F8
100
AcDbEntity
  8
0
100
AcDbBlockBegin
  2
*D23
 70
     1
 10
0.0
 20
0.0
 30
0.0
  3
*D23
  1

  0
INSERT
  5
1FB
330
1F8
100
AcDbEntity
  8
0
  6
Continuous
 62
     7
370
     0
100
AcDbBlockReference
  2
_CLOSED
 10
379.2056493997
 20
42.3408067364
 30
-127.4
 41
6.0
 42
6.0
 50
270.0
  0
INSERT
  5
1FC
330
1F8
100
AcDbEntity
  8
0
  6
Continuous
 62
     7
370
     0
100
AcDbBlockReference
  2
_CLOSED
 10
379.2056493997
 20
40.3408067364
 30
-127.4
 41
6.0
 42
6.0
 50
90.0
  0
LINE
  5
1FD
330
1F8
100
AcDbEntity
  8
0
  6
Continuous
 62
     7
370
     0
100
AcDbLine
 10
364.140505452
 20
42.3408067364
 30
0.0
 11
380.2056493997
 21
42.3408067364
 31
0.0
  0
LINE
  5
1FE
330
1F8
100
AcDbEntity
  8
0
  6
Continuous
 62
     7
370
     0
100
AcDbLine
 10
364.140505452
 20
40.3408067364
 30
0.0
 11
380.2056493997
 21
40.3408067364
 31
0.0
  0
LINE
  5
1FF
330
1F8
100
AcDbEntity
  8
0
  6
Continuous
 62
     7
370
     0
100
AcDbLine
 10
379.2056493997
 20
42.3408067364
 30
0.0
 11
379.2056493997
 21
55.0557373043
 31
0.0
  0
LINE
  5
200
330
1F8
100
AcDbEntity
  8
0
  6
Continuous
 62
     7
370
     0
100
AcDbLine
 10
379.2056493997
 20
42.3408067364
 30
0.0
 11
379.2056493997
 21
40.3408067364
 31
0.0
  0
LINE
  5
201
330
1F8
100
AcDbEntity
  8
0
  6
Continuous
 62
     7
370
     0
100
AcDbLine
 10
379.2056493997
 20
40.3408067364
 30
0.0
 11
379.2056493997
 21
28.3408067364
 31
0.0
  0
MTEXT
  5
202
330
1F8
100
AcDbEntity
  8
0
  6
Continuous
 62
     7
370
     0
100
AcDbMText
 10
374.6939124851
 20
49.6258761685
 30
-127.4
 40
3.5
 41
0.0
 71
     1
 72
     1
  1
2
  7
SLDTEXTSTYLE1
 11
-7.044195017643634E-15
 21
1.0
 31
0.0
 73
     1
 44
1.0
  0
ENDBLK
  5
1FA
330
1F8
100
AcDbEntity
  8
0
100
AcDbBlockEnd
  0
ENDSEC
  0
SECTION
  2
ENTITIES
  0
LINE
  5
45
330
1F
100
AcDbEntity
  8
0
  6
Continuous
 62
     7
370
    40
100
AcDbLine
 10
25.0788435654
 20
10.2147801566
 30
0.0
 11
25.0788435654
 21
410.2147801566
 31
0.0
  0
LINE
  5
46
330
1F
100
AcDbEntity
  8
0
  6
Continuous
 62
     7
370
    40
100
AcDbLine
 10
0.0788435654
 20
0.2147801566
 30
0.0
 11
594.0788435654
 21
0.2147801566
 31
0.0
  0
LINE
  5
47
330
1F
100
AcDbEntity
  8
0
  6
Continuous
 62
     7
370
    40
100
AcDbLine
 10
0.0788435654
 20
0.2147801566
 30
0.0
 11
0.0788435654
 21
420.2147801566
 31
0.0
  0
LINE
  5
48
330
1F
100
AcDbEntity
  8
0
  6
Continuous
 62
     7
370
    40
100
AcDbLine
 10
0.0788435654
 20
420.2147801566
 30
0.0
 11
594.0788435654
 21
420.2147801566
 31
0.0
  0
LINE
  5
49
330
1F
100
AcDbEntity
  8
0
  6
Continuous
 62
     7
370
    40
100
AcDbLine
 10
594.0788435654
 20
0.2147801566
 30
0.0
 11
594.0788435654
 21
420.2147801566
 31
0.0
  0
LINE
  5
4A
330
1F
100
AcDbEntity
  8
0
  6
Continuous
 62
     7
370
    40
100
AcDbLine
 10
25.0788435654
 20
410.2147801566
 30
0.0
 11
584.0788435654
 21
410.2147801566
 31
0.0
  0
LINE
  5
4B
330
1F
100
AcDbEntity
  8
0
  6
Continuous
 62
     7
370
    40
100
AcDbLine
 10
25.0788435654
 20
10.2147801566
 30
0.0
 11
584.0788435654
 21
10.2147801566
 31
0.0
  0
LINE
  5
4C
330
1F
100
AcDbEntity
  8
0
  6
Continuous
 62
     7
370
    40
100
AcDbLine
 10
584.0788435654
 20
410.2147801566
 30
0.0
 11
584.0788435654
 21
10.2147801566
 31
0.0
  0
LINE
  5
4D
330
1F
100
AcDbEntity
  8
0
  6
Continuous
 62
     7
370
    40
100
AcDbLine
 10
396.8788435654
 20
14.4647801566
 30
0.0
 11
584.0788435654
 21
14.4647801566
 31
0.0
  0
LINE
  5
4E
330
1F
100
AcDbEntity
  8
0
  6
Continuous
 62
     7
370
    40
100
AcDbLine
 10
584.0788435654
 20
48.4647801566
 30
0.0
 11
396.8788435654
 21
48.4647801566
 31
0.0
  0
LINE
  5
4F
330
1F
100
AcDbEntity
  8
0
  6
Continuous
 62
     7
370
    40
100
AcDbLine
 10
396.8788435654
 20
65.4647801566
 30
0.0
 11
584.0788435654
 21
65.4647801566
 31
0.0
  0
LINE
  5
50
330
1F
100
AcDbEntity
  8
0
  6
Continuous
 62
     7
370
    40
100
AcDbLine
 10
423.8697959991
 20
48.4647801566
 30
0.0
 11
423.8697959991
 21
10.2147801566
 31
0.0
  0
LINE
  5
51
330
1F
100
AcDbEntity
  8
0
  6
Continuous
 62
     7
370
    40
100
AcDbLine
 10
495.6788435654
 20
31.4647801566
 30
0.0
 11
396.8788435654
 21
31.4647801566
 31
0.0
  0
LINE
  5
52
330
1F
100
AcDbEntity
  8
0
  6
Continuous
 62
     7
370
    40
100
AcDbLine
 10
495.6788435654
 20
35.7147801566
 30
0.0
 11
396.8788435654
 21
35.7147801566
 31
0.0
  0
LINE
  5
53
330
1F
100
AcDbEntity
  8
0
  6
Continuous
 62
     7
370
    40
100
AcDbLine
 10
495.6788435654
 20
39.9647801566
 30
0.0
 11
396.8788435654
 21
39.9647801566
 31
0.0
  0
LINE
  5
54
330
1F
100
AcDbEntity
  8
0
  6
Continuous
 62
     7
370
    40
100
AcDbLine
 10
495.6788435654
 20
44.2147801566
 30
0.0
 11
396.8788435654
 21
44.2147801566
 31
0.0
  0
LINE
  5
55
330
1F
100
AcDbEntity
  8
0
  6
Continuous
 62
     7
370
    40
100
AcDbLine
 10
451.4788435654
 20
10.2147801566
 30
0.0
 11
451.4788435654
 21
48.4647801566
 31
0.0
  0
LINE
  5
56
330
1F
100
AcDbEntity
  8
0
  6
Continuous
 62
     7
370
    40
100
AcDbLine
 10
396.8788435654
 20
65.4647801566
 30
0.0
 11
396.8788435654
 21
10.2147801566
 31
0.0
  0
LINE
  5
57
330
1F
100
AcDbEntity
  8
0
  6
Continuous
 62
     7
370
    40
100
AcDbLine
 10
404.6788435654
 20
48.4647801566
 30
0.0
 11
404.6788435654
 21
10.2147801566
 31
0.0
  0
LINE
  5
58
330
1F
100
AcDbEntity
  8
0
  6
Continuous
 62
     7
370
    40
100
AcDbLine
 10
430.6788435654
 20
48.4647801566
 30
0.0
 11
430.6788435654
 21
65.4647801566
 31
0.0
  0
LINE
  5
59
330
1F
100
AcDbEntity
  8
0
  6
Continuous
 62
     7
370
    40
100
AcDbLine
 10
441.2777697289
 20
48.4647801566
 30
0.0
 11
441.2777697289
 21
10.2147801566
 31
0.0
  0
LINE
  5
5A
330
1F
100
AcDbEntity
  8
0
  6
Continuous
 62
     7
370
    40
100
AcDbLine
 10
461.8788435654
 20
31.4647801566
 30
0.0
 11
461.8788435654
 21
48.4647801566
 31
0.0
  0
LINE
  5
5B
330
1F
100
AcDbEntity
  8
0
  6
Continuous
 62
     7
370
    40
100
AcDbLine
 10
451.4788435654
 20
18.7147801566
 30
0.0
 11
396.8788435654
 21
18.7147801566
 31
0.0
  0
LINE
  5
5C
330
1F
100
AcDbEntity
  8
0
  6
Continuous
 62
     7
370
    40
100
AcDbLine
 10
477.4788435654
 20
65.4647801566
 30
0.0
 11
477.4788435654
 21
27.2147801566
 31
0.0
  0
LINE
  5
5D
330
1F
100
AcDbEntity
  8
0
  6
Continuous
 62
     7
370
    40
100
AcDbLine
 10
451.4788435654
 20
22.9647081566
 30
0.0
 11
396.8788435654
 21
22.9647081566
 31
0.0
  0
LINE
  5
5E
330
1F
100
AcDbEntity
  8
0
  6
Continuous
 62
     7
370
    40
100
AcDbLine
 10
451.4788435654
 20
27.2147801566
 30
0.0
 11
396.8788435654
 21
27.2147801566
 31
0.0
  0
LINE
  5
5F
330
1F
100
AcDbEntity
  8
0
  6
Continuous
 62
     7
370
    40
100
AcDbLine
 10
451.4788435654
 20
27.2147801566
 30
0.0
 11
584.0788435654
 21
27.2147801566
 31
0.0
  0
LINE
  5
60
330
1F
100
AcDbEntity
  8
0
  6
Continuous
 62
     7
370
    40
100
AcDbLine
 10
495.6788435654
 20
65.4647801566
 30
0.0
 11
495.6788435654
 21
10.2147801566
 31
0.0
  0
LINE
  5
61
330
1F
100
AcDbEntity
  8
0
  6
Continuous
 62
     7
370
    40
100
AcDbLine
 10
539.8788435654
 20
10.2147801566
 30
0.0
 11
539.8788435654
 21
14.4647801566
 31
0.0
  0
LINE
  5
62
330
1F
100
AcDbEntity
  8
0
  6
Continuous
 62
     7
370
    40
100
AcDbLine
 10
547.6788435654
 20
59.0897801566
 30
0.0
 11
547.6788435654
 21
65.4647801566
 31
0.0
  0
LINE
  5
63
330
1F
100
AcDbEntity
  8
0
  6
Continuous
 62
     7
370
    40
100
AcDbLine
 10
571.0788435654
 20
14.4647801566
 30
0.0
 11
571.0788435654
 21
27.2147801566
 31
0.0
  0
LINE
  5
64
330
1F
100
AcDbEntity
  8
0
  6
Continuous
 62
     7
370
    40
100
AcDbLine
 10
584.0788435654
 20
59.0897801566
 30
0.0
 11
495.6788435654
 21
59.0897801566
 31
0.0
  0
LINE
  5
65
330
1F
100
AcDbEntity
  8
0
  6
Continuous
 62
     7
370
    40
100
AcDbLine
 10
584.0788435654
 20
18.7147801566
 30
0.0
 11
571.0788435654
 21
18.7147801566
 31
0.0
  0
MTEXT
  5
67
330
1F
100
AcDbEntity
  8
0
  6
Continuous
 62
     7
370
     0
100
AcDbMText
 10
102.8703984763
 20
26.161112719
 30
0.0
 40
5.0
 41
0.0
 71
     1
 72
     1
  1
\M+18DB6\M+18945\M+18FCC
  7
SLDTEXTSTYLE0
 73
     1
 44
1.0
  0
MTEXT
  5
68
330
1F
100
AcDbEntity
  8
0
  6
Continuous
 62
     7
370
     0
100
AcDbMText
 10
539.6609819287
 20
41.2496795977
 30
0.0
 40
6.35
 41
0.0
 71
     2
 72
     1
  1
\M+196CA\M+194C2
  7
SLDTEXTSTYLE0
 73
     1
 44
1.0
  0
MTEXT
  5
6A
330
1F
100
AcDbEntity
  8
0
  6
Continuous
 62
     7
370
     0
100
AcDbMText
 10
536.7803537177
 20
24.8465185664
 30
0.0
 40
6.35
 41
0.0
 71
     2
 72
     1
  1
Popn Asc
  7
SLDTEXTSTYLE1
 73
     1
 44
1.0
  0
MTEXT
  5
6B
330
1F
100
AcDbEntity
  8
0
  6
Continuous
 62
     7
370
     0
100
AcDbMText
 10
452.4966546935
 20
13.1640920602
 30
0.0
 40
1.4986
 41
0.0
 71
     1
 72
     1
  1
WEIGHT:
  7
SLDTEXTSTYLE1
 73
     1
 44
1.0
  0
MTEXT
  5
6C
330
1F
100
AcDbEntity
  8
0
  6
Continuous
 62
     7
370
     0
100
AcDbMText
 10
574.9998284117
 20
24.5152246096
 30
0.0
 40
2.9104166667
 41
0.0
 71
     1
 72
     1
  1
A2
  7
SLDTEXTSTYLE1
 73
     1
 44
1.0
  0
MTEXT
  5
6E
330
1F
100
AcDbEntity
  8
0
  6
Continuous
 62
     7
370
     0
100
AcDbMText
 10
541.3571379932
 20
13.114867664
 30
0.0
 40
1.5
 41
0.0
 71
     1
 72
     1
  1
SHEET 1 OF 5
  7
SLDTEXTSTYLE2
 73
     1
 44
1.0
  0
MTEXT
  5
6F
330
1F
100
AcDbEntity
  8
0
  6
Continuous
 62
     7
370
     0
100
AcDbMText
 10
496.9528096828
 20
13.114867664
 30
0.0
 40
1.5
 41
0.0
 71
     1
 72
     1
  1
SCALE:1:1
  7
SLDTEXTSTYLE1
 73
     1
 44
1.0
  0
MTEXT
  5
70
330
1F
100
AcDbEntity
  8
0
  6
Continuous
 62
     7
370
     0
100
AcDbMText
 10
496.9528096828
 20
25.0834182165
 30
0.0
 40
1.5
 41
0.0
 71
     1
 72
     1
  1
DWG NO.
  7
SLDTEXTSTYLE1
 73
     1
 44
1.0
  0
MTEXT
  5
71
330
1F
100
AcDbEntity
  8
0
  6
Continuous
 62
     7
370
     0
100
AcDbMText
 10
496.835030502
 20
46.4931146755
 30
0.0
 40
1.5
 41
0.0
 71
     1
 72
     1
  1
TITLE:
  7
SLDTEXTSTYLE1
 73
     1
 44
1.0
  0
MTEXT
  5
72
330
1F
100
AcDbEntity
  8
0
  6
Continuous
 62
     7
370
     0
100
AcDbMText
 10
550.2064252647
 20
62.5496890699
 30
0.0
 40
1.5
 41
0.0
 71
     1
 72
     1
  1
REVISION
  7
SLDTEXTSTYLE1
 73
     1
 44
1.0
  0
MTEXT
  5
73
330
1F
100
AcDbEntity
  8
0
  6
Continuous
 62
     7
370
     0
100
AcDbMText
 10
509.4934840882
 20
62.7477739645
 30
0.0
 40
1.5
 41
0.0
 71
     1
 72
     1
  1
DO NOT SCALE DRAWING
  7
SLDTEXTSTYLE1
 73
     1
 44
1.0
  0
MTEXT
  5
74
330
1F
100
AcDbEntity
  8
0
  6
Continuous
 62
     7
370
     0
100
AcDbMText
 10
452.5247058741
 20
26.2008366787
 30
0.0
 40
1.5
 41
0.0
 71
     1
 72
     1
  1
MATERIAL:
  7
SLDTEXTSTYLE1
 73
     1
 44
1.0
  0
MTEXT
  5
75
330
1F
100
AcDbEntity
  8
0
  6
Continuous
 62
     7
370
     0
100
AcDbMText
 10
444.0935455311
 20
46.7909596107
 30
0.0
 40
1.5
 41
0.0
 71
     1
 72
     1
  1
DATE
  7
SLDTEXTSTYLE1
 73
     1
 44
1.0
  0
MTEXT
  5
76
330
1F
100
AcDbEntity
  8
0
  6
Continuous
 62
     7
370
     0
100
AcDbMText
 10
426.9124311285
 20
46.776536769
 30
0.0
 40
1.5
 41
0.0
 71
     1
 72
     1
  1
SIGNATURE
  7
SLDTEXTSTYLE1
 73
     1
 44
1.0
  0
MTEXT
  5
77
330
1F
100
AcDbEntity
  8
0
  6
Continuous
 62
     7
370
     0
100
AcDbMText
 10
411.201082783
 20
46.7162630229
 30
0.0
 40
1.5
 41
0.0
 71
     1
 72
     1
  1
NAME
  7
SLDTEXTSTYLE1
 73
     1
 44
1.0
  0
INSERT
  5
7E
330
1F
100
AcDbEntity
  8
0
  6
Continuous
 62
     7
370
     0
100
AcDbBlockReference
  2
SW_NOTE_0
 10
478.1880592516
 20
62.2842700325
 30
0.0
  0
MTEXT
  5
7F
330
1F
100
AcDbEntity
  8
0
  6
Continuous
 62
     7
370
     0
100
AcDbMText
 10
431.2501357322
 20
64.1340523846
 30
0.0
 40
1.5
 41
0.0
 71
     1
 72
     1
  1
FINISH:
  7
SLDTEXTSTYLE1
 73
     1
 44
1.0
  0
INSERT
  5
89
330
1F
100
AcDbEntity
  8
0
  6
Continuous
 62
     7
370
     0
100
AcDbBlockReference
  2
SW_NOTE_1
 10
397.472512311
 20
62.2021502637
 30
0.0
  0
MTEXT
  5
8A
330
1F
100
AcDbEntity
  8
0
  6
Continuous
 62
     7
370
     0
100
AcDbMText
 10
397.5478864275
 20
25.5644295968
 30
0.0
 40
1.5
 41
0.0
 71
     1
 72
     1
  1
Q.A
  7
SLDTEXTSTYLE1
 73
     1
 44
1.0
  0
MTEXT
  5
8B
330
1F
100
AcDbEntity
  8
0
  6
Continuous
 62
     7
370
     0
100
AcDbMText
 10
397.3340300644
 20
29.9484850401
 30
0.0
 40
1.5
 41
0.0
 71
     1
 72
     1
  1
MFG
  7
SLDTEXTSTYLE1
 73
     1
 44
1.0
  0
MTEXT
  5
8C
330
1F
100
AcDbEntity
  8
0
  6
Continuous
 62
     7
370
     0
100
AcDbMText
 10
397.2805659737
 20
34.2790763926
 30
0.0
 40
1.5
 41
0.0
 71
     1
 72
     1
  1
APPV'D
  7
SLDTEXTSTYLE1
 73
     1
 44
1.0
  0
MTEXT
  5
8D
330
1F
100
AcDbEntity
  8
0
  6
Continuous
 62
     7
370
     0
100
AcDbMText
 10
397.289312433
 20
38.3691875495
 30
0.0
 40
1.5
 41
0.0
 71
     1
 72
     1
  1
CHK'D
  7
SLDTEXTSTYLE1
 73
     1
 44
1.0
  0
MTEXT
  5
8E
330
1F
100
AcDbEntity
  8
0
  6
Continuous
 62
     7
370
     0
100
AcDbMText
 10
397.0909928094
 20
42.6444952754
 30
0.0
 40
1.5
 41
0.0
 71
     1
 72
     1
  1
DRAWN
  7
SLDTEXTSTYLE1
 73
     1
 44
1.0
  0
CIRCLE
  5
8F
330
1F
100
AcDbEntity
  8
0
  6
Continuous
 62
     7
370
    15
100
AcDbCircle
 10
294.0867578935
 20
161.7876810322
 30
0.0
 40
49.99999999999999
  0
CIRCLE
  5
90
330
1F
100
AcDbEntity
  8
0
  6
Continuous
 62
     7
370
    15
100
AcDbCircle
 10
224.0867578935
 20
296.7876810322
 30
0.0
 40
50.0
  0
LINE
  5
91
330
1F
100
AcDbEntity
  8
0
  6
Continuous
 62
     7
370
    15
100
AcDbLine
 10
139.7501745596
 20
228.7087259063
 30
0.0
 11
107.3741584564
 21
223.4307580066
 31
0.0
  0
ARC
  5
92
330
1F
100
AcDbEntity
  8
0
  6
Continuous
 62
     7
370
    15
100
AcDbCircle
 10
138.9456897906
 20
233.6435819586
 30
0.0
 40
4.999999999999998
100
AcDbArc
 50
279.2589624483
 51
350.7410375517
  0
LINE
  5
93
330
1F
100
AcDbEntity
  8
0
  6
Continuous
 62
     7
370
    15
100
AcDbLine
 10
163.4028011447
 20
352.5921658011
 30
0.0
 11
143.8805458429
 21
232.8390971896
 31
0.0
  0
ARC
  5
94
330
1F
100
AcDbEntity
  8
0
  6
Continuous
 62
     7
370
    15
100
AcDbCircle
 10
168.337657197
 20
351.7876810322
 30
0.0
 40
5.000000000000031
100
AcDbArc
 50
90.0
 51
170.7410375517
  0
LINE
  5
95
330
1F
100
AcDbEntity
  8
0
  6
Continuous
 62
     7
370
    15
100
AcDbLine
 10
279.83585859
 20
356.7876810322
 30
0.0
 11
168.337657197
 21
356.7876810322
 31
0.0
  0
ARC
  5
96
330
1F
100
AcDbEntity
  8
0
  6
Continuous
 62
     7
370
    15
100
AcDbCircle
 10
279.83585859
 20
351.7876810322
 30
0.0
 40
5.0
100
AcDbArc
 50
9.2589624483
 51
90.0
  0
LINE
  5
97
330
1F
100
AcDbEntity
  8
0
  6
Continuous
 62
     7
370
    15
100
AcDbLine
 10
304.2929699441
 20
232.8390971896
 30
0.0
 11
284.7707146423
 21
352.5921658011
 31
0.0
  0
ARC
  5
98
330
1F
100
AcDbEntity
  8
0
  6
Continuous
 62
     7
370
    15
100
AcDbCircle
 10
309.2278259964
 20
233.6435819586
 30
0.0
 40
5.000000000000027
100
AcDbArc
 50
189.2589624483
 51
260.7410375517
  0
LINE
  5
99
330
1F
100
AcDbEntity
  8
0
  6
Continuous
 62
     7
370
    15
100
AcDbLine
 10
340.7993573306
 20
223.4307580066
 30
0.0
 11
308.4233412274
 21
228.7087259063
 31
0.0
  0
ARC
  5
9A
330
1F
100
AcDbEntity
  8
0
  6
Continuous
 62
     7
370
    15
100
AcDbCircle
 10
339.9948725617
 20
218.4959019543
 30
0.0
 40
5.000000000000004
100
AcDbArc
 50
9.2589624483
 51
80.7410375517
  0
LINE
  5
9B
330
1F
100
AcDbEntity
  8
0
  6
Continuous
 62
     7
370
    15
100
AcDbLine
 10
363.140505452
 20
107.5921658011
 30
0.0
 11
344.9297286139
 21
219.3003867233
 31
0.0
  0
ARC
  5
9C
330
1F
100
AcDbEntity
  8
0
  6
Continuous
 62
     7
370
    15
100
AcDbCircle
 10
358.2056493997
 20
106.7876810322
 30
0.0
 40
5.0
100
AcDbArc
 50
270.0
 51
9.2589624483
  0
LINE
  5
9D
330
1F
100
AcDbEntity
  8
0
  6
Continuous
 62
     7
370
    15
100
AcDbLine
 10
89.9678663873
 20
101.7876810322
 30
0.0
 11
358.2056493997
 21
101.7876810322
 31
0.0
  0
ARC
  5
9E
330
1F
100
AcDbEntity
  8
0
  6
Continuous
 62
     7
370
    15
100
AcDbCircle
 10
89.9678663873
 20
106.7876810322
 30
0.0
 40
5.0
100
AcDbArc
 50
170.7410375517
 51
270.0
  0
LINE
  5
9F
330
1F
100
AcDbEntity
  8
0
  6
Continuous
 62
     7
370
    15
100
AcDbLine
 10
103.2437871731
 20
219.3003867233
 30
0.0
 11
85.033010335
 21
107.5921658011
 31
0.0
  0
ARC
  5
A0
330
1F
100
AcDbEntity
  8
0
  6
Continuous
 62
     7
370
    15
100
AcDbCircle
 10
108.1786432254
 20
218.4959019543
 30
0.0
 40
5.000000000000012
100
AcDbArc
 50
99.2589624483
 51
170.7410375517
  0
CIRCLE
  5
A1
330
1F
100
AcDbEntity
  8
0
  6
Continuous
 62
     7
370
    15
100
AcDbCircle
 10
154.0867578935
 20
161.7876810322
 30
0.0
 40
50.0
  0
LINE
  5
A2
330
1F
100
AcDbEntity
  8
0
  6
Continuous
 62
     7
370
    15
100
AcDbLine
 10
342.5029323081
 20
114.004334826
 30
0.0
 11
347.5122013679
 21
115.5758702173
 31
0.0
  0
LINE
  5
A3
330
1F
100
AcDbEntity
  8
0
  6
Continuous
 62
     7
370
    15
100
AcDbLine
 10
347.5122013679
 20
115.5758702173
 30
0.0
 11
343.0221002498
 21
129.8880675311
 31
0.0
  0
LINE
  5
A4
330
1F
100
AcDbEntity
  8
0
  6
Continuous
 62
     7
370
    15
100
AcDbLine
 10
343.0221002498
 20
129.8880675311
 30
0.0
 11
338.01283119
 21
128.3165321398
 31
0.0
  0
LINE
  5
A5
330
1F
100
AcDbEntity
  8
0
  6
Continuous
 62
     7
370
    15
100
AcDbLine
 10
338.01283119
 20
128.3165321398
 30
0.0
 11
342.5029323081
 21
114.004334826
 31
0.0
  0
LINE
  5
A6
330
1F
100
AcDbEntity
  8
0
  6
Continuous
 62
     7
370
    15
100
AcDbLine
 10
173.0221002498
 20
328.6872945332
 30
0.0
 11
177.5122013679
 21
342.999491847
 31
0.0
  0
LINE
  5
A7
330
1F
100
AcDbEntity
  8
0
  6
Continuous
 62
     7
370
    15
100
AcDbLine
 10
177.5122013679
 20
342.999491847
 30
0.0
 11
172.5029323081
 21
344.5710272383
 31
0.0
  0
LINE
  5
A8
330
1F
100
AcDbEntity
  8
0
  6
Continuous
 62
     7
370
    15
100
AcDbLine
 10
172.5029323081
 20
344.5710272383
 30
0.0
 11
168.01283119
 21
330.2588299245
 31
0.0
  0
LINE
  5
A9
330
1F
100
AcDbEntity
  8
0
  6
Continuous
 62
     7
370
    15
100
AcDbLine
 10
168.01283119
 20
330.2588299245
 30
0.0
 11
173.0221002498
 21
328.6872945332
 31
0.0
  0
LINE
  5
AA
330
1F
100
AcDbEntity
  8
0
  6
Continuous
 62
     7
370
    15
100
AcDbLine
 10
105.6705834789
 20
114.004334826
 30
0.0
 11
110.160684597
 21
128.3165321398
 31
0.0
  0
LINE
  5
AB
330
1F
100
AcDbEntity
  8
0
  6
Continuous
 62
     7
370
    15
100
AcDbLine
 10
110.160684597
 20
128.3165321398
 30
0.0
 11
105.1514155372
 21
129.8880675311
 31
0.0
  0
LINE
  5
AC
330
1F
100
AcDbEntity
  8
0
  6
Continuous
 62
     7
370
    15
100
AcDbLine
 10
105.1514155372
 20
129.8880675311
 30
0.0
 11
100.6613144191
 21
115.5758702173
 31
0.0
  0
LINE
  5
AD
330
1F
100
AcDbEntity
  8
0
  6
Continuous
 62
     7
370
    15
100
AcDbLine
 10
100.6613144191
 20
115.5758702173
 30
0.0
 11
105.6705834789
 21
114.004334826
 31
0.0
  0
LINE
  5
AE
330
1F
100
AcDbEntity
  8
0
  6
Continuous
 62
     7
370
    15
100
AcDbLine
 10
275.6705834789
 20
344.5710272383
 30
0.0
 11
270.6613144191
 21
342.999491847
 31
0.0
  0
LINE
  5
AF
330
1F
100
AcDbEntity
  8
0
  6
Continuous
 62
     7
370
    15
100
AcDbLine
 10
270.6613144191
 20
342.999491847
 30
0.0
 11
275.1514155372
 21
328.6872945332
 31
0.0
  0
LINE
  5
B0
330
1F
100
AcDbEntity
  8
0
  6
Continuous
 62
     7
370
    15
100
AcDbLine
 10
275.1514155372
 20
328.6872945332
 30
0.0
 11
280.160684597
 21
330.2588299245
 31
0.0
  0
LINE
  5
B1
330
1F
100
AcDbEntity
  8
0
  6
Continuous
 62
     7
370
    15
100
AcDbLine
 10
280.160684597
 20
330.2588299245
 30
0.0
 11
275.6705834789
 21
344.5710272383
 31
0.0
  0
DIMENSION
  5
B2
330
1F
100
AcDbEntity
  8
0
  6
Continuous
 62
     7
370
     0
100
AcDbDimension
  2
*D4
 10
183.8225929122
 20
363.1138648944
 30
0.0
 11
184.567611889
 21
362.8801334507
 31
0.0
 70
   160
 71
     2
 42
-1.0
  3
SLDDIMSTYLE0
100
AcDbAlignedDimension
 13
172.5029323081
 23
344.5710272383
 33
0.0
 14
177.5122013679
 24
342.999491847
 34
0.0
 50
-17.4179707922
100
AcDbRotatedDimension
  0
DIMENSION
  5
C6
330
1F
100
AcDbEntity
  8
0
  6
Continuous
 62
     7
370
     0
100
AcDbDimension
  2
*D5
 10
113.5459468228
 20
363.0673364102
 30
0.0
 11
113.1623860486
 21
361.8447364425
 31
0.0
 70
   160
 71
     2
 42
-1.0
  3
SLDDIMSTYLE1
100
AcDbAlignedDimension
 13
168.01283119
 23
330.2588299245
 33
0.0
 14
172.5029323081
 24
344.5710272383
 34
0.0
 50
72.5820292078
100
AcDbRotatedDimension
  0
DIMENSION
  5
D3
330
1F
100
AcDbEntity
  8
0
  6
Continuous
 62
     7
370
     0
100
AcDbDimension
  2
*D6
 10
50.0374729806
 20
147.1787161763
 30
0.0
 11
82.9628477715
 21
252.128348322
 31
0.0
 70
   160
 71
     2
 42
-1.0
  3
SLDDIMSTYLE2
100
AcDbAlignedDimension
 13
168.01283119
 23
330.2588299245
 33
0.0
 14
105.1514155372
 24
129.8880675311
 34
0.0
 50
72.5820292078
100
AcDbRotatedDimension
  0
DIMENSION
  5
DE
330
1F
100
AcDbEntity
  8
0
  6
Continuous
 62
     7
370
     0
100
AcDbDimension
  2
*D7
 10
99.0867578935
 20
68.0050956843
 30
0.0
 11
161.4910958324
 21
68.0050956843
 31
0.0
 70
   160
 71
     2
 42
-1.0
  3
SLDDIMSTYLE2
100
AcDbAlignedDimension
 13
224.0867578935
 23
101.7876810322
 33
0.0
 14
99.0867578935
 24
101.7876810322
 34
0.0
 50
0.0
100
AcDbRotatedDimension
  0
DIMENSION
  5
E8
330
1F
100
AcDbEntity
  8
0
  6
Continuous
 62
     7
370
     0
100
AcDbDimension
  2
*D8
 10
179.0867578935
 20
393.7159834584
 30
0.0
 11
201.2545170323
 21
393.7159834584
 31
0.0
 70
   160
 71
     2
 42
-1.0
  3
SLDDIMSTYLE2
100
AcDbAlignedDimension
 13
224.0867578935
 23
356.7876810322
 33
0.0
 14
179.0867578935
 24
356.7876810322
 34
0.0
100
AcDbRotatedDimension
  0
DIMENSION
  5
F2
330
1F
100
AcDbEntity
  8
0
  6
Continuous
 62
     7
370
     0
100
AcDbDimension
  2
*D9
 10
294.2412853946
 20
346.7876810322
 30
0.0
 11
294.2412853946
 21
316.2816069899
 31
0.0
 70
   160
  1
%%c<>
 71
     2
 42
-1.0
  3
SLDDIMSTYLE2
100
AcDbAlignedDimension
 13
224.0867578935
 23
246.7876810322
 33
0.0
 14
224.0867578935
 24
346.7876810322
 34
0.0
 50
90.0
100
AcDbRotatedDimension
  0
DIMENSION
  5
FD
330
1F
100
AcDbEntity
  8
0
  6
Continuous
 62
     7
370
     0
100
AcDbDimension
  2
*D11
 10
118.7314188342
 20
126.4323419728
 30
0.0
 11
200.2775811027
 21
207.9785042414
 31
0.0
 70
   163
  1
<>
 71
     1
 42
-1.0
  3
SLDDIMSTYLE3
100
AcDbDiametricDimension
 15
189.4420969528
 25
197.1430200915
 35
0.0
 40
0.0
  0
DIMENSION
  5
10A
330
1F
100
AcDbEntity
  8
0
  6
Continuous
 62
     7
370
     0
100
AcDbDimension
  2
*D12
 10
329.4420969528
 20
126.4323419728
 30
0.0
 11
250.2959992486
 21
205.5784596771
 31
0.0
 70
   163
  1
<>
 71
     1
 42
-1.0
  3
SLDDIMSTYLE3
100
AcDbDiametricDimension
 15
258.7314188342
 25
197.1430200915
 35
0.0
 40
0.0
  0
DIMENSION
  5
113
330
1F
100
AcDbEntity
  8
0
  6
Continuous
 62
     7
370
     0
100
AcDbDimension
  2
*D13
 10
32.9678663873
 20
101.7876810322
 30
0.0
 11
32.9678663873
 21
222.3786452321
 31
0.0
 70
   160
 71
     2
 42
-1.0
  3
SLDDIMSTYLE2
100
AcDbAlignedDimension
 13
154.0867578935
 23
161.7876810322
 33
0.0
 14
89.9678663873
 24
101.7876810322
 34
0.0
 50
90.0
100
AcDbRotatedDimension
  0
DIMENSION
  5
11E
330
1F
100
AcDbEntity
  8
0
  6
Continuous
 62
     7
370
     0
100
AcDbDimension
  2
*D14
 10
330.5895346664
 20
356.7876810322
 30
0.0
 11
330.5895346664
 21
390.7876810322
 31
0.0
 70
   160
 71
     2
 42
-1.0
  3
SLDDIMSTYLE2
100
AcDbAlignedDimension
 13
224.0867578935
 23
296.7876810322
 33
0.0
 14
279.83585859
 24
356.7876810322
 34
0.0
 50
90.0
100
AcDbRotatedDimension
  0
DIMENSION
  5
129
330
1F
100
AcDbEntity
  8
0
  6
Continuous
 62
     7
370
     0
100
AcDbDimension
  2
*D15
 10
294.0867578935
 20
85.7876810322
 30
0.0
 11
199.7680581902
 21
85.7876810322
 31
0.0
 70
   160
 71
     2
 42
-1.0
  3
SLDDIMSTYLE2
100
AcDbAlignedDimension
 13
154.0867578935
 23
161.7876810322
 33
0.0
 14
294.0867578935
 24
161.7876810322
 34
0.0
100
AcDbRotatedDimension
  0
DIMENSION
  5
133
330
1F
100
AcDbEntity
  8
0
  6
Continuous
 62
     7
370
     0
100
AcDbDimension
  2
*D16
 10
355.3808090246
 20
161.7876810322
 30
0.0
 11
355.3808090246
 21
222.3786452321
 31
0.0
 70
   160
 71
     2
 42
-1.0
  3
SLDDIMSTYLE2
100
AcDbAlignedDimension
 13
224.0867578935
 23
296.7876810322
 33
0.0
 14
154.0867578935
 24
161.7876810322
 34
0.0
 50
90.0
100
AcDbRotatedDimension
  0
DIMENSION
  5
13D
330
1F
100
AcDbEntity
  8
0
  6
Continuous
 62
     7
370
     0
100
AcDbDimension
  2
*D17
 10
44.9678663873
 20
101.7876810322
 30
0.0
 11
44.9678663873
 21
297.5283558105
 31
0.0
 70
   160
 71
     2
 42
-1.0
  3
SLDDIMSTYLE4
100
AcDbAlignedDimension
 13
143.3015907171
 23
229.2876810322
 33
0.0
 14
89.9678663873
 24
101.7876810322
 34
0.0
 50
90.0
100
AcDbRotatedDimension
  0
DIMENSION
  5
149
330
1F
100
AcDbEntity
  8
0
  6
Continuous
 62
     7
370
     0
100
AcDbDimension
  2
*D18
 10
364.0867578935
 20
56.6179259041
 30
0.0
 11
129.3961771928
 21
56.6179259041
 31
0.0
 70
   160
 71
     2
 42
-1.0
  3
SLDDIMSTYLE2
100
AcDbAlignedDimension
 13
84.0867578935
 23
101.7876810322
 33
0.0
 14
364.0867578935
 24
101.7876810322
 34
0.0
 50
0.0
100
AcDbRotatedDimension
  0
DIMENSION
  5
153
330
1F
100
AcDbEntity
  8
0
  6
Continuous
 62
     7
370
     0
100
AcDbDimension
  2
*D19
 10
284.0867578935
 20
386.3355994205
 30
0.0
 11
199.7680581902
 21
386.3355994205
 31
0.0
 70
   160
 71
     2
 42
-1.0
  3
SLDDIMSTYLE2
100
AcDbAlignedDimension
 13
164.0867578935
 23
356.7876810322
 33
0.0
 14
284.0867578935
 24
356.7876810322
 34
0.0
100
AcDbRotatedDimension
  0
DIMENSION
  5
15D
330
1F
100
AcDbEntity
  8
0
  6
Continuous
 62
     7
370
     0
100
AcDbDimension
  2
*D20
 10
97.6645526968
 20
260.6272591764
 30
0.0
 11
113.7171233464
 21
263.2441639965
 31
0.0
 70
   160
 71
     2
 42
-1.0
  3
SLDDIMSTYLE2
100
AcDbAlignedDimension
 13
143.3015907171
 23
229.2876810322
 33
0.0
 14
103.8227422989
 24
222.8518028808
 34
0.0
 50
9.2589624483
100
AcDbRotatedDimension
  0
DIMENSION
  5
167
330
1F
100
AcDbEntity
  8
0
  6
Continuous
 62
     7
370
     0
100
AcDbDimension
  2
*D21
 10
108.1786432254
 20
218.4959019543
 30
0.0
 11
69.2565013569
 21
205.3229945895
 31
0.0
 70
   164
  1
<>
 71
     1
 42
-1.0
  3
SLDDIMSTYLE5
100
AcDbRadialDimension
 15
103.4425362544
 25
216.8930012214
 35
0.0
 40
0.0
  0
DIMENSION
  5
171
330
1F
100
AcDbEntity
  8
0
  6
Continuous
 62
     7
370
     0
100
AcDbDimension
  2
*D22
 10
373.2056493997
 20
356.7876810322
 30
0.0
 11
373.2056493997
 21
222.3786452321
 31
0.0
 70
   160
 71
     2
 42
-1.0
  3
SLDDIMSTYLE2
100
AcDbAlignedDimension
 13
358.2056493997
 23
101.7876810322
 33
0.0
 14
279.83585859
 24
356.7876810322
 34
0.0
 50
90.0
100
AcDbRotatedDimension
  0
LINE
  5
17B
330
1F
100
AcDbEntity
  8
0
  6
Continuous
 62
     7
370
    15
100
AcDbLine
 10
435.3284812568
 20
401.7617282137
 30
0.0
 11
433.9142676944
 21
400.9453201019
 31
0.0
  0
LINE
  5
17C
330
1F
100
AcDbEntity
  8
0
  6
Continuous
 62
     7
370
    15
100
AcDbLine
 10
573.1708061744
 20
114.7274480612
 30
0.0
 11
574.5850197368
 21
115.543856173
 31
0.0
  0
LINE
  5
17D
330
1F
100
AcDbEntity
  8
0
  6
Continuous
 62
     7
370
    15
100
AcDbLine
 10
392.7896345279
 20
317.4807042107
 30
0.0
 11
391.3754209656
 21
316.6642960989
 31
0.0
  0
LWPOLYLINE
  5
17E
330
1F
100
AcDbEntity
  8
0
  6
Continuous
 62
     7
370
    15
100
AcDbPolyline
 90
       88
 70
   128
 43
0.0
 10
525.3321063566
 20
149.3139880059
 10
527.8832682787
 20
147.9476602194
 10
530.4211296238
 20
146.8013091185
 10
532.932459158
 20
145.8809112472
 10
535.4041639719
 20
145.1912651338
 10
537.8233577412
 20
144.7359662737
 10
540.1774279096
 20
144.5173883844
 10
542.4541014454
 20
144.5366710298
 10
544.6415088268
 20
144.7937136791
 10
546.7282459248
 20
145.287176231
 10
548.7034334582
 20
146.0144860002
 10
550.5567737138
 20
146.9718511304
 10
552.2786042338
 20
148.154280363
 10
553.8599481911
 20
149.5556090595
 10
555.2925611904
 20
151.168531341
 10
556.568974251
 20
152.9846381776
 10
557.6825327462
 20
154.994461229
 10
558.6274310976
 20
157.1875222087
 10
559.3987430427
 20
159.5523875119
 10
559.9924473183
 20
162.0767278262
 10
560.405448625
 20
164.74738241
 10
560.6355937654
 20
167.5504277068
 10
560.6816828692
 20
170.4712499364
 10
560.5434756492
 20
173.4946212841
 10
560.2216926538
 20
176.6047792918
 10
559.7180115106
 20
179.7855090355
 10
559.0350581799
 20
183.0202276633
 10
558.176393264
 20
186.2920708499
 10
557.1464934442
 20
189.5839807201
 10
555.9507281414
 20
192.87879478
 10
554.5953315221
 20
196.1593353947
 10
553.0873699968
 20
199.4084993445
 10
551.4347053785
 20
202.6093469929
 10
549.6459538953
 20
205.7451906026
 10
547.7304412692
 20
208.7996813369
 10
545.6981540962
 20
211.7568944954
 10
543.5596877805
 20
214.6014125381
 10
541.3261912952
 20
217.3184054649
 10
539.0093090569
 20
219.8937081329
 10
536.6211202167
 20
222.3138941064
 10
534.1740756855
 20
224.5663456563
 10
531.6809332204
 20
226.6393195432
 10
529.1546909118
 20
228.5220082412
 10
526.6085194172
 20
230.2045962831
 10
524.055693296
 20
231.6783114339
 10
521.5095218015
 20
232.9354704253
 10
518.9832794928
 20
233.9695190124
 10
516.4901370277
 20
234.7750661447
 10
514.0430924965
 20
235.3479120724
 10
511.6549036563
 20
235.685070242
 10
509.338021418
 20
235.7847828671
 10
507.1045249328
 20
235.6465300921
 10
504.966058617
 20
235.271032703
 10
502.933771444
 20
234.6602483694
 10
501.0182588179
 20
233.8173614378
 10
499.2295073348
 20
232.7467663305
 10
497.5768427165
 20
231.4540446348
 10
496.0688811911
 20
229.9459360028
 10
494.7134845718
 20
228.2303030147
 10
493.517719269
 20
226.3160901865
 10
492.4878194493
 20
224.2132773376
 10
491.6291545334
 20
221.9328275604
 10
490.9462012026
 20
219.4866300642
 10
490.4425200594
 20
216.88743819
 10
490.120737064
 20
214.1488029208
 10
489.982529844
 20
211.2850022327
 10
490.0286189478
 20
208.3109666565
 10
490.2587640882
 20
205.2422014366
 10
490.671765395
 20
202.094705694
 10
491.2654696705
 20
198.8848890139
 10
492.0367816156
 20
195.6294858944
 10
492.981679967
 20
192.3454684999
 10
494.0952384622
 20
189.0499581765
 10
495.3716515228
 20
185.7601361891
 10
496.8042645222
 20
182.4931541462
 10
498.3856084794
 20
179.2660445795
 10
500.1074389994
 20
176.0956321439
 10
501.9607792551
 20
172.9984459019
 10
503.9359667885
 20
169.9906331485
 10
506.0227038864
 20
167.0878752267
 10
508.2101112679
 20
164.3053057721
 10
510.4867848036
 20
161.6574318134
 10
512.8408549721
 20
159.1580581395
 10
515.2600487413
 20
156.8202153273
 10
517.7317535552
 20
154.6560918068
 10
520.2430830894
 20
152.6769703159
 10
522.7809444345
 20
150.8931690777
 10
525.3321063566
 20
149.3139880059
  0
LWPOLYLINE
  5
17F
330
1F
100
AcDbEntity
  8
0
  6
Continuous
 62
     7
370
    15
100
AcDbPolyline
 90
       88
 70
   128
 43
0.0
 10
475.8346316736
 20
288.1212815243
 10
478.3857935956
 20
286.7549537377
 10
480.9236549408
 20
285.6086026369
 10
483.434984475
 20
284.6882047656
 10
485.9066892889
 20
283.9985586522
 10
488.3258830581
 20
283.5432597921
 10
490.6799532265
 20
283.3246819028
 10
492.9566267623
 20
283.3439645482
 10
495.1440341438
 20
283.6010071975
 10
497.2307712417
 20
284.0944697494
 10
499.2059587751
 20
284.8217795186
 10
501.0592990308
 20
285.7791446488
 10
502.7811295507
 20
286.9615738813
 10
504.362473508
 20
288.3629025779
 10
505.7950865073
 20
289.9758248594
 10
507.0714995679
 20
291.7919316959
 10
508.1850580631
 20
293.8017547474
 10
509.1299564145
 20
295.994815727
 10
509.9012683597
 20
298.3596810303
 10
510.4949726352
 20
300.8840213446
 10
510.907973942
 20
303.5546759283
 10
511.1381190823
 20
306.3577212252
 10
511.1842081861
 20
309.2785434548
 10
511.0460009661
 20
312.3019148025
 10
510.7242179707
 20
315.4120728101
 10
510.2205368276
 20
318.5928025539
 10
509.5375834968
 20
321.8275211816
 10
508.6789185809
 20
325.0993643683
 10
507.6490187612
 20
328.3912742385
 10
506.4532534583
 20
331.6860882983
 10
505.0978568391
 20
334.9666289131
 10
503.5898953137
 20
338.2157928628
 10
501.9372306954
 20
341.4166405113
 10
500.1484792122
 20
344.552484121
 10
498.2329665862
 20
347.6069748552
 10
496.2006794131
 20
350.5641880138
 10
494.0622130974
 20
353.4087060564
 10
491.8287166121
 20
356.1256989833
 10
489.5118343738
 20
358.7010016513
 10
487.1236455337
 20
361.1211876247
 10
484.6766010025
 20
363.3736391746
 10
482.1834585374
 20
365.4466130616
 10
479.6572162287
 20
367.3293017595
 10
477.1110447342
 20
369.0118898014
 10
474.558218613
 20
370.4856049523
 10
472.0120471184
 20
371.7427639437
 10
469.4858048098
 20
372.7768125308
 10
466.9926623446
 20
373.5823596631
 10
464.5456178134
 20
374.1552055908
 10
462.1574289733
 20
374.4923637604
 10
459.840546735
 20
374.5920763855
 10
457.6070502497
 20
374.4538236105
 10
455.468583934
 20
374.0783262214
 10
453.4362967609
 20
373.4675418877
 10
451.5207841349
 20
372.6246549562
 10
449.7320326517
 20
371.5540598489
 10
448.0793680334
 20
370.2613381531
 10
446.571406508
 20
368.7532295211
 10
445.2160098888
 20
367.0375965331
 10
444.020244586
 20
365.1233837049
 10
442.9903447662
 20
363.0205708559
 10
442.1316798503
 20
360.7401210788
 10
441.4487265196
 20
358.2939235825
 10
440.9450453764
 20
355.6947317084
 10
440.623262381
 20
352.9560964391
 10
440.485055161
 20
350.092295751
 10
440.5311442648
 20
347.1182601749
 10
440.7612894052
 20
344.049494955
 10
441.1742907119
 20
340.9019992123
 10
441.7679949874
 20
337.6921825323
 10
442.5393069326
 20
334.4367794128
 10
443.484205284
 20
331.1527620183
 10
444.5977637792
 20
327.8572516949
 10
445.8741768398
 20
324.5674297075
 10
447.3067898391
 20
321.3004476646
 10
448.8881337964
 20
318.0733380978
 10
450.6099643164
 20
314.9029256623
 10
452.463304572
 20
311.8057394203
 10
454.4384921054
 20
308.7979266669
 10
456.5252292034
 20
305.895168745
 10
458.7126365848
 20
303.1125992904
 10
460.9893101206
 20
300.4647253318
 10
463.343380289
 20
297.9653516578
 10
465.7625740582
 20
295.6275088456
 10
468.2342788722
 20
293.4633853251
 10
470.7456084064
 20
291.4842638343
 10
473.2834697515
 20
289.7004625961
 10
475.8346316736
 20
288.1212815243
  0
LINE
  5
180
330
1F
100
AcDbEntity
  8
0
  6
Continuous
 62
     7
370
    15
100
AcDbLine
 10
416.199661696
 20
307.7856122064
 30
0.0
 11
393.3063611617
 21
316.6919571
 31
0.0
  0
ARC
  5
181
330
1F
100
AcDbEntity
  8
0
  6
Continuous
 62
     7
370
    15
100
AcDbCircle
 10
417.1135528577
 20
309.5751179701
 30
0.0
 40
2.009360080609009
100
AcDbArc
 50
242.9468384821
 51
357.0639132726
  0
LINE
  5
182
330
1F
100
AcDbEntity
  8
0
  6
Continuous
 62
     7
370
    15
100
AcDbLine
 10
432.9245943473
 20
399.2863986922
 30
0.0
 11
419.1202752393
 21
309.4721946172
 31
0.0
  0
LWPOLYLINE
  5
183
330
1F
100
AcDbEntity
  8
0
  6
Continuous
 62
     7
370
    15
100
AcDbPolyline
 90
        9
 70
   128
 43
0.0
 10
436.414064526
 20
400.6977798494
 10
435.7944972745
 20
400.9922715469
 10
435.1941047244
 20
401.1512954293
 10
434.6314681483
 20
401.1699299396
 10
434.1240003263
 20
401.047598367
 10
433.6874066463
 20
400.7880866949
 10
433.335199045
 20
400.3994264307
 10
433.0782778333
 20
399.8936460417
 10
432.9245943473
 20
399.2863986922
  0
LINE
  5
184
330
1F
100
AcDbEntity
  8
0
  6
Continuous
 62
     7
370
    15
100
AcDbLine
 10
515.2551988211
 20
355.183761814
 30
0.0
 11
436.414064526
 21
400.6977798494
 31
0.0
  0
ARC
  5
185
330
1F
100
AcDbEntity
  8
0
  6
Continuous
 62
     7
370
    15
100
AcDbCircle
 10
511.0109235839
 20
348.6221797556
 30
0.0
 40
7.814616522775825
100
AcDbArc
 50
8.2500338923
 51
57.1037093831
  0
LINE
  5
186
330
1F
100
AcDbEntity
  8
0
  6
Continuous
 62
     7
370
    15
100
AcDbLine
 10
532.5489881078
 20
243.9911924805
 30
0.0
 11
518.7446689998
 21
349.743524145
 31
0.0
  0
ARC
  5
187
330
1F
100
AcDbEntity
  8
0
  6
Continuous
 62
     7
370
    15
100
AcDbCircle
 10
540.4868369707
 20
245.2016776459
 30
0.0
 40
8.029615115653593
100
AcDbArc
 50
188.6705419634
 51
231.3294581822
  0
LINE
  5
188
330
1F
100
AcDbEntity
  8
0
  6
Continuous
 62
     7
370
    15
100
AcDbLine
 10
558.3629021854
 20
221.4068441677
 30
0.0
 11
535.4696016511
 21
238.9325414491
 31
0.0
  0
ARC
  5
189
330
1F
100
AcDbEntity
  8
0
  6
Continuous
 62
     7
370
    15
100
AcDbCircle
 10
553.3456668658
 20
215.1377079709
 30
0.0
 40
8.029615115652476
100
AcDbArc
 50
8.6705419634
 51
51.3294581822
  0
LINE
  5
18A
330
1F
100
AcDbEntity
  8
0
  6
Continuous
 62
     7
370
    15
100
AcDbLine
 10
574.1604795216
 20
117.7001587636
 30
0.0
 11
561.2835157287
 21
216.3481931363
 31
0.0
  0
LWPOLYLINE
  5
18B
330
1F
100
AcDbEntity
  8
0
  6
Continuous
 62
     7
370
    15
100
AcDbPolyline
 90
        9
 70
   128
 43
0.0
 10
570.6710093428
 20
114.9749883137
 10
571.4306575545
 20
114.6318057279
 10
572.1548220627
 20
114.4953594272
 10
572.8096766327
 20
114.5720229146
 10
573.3646325461
 20
114.8582151844
 10
573.7937674208
 20
115.340567994
 10
574.0770360644
 20
115.9965503037
 10
574.2012067988
 20
116.7955207173
 10
574.1604795216
 20
117.7001587636
  0
LINE
  5
18C
330
1F
100
AcDbEntity
  8
0
  6
Continuous
 62
     7
370
    15
100
AcDbLine
 10
380.9982540043
 20
224.470739288
 30
0.0
 11
570.6710093428
 21
114.9749883137
 31
0.0
  0
ARC
  5
18D
330
1F
100
AcDbEntity
  8
0
  6
Continuous
 62
     7
370
    15
100
AcDbCircle
 10
384.938765026
 20
230.785036981
 30
0.0
 40
7.442982095131296
100
AcDbArc
 50
176.6130093317
 51
238.0332945864
  0
LINE
  5
18E
330
1F
100
AcDbEntity
  8
0
  6
Continuous
 62
     7
370
    15
100
AcDbLine
 10
390.3857476184
 20
315.0053746892
 30
0.0
 11
377.5087838256
 21
231.2247662497
 31
0.0
  0
ARC
  5
18F
330
1F
100
AcDbEntity
  8
0
  6
Continuous
 62
     7
370
    15
100
AcDbCircle
 10
392.3924700001
 20
314.9024513363
 30
0.0
 40
2.009360080608858
100
AcDbArc
 50
62.9468384821
 51
177.0639132726
  0
LWPOLYLINE
  5
190
330
1F
100
AcDbEntity
  8
0
  6
Continuous
 62
     7
370
    15
100
AcDbPolyline
 90
       88
 70
   128
 43
0.0
 10
426.3371569905
 20
206.4625558335
 10
428.8883189126
 20
205.096228047
 10
431.4261802577
 20
203.9498769461
 10
433.9375097919
 20
203.0294790748
 10
436.4092146058
 20
202.3398329614
 10
438.8284083751
 20
201.8845341013
 10
441.1824785435
 20
201.665956212
 10
443.4591520792
 20
201.6852388574
 10
445.6465594607
 20
201.9422815067
 10
447.7332965586
 20
202.4357440586
 10
449.708484092
 20
203.1630538278
 10
451.5618243477
 20
204.120418958
 10
453.2836548677
 20
205.3028481906
 10
454.8649988249
 20
206.7041768871
 10
456.2976118243
 20
208.3170991686
 10
457.5740248849
 20
210.1332060051
 10
458.6875833801
 20
212.1430290566
 10
459.6324817315
 20
214.3360900362
 10
460.4037936766
 20
216.7009553395
 10
460.9974979522
 20
219.2252956538
 10
461.4104992589
 20
221.8959502376
 10
461.6406443993
 20
224.6989955344
 10
461.6867335031
 20
227.619817764
 10
461.5485262831
 20
230.6431891117
 10
461.2267432877
 20
233.7533471193
 10
460.7230621445
 20
236.9340768631
 10
460.0401088137
 20
240.1687954908
 10
459.1814438978
 20
243.4406386775
 10
458.1515440781
 20
246.7325485477
 10
456.9557787753
 20
250.0273626076
 10
455.600382156
 20
253.3079032223
 10
454.0924206306
 20
256.557067172
 10
452.4397560123
 20
259.7579148205
 10
450.6510045292
 20
262.8937584302
 10
448.7354919031
 20
265.9482491645
 10
446.7032047301
 20
268.905462323
 10
444.5647384143
 20
271.7499803657
 10
442.3312419291
 20
274.4669732925
 10
440.0143596908
 20
277.0422759605
 10
437.6261708506
 20
279.462461934
 10
435.1791263194
 20
281.7149134839
 10
432.6859838543
 20
283.7878873708
 10
430.1597415456
 20
285.6705760687
 10
427.6135700511
 20
287.3531641106
 10
425.0607439299
 20
288.8268792615
 10
422.5145724354
 20
290.0840382529
 10
419.9883301267
 20
291.11808684
 10
417.4951876616
 20
291.9236339723
 10
415.0481431304
 20
292.4964799
 10
412.6599542902
 20
292.8336380696
 10
410.3430720519
 20
292.9333506947
 10
408.1095755667
 20
292.7950979197
 10
405.9711092509
 20
292.4196005306
 10
403.9388220779
 20
291.8088161969
 10
402.0233094518
 20
290.9659292654
 10
400.2345579687
 20
289.8953341581
 10
398.5818933504
 20
288.6026124623
 10
397.073931825
 20
287.0945038304
 10
395.7185352057
 20
285.3788708423
 10
394.5227699029
 20
283.4646580141
 10
393.4928700832
 20
281.3618451652
 10
392.6342051673
 20
279.081395388
 10
391.9512518365
 20
276.6351978918
 10
391.4475706933
 20
274.0360060176
 10
391.1257876979
 20
271.2973707483
 10
390.9875804779
 20
268.4335700603
 10
391.0336695817
 20
265.4595344841
 10
391.2638147221
 20
262.3907692642
 10
391.6768160288
 20
259.2432735215
 10
392.2705203044
 20
256.0334568415
 10
393.0418322495
 20
252.778053722
 10
393.9867306009
 20
249.4940363275
 10
395.1002890961
 20
246.1985260041
 10
396.3767021567
 20
242.9087040167
 10
397.8093151561
 20
239.6417219738
 10
399.3906591133
 20
236.414612407
 10
401.1124896333
 20
233.2441999715
 10
402.965829889
 20
230.1470137295
 10
404.9410174224
 20
227.1392009761
 10
407.0277545203
 20
224.2364430543
 10
409.2151619018
 20
221.4538735996
 10
411.4918354375
 20
218.805999641
 10
413.8459056059
 20
216.306625967
 10
416.2650993752
 20
213.9687831549
 10
418.7368041891
 20
211.8046596343
 10
421.2481337233
 20
209.8255381435
 10
423.7859950684
 20
208.0417369053
 10
426.3371569905
 20
206.4625558335
  0
LINE
  5
191
330
1F
100
AcDbEntity
  8
0
  6
Continuous
 62
     7
370
    15
100
AcDbLine
 10
559.5675116043
 20
131.3602975266
 30
0.0
 11
563.1095997253
 21
130.5987163636
 31
0.0
  0
LINE
  5
192
330
1F
100
AcDbEntity
  8
0
  6
Continuous
 62
     7
370
    15
100
AcDbLine
 10
563.1095997253
 20
130.5987163636
 30
0.0
 11
559.9346187765
 21
144.1180870659
 31
0.0
  0
LINE
  5
193
330
1F
100
AcDbEntity
  8
0
  6
Continuous
 62
     7
370
    15
100
AcDbLine
 10
559.9346187765
 20
144.1180870659
 30
0.0
 11
556.3925306555
 21
144.879668229
 31
0.0
  0
LINE
  5
194
330
1F
100
AcDbEntity
  8
0
  6
Continuous
 62
     7
370
    15
100
AcDbLine
 10
556.3925306555
 20
144.879668229
 30
0.0
 11
559.5675116043
 21
131.3602975266
 31
0.0
  0
LINE
  5
195
330
1F
100
AcDbEntity
  8
0
  6
Continuous
 62
     7
370
    15
100
AcDbLine
 10
439.7264659748
 20
375.8404587894
 30
0.0
 11
442.9014469235
 21
385.6940745161
 31
0.0
  0
LINE
  5
196
330
1F
100
AcDbEntity
  8
0
  6
Continuous
 62
     7
370
    15
100
AcDbLine
 10
442.9014469235
 20
385.6940745161
 30
0.0
 11
439.3593588025
 21
389.0221012478
 31
0.0
  0
LINE
  5
197
330
1F
100
AcDbEntity
  8
0
  6
Continuous
 62
     7
370
    15
100
AcDbLine
 10
439.3593588025
 20
389.0221012478
 30
0.0
 11
436.1843778538
 21
379.1684855211
 31
0.0
  0
LINE
  5
198
330
1F
100
AcDbEntity
  8
0
  6
Continuous
 62
     7
370
    15
100
AcDbLine
 10
436.1843778538
 20
379.1684855211
 30
0.0
 11
439.7264659748
 21
375.8404587894
 31
0.0
  0
LINE
  5
199
330
1F
100
AcDbEntity
  8
0
  6
Continuous
 62
     7
370
    15
100
AcDbLine
 10
392.1017517429
 20
228.0362228897
 30
0.0
 11
395.2767326916
 21
237.8898386163
 31
0.0
  0
LINE
  5
19A
330
1F
100
AcDbEntity
  8
0
  6
Continuous
 62
     7
370
    15
100
AcDbLine
 10
395.2767326916
 20
237.8898386163
 30
0.0
 11
391.7346445706
 21
241.2178653481
 31
0.0
  0
LINE
  5
19B
330
1F
100
AcDbEntity
  8
0
  6
Continuous
 62
     7
370
    15
100
AcDbLine
 10
391.7346445706
 20
241.2178653481
 30
0.0
 11
388.5596636219
 21
231.3642496214
 31
0.0
  0
LINE
  5
19C
330
1F
100
AcDbEntity
  8
0
  6
Continuous
 62
     7
370
    15
100
AcDbLine
 10
388.5596636219
 20
231.3642496214
 30
0.0
 11
392.1017517429
 21
228.0362228897
 31
0.0
  0
LINE
  5
19D
330
1F
100
AcDbEntity
  8
0
  6
Continuous
 62
     7
370
    15
100
AcDbLine
 10
512.3099045446
 20
346.908647601
 30
0.0
 11
508.7678164236
 21
347.670228764
 31
0.0
  0
LINE
  5
19E
330
1F
100
AcDbEntity
  8
0
  6
Continuous
 62
     7
370
    15
100
AcDbLine
 10
508.7678164236
 20
347.670228764
 30
0.0
 11
511.9427973724
 21
334.1508580617
 31
0.0
  0
LINE
  5
19F
330
1F
100
AcDbEntity
  8
0
  6
Continuous
 62
     7
370
    15
100
AcDbLine
 10
511.9427973724
 20
334.1508580617
 30
0.0
 11
515.4848854934
 21
333.3892768986
 31
0.0
  0
LINE
  5
1A0
330
1F
100
AcDbEntity
  8
0
  6
Continuous
 62
     7
370
    15
100
AcDbLine
 10
515.4848854934
 20
333.3892768986
 30
0.0
 11
512.3099045446
 21
346.908647601
 31
0.0
  0
LINE
  5
1A1
330
1F
100
AcDbEntity
  8
0
  6
Continuous
 62
     7
370
    15
100
AcDbLine
 10
532.5489881078
 20
243.9911924805
 30
0.0
 11
533.9632016702
 21
244.8076005923
 31
0.0
  0
LINE
  5
1A2
330
1F
100
AcDbEntity
  8
0
  6
Continuous
 62
     7
370
    15
100
AcDbLine
 10
518.7446689998
 20
349.743524145
 30
0.0
 11
520.1588825622
 21
350.5599322569
 31
0.0
  0
LINE
  5
1A3
330
1F
100
AcDbEntity
  8
0
  6
Continuous
 62
     7
370
    15
100
AcDbLine
 10
533.9632016702
 20
244.8076005923
 30
0.0
 11
520.1588825622
 21
350.5599322569
 31
0.0
  0
LINE
  5
1A4
330
1F
100
AcDbEntity
  8
0
  6
Continuous
 62
     7
370
    15
100
AcDbLine
 10
515.2551988211
 20
355.183761814
 30
0.0
 11
516.6694123835
 21
356.0001699258
 31
0.0
  0
ARC
  5
1A5
330
1F
100
AcDbEntity
  8
0
  6
Continuous
 62
     7
370
    15
100
AcDbCircle
 10
512.4251371463
 20
349.4385878674
 30
0.0
 40
7.814616522775447
100
AcDbArc
 50
8.2500338923
 51
57.1037093831
  0
LINE
  5
1A6
330
1F
100
AcDbEntity
  8
0
  6
Continuous
 62
     7
370
    15
100
AcDbLine
 10
436.414064526
 20
400.6977798494
 30
0.0
 11
437.8282780884
 21
401.5141879613
 31
0.0
  0
LINE
  5
1A7
330
1F
100
AcDbEntity
  8
0
  6
Continuous
 62
     7
370
    15
100
AcDbLine
 10
516.6694123835
 20
356.0001699258
 30
0.0
 11
437.8282780884
 21
401.5141879613
 31
0.0
  0
LWPOLYLINE
  5
1A8
330
1F
100
AcDbEntity
  8
0
  6
Continuous
 62
     7
370
    15
100
AcDbPolyline
 90
       12
 70
   128
 43
0.0
 10
477.2488452359
 20
288.9376896361
 10
479.800007158
 20
287.5713618496
 10
482.3378685031
 20
286.4250107487
 10
484.8491980373
 20
285.5046128774
 10
487.3209028512
 20
284.814966764
 10
489.7400966205
 20
284.3596679039
 10
492.0941667889
 20
284.1410900146
 10
494.3708403247
 20
284.16037266
 10
496.5582477061
 20
284.4174153093
 10
498.6449848041
 20
284.9108778612
 10
500.6201723375
 20
285.6381876304
 10
501.5297072083
 20
286.0714046825
  0
LWPOLYLINE
  5
1A9
330
1F
100
AcDbEntity
  8
0
  6
Continuous
 62
     7
370
    15
100
AcDbPolyline
 90
       34
 70
   128
 43
0.0
 10
451.5537697014
 20
372.6416476666
 10
451.1462462141
 20
372.3704679607
 10
449.4935815958
 20
371.077746265
 10
447.9856200704
 20
369.569637633
 10
446.6302234511
 20
367.8540046449
 10
445.4344581483
 20
365.9397918167
 10
444.4045583286
 20
363.8369789678
 10
443.5458934127
 20
361.5565291906
 10
442.8629400819
 20
359.1103316944
 10
442.3592589387
 20
356.5111398202
 10
442.0374759434
 20
353.7725045509
 10
441.8992687234
 20
350.9087038629
 10
441.9453578272
 20
347.9346682867
 10
442.1755029675
 20
344.8659030668
 10
442.5885042743
 20
341.7184073242
 10
443.1822085498
 20
338.5085906441
 10
443.9535204949
 20
335.2531875246
 10
444.8984188463
 20
331.9691701301
 10
446.0119773415
 20
328.6736598067
 10
447.2883904021
 20
325.3838378193
 10
448.7210034015
 20
322.1168557764
 10
450.3023473587
 20
318.8897462096
 10
452.0241778787
 20
315.7193337741
 10
453.8775181344
 20
312.6221475321
 10
455.8527056678
 20
309.6143347787
 10
457.9394427657
 20
306.7115768569
 10
460.1268501472
 20
303.9290074023
 10
462.403523683
 20
301.2811334436
 10
464.7575938514
 20
298.7817597696
 10
467.1767876206
 20
296.4439169575
 10
469.6484924345
 20
294.2797934369
 10
472.1598219687
 20
292.3006719461
 10
474.6976833138
 20
290.5168707079
 10
477.2488452359
 20
288.9376896361
  0
LINE
  5
1AA
330
1F
100
AcDbEntity
  8
0
  6
Continuous
 62
     7
370
    15
100
AcDbLine
 10
513.3570109347
 20
334.9672661735
 30
0.0
 11
511.9427973724
 21
334.1508580617
 31
0.0
  0
LINE
  5
1AB
330
1F
100
AcDbEntity
  8
0
  6
Continuous
 62
     7
370
    15
100
AcDbLine
 10
510.4591640612
 20
347.3065736383
 30
0.0
 11
513.3570109347
 21
334.9672661735
 31
0.0
  0
LINE
  5
1AC
330
1F
100
AcDbEntity
  8
0
  6
Continuous
 62
     7
370
    15
100
AcDbLine
 10
513.3570109347
 20
334.9672661735
 30
0.0
 11
515.2077514181
 21
334.5693401362
 31
0.0
  0
LINE
  5
1AD
330
1F
100
AcDbEntity
  8
0
  6
Continuous
 62
     7
370
    15
100
AcDbLine
 10
574.1604795216
 20
117.7001587636
 30
0.0
 11
575.5746930839
 21
118.5165668754
 31
0.0
  0
LINE
  5
1AE
330
1F
100
AcDbEntity
  8
0
  6
Continuous
 62
     7
370
    15
100
AcDbLine
 10
561.2835157287
 20
216.3481931363
 30
0.0
 11
562.6977292911
 21
217.1646012481
 31
0.0
  0
LINE
  5
1AF
330
1F
100
AcDbEntity
  8
0
  6
Continuous
 62
     7
370
    15
100
AcDbLine
 10
575.5746930839
 20
118.5165668754
 30
0.0
 11
562.6977292911
 21
217.1646012481
 31
0.0
  0
LINE
  5
1B0
330
1F
100
AcDbEntity
  8
0
  6
Continuous
 62
     7
370
    15
100
AcDbLine
 10
558.3629021854
 20
221.4068441677
 30
0.0
 11
559.7771157478
 21
222.2232522795
 31
0.0
  0
LINE
  5
1B1
330
1F
100
AcDbEntity
  8
0
  6
Continuous
 62
     7
370
    15
100
AcDbLine
 10
535.4696016511
 20
238.9325414491
 30
0.0
 11
536.8838152135
 21
239.748949561
 31
0.0
  0
LINE
  5
1B2
330
1F
100
AcDbEntity
  8
0
  6
Continuous
 62
     7
370
    15
100
AcDbLine
 10
559.7771157478
 20
222.2232522795
 30
0.0
 11
536.8838152135
 21
239.748949561
 31
0.0
  0
ARC
  5
1B3
330
1F
100
AcDbEntity
  8
0
  6
Continuous
 62
     7
370
    15
100
AcDbCircle
 10
554.7598804282
 20
215.9541160828
 30
0.0
 40
8.02961511565358
100
AcDbArc
 50
8.6705419634
 51
51.3294581822
  0
LWPOLYLINE
  5
1B4
330
1F
100
AcDbEntity
  8
0
  6
Continuous
 62
     7
370
    15
100
AcDbPolyline
 90
       12
 70
   128
 43
0.0
 10
526.746319919
 20
150.1303961177
 10
529.2974818411
 20
148.7640683312
 10
531.8353431862
 20
147.6177172304
 10
534.3466727204
 20
146.6973193591
 10
536.8183775343
 20
146.0076732456
 10
539.2375713035
 20
145.5523743855
 10
541.591641472
 20
145.3337964962
 10
543.8683150077
 20
145.3530791416
 10
546.0557223892
 20
145.610121791
 10
548.1424594871
 20
146.1035843429
 10
550.1176470205
 20
146.8308941121
 10
551.0271818913
 20
147.2641111641
  0
LWPOLYLINE
  5
1B5
330
1F
100
AcDbEntity
  8
0
  6
Continuous
 62
     7
370
    15
100
AcDbPolyline
 90
       34
 70
   128
 43
0.0
 10
501.0512443843
 20
233.8343541481
 10
500.6437208971
 20
233.5631744424
 10
498.9910562788
 20
232.2704527466
 10
497.4830947535
 20
230.7623441146
 10
496.1276981342
 20
229.0467111265
 10
494.9319328314
 20
227.1324982983
 10
493.9020330116
 20
225.0296854494
 10
493.0433680958
 20
222.7492356722
 10
492.360414765
 20
220.303038176
 10
491.8567336218
 20
217.7038463018
 10
491.5349506264
 20
214.9652110326
 10
491.3967434064
 20
212.1014103445
 10
491.4428325102
 20
209.1273747683
 10
491.6729776506
 20
206.0586095484
 10
492.0859789573
 20
202.9111138058
 10
492.6796832329
 20
199.7012971257
 10
493.450995178
 20
196.4458940062
 10
494.3958935294
 20
193.1618766117
 10
495.5094520246
 20
189.8663662883
 10
496.7858650852
 20
186.5765443009
 10
498.2184780845
 20
183.309562258
 10
499.7998220418
 20
180.0824526913
 10
501.5216525618
 20
176.9120402557
 10
503.3749928174
 20
173.8148540138
 10
505.3501803509
 20
170.8070412604
 10
507.4369174488
 20
167.9042833385
 10
509.6243248302
 20
165.1217138839
 10
511.900998366
 20
162.4738399252
 10
514.2550685344
 20
159.9744662513
 10
516.6742623037
 20
157.6366234391
 10
519.1459671176
 20
155.4724999186
 10
521.6572966518
 20
153.4933784277
 10
524.1951579969
 20
151.7095771895
 10
526.746319919
 20
150.1303961177
  0
ARC
  5
1B6
330
1F
100
AcDbEntity
  8
0
  6
Continuous
 62
     7
370
    15
100
AcDbCircle
 10
541.9010505331
 20
246.0180857577
 30
0.0
 40
8.0296151156529
100
AcDbArc
 50
188.6705419634
 51
231.3294581822
  0
ARC
  5
1B7
330
1F
100
AcDbEntity
  8
0
  6
Continuous
 62
     7
370
    15
100
AcDbCircle
 10
436.3718171545
 20
399.5519768254
 30
0.0
 40
2.443675713707382
100
AcDbArc
 50
53.4151652204
 51
115.2743763505
  0
LINE
  5
1B8
330
1F
100
AcDbEntity
  8
0
  6
Continuous
 62
     7
370
    15
100
AcDbLine
 10
437.5985914161
 20
379.984893633
 30
0.0
 11
436.1843778538
 21
379.1684855211
 31
0.0
  0
LINE
  5
1B9
330
1F
100
AcDbEntity
  8
0
  6
Continuous
 62
     7
370
    15
100
AcDbLine
 10
440.2429985473
 20
388.1918630969
 30
0.0
 11
437.5985914161
 21
379.984893633
 31
0.0
  0
LINE
  5
1BA
330
1F
100
AcDbEntity
  8
0
  6
Continuous
 62
     7
370
    15
100
AcDbLine
 10
437.5985914161
 20
379.984893633
 30
0.0
 11
440.2570397924
 21
377.4871050521
 31
0.0
  0
LINE
  5
1BB
330
1F
100
AcDbEntity
  8
0
  6
Continuous
 62
     7
370
    15
100
AcDbLine
 10
560.9817251666
 20
132.1767056385
 30
0.0
 11
559.5675116043
 21
131.3602975266
 31
0.0
  0
LINE
  5
1BC
330
1F
100
AcDbEntity
  8
0
  6
Continuous
 62
     7
370
    15
100
AcDbLine
 10
558.0838782931
 20
144.5160131032
 30
0.0
 11
560.9817251666
 21
132.1767056385
 31
0.0
  0
ARC
  5
1BD
330
1F
100
AcDbEntity
  8
0
  6
Continuous
 62
     7
370
    15
100
AcDbCircle
 10
572.8341394876
 20
117.777854469
 30
0.0
 40
2.838367494464701
100
AcDbArc
 50
308.0873209366
 51
15.085466811
  0
LINE
  5
1BE
330
1F
100
AcDbEntity
  8
0
  6
Continuous
 62
     7
370
    15
100
AcDbLine
 10
560.9817251666
 20
132.1767056385
 30
0.0
 11
562.83246565
 21
131.7787796011
 31
0.0
  0
LWPOLYLINE
  5
1BF
330
1F
100
AcDbEntity
  8
0
  6
Continuous
 62
     7
370
    15
100
AcDbPolyline
 90
       12
 70
   128
 43
0.0
 10
427.7513705529
 20
207.2789639453
 10
430.302532475
 20
205.9126361588
 10
432.8403938201
 20
204.766285058
 10
435.3517233543
 20
203.8458871866
 10
437.8234281682
 20
203.1562410732
 10
440.2426219374
 20
202.7009422131
 10
442.5966921059
 20
202.4823643238
 10
444.8733656416
 20
202.5016469692
 10
447.0607730231
 20
202.7586896186
 10
449.147510121
 20
203.2521521705
 10
451.1226976544
 20
203.9794619397
 10
452.0322325252
 20
204.4126789917
  0
LWPOLYLINE
  5
1C0
330
1F
100
AcDbEntity
  8
0
  6
Continuous
 62
     7
370
    15
100
AcDbPolyline
 90
       34
 70
   128
 43
0.0
 10
402.0562950185
 20
290.9829219759
 10
401.648771531
 20
290.71174227
 10
399.9961069127
 20
289.4190205742
 10
398.4881453874
 20
287.9109119422
 10
397.1327487681
 20
286.1952789541
 10
395.9369834653
 20
284.2810661259
 10
394.9070836455
 20
282.178253277
 10
394.0484187296
 20
279.8978034998
 10
393.3654653989
 20
277.4516060036
 10
392.8617842557
 20
274.8524141294
 10
392.5400012603
 20
272.1137788602
 10
392.4017940403
 20
269.2499781721
 10
392.4478831441
 20
266.2759425959
 10
392.6780282845
 20
263.207177376
 10
393.0910295912
 20
260.0596816334
 10
393.6847338667
 20
256.8498649533
 10
394.4560458119
 20
253.5944618338
 10
395.4009441633
 20
250.3104444393
 10
396.5145026585
 20
247.0149341159
 10
397.7909157191
 20
243.7251121285
 10
399.2235287184
 20
240.4581300856
 10
400.8048726757
 20
237.2310205189
 10
402.5267031957
 20
234.0606080833
 10
404.3800434513
 20
230.9634218414
 10
406.3552309847
 20
227.955609088
 10
408.4419680827
 20
225.0528511661
 10
410.6293754641
 20
222.2702817115
 10
412.9060489999
 20
219.6224077528
 10
415.2601191683
 20
217.1230340789
 10
417.6793129376
 20
214.7851912667
 10
420.1510177515
 20
212.6210677462
 10
422.6623472857
 20
210.6419462553
 10
425.2002086308
 20
208.8581450171
 10
427.7513705529
 20
207.2789639453
  0
LINE
  5
1C1
330
1F
100
AcDbEntity
  8
0
  6
Continuous
 62
     7
370
    15
100
AcDbLine
 10
416.199661696
 20
307.7856122064
 30
0.0
 11
417.6138752584
 21
308.6020203182
 31
0.0
  0
ARC
  5
1C2
330
1F
100
AcDbEntity
  8
0
  6
Continuous
 62
     7
370
    15
100
AcDbCircle
 10
418.6342336247
 20
311.0297961234
 30
0.0
 40
2.633481831277211
100
AcDbArc
 50
247.203702672
 51
272.2070206107
  0
LINE
  5
1C3
330
1F
100
AcDbEntity
  8
0
  6
Continuous
 62
     7
370
    15
100
AcDbLine
 10
393.3063611617
 20
316.6919571
 30
0.0
 11
394.7205747241
 21
317.5083652118
 31
0.0
  0
LINE
  5
1C4
330
1F
100
AcDbEntity
  8
0
  6
Continuous
 62
     7
370
    15
100
AcDbLine
 10
417.6138752584
 20
308.6020203182
 30
0.0
 11
394.7205747241
 21
317.5083652118
 31
0.0
  0
ARC
  5
1C5
330
1F
100
AcDbEntity
  8
0
  6
Continuous
 62
     7
370
    15
100
AcDbCircle
 10
393.7836898041
 20
315.4990802056
 30
0.0
 40
2.216975324555647
100
AcDbArc
 50
65.0014069063
 51
116.6400216888
  0
LINE
  5
1C6
330
1F
100
AcDbEntity
  8
0
  6
Continuous
 62
     7
370
    15
100
AcDbLine
 10
389.9738771842
 20
232.1806577332
 30
0.0
 11
388.5596636219
 21
231.3642496214
 31
0.0
  0
LINE
  5
1C7
330
1F
100
AcDbEntity
  8
0
  6
Continuous
 62
     7
370
    15
100
AcDbLine
 10
392.6182843154
 20
240.3876271972
 30
0.0
 11
389.9738771842
 21
232.1806577332
 31
0.0
  0
LINE
  5
1C8
330
1F
100
AcDbEntity
  8
0
  6
Continuous
 62
     7
370
    15
100
AcDbLine
 10
389.9738771842
 20
232.1806577332
 30
0.0
 11
392.6323255605
 21
229.6828691524
 31
0.0
  0
LINE
  5
1C9
330
1F
100
AcDbEntity
  8
0
  6
Continuous
 62
     7
370
    15
100
AcDbLine
 10
84.9678663873
 20
42.3408067364
 30
0.0
 11
84.9678663873
 21
40.3408067364
 31
0.0
  0
LINE
  5
1CA
330
1F
100
AcDbEntity
  8
0
  6
Continuous
 62
     7
370
    15
100
AcDbLine
 10
363.2056493997
 20
40.3408067364
 30
0.0
 11
363.2056493997
 21
42.3408067364
 31
0.0
  0
LINE
  5
1CB
330
1F
100
AcDbEntity
  8
0
  6
Continuous
 62
     7
370
    15
100
AcDbLine
 10
279.83585859
 20
40.3408067364
 30
0.0
 11
279.83585859
 21
42.3408067364
 31
0.0
  0
LINE
  5
1CC
330
1F
100
AcDbEntity
  8
0
  6
Continuous
 62
     7
370
    15
100
AcDbLine
 10
168.337657197
 20
40.3408067364
 30
0.0
 11
168.337657197
 21
42.3408067364
 31
0.0
  0
LINE
  5
1CD
330
1F
100
AcDbEntity
  8
0
  6
Continuous
 62
     7
370
    15
100
AcDbLine
 10
279.83585859
 20
42.3408067364
 30
0.0
 11
168.337657197
 21
42.3408067364
 31
0.0
  0
LINE
  5
1CE
330
1F
100
AcDbEntity
  8
0
  6
Continuous
 62
     7
370
    15
100
AcDbLine
 10
279.83585859
 20
40.3408067364
 30
0.0
 11
168.337657197
 21
40.3408067364
 31
0.0
  0
LINE
  5
1CF
330
1F
100
AcDbEntity
  8
0
  6
Continuous
 62
     7
370
    15
100
AcDbLine
 10
284.7707146423
 20
40.3408067364
 30
0.0
 11
284.7707146423
 21
42.3408067364
 31
0.0
  0
LINE
  5
1D0
330
1F
100
AcDbEntity
  8
0
  6
Continuous
 62
     7
370
    15
100
AcDbLine
 10
284.7707146423
 20
42.3408067364
 30
0.0
 11
279.83585859
 21
42.3408067364
 31
0.0
  0
LINE
  5
1D1
330
1F
100
AcDbEntity
  8
0
  6
Continuous
 62
     7
370
    15
100
AcDbLine
 10
284.7707146423
 20
40.3408067364
 30
0.0
 11
279.83585859
 21
40.3408067364
 31
0.0
  0
LINE
  5
1D2
330
1F
100
AcDbEntity
  8
0
  6
Continuous
 62
     7
370
    15
100
AcDbLine
 10
163.4028011447
 20
40.3408067364
 30
0.0
 11
163.4028011447
 21
42.3408067364
 31
0.0
  0
LINE
  5
1D3
330
1F
100
AcDbEntity
  8
0
  6
Continuous
 62
     7
370
    15
100
AcDbLine
 10
168.337657197
 20
42.3408067364
 30
0.0
 11
163.4028011447
 21
42.3408067364
 31
0.0
  0
LINE
  5
1D4
330
1F
100
AcDbEntity
  8
0
  6
Continuous
 62
     7
370
    15
100
AcDbLine
 10
168.337657197
 20
40.3408067364
 30
0.0
 11
163.4028011447
 21
40.3408067364
 31
0.0
  0
LINE
  5
1D5
330
1F
100
AcDbEntity
  8
0
  6
Continuous
 62
     7
370
    15
100
AcDbLine
 10
304.2929699441
 20
40.3408067364
 30
0.0
 11
304.2929699441
 21
42.3408067364
 31
0.0
  0
LINE
  5
1D6
330
1F
100
AcDbEntity
  8
0
  6
Continuous
 62
     7
370
    15
100
AcDbLine
 10
304.2929699441
 20
42.3408067364
 30
0.0
 11
284.7707146423
 21
42.3408067364
 31
0.0
  0
LINE
  5
1D7
330
1F
100
AcDbEntity
  8
0
  6
Continuous
 62
     7
370
    15
100
AcDbLine
 10
304.2929699441
 20
40.3408067364
 30
0.0
 11
284.7707146423
 21
40.3408067364
 31
0.0
  0
LINE
  5
1D8
330
1F
100
AcDbEntity
  8
0
  6
Continuous
 62
     7
370
    15
100
AcDbLine
 10
143.8805458429
 20
40.3408067364
 30
0.0
 11
143.8805458429
 21
42.3408067364
 31
0.0
  0
LINE
  5
1D9
330
1F
100
AcDbEntity
  8
0
  6
Continuous
 62
     7
370
    15
100
AcDbLine
 10
163.4028011447
 20
42.3408067364
 30
0.0
 11
143.8805458429
 21
42.3408067364
 31
0.0
  0
LINE
  5
1DA
330
1F
100
AcDbEntity
  8
0
  6
Continuous
 62
     7
370
    15
100
AcDbLine
 10
163.4028011447
 20
40.3408067364
 30
0.0
 11
143.8805458429
 21
40.3408067364
 31
0.0
  0
LINE
  5
1DB
330
1F
100
AcDbEntity
  8
0
  6
Continuous
 62
     7
370
    15
100
AcDbLine
 10
139.7501745596
 20
40.3408067364
 30
0.0
 11
139.7501745596
 21
42.3408067364
 31
0.0
  0
LINE
  5
1DC
330
1F
100
AcDbEntity
  8
0
  6
Continuous
 62
     7
370
    15
100
AcDbLine
 10
143.8805458429
 20
42.3408067364
 30
0.0
 11
139.7501745596
 21
42.3408067364
 31
0.0
  0
LINE
  5
1DD
330
1F
100
AcDbEntity
  8
0
  6
Continuous
 62
     7
370
    15
100
AcDbLine
 10
143.8805458429
 20
40.3408067364
 30
0.0
 11
139.7501745596
 21
40.3408067364
 31
0.0
  0
LINE
  5
1DE
330
1F
100
AcDbEntity
  8
0
  6
Continuous
 62
     7
370
    15
100
AcDbLine
 10
308.4233412274
 20
40.3408067364
 30
0.0
 11
308.4233412274
 21
42.3408067364
 31
0.0
  0
LINE
  5
1DF
330
1F
100
AcDbEntity
  8
0
  6
Continuous
 62
     7
370
    15
100
AcDbLine
 10
308.4233412274
 20
42.3408067364
 30
0.0
 11
304.2929699441
 21
42.3408067364
 31
0.0
  0
LINE
  5
1E0
330
1F
100
AcDbEntity
  8
0
  6
Continuous
 62
     7
370
    15
100
AcDbLine
 10
308.4233412274
 20
40.3408067364
 30
0.0
 11
304.2929699441
 21
40.3408067364
 31
0.0
  0
LINE
  5
1E1
330
1F
100
AcDbEntity
  8
0
  6
Continuous
 62
     7
370
    15
100
AcDbLine
 10
340.7993573306
 20
40.3408067364
 30
0.0
 11
340.7993573306
 21
42.3408067364
 31
0.0
  0
LINE
  5
1E2
330
1F
100
AcDbEntity
  8
0
  6
Continuous
 62
     7
370
    15
100
AcDbLine
 10
340.7993573306
 20
42.3408067364
 30
0.0
 11
308.4233412274
 21
42.3408067364
 31
0.0
  0
LINE
  5
1E3
330
1F
100
AcDbEntity
  8
0
  6
Continuous
 62
     7
370
    15
100
AcDbLine
 10
340.7993573306
 20
40.3408067364
 30
0.0
 11
308.4233412274
 21
40.3408067364
 31
0.0
  0
LINE
  5
1E4
330
1F
100
AcDbEntity
  8
0
  6
Continuous
 62
     7
370
    15
100
AcDbLine
 10
107.3741584564
 20
40.3408067364
 30
0.0
 11
107.3741584564
 21
42.3408067364
 31
0.0
  0
LINE
  5
1E5
330
1F
100
AcDbEntity
  8
0
  6
Continuous
 62
     7
370
    15
100
AcDbLine
 10
139.7501745596
 20
42.3408067364
 30
0.0
 11
107.3741584564
 21
42.3408067364
 31
0.0
  0
LINE
  5
1E6
330
1F
100
AcDbEntity
  8
0
  6
Continuous
 62
     7
370
    15
100
AcDbLine
 10
139.7501745596
 20
40.3408067364
 30
0.0
 11
107.3741584564
 21
40.3408067364
 31
0.0
  0
LINE
  5
1E7
330
1F
100
AcDbEntity
  8
0
  6
Continuous
 62
     7
370
    15
100
AcDbLine
 10
103.2437871731
 20
40.3408067364
 30
0.0
 11
103.2437871731
 21
42.3408067364
 31
0.0
  0
LINE
  5
1E8
330
1F
100
AcDbEntity
  8
0
  6
Continuous
 62
     7
370
    15
100
AcDbLine
 10
107.3741584564
 20
42.3408067364
 30
0.0
 11
103.2437871731
 21
42.3408067364
 31
0.0
  0
LINE
  5
1E9
330
1F
100
AcDbEntity
  8
0
  6
Continuous
 62
     7
370
    15
100
AcDbLine
 10
107.3741584564
 20
40.3408067364
 30
0.0
 11
103.2437871731
 21
40.3408067364
 31
0.0
  0
LINE
  5
1EA
330
1F
100
AcDbEntity
  8
0
  6
Continuous
 62
     7
370
    15
100
AcDbLine
 10
344.9297286139
 20
40.3408067364
 30
0.0
 11
344.9297286139
 21
42.3408067364
 31
0.0
  0
LINE
  5
1EB
330
1F
100
AcDbEntity
  8
0
  6
Continuous
 62
     7
370
    15
100
AcDbLine
 10
344.9297286139
 20
42.3408067364
 30
0.0
 11
340.7993573306
 21
42.3408067364
 31
0.0
  0
LINE
  5
1EC
330
1F
100
AcDbEntity
  8
0
  6
Continuous
 62
     7
370
    15
100
AcDbLine
 10
344.9297286139
 20
40.3408067364
 30
0.0
 11
340.7993573306
 21
40.3408067364
 31
0.0
  0
LINE
  5
1ED
330
1F
100
AcDbEntity
  8
0
  6
Continuous
 62
     7
370
    15
100
AcDbLine
 10
85.033010335
 20
40.3408067364
 30
0.0
 11
85.033010335
 21
42.3408067364
 31
0.0
  0
LINE
  5
1EE
330
1F
100
AcDbEntity
  8
0
  6
Continuous
 62
     7
370
    15
100
AcDbLine
 10
103.2437871731
 20
42.3408067364
 30
0.0
 11
85.033010335
 21
42.3408067364
 31
0.0
  0
LINE
  5
1EF
330
1F
100
AcDbEntity
  8
0
  6
Continuous
 62
     7
370
    15
100
AcDbLine
 10
103.2437871731
 20
40.3408067364
 30
0.0
 11
85.033010335
 21
40.3408067364
 31
0.0
  0
LINE
  5
1F0
330
1F
100
AcDbEntity
  8
0
  6
Continuous
 62
     7
370
    15
100
AcDbLine
 10
363.140505452
 20
40.3408067364
 30
0.0
 11
363.140505452
 21
42.3408067364
 31
0.0
  0
LINE
  5
1F1
330
1F
100
AcDbEntity
  8
0
  6
Continuous
 62
     7
370
    15
100
AcDbLine
 10
363.140505452
 20
42.3408067364
 30
0.0
 11
344.9297286139
 21
42.3408067364
 31
0.0
  0
LINE
  5
1F2
330
1F
100
AcDbEntity
  8
0
  6
Continuous
 62
     7
370
    15
100
AcDbLine
 10
363.140505452
 20
40.3408067364
 30
0.0
 11
344.9297286139
 21
40.3408067364
 31
0.0
  0
LINE
  5
1F3
330
1F
100
AcDbEntity
  8
0
  6
Continuous
 62
     7
370
    15
100
AcDbLine
 10
85.033010335
 20
42.3408067364
 30
0.0
 11
84.9678663873
 21
42.3408067364
 31
0.0
  0
LINE
  5
1F4
330
1F
100
AcDbEntity
  8
0
  6
Continuous
 62
     7
370
    15
100
AcDbLine
 10
85.033010335
 20
40.3408067364
 30
0.0
 11
84.9678663873
 21
40.3408067364
 31
0.0
  0
LINE
  5
1F5
330
1F
100
AcDbEntity
  8
0
  6
Continuous
 62
     7
370
    15
100
AcDbLine
 10
363.2056493997
 20
42.3408067364
 30
0.0
 11
363.140505452
 21
42.3408067364
 31
0.0
  0
LINE
  5
1F6
330
1F
100
AcDbEntity
  8
0
  6
Continuous
 62
     7
370
    15
100
AcDbLine
 10
363.2056493997
 20
40.3408067364
 30
0.0
 11
363.140505452
 21
40.3408067364
 31
0.0
  0
DIMENSION
  5
1F7
330
1F
100
AcDbEntity
  8
0
  6
Continuous
 62
     7
370
     0
100
AcDbDimension
  2
*D23
 10
379.2056493997
 20
40.3408067364
 30
0.0
 11
379.2056493997
 21
52.3408067364
 31
0.0
 70
   160
 71
     2
 42
-1.0
  3
SLDDIMSTYLE1
100
AcDbAlignedDimension
 13
363.140505452
 23
42.3408067364
 33
0.0
 14
363.140505452
 24
40.3408067364
 34
0.0
 50
90.0
100
AcDbRotatedDimension
  0
ENDSEC
  0
SECTION
  2
OBJECTS
  0
DICTIONARY
  5
C
330
0
100
AcDbDictionary
281
     1
  3
ACAD_GROUP
350
D
  3
ACAD_LAYOUT
350
1A
  3
ACAD_MLINESTYLE
350
17
  3
ACAD_PLOTSETTINGS
350
19
  3
ACAD_PLOTSTYLENAME
350
E
  0
DICTIONARY
  5
D
102
{ACAD_REACTORS
330
C
102
}
330
C
100
AcDbDictionary
281
     1
  0
DICTIONARY
  5
1A
102
{ACAD_REACTORS
330
C
102
}
330
C
100
AcDbDictionary
281
     1
  3
Layout1
350
1E
  3
Layout2
350
26
  3
Model
350
22
  0
DICTIONARY
  5
17
102
{ACAD_REACTORS
330
C
102
}
330
C
100
AcDbDictionary
281
     1
  3
Standard
350
18
  0
DICTIONARY
  5
19
102
{ACAD_REACTORS
330
C
102
}
330
C
100
AcDbDictionary
281
     1
  0
ACDBDICTIONARYWDFLT
  5
E
102
{ACAD_REACTORS
330
C
102
}
330
C
100
AcDbDictionary
281
     1
  3
Normal
350
F
100
AcDbDictionaryWithDefault
340
F
  0
LAYOUT
  5
1E
102
{ACAD_REACTORS
330
1A
102
}
330
1A
100
AcDbPlotSettings
  1

  2
none_device
  4

  6

 40
0.0
 41
0.0
 42
0.0
 43
0.0
 44
0.0
 45
0.0
 46
0.0
 47
0.0
 48
0.0
 49
0.0
140
0.0
141
0.0
142
1.0
143
1.0
 70
   688
 72
     0
 73
     0
 74
     5
  7

 75
    16
147
1.0
148
0.0
149
0.0
100
AcDbLayout
  1
Layout1
 70
     1
 71
     1
 10
0.0
 20
0.0
 11
420.0
 21
297.0
 12
0.0
 22
0.0
 32
0.0
 14
1.0000000000E+20
 24
1.0000000000E+20
 34
1.0000000000E+20
 15
-1.0000000000E+20
 25
-1.0000000000E+20
 35
-1.0000000000E+20
146
0.0
 13
0.0
 23
0.0
 33
0.0
 16
1.0
 26
0.0
 36
0.0
 17
0.0
 27
1.0
 37
0.0
 76
     0
330
1B
  0
LAYOUT
  5
26
102
{ACAD_REACTORS
330
1A
102
}
330
1A
100
AcDbPlotSettings
  1

  2
none_device
  4

  6

 40
0.0
 41
0.0
 42
0.0
 43
0.0
 44
0.0
 45
0.0
 46
0.0
 47
0.0
 48
0.0
 49
0.0
140
0.0
141
0.0
142
1.0
143
1.0
 70
   688
 72
     0
 73
     0
 74
     5
  7

 75
    16
147
1.0
148
0.0
149
0.0
100
AcDbLayout
  1
Layout2
 70
     1
 71
     2
 10
0.0
 20
0.0
 11
0.0
 21
0.0
 12
0.0
 22
0.0
 32
0.0
 14
0.0
 24
0.0
 34
0.0
 15
0.0
 25
0.0
 35
0.0
146
0.0
 13
0.0
 23
0.0
 33
0.0
 16
1.0
 26
0.0
 36
0.0
 17
0.0
 27
1.0
 37
0.0
 76
     0
330
23
  0
LAYOUT
  5
22
102
{ACAD_REACTORS
330
1A
102
}
330
1A
100
AcDbPlotSettings
  1

  2
none_device
  4

  6

 40
0.0
 41
0.0
 42
0.0
 43
0.0
 44
0.0
 45
0.0
 46
0.0
 47
0.0
 48
0.0
 49
0.0
140
0.0
141
0.0
142
1.0
143
1.0
 70
  1712
 72
     0
 73
     0
 74
     0
  7

 75
     0
147
1.0
148
0.0
149
0.0
100
AcDbLayout
  1
Model
 70
     1
 71
     0
 10
0.0
 20
0.0
 11
594.0
 21
420.0
 12
0.0
 22
0.0
 32
0.0
 14
0.0
 24
0.0
 34
0.0
 15
594.0
 25
420.0
 35
0.0
146
0.0
 13
0.0
 23
0.0
 33
0.0
 16
1.0
 26
0.0
 36
0.0
 17
0.0
 27
1.0
 37
0.0
 76
     0
330
1F
331
29
  0
MLINESTYLE
  5
18
102
{ACAD_REACTORS
330
17
102
}
330
17
100
AcDbMlineStyle
  2
Standard
 70
     0
  3

 62
   256
 51
90.0
 52
90.0
 71
     2
 49
0.5
 62
   256
  6
BYLAYER
 49
-0.5
 62
   256
  6
BYLAYER
  0
ACDBPLACEHOLDER
  5
F
102
{ACAD_REACTORS
330
E
102
}
330
E
  0
ENDSEC
  0
EOF
