  0
SECTION
  2
HEADER
  9
$ACADVER
  1
AC1015
  9
$ACADMAINTVER
 70
     6
  9
$DWGCODEPAGE
  3
ANSI_936
  9
$INSBASE
 10
0.0
 20
0.0
 30
0.0
  9
$EXTMIN
 10
0.0
 20
0.0
 30
0.0
  9
$EXTMAX
 10
594.0
 20
420.0
 30
0.0
  9
$LIMMIN
 10
0.0
 20
0.0
  9
$LIMMAX
 10
594.0
 20
420.0
  9
$ORTHOMODE
 70
     0
  9
$REGENMODE
 70
     1
  9
$FILLMODE
 70
     1
  9
$QTEXTMODE
 70
     0
  9
$MIRRTEXT
 70
     1
  9
$LTSCALE
 40
1.0
  9
$ATTMODE
 70
     1
  9
$TEXTSIZE
 40
3.5
  9
$TRACEWID
 40
1.0
  9
$TEXTSTYLE
  7
Standard
  9
$CLAYER
  8
0
  9
$CELTYPE
  6
ByLayer
  9
$CECOLOR
 62
   256
  9
$CELTSCALE
 40
1.0
  9
$DISPSILH
 70
     0
  9
$DIMSCALE
 40
1.0
  9
$DIMASZ
 40
6.0
  9
$DIMEXO
 40
1.0
  9
$DIMDLI
 40
3.75
  9
$DIMRND
 40
0.0
  9
$DIMDLE
 40
0.0
  9
$DIMEXE
 40
1.0
  9
$DIMTP
 40
0.0
  9
$DIMTM
 40
0.0
  9
$DIMTXT
 40
3.5
  9
$DIMCEN
 40
2.5
  9
$DIMTSZ
 40
0.0
  9
$DIMTOL
 70
     0
  9
$DIMLIM
 70
     0
  9
$DIMTIH
 70
     1
  9
$DIMTOH
 70
     1
  9
$DIMSE1
 70
     0
  9
$DIMSE2
 70
     0
  9
$DIMTAD
 70
     1
  9
$DIMZIN
 70
     0
  9
$DIMBLK
  1

  9
$DIMASO
 70
     1
  9
$DIMSHO
 70
     1
  9
$DIMPOST
  1

  9
$DIMAPOST
  1

  9
$DIMALT
 70
     0
  9
$DIMALTD
 70
     3
  9
$DIMALTF
 40
0.0393700787
  9
$DIMLFAC
 40
1.0
  9
$DIMTOFL
 70
     1
  9
$DIMTVP
 40
0.0
  9
$DIMTIX
 70
     0
  9
$DIMSOXD
 70
     0
  9
$DIMSAH
 70
     0
  9
$DIMBLK1
  1

  9
$DIMBLK2
  1

  9
$DIMSTYLE
  2
ISO-25
  9
$DIMCLRD
 70
     0
  9
$DIMCLRE
 70
     0
  9
$DIMCLRT
 70
     0
  9
$DIMTFAC
 40
1.0
  9
$DIMGAP
 40
1.524
  9
$DIMJUST
 70
     0
  9
$DIMSD1
 70
     0
  9
$DIMSD2
 70
     0
  9
$DIMTOLJ
 70
     0
  9
$DIMTZIN
 70
     0
  9
$DIMALTZ
 70
     0
  9
$DIMALTTZ
 70
     0
  9
$DIMUPT
 70
     0
  9
$DIMDEC
 70
     3
  9
$DIMTDEC
 70
     3
  9
$DIMALTU
 70
     2
  9
$DIMALTTD
 70
     3
  9
$DIMTXSTY
  7
Standard
  9
$DIMAUNIT
 70
     0
  9
$DIMADEC
 70
     2
  9
$DIMALTRND
 40
0.0
  9
$DIMAZIN
 70
     0
  9
$DIMDSEP
 70
    44
  9
$DIMATFIT
 70
     3
  9
$DIMFRAC
 70
     0
  9
$DIMLDRBLK
  1

  9
$DIMLUNIT
 70
     2
  9
$DIMLWD
 70
    -2
  9
$DIMLWE
 70
    -2
  9
$DIMTMOVE
 70
     0
  9
$LUNITS
 70
     2
  9
$LUPREC
 70
     2
  9
$SKETCHINC
 40
1.0
  9
$FILLETRAD
 40
10.0
  9
$AUNITS
 70
     0
  9
$AUPREC
 70
     2
  9
$MENU
  1
.
  9
$ELEVATION
 40
0.0
  9
$PELEVATION
 40
0.0
  9
$THICKNESS
 40
0.0
  9
$LIMCHECK
 70
     0
  9
$CHAMFERA
 40
10.0
  9
$CHAMFERB
 40
10.0
  9
$CHAMFERC
 40
20.0
  9
$CHAMFERD
 40
0.0
  9
$SKPOLY
 70
     0
  9
$TDCREATE
 40
2455780.781070336
  9
$TDUCREATE
 40
2455780.447737002
  9
$TDUPDATE
 40
2455780.781070347
  9
$TDUUPDATE
 40
2455780.447737014
  9
$TDINDWG
 40
0.0000000116
  9
$TDUSRTIMER
 40
0.0000000116
  9
$USRTIMER
 70
     1
  9
$ANGBASE
 50
0.0
  9
$ANGDIR
 70
     0
  9
$PDMODE
 70
     0
  9
$PDSIZE
 40
-1.0
  9
$PLINEWID
 40
0.0
  9
$SPLFRAME
 70
     0
  9
$SPLINETYPE
 70
     6
  9
$SPLINESEGS
 70
     8
  9
$HANDSEED
  5
2F9
  9
$SURFTAB1
 70
     6
  9
$SURFTAB2
 70
     6
  9
$SURFTYPE
 70
     6
  9
$SURFU
 70
     6
  9
$SURFV
 70
     6
  9
$UCSBASE
  2

  9
$UCSNAME
  2

  9
$UCSORG
 10
0.0
 20
0.0
 30
0.0
  9
$UCSXDIR
 10
1.0
 20
0.0
 30
0.0
  9
$UCSYDIR
 10
0.0
 20
1.0
 30
0.0
  9
$UCSORTHOREF
  2

  9
$UCSORTHOVIEW
 70
     0
  9
$UCSORGTOP
 10
0.0
 20
0.0
 30
0.0
  9
$UCSORGBOTTOM
 10
0.0
 20
0.0
 30
0.0
  9
$UCSORGLEFT
 10
0.0
 20
0.0
 30
0.0
  9
$UCSORGRIGHT
 10
0.0
 20
0.0
 30
0.0
  9
$UCSORGFRONT
 10
0.0
 20
0.0
 30
0.0
  9
$UCSORGBACK
 10
0.0
 20
0.0
 30
0.0
  9
$PUCSBASE
  2

  9
$PUCSNAME
  2

  9
$PUCSORG
 10
0.0
 20
0.0
 30
0.0
  9
$PUCSXDIR
 10
1.0
 20
0.0
 30
0.0
  9
$PUCSYDIR
 10
0.0
 20
1.0
 30
0.0
  9
$PUCSORTHOREF
  2

  9
$PUCSORTHOVIEW
 70
     0
  9
$PUCSORGTOP
 10
0.0
 20
0.0
 30
0.0
  9
$PUCSORGBOTTOM
 10
0.0
 20
0.0
 30
0.0
  9
$PUCSORGLEFT
 10
0.0
 20
0.0
 30
0.0
  9
$PUCSORGRIGHT
 10
0.0
 20
0.0
 30
0.0
  9
$PUCSORGFRONT
 10
0.0
 20
0.0
 30
0.0
  9
$PUCSORGBACK
 10
0.0
 20
0.0
 30
0.0
  9
$USERI1
 70
     0
  9
$USERI2
 70
     0
  9
$USERI3
 70
     0
  9
$USERI4
 70
     0
  9
$USERI5
 70
     0
  9
$USERR1
 40
0.0
  9
$USERR2
 40
0.0
  9
$USERR3
 40
0.0
  9
$USERR4
 40
0.0
  9
$USERR5
 40
0.0
  9
$WORLDVIEW
 70
     1
  9
$SHADEDGE
 70
     3
  9
$SHADEDIF
 70
    70
  9
$TILEMODE
 70
     1
  9
$MAXACTVP
 70
    64
  9
$PINSBASE
 10
0.0
 20
0.0
 30
0.0
  9
$PLIMCHECK
 70
     0
  9
$PEXTMIN
 10
1.0000000000E+20
 20
1.0000000000E+20
 30
1.0000000000E+20
  9
$PEXTMAX
 10
-1.0000000000E+20
 20
-1.0000000000E+20
 30
-1.0000000000E+20
  9
$PLIMMIN
 10
0.0
 20
0.0
  9
$PLIMMAX
 10
420.0
 20
297.0
  9
$UNITMODE
 70
     0
  9
$VISRETAIN
 70
     1
  9
$PLINEGEN
 70
     0
  9
$PSLTSCALE
 70
     1
  9
$TREEDEPTH
 70
  3020
  9
$CMLSTYLE
  2
Standard
  9
$CMLJUST
 70
     0
  9
$CMLSCALE
 40
20.0
  9
$PROXYGRAPHICS
 70
     1
  9
$MEASUREMENT
 70
     1
  9
$CELWEIGHT
370
    -1
  9
$ENDCAPS
280
     0
  9
$JOINSTYLE
280
     0
  9
$LWDISPLAY
290
     1
  9
$INSUNITS
 70
     4
  9
$HYPERLINKBASE
  1

  9
$STYLESHEET
  1

  9
$XEDIT
290
     1
  9
$CEPSNTYPE
380
     0
  9
$PSTYLEMODE
290
     1
  9
$FINGERPRINTGUID
  2
{741D40FA-E23D-46E2-9873-27D0133E7790}
  9
$VERSIONGUID
  2
{FAEB1C32-E019-11D5-929B-00C0DF256EC4}
  9
$EXTNAMES
290
     1
  9
$PSVPSCALE
 40
0.0
  9
$OLESTARTUP
290
     0
  0
ENDSEC
  0
SECTION
  2
CLASSES
  0
CLASS
  1
ACDBDICTIONARYWDFLT
  2
AcDbDictionaryWithDefault
  3
ObjectDBX Classes
 90
        0
280
     0
281
     0
  0
CLASS
  1
VISUALSTYLE
  2
AcDbVisualStyle
  3
ObjectDBX Classes
 90
     4095
280
     0
281
     0
  0
CLASS
  1
MATERIAL
  2
AcDbMaterial
  3
ObjectDBX Classes
 90
     1153
280
     0
281
     0
  0
CLASS
  1
ACDBPLACEHOLDER
  2
AcDbPlaceHolder
  3
ObjectDBX Classes
 90
        0
280
     0
281
     0
  0
CLASS
  1
LAYOUT
  2
AcDbLayout
  3
ObjectDBX Classes
 90
        0
280
     0
281
     0
  0
ENDSEC
  0
SECTION
  2
TABLES
  0
TABLE
  2
VPORT
  5
8
330
0
100
AcDbSymbolTable
 70
     1
  0
VPORT
  5
29
330
8
100
AcDbSymbolTableRecord
100
AcDbViewportTableRecord
  2
*Active
 70
     0
 10
0.0
 20
0.0
 11
1.0
 21
1.0
 12
297.0
 22
210.0
 13
0.0
 23
0.0
 14
10.0
 24
10.0
 15
10.0
 25
10.0
 16
0.0
 26
0.0
 36
1.0
 17
0.0
 27
0.0
 37
0.0
 40
420.0
 41
1.4142857143
 42
50.0
 43
0.0
 44
0.0
 50
0.0
 51
0.0
 71
     0
 72
  2000
 73
     1
 74
     3
 75
     0
 76
     0
 77
     0
 78
     0
281
     0
 65
     1
110
0.0
120
0.0
130
0.0
111
1.0
121
0.0
131
0.0
112
0.0
122
1.0
132
0.0
 79
     0
146
0.0
  0
ENDTAB
  0
TABLE
  2
LTYPE
  5
5
330
0
100
AcDbSymbolTable
 70
     6
  0
LTYPE
  5
14
330
5
100
AcDbSymbolTableRecord
100
AcDbLinetypeTableRecord
  2
ByBlock
 70
     0
  3

 72
    65
 73
     0
 40
0.0
  0
LTYPE
  5
15
330
5
100
AcDbSymbolTableRecord
100
AcDbLinetypeTableRecord
  2
ByLayer
 70
     0
  3

 72
    65
 73
     0
 40
0.0
  0
LTYPE
  5
16
330
5
100
AcDbSymbolTableRecord
100
AcDbLinetypeTableRecord
  2
Continuous
 70
     0
  3
Solid line
 72
    65
 73
     0
 40
0.0
  0
LTYPE
  5
3F
330
5
100
AcDbSymbolTableRecord
100
AcDbLinetypeTableRecord
  2
HIDDEN
 70
     0
  3
Hidden __ __ __ __ __ __ __ __ __ __ __ __ __ __
 72
    65
 73
     2
 40
1.905
 49
1.27
 74
     0
 49
-0.635
 74
     0
  0
LTYPE
  5
40
330
5
100
AcDbSymbolTableRecord
100
AcDbLinetypeTableRecord
  2
PHANTOM
 70
     0
  3
Phantom ______  __  __  ______  __  __  ______
 72
    65
 73
     6
 40
12.7
 49
6.35
 74
     0
 49
-1.27
 74
     0
 49
1.27
 74
     0
 49
-1.27
 74
     0
 49
1.27
 74
     0
 49
-1.27
 74
     0
  0
LTYPE
  5
41
330
5
100
AcDbSymbolTableRecord
100
AcDbLinetypeTableRecord
  2
CENTER
 70
     0
  3
Center ____ _ ____ _ ____ _ ____ _ ____ _ ____
 72
    65
 73
     4
 40
10.16
 49
6.35
 74
     0
 49
-1.27
 74
     0
 49
1.27
 74
     0
 49
-1.27
 74
     0
  0
LTYPE
  5
42
330
5
100
AcDbSymbolTableRecord
100
AcDbLinetypeTableRecord
  2
CENTERX2
 70
     0
  3
Center (2x) ________  __  ________  __  _____
 72
    65
 73
     4
 40
20.32
 49
12.7
 74
     0
 49
-2.54
 74
     0
 49
2.54
 74
     0
 49
-2.54
 74
     0
  0
LTYPE
  5
43
330
5
100
AcDbSymbolTableRecord
100
AcDbLinetypeTableRecord
  2
DOT2
 70
     0
  3
Dot (.5x) ........................................
 72
    65
 73
     2
 40
0.635
 49
0.0
 74
     0
 49
-0.635
 74
     0
  0
ENDTAB
  0
TABLE
  2
LAYER
  5
2
330
0
100
AcDbSymbolTable
 70
     2
  0
LAYER
  5
10
330
2
100
AcDbSymbolTableRecord
100
AcDbLayerTableRecord
  2
0
 70
     0
 62
     7
  6
Continuous
370
    -3
390
F
  0
LAYER
  5
44
330
2
100
AcDbSymbolTableRecord
100
AcDbLayerTableRecord
  2
FORMAT
 70
     0
 62
     7
  6
Continuous
370
    -3
390
F
  0
ENDTAB
  0
TABLE
  2
STYLE
  5
3
330
0
100
AcDbSymbolTable
 70
     5
  0
STYLE
  5
11
330
3
100
AcDbSymbolTableRecord
100
AcDbTextStyleTableRecord
  2
Standard
 70
     0
 40
0.0
 41
1.0
 50
0.0
 71
     0
 42
2.5
  3
txt
  4

  0
STYLE
  5
66
330
3
100
AcDbSymbolTableRecord
100
AcDbTextStyleTableRecord
  2
SLDTEXTSTYLE0
 70
     0
 40
0.0
 41
0.75
 50
0.0
 71
     0
 42
0.2
  3
TXT
  4
bigfont
  0
STYLE
  5
68
330
3
100
AcDbSymbolTableRecord
100
AcDbTextStyleTableRecord
  2
SLDTEXTSTYLE1
 70
     0
 40
0.0
 41
0.6964285714
 50
0.0
 71
     0
 42
0.2
  3
TXT
  4
bigfont
  0
STYLE
  5
6A
330
3
100
AcDbSymbolTableRecord
100
AcDbTextStyleTableRecord
  2
SLDTEXTSTYLE2
 70
     0
 40
0.0
 41
0.75
 50
0.0
 71
     0
 42
0.2
  3
TXT
  4

  0
STYLE
  5
6E
330
3
100
AcDbSymbolTableRecord
100
AcDbTextStyleTableRecord
  2
SLDTEXTSTYLE3
 70
     0
 40
0.0
 41
0.6875
 50
0.0
 71
     0
 42
0.2
  3
TXT
  4

  0
ENDTAB
  0
TABLE
  2
VIEW
  5
6
330
0
100
AcDbSymbolTable
 70
     0
  0
ENDTAB
  0
TABLE
  2
UCS
  5
7
330
0
100
AcDbSymbolTable
 70
     0
  0
ENDTAB
  0
TABLE
  2
APPID
  5
9
330
0
100
AcDbSymbolTable
 70
     1
  0
APPID
  5
12
330
9
100
AcDbSymbolTableRecord
100
AcDbRegAppTableRecord
  2
ACAD
 70
     0
  0
ENDTAB
  0
TABLE
  2
DIMSTYLE
  5
A
330
0
100
AcDbSymbolTable
 70
    10
100
AcDbDimStyleTable
  0
DIMSTYLE
105
27
330
A
100
AcDbSymbolTableRecord
100
AcDbDimStyleTableRecord
  2
ISO-25
 70
     0
 41
2.5
 42
0.625
 43
3.75
 44
1.25
 73
     0
 74
     0
 77
     1
 78
     8
140
2.5
141
2.5
143
0.0393700787
147
0.625
171
     3
172
     1
178
     0
271
     2
272
     2
274
     3
278
    44
283
     0
284
     8
340
11
  0
DIMSTYLE
105
C3
102
{ACAD_REACTORS
330
C2
330
D4
330
EF
330
F8
330
175
330
180
330
18B
330
195
330
1AA
330
1B4
330
1BE
330
1F2
330
21A
330
224
102
}
330
A
100
AcDbSymbolTableRecord
100
AcDbDimStyleTableRecord
  2
SLDDIMSTYLE0
 70
     0
 41
6.0
 44
0.0
 45
0.000000001
 73
     0
 74
     0
 77
     1
 78
    12
 79
     3
140
3.5
147
0.875
173
     1
178
     0
271
     2
272
     2
276
     2
284
    12
340
6A
341
C4
343
C4
344
C4
  0
DIMSTYLE
105
DF
102
{ACAD_REACTORS
330
DE
330
E7
330
13F
102
}
330
A
100
AcDbSymbolTableRecord
100
AcDbDimStyleTableRecord
  2
SLDDIMSTYLE1
 70
     0
 41
6.0
 44
0.0
 73
     0
 74
     0
 77
     1
 78
    12
 79
     3
140
3.5
147
0.875
173
     1
178
     0
179
     2
272
     2
276
     2
284
    12
340
6A
341
C4
343
C4
344
C4
  0
DIMSTYLE
105
102
102
{ACAD_REACTORS
330
101
330
10E
330
11A
330
126
330
20F
102
}
330
A
100
AcDbSymbolTableRecord
100
AcDbDimStyleTableRecord
  2
SLDDIMSTYLE2
 70
     0
 41
6.0
 44
0.0
 45
0.000000001
 73
     0
 74
     0
 77
     1
 78
     4
 79
     1
140
3.5
147
0.875
172
     1
173
     1
178
     0
271
     2
272
     2
276
     2
284
    12
289
     0
340
6A
341
C4
343
C4
344
C4
  0
DIMSTYLE
105
133
102
{ACAD_REACTORS
330
132
330
152
330
1DA
330
1E6
330
22E
330
2ED
102
}
330
A
100
AcDbSymbolTableRecord
100
AcDbDimStyleTableRecord
  2
SLDDIMSTYLE3
 70
     0
 41
6.0
 44
0.0
 45
0.000000001
 73
     0
 74
     0
 77
     1
 78
    12
 79
     3
140
3.5
147
0.875
172
     1
173
     1
178
     0
271
     2
272
     2
276
     2
284
    12
289
     0
340
6A
341
C4
343
C4
344
C4
  0
DIMSTYLE
105
148
102
{ACAD_REACTORS
330
147
330
19F
102
}
330
A
100
AcDbSymbolTableRecord
100
AcDbDimStyleTableRecord
  2
SLDDIMSTYLE4
 70
     0
 41
6.0
 44
0.0
 45
0.000000001
 73
     0
 74
     0
 77
     1
 78
     4
 79
     1
140
3.5
147
0.875
173
     1
178
     0
271
     2
272
     2
276
     2
284
    12
340
6A
341
C4
343
C4
344
C4
  0
DIMSTYLE
105
160
102
{ACAD_REACTORS
330
15F
330
16C
102
}
330
A
100
AcDbSymbolTableRecord
100
AcDbDimStyleTableRecord
  2
SLDDIMSTYLE5
 70
     0
 41
6.0
 44
0.0
 45
0.000000001
 73
     0
 74
     0
 77
     1
 78
    12
 79
     3
140
3.5
141
0.0
147
0.875
172
     1
173
     1
178
     0
271
     2
272
     2
276
     2
284
    12
340
6A
341
161
343
161
344
C4
  0
DIMSTYLE
105
1C9
102
{ACAD_REACTORS
330
1C8
102
}
330
A
100
AcDbSymbolTableRecord
100
AcDbDimStyleTableRecord
  2
SLDDIMSTYLE6
 70
     0
 41
6.0
 44
0.0
 45
0.000000001
 73
     0
 74
     0
 77
     1
 78
    12
 79
     3
140
3.5
141
0.0
147
0.875
173
     1
178
     0
271
     2
272
     2
276
     2
284
    12
340
6A
341
C4
343
C4
344
C4
  0
DIMSTYLE
105
1D2
102
{ACAD_REACTORS
330
1D1
102
}
330
A
100
AcDbSymbolTableRecord
100
AcDbDimStyleTableRecord
  2
SLDDIMSTYLE7
 70
     0
 41
6.0
 44
0.0
 45
0.000000001
 73
     0
 74
     0
 77
     1
 78
     4
 79
     1
140
3.5
141
0.0
147
0.875
173
     1
178
     0
271
     2
272
     2
276
     2
284
    12
340
6A
341
C4
343
C4
344
C4
  0
DIMSTYLE
105
1FD
102
{ACAD_REACTORS
330
1FC
330
206
102
}
330
A
100
AcDbSymbolTableRecord
100
AcDbDimStyleTableRecord
  2
SLDDIMSTYLE8
 70
     0
 41
6.0
 44
0.0
 45
0.000000001
 73
     0
 74
     0
 77
     1
 78
     4
 79
     1
140
3.5
141
0.0
147
0.875
172
     1
173
     1
178
     0
271
     2
272
     2
276
     2
284
    12
340
6A
341
161
343
161
344
C4
  0
ENDTAB
  0
TABLE
  2
BLOCK_RECORD
  5
1
330
0
100
AcDbSymbolTable
 70
    44
  0
BLOCK_RECORD
  5
1F
330
1
100
AcDbSymbolTableRecord
100
AcDbBlockTableRecord
  2
*Model_Space
340
22
  0
BLOCK_RECORD
  5
1B
330
1
100
AcDbSymbolTableRecord
100
AcDbBlockTableRecord
  2
*Paper_Space
340
1E
  0
BLOCK_RECORD
  5
23
330
1
100
AcDbSymbolTableRecord
100
AcDbBlockTableRecord
  2
*Paper_Space0
340
26
  0
BLOCK_RECORD
  5
79
330
1
100
AcDbSymbolTableRecord
100
AcDbBlockTableRecord
  2
SW_NOTE_2
340
0
102
{BLKREFS
331
7F
102
}
  0
BLOCK_RECORD
  5
81
330
1
100
AcDbSymbolTableRecord
100
AcDbBlockTableRecord
  2
SW_NOTE_3
340
0
102
{BLKREFS
331
8A
102
}
  0
BLOCK_RECORD
  5
C4
330
1
100
AcDbSymbolTableRecord
100
AcDbBlockTableRecord
  2
_CLOSED
340
0
102
{BLKREFS
331
CE
331
CF
331
D8
331
D9
331
E4
331
E5
331
EC
331
ED
331
F3
331
F4
331
FC
331
FD
331
106
331
107
331
112
331
113
331
11E
331
11F
331
12A
331
12B
331
137
331
138
331
144
331
145
331
14C
331
14D
331
156
331
157
331
167
331
170
331
179
331
17A
331
184
331
185
331
18F
331
190
331
199
331
19A
331
1A3
331
1A4
331
1AE
331
1AF
331
1B8
331
1B9
331
1C2
331
1C3
331
1CD
331
1D6
331
1DE
331
1DF
331
1EA
331
1EB
331
1F6
331
1F7
331
201
331
20A
331
213
331
214
331
21E
331
21F
331
228
331
229
331
232
331
233
331
2F1
331
2F2
102
}
  0
BLOCK_RECORD
  5
CB
330
1
100
AcDbSymbolTableRecord
100
AcDbBlockTableRecord
  2
*D4
340
0
  0
BLOCK_RECORD
  5
D5
330
1
100
AcDbSymbolTableRecord
100
AcDbBlockTableRecord
  2
*D5
340
0
  0
BLOCK_RECORD
  5
E0
330
1
100
AcDbSymbolTableRecord
100
AcDbBlockTableRecord
  2
*D6
340
0
  0
BLOCK_RECORD
  5
E8
330
1
100
AcDbSymbolTableRecord
100
AcDbBlockTableRecord
  2
*D7
340
0
  0
BLOCK_RECORD
  5
F0
330
1
100
AcDbSymbolTableRecord
100
AcDbBlockTableRecord
  2
*D8
340
0
  0
BLOCK_RECORD
  5
F9
330
1
100
AcDbSymbolTableRecord
100
AcDbBlockTableRecord
  2
*D9
340
0
  0
BLOCK_RECORD
  5
103
330
1
100
AcDbSymbolTableRecord
100
AcDbBlockTableRecord
  2
*D10
340
0
  0
BLOCK_RECORD
  5
10F
330
1
100
AcDbSymbolTableRecord
100
AcDbBlockTableRecord
  2
*D11
340
0
  0
BLOCK_RECORD
  5
11B
330
1
100
AcDbSymbolTableRecord
100
AcDbBlockTableRecord
  2
*D12
340
0
  0
BLOCK_RECORD
  5
127
330
1
100
AcDbSymbolTableRecord
100
AcDbBlockTableRecord
  2
*D13
340
0
  0
BLOCK_RECORD
  5
134
330
1
100
AcDbSymbolTableRecord
100
AcDbBlockTableRecord
  2
*D14
340
0
  0
BLOCK_RECORD
  5
140
330
1
100
AcDbSymbolTableRecord
100
AcDbBlockTableRecord
  2
*D15
340
0
  0
BLOCK_RECORD
  5
149
330
1
100
AcDbSymbolTableRecord
100
AcDbBlockTableRecord
  2
*D16
340
0
  0
BLOCK_RECORD
  5
153
330
1
100
AcDbSymbolTableRecord
100
AcDbBlockTableRecord
  2
*D17
340
0
  0
BLOCK_RECORD
  5
161
330
1
100
AcDbSymbolTableRecord
100
AcDbBlockTableRecord
  2
_NONE
340
0
  0
BLOCK_RECORD
  5
164
330
1
100
AcDbSymbolTableRecord
100
AcDbBlockTableRecord
  2
*D19
340
0
  0
BLOCK_RECORD
  5
16D
330
1
100
AcDbSymbolTableRecord
100
AcDbBlockTableRecord
  2
*D20
340
0
  0
BLOCK_RECORD
  5
176
330
1
100
AcDbSymbolTableRecord
100
AcDbBlockTableRecord
  2
*D21
340
0
  0
BLOCK_RECORD
  5
181
330
1
100
AcDbSymbolTableRecord
100
AcDbBlockTableRecord
  2
*D22
340
0
  0
BLOCK_RECORD
  5
18C
330
1
100
AcDbSymbolTableRecord
100
AcDbBlockTableRecord
  2
*D23
340
0
  0
BLOCK_RECORD
  5
196
330
1
100
AcDbSymbolTableRecord
100
AcDbBlockTableRecord
  2
*D24
340
0
  0
BLOCK_RECORD
  5
1A0
330
1
100
AcDbSymbolTableRecord
100
AcDbBlockTableRecord
  2
*D25
340
0
  0
BLOCK_RECORD
  5
1AB
330
1
100
AcDbSymbolTableRecord
100
AcDbBlockTableRecord
  2
*D26
340
0
  0
BLOCK_RECORD
  5
1B5
330
1
100
AcDbSymbolTableRecord
100
AcDbBlockTableRecord
  2
*D27
340
0
  0
BLOCK_RECORD
  5
1BF
330
1
100
AcDbSymbolTableRecord
100
AcDbBlockTableRecord
  2
*D28
340
0
  0
BLOCK_RECORD
  5
1CA
330
1
100
AcDbSymbolTableRecord
100
AcDbBlockTableRecord
  2
*D29
340
0
  0
BLOCK_RECORD
  5
1D3
330
1
100
AcDbSymbolTableRecord
100
AcDbBlockTableRecord
  2
*D30
340
0
  0
BLOCK_RECORD
  5
1DB
330
1
100
AcDbSymbolTableRecord
100
AcDbBlockTableRecord
  2
*D31
340
0
  0
BLOCK_RECORD
  5
1E7
330
1
100
AcDbSymbolTableRecord
100
AcDbBlockTableRecord
  2
*D32
340
0
  0
BLOCK_RECORD
  5
1F3
330
1
100
AcDbSymbolTableRecord
100
AcDbBlockTableRecord
  2
*D33
340
0
  0
BLOCK_RECORD
  5
1FE
330
1
100
AcDbSymbolTableRecord
100
AcDbBlockTableRecord
  2
*D34
340
0
  0
BLOCK_RECORD
  5
207
330
1
100
AcDbSymbolTableRecord
100
AcDbBlockTableRecord
  2
*D35
340
0
  0
BLOCK_RECORD
  5
210
330
1
100
AcDbSymbolTableRecord
100
AcDbBlockTableRecord
  2
*D36
340
0
  0
BLOCK_RECORD
  5
21B
330
1
100
AcDbSymbolTableRecord
100
AcDbBlockTableRecord
  2
*D37
340
0
  0
BLOCK_RECORD
  5
225
330
1
100
AcDbSymbolTableRecord
100
AcDbBlockTableRecord
  2
*D38
340
0
  0
BLOCK_RECORD
  5
22F
330
1
100
AcDbSymbolTableRecord
100
AcDbBlockTableRecord
  2
*D39
340
0
  0
BLOCK_RECORD
  5
239
330
1
100
AcDbSymbolTableRecord
100
AcDbBlockTableRecord
  2
SW_CENTERMARKSYMBOL_0
340
0
102
{BLKREFS
331
244
102
}
  0
BLOCK_RECORD
  5
245
330
1
100
AcDbSymbolTableRecord
100
AcDbBlockTableRecord
  2
SW_CENTERMARKSYMBOL_1
340
0
102
{BLKREFS
331
250
102
}
  0
BLOCK_RECORD
  5
251
330
1
100
AcDbSymbolTableRecord
100
AcDbBlockTableRecord
  2
SW_CENTERMARKSYMBOL_2
340
0
102
{BLKREFS
331
25C
102
}
  0
BLOCK_RECORD
  5
2EE
330
1
100
AcDbSymbolTableRecord
100
AcDbBlockTableRecord
  2
*D43
340
0
  0
ENDTAB
  0
ENDSEC
  0
SECTION
  2
BLOCKS
  0
BLOCK
  5
20
330
1F
100
AcDbEntity
  8
0
100
AcDbBlockBegin
  2
*Model_Space
 70
     0
 10
0.0
 20
0.0
 30
0.0
  3
*Model_Space
  1

  0
ENDBLK
  5
21
330
1F
100
AcDbEntity
  8
0
100
AcDbBlockEnd
  0
BLOCK
  5
1C
330
1B
100
AcDbEntity
 67
     1
  8
0
100
AcDbBlockBegin
  2
*Paper_Space
 70
     0
 10
0.0
 20
0.0
 30
0.0
  3
*Paper_Space
  1

  0
ENDBLK
  5
1D
330
1B
100
AcDbEntity
 67
     1
  8
0
100
AcDbBlockEnd
  0
BLOCK
  5
24
330
23
100
AcDbEntity
  8
0
100
AcDbBlockBegin
  2
*Paper_Space0
 70
     0
 10
0.0
 20
0.0
 30
0.0
  3
*Paper_Space0
  1

  0
ENDBLK
  5
25
330
23
100
AcDbEntity
  8
0
100
AcDbBlockEnd
  0
BLOCK
  5
7A
330
79
100
AcDbEntity
  8
0
100
AcDbBlockBegin
  2
SW_NOTE_2
 70
     0
 10
0.0
 20
0.0
 30
0.0
  3
SW_NOTE_2
  1

  0
MTEXT
  5
7C
330
79
100
AcDbEntity
  8
0
  6
Continuous
 62
     0
370
     0
100
AcDbMText
 10
0.0
 20
1.9336016097
 30
0.0
 40
1.5
 41
0.0
 71
     1
 72
     1
  1
DEBUR AND
  7
SLDTEXTSTYLE2
 73
     1
 44
1.0
  0
MTEXT
  5
7D
330
79
100
AcDbEntity
  8
0
  6
Continuous
 62
     0
370
     0
100
AcDbMText
 10
0.0
 20
-0.5663983345
 30
0.0
 40
1.5
 41
0.0
 71
     1
 72
     1
  1
BREAK SHARP
  7
SLDTEXTSTYLE2
 73
     1
 44
1.0
  0
MTEXT
  5
7E
330
79
100
AcDbEntity
  8
0
  6
Continuous
 62
     0
370
     0
100
AcDbMText
 10
0.0
 20
-3.0663982786
 30
0.0
 40
1.5
 41
0.0
 71
     1
 72
     1
  1
EDGES
  7
SLDTEXTSTYLE2
 73
     1
 44
1.0
  0
ENDBLK
  5
7B
330
79
100
AcDbEntity
  8
0
100
AcDbBlockEnd
  0
BLOCK
  5
82
330
81
100
AcDbEntity
  8
0
100
AcDbBlockBegin
  2
SW_NOTE_3
 70
     0
 10
0.0
 20
0.0
 30
0.0
  3
SW_NOTE_3
  1

  0
MTEXT
  5
84
330
81
100
AcDbEntity
  8
0
  6
Continuous
 62
     0
370
     0
100
AcDbMText
 10
0.0
 20
1.9336016097
 30
0.0
 40
1.5
 41
0.0
 71
     1
 72
     1
  1
UNLESS OTHERWISE SPECIFIED:
  7
SLDTEXTSTYLE2
 73
     1
 44
1.0
  0
MTEXT
  5
85
330
81
100
AcDbEntity
  8
0
  6
Continuous
 62
     0
370
     0
100
AcDbMText
 10
0.0
 20
-0.5663983345
 30
0.0
 40
1.5
 41
0.0
 71
     1
 72
     1
  1
DIMENSIONS ARE IN MILLIMETERS
  7
SLDTEXTSTYLE2
 73
     1
 44
1.0
  0
MTEXT
  5
86
330
81
100
AcDbEntity
  8
0
  6
Continuous
 62
     0
370
     0
100
AcDbMText
 10
0.0
 20
-3.0663982786
 30
0.0
 40
1.5
 41
0.0
 71
     1
 72
     1
  1
SURFACE FINISH:
  7
SLDTEXTSTYLE2
 73
     1
 44
1.0
  0
MTEXT
  5
87
330
81
100
AcDbEntity
  8
0
  6
Continuous
 62
     0
370
     0
100
AcDbMText
 10
0.0
 20
-5.5663982227
 30
0.0
 40
1.5
 41
0.0
 71
     1
 72
     1
  1
TOLERANCES:
  7
SLDTEXTSTYLE2
 73
     1
 44
1.0
  0
MTEXT
  5
88
330
81
100
AcDbEntity
  8
0
  6
Continuous
 62
     0
370
     0
100
AcDbMText
 10
1.6875
 20
-8.0663981668
 30
0.0
 40
1.5
 41
0.0
 71
     1
 72
     1
  1
LINEAR:
  7
SLDTEXTSTYLE2
 73
     1
 44
1.0
  0
MTEXT
  5
89
330
81
100
AcDbEntity
  8
0
  6
Continuous
 62
     0
370
     0
100
AcDbMText
 10
1.6875
 20
-10.5663981109
 30
0.0
 40
1.5
 41
0.0
 71
     1
 72
     1
  1
ANGULAR:
  7
SLDTEXTSTYLE2
 73
     1
 44
1.0
  0
ENDBLK
  5
83
330
81
100
AcDbEntity
  8
0
100
AcDbBlockEnd
  0
BLOCK
  5
C5
330
C4
100
AcDbEntity
  8
0
100
AcDbBlockBegin
  2
_CLOSED
 70
     0
 10
0.0
 20
0.0
 30
0.0
  3
_CLOSED
  1

  0
LINE
  5
C7
330
C4
100
AcDbEntity
  8
0
  6
ByBlock
 62
     0
370
    -2
100
AcDbLine
 10
-1.0
 20
0.166667
 30
0.0
 11
0.0
 21
0.0
 31
0.0
  0
LINE
  5
C8
330
C4
100
AcDbEntity
  8
0
  6
ByBlock
 62
     0
370
    -2
100
AcDbLine
 10
0.0
 20
0.0
 30
0.0
 11
-1.0
 21
-0.166667
 31
0.0
  0
LINE
  5
C9
330
C4
100
AcDbEntity
  8
0
  6
ByBlock
 62
     0
370
    -2
100
AcDbLine
 10
-1.0
 20
0.166667
 30
0.0
 11
-1.0
 21
-0.166667
 31
0.0
  0
LINE
  5
CA
330
C4
100
AcDbEntity
  8
0
  6
ByBlock
 62
     0
370
    -2
100
AcDbLine
 10
0.0
 20
0.0
 30
0.0
 11
-1.0
 21
0.0
 31
0.0
  0
ENDBLK
  5
C6
330
C4
100
AcDbEntity
  8
0
100
AcDbBlockEnd
  0
BLOCK
  5
CC
330
CB
100
AcDbEntity
  8
0
100
AcDbBlockBegin
  2
*D4
 70
     1
 10
0.0
 20
0.0
 30
0.0
  3
*D4
  1

  0
INSERT
  5
CE
330
CB
100
AcDbEntity
  8
0
  6
Continuous
 62
     7
370
     0
100
AcDbBlockReference
  2
_CLOSED
 10
52.321664246
 20
90.7804006323
 30
-2.4
 41
6.0
 42
6.0
 50
270.0
  0
INSERT
  5
CF
330
CB
100
AcDbEntity
  8
0
  6
Continuous
 62
     7
370
     0
100
AcDbBlockReference
  2
_CLOSED
 10
52.321664246
 20
345.7804006323
 30
-2.4
 41
6.0
 42
6.0
 50
90.0
  0
LINE
  5
D0
330
CB
100
AcDbEntity
  8
0
  6
Continuous
 62
     7
370
     0
100
AcDbLine
 10
73.2027727398
 20
90.7804006323
 30
0.0
 11
51.321664246
 21
90.7804006323
 31
0.0
  0
LINE
  5
D1
330
CB
100
AcDbEntity
  8
0
  6
Continuous
 62
     7
370
     0
100
AcDbLine
 10
151.5725635495
 20
345.7804006323
 30
0.0
 11
51.321664246
 21
345.7804006323
 31
0.0
  0
LINE
  5
D2
330
CB
100
AcDbEntity
  8
0
  6
Continuous
 62
     7
370
     0
100
AcDbLine
 10
52.321664246
 20
90.7804006323
 30
0.0
 11
52.321664246
 21
345.7804006323
 31
0.0
  0
MTEXT
  5
D3
330
CB
100
AcDbEntity
  8
0
  6
Continuous
 62
     7
370
     0
100
AcDbMText
 10
47.8099273314
 20
207.0567784585
 30
-2.4
 40
3.5
 41
0.0
 71
     1
 72
     1
  1
255
  7
SLDTEXTSTYLE2
 11
6.123233995736766E-17
 21
1.0
 31
0.0
 73
     1
 44
1.0
  0
ENDBLK
  5
CD
330
CB
100
AcDbEntity
  8
0
100
AcDbBlockEnd
  0
BLOCK
  5
D6
330
D5
100
AcDbEntity
  8
0
100
AcDbBlockBegin
  2
*D5
 70
     1
 10
0.0
 20
0.0
 30
0.0
  3
*D5
  1

  0
INSERT
  5
D8
330
D5
100
AcDbEntity
  8
0
  6
Continuous
 62
     7
370
     0
100
AcDbBlockReference
  2
_CLOSED
 10
264.0707649425
 20
355.7804006323
 30
-2.4
 41
6.0
 42
6.0
 50
0.0
  0
INSERT
  5
D9
330
D5
100
AcDbEntity
  8
0
  6
Continuous
 62
     7
370
     0
100
AcDbBlockReference
  2
_CLOSED
 10
152.5725635495
 20
355.7804006323
 30
-2.4
 41
6.0
 42
6.0
 50
180.0
  0
LINE
  5
DA
330
D5
100
AcDbEntity
  8
0
  6
Continuous
 62
     7
370
     0
100
AcDbLine
 10
264.0707649425
 20
346.7804006323
 30
0.0
 11
264.0707649425
 21
356.7804006323
 31
0.0
  0
LINE
  5
DB
330
D5
100
AcDbEntity
  8
0
  6
Continuous
 62
     7
370
     0
100
AcDbLine
 10
152.5725635495
 20
346.7804006323
 30
0.0
 11
152.5725635495
 21
356.7804006323
 31
0.0
  0
LINE
  5
DC
330
D5
100
AcDbEntity
  8
0
  6
Continuous
 62
     7
370
     0
100
AcDbLine
 10
264.0707649425
 20
355.7804006323
 30
0.0
 11
152.5725635495
 21
355.7804006323
 31
0.0
  0
MTEXT
  5
DD
330
D5
100
AcDbEntity
  8
0
  6
Continuous
 62
     7
370
     0
100
AcDbMText
 10
198.4949277213
 20
360.2921375468
 30
-2.4
 40
3.5
 41
0.0
 71
     1
 72
     1
  1
111.498
  7
SLDTEXTSTYLE2
 73
     1
 44
1.0
  0
ENDBLK
  5
D7
330
D5
100
AcDbEntity
  8
0
100
AcDbBlockEnd
  0
BLOCK
  5
E1
330
E0
100
AcDbEntity
  8
0
100
AcDbBlockBegin
  2
*D6
 70
     1
 10
0.0
 20
0.0
 30
0.0
  3
*D6
  1

  0
ARC
  5
E3
330
E0
100
AcDbEntity
  8
0
  6
Continuous
 62
     7
370
     0
100
AcDbCircle
 10
68.321664246
 20
90.7804006323
 30
0.0
 40
61.07395700582745
100
AcDbArc
 50
0.0
 51
80.7410375517
  0
INSERT
  5
E4
330
E0
100
AcDbEntity
  8
0
  6
Continuous
 62
     7
370
     0
100
AcDbBlockReference
  2
_CLOSED
 10
129.3956212518
 20
90.7804006323
 30
-2.4
 41
6.0
 42
6.0
 50
272.8054107299
  0
INSERT
  5
E5
330
E0
100
AcDbEntity
  8
0
  6
Continuous
 62
     7
370
     0
100
AcDbBlockReference
  2
_CLOSED
 10
78.1482778839
 20
151.0586379054
 30
-2.4
 41
6.0
 42
6.0
 50
167.9356268218
  0
MTEXT
  5
E6
330
E0
100
AcDbEntity
  8
0
  6
Continuous
 62
     7
370
     0
100
AcDbMText
 10
111.410930857
 20
140.8963855657
 30
-2.4
 40
3.5
 41
0.0
 71
     1
 72
     1
  1
80.74бу
  7
SLDTEXTSTYLE2
 11
0.6718137253941154
 21
-0.7407201349849214
 31
0.0
 73
     1
 44
1.0
  0
ENDBLK
  5
E2
330
E0
100
AcDbEntity
  8
0
100
AcDbBlockEnd
  0
BLOCK
  5
E9
330
E8
100
AcDbEntity
  8
0
100
AcDbBlockBegin
  2
*D7
 70
     1
 10
0.0
 20
0.0
 30
0.0
  3
*D7
  1

  0
ARC
  5
EB
330
E8
100
AcDbEntity
  8
0
  6
Continuous
 62
     7
370
     0
100
AcDbCircle
 10
148.321664246
 20
345.7804006323
 30
0.0
 40
52.84096857986104
100
AcDbArc
 50
260.7410375517
 51
0.0
  0
INSERT
  5
EC
330
E8
100
AcDbEntity
  8
0
  6
Continuous
 62
     7
370
     0
100
AcDbBlockReference
  2
_CLOSED
 10
139.8197133665
 20
293.6278859115
 30
-2.4
 41
6.0
 42
6.0
 50
173.9800825467
  0
INSERT
  5
ED
330
E8
100
AcDbEntity
  8
0
  6
Continuous
 62
     7
370
     0
100
AcDbBlockReference
  2
_CLOSED
 10
201.1626328259
 20
345.7804006323
 30
-2.4
 41
6.0
 42
6.0
 50
86.760955005
  0
MTEXT
  5
EE
330
E8
100
AcDbEntity
  8
0
  6
Continuous
 62
     7
370
     0
100
AcDbMText
 10
170.0340782968
 20
301.8361256315
 30
-2.4
 40
3.5
 41
0.0
 71
     1
 72
     1
  1
99.26бу
  7
SLDTEXTSTYLE2
 11
0.810111887133507
 21
0.5862753025030033
 31
0.0
 73
     1
 44
1.0
  0
ENDBLK
  5
EA
330
E8
100
AcDbEntity
  8
0
100
AcDbBlockEnd
  0
BLOCK
  5
F1
330
F0
100
AcDbEntity
  8
0
100
AcDbBlockBegin
  2
*D8
 70
     1
 10
0.0
 20
0.0
 30
0.0
  3
*D8
  1

  0
INSERT
  5
F3
330
F0
100
AcDbEntity
  8
0
  6
Continuous
 62
     7
370
     0
100
AcDbBlockReference
  2
_CLOSED
 10
122.6268255363
 20
150.7804006323
 30
-2.4
 41
6.0
 42
6.0
 50
90.0
  0
INSERT
  5
F4
330
F0
100
AcDbEntity
  8
0
  6
Continuous
 62
     7
370
     0
100
AcDbBlockReference
  2
_CLOSED
 10
122.6268255363
 20
90.7804006323
 30
-2.4
 41
6.0
 42
6.0
 50
270.0
  0
LINE
  5
F5
330
F0
100
AcDbEntity
  8
0
  6
Continuous
 62
     7
370
     0
100
AcDbLine
 10
122.821664246
 20
150.7804006323
 30
0.0
 11
121.6268255363
 21
150.7804006323
 31
0.0
  0
LINE
  5
F6
330
F0
100
AcDbEntity
  8
0
  6
Continuous
 62
     7
370
     0
100
AcDbLine
 10
122.6268255363
 20
150.7804006323
 30
0.0
 11
122.6268255363
 21
90.7804006323
 31
0.0
  0
MTEXT
  5
F7
330
F0
100
AcDbEntity
  8
0
  6
Continuous
 62
     7
370
     0
100
AcDbMText
 10
118.1150886218
 20
115.9575756415
 30
-2.4
 40
3.5
 41
0.0
 71
     1
 72
     1
  1
60
  7
SLDTEXTSTYLE2
 11
-7.044195017643634E-15
 21
1.0
 31
0.0
 73
     1
 44
1.0
  0
ENDBLK
  5
F2
330
F0
100
AcDbEntity
  8
0
100
AcDbBlockEnd
  0
BLOCK
  5
FA
330
F9
100
AcDbEntity
  8
0
100
AcDbBlockBegin
  2
*D9
 70
     1
 10
0.0
 20
0.0
 30
0.0
  3
*D9
  1

  0
INSERT
  5
FC
330
F9
100
AcDbEntity
  8
0
  6
Continuous
 62
     7
370
     0
100
AcDbBlockReference
  2
_CLOSED
 10
179.1874706976
 20
285.7804006323
 30
-2.4
 41
6.0
 42
6.0
 50
270.0
  0
INSERT
  5
FD
330
F9
100
AcDbEntity
  8
0
  6
Continuous
 62
     7
370
     0
100
AcDbBlockReference
  2
_CLOSED
 10
179.1874706976
 20
345.7804006323
 30
-2.4
 41
6.0
 42
6.0
 50
90.0
  0
LINE
  5
FE
330
F9
100
AcDbEntity
  8
0
  6
Continuous
 62
     7
370
     0
100
AcDbLine
 10
192.821664246
 20
285.7804006323
 30
0.0
 11
178.1874706976
 21
285.7804006323
 31
0.0
  0
LINE
  5
FF
330
F9
100
AcDbEntity
  8
0
  6
Continuous
 62
     7
370
     0
100
AcDbLine
 10
179.1874706976
 20
285.7804006323
 30
0.0
 11
179.1874706976
 21
345.7804006323
 31
0.0
  0
MTEXT
  5
100
330
F9
100
AcDbEntity
  8
0
  6
Continuous
 62
     7
370
     0
100
AcDbMText
 10
174.6757337831
 20
311.9949949964
 30
-2.4
 40
3.5
 41
0.0
 71
     1
 72
     1
  1
60
  7
SLDTEXTSTYLE2
 11
6.123233995736766E-17
 21
1.0
 31
0.0
 73
     1
 44
1.0
  0
ENDBLK
  5
FB
330
F9
100
AcDbEntity
  8
0
100
AcDbBlockEnd
  0
BLOCK
  5
104
330
103
100
AcDbEntity
  8
0
100
AcDbBlockBegin
  2
*D10
 70
     1
 10
0.0
 20
0.0
 30
0.0
  3
*D10
  1

  0
INSERT
  5
106
330
103
100
AcDbEntity
  8
0
  6
Continuous
 62
     7
370
     0
100
AcDbBlockReference
  2
_CLOSED
 10
320.5670263311
 20
140.2050992457
 30
-2.4
 41
6.0
 42
6.0
 50
197.4179707922
  0
INSERT
  5
107
330
103
100
AcDbEntity
  8
0
  6
Continuous
 62
     7
370
     0
100
AcDbBlockReference
  2
_CLOSED
 10
315.5577572713
 20
138.6335638544
 30
-2.4
 41
6.0
 42
6.0
 50
17.4179707922
  0
LINE
  5
108
330
103
100
AcDbEntity
  8
0
  6
Continuous
 62
     7
370
     0
100
AcDbLine
 10
322.452598406
 20
134.194838257
 30
0.0
 11
320.2676862566
 21
141.1592457333
 31
0.0
  0
LINE
  5
109
330
103
100
AcDbEntity
  8
0
  6
Continuous
 62
     7
370
     0
100
AcDbLine
 10
317.4433293462
 20
132.6233028657
 30
0.0
 11
315.2584171968
 21
139.587710342
 31
0.0
  0
LINE
  5
10A
330
103
100
AcDbEntity
  8
0
  6
Continuous
 62
     7
370
     0
100
AcDbLine
 10
320.5670263311
 20
140.2050992457
 30
0.0
 11
365.0566045704
 21
154.1626139875
 31
0.0
  0
LINE
  5
10B
330
103
100
AcDbEntity
  8
0
  6
Continuous
 62
     7
370
     0
100
AcDbLine
 10
320.5670263311
 20
140.2050992457
 30
0.0
 11
315.5577572713
 21
138.6335638544
 31
0.0
  0
LINE
  5
10C
330
103
100
AcDbEntity
  8
0
  6
Continuous
 62
     7
370
     0
100
AcDbLine
 10
315.5577572713
 20
138.6335638544
 30
0.0
 11
304.1079994202
 21
135.04148296
 31
0.0
  0
MTEXT
  5
10D
330
103
100
AcDbEntity
  8
0
  6
Continuous
 62
     7
370
     0
100
AcDbMText
 10
349.888826895
 20
154.1326534042
 30
-2.4
 40
3.5
 41
0.0
 71
     1
 72
     1
  1
5.250
  7
SLDTEXTSTYLE2
 11
0.9541464875877207
 21
0.2993400745373321
 31
0.0
 73
     1
 44
1.0
  0
ENDBLK
  5
105
330
103
100
AcDbEntity
  8
0
100
AcDbBlockEnd
  0
BLOCK
  5
110
330
10F
100
AcDbEntity
  8
0
100
AcDbBlockBegin
  2
*D11
 70
     1
 10
0.0
 20
0.0
 30
0.0
  3
*D11
  1

  0
INSERT
  5
112
330
10F
100
AcDbEntity
  8
0
  6
Continuous
 62
     7
370
     0
100
AcDbBlockReference
  2
_CLOSED
 10
392.7501857992
 20
123.6544075362
 30
-2.4
 41
6.0
 42
6.0
 50
107.4179707922
  0
INSERT
  5
113
330
10F
100
AcDbEntity
  8
0
  6
Continuous
 62
     7
370
     0
100
AcDbBlockReference
  2
_CLOSED
 10
383.7400495557
 20
152.3742168126
 30
-2.4
 41
6.0
 42
6.0
 50
287.4179707922
  0
LINE
  5
114
330
10F
100
AcDbEntity
  8
0
  6
Continuous
 62
     7
370
     0
100
AcDbLine
 10
332.7162212117
 20
104.8202225675
 30
0.0
 11
393.7043322868
 21
123.9537476107
 31
0.0
  0
LINE
  5
115
330
10F
100
AcDbEntity
  8
0
  6
Continuous
 62
     7
370
     0
100
AcDbLine
 10
323.7060849682
 20
133.5400318439
 30
0.0
 11
384.6941960433
 21
152.6735568871
 31
0.0
  0
LINE
  5
116
330
10F
100
AcDbEntity
  8
0
  6
Continuous
 62
     7
370
     0
100
AcDbLine
 10
392.7501857992
 20
123.6544075362
 30
0.0
 11
396.3422666937
 21
112.2046496851
 31
0.0
  0
LINE
  5
117
330
10F
100
AcDbEntity
  8
0
  6
Continuous
 62
     7
370
     0
100
AcDbLine
 10
392.7501857992
 20
123.6544075362
 30
0.0
 11
383.7400495557
 21
152.3742168126
 31
0.0
  0
LINE
  5
118
330
10F
100
AcDbEntity
  8
0
  6
Continuous
 62
     7
370
     0
100
AcDbLine
 10
383.7400495557
 20
152.3742168126
 30
0.0
 11
380.1479686612
 21
163.8239746636
 31
0.0
  0
MTEXT
  5
119
330
10F
100
AcDbEntity
  8
0
  6
Continuous
 62
     7
370
     0
100
AcDbMText
 10
389.5246788746
 20
149.0079891747
 30
-2.4
 40
3.5
 41
0.0
 71
     1
 72
     1
  1
30.100
  7
SLDTEXTSTYLE2
 11
0.2993400745373186
 21
-0.9541464875877249
 31
0.0
 73
     1
 44
1.0
  0
ENDBLK
  5
111
330
10F
100
AcDbEntity
  8
0
100
AcDbBlockEnd
  0
BLOCK
  5
11C
330
11B
100
AcDbEntity
  8
0
100
AcDbBlockBegin
  2
*D12
 70
     1
 10
0.0
 20
0.0
 30
0.0
  3
*D12
  1

  0
INSERT
  5
11E
330
11B
100
AcDbEntity
  8
0
  6
Continuous
 62
     7
370
     0
100
AcDbBlockReference
  2
_CLOSED
 10
257.8660311523
 20
340.0645213781
 30
-2.4
 41
6.0
 42
6.0
 50
197.4179707922
  0
INSERT
  5
11F
330
11B
100
AcDbEntity
  8
0
  6
Continuous
 62
     7
370
     0
100
AcDbBlockReference
  2
_CLOSED
 10
252.8567620925
 20
338.4929859868
 30
-2.4
 41
6.0
 42
6.0
 50
17.4179707922
  0
LINE
  5
120
330
11B
100
AcDbEntity
  8
0
  6
Continuous
 62
     7
370
     0
100
AcDbLine
 10
259.5911827532
 20
334.5656006504
 30
0.0
 11
257.5666910778
 21
341.0186678657
 31
0.0
  0
LINE
  5
121
330
11B
100
AcDbEntity
  8
0
  6
Continuous
 62
     7
370
     0
100
AcDbLine
 10
254.5819136934
 20
332.9940652591
 30
0.0
 11
252.557422018
 21
339.4471324744
 31
0.0
  0
LINE
  5
122
330
11B
100
AcDbEntity
  8
0
  6
Continuous
 62
     7
370
     0
100
AcDbLine
 10
257.8660311523
 20
340.0645213781
 30
0.0
 11
314.7146690865
 21
357.899388181
 31
0.0
  0
LINE
  5
123
330
11B
100
AcDbEntity
  8
0
  6
Continuous
 62
     7
370
     0
100
AcDbLine
 10
257.8660311523
 20
340.0645213781
 30
0.0
 11
252.8567620925
 21
338.4929859868
 31
0.0
  0
LINE
  5
124
330
11B
100
AcDbEntity
  8
0
  6
Continuous
 62
     7
370
     0
100
AcDbLine
 10
252.8567620925
 20
338.4929859868
 30
0.0
 11
241.4070042415
 21
334.9009050924
 31
0.0
  0
MTEXT
  5
125
330
11B
100
AcDbEntity
  8
0
  6
Continuous
 62
     7
370
     0
100
AcDbMText
 10
299.5468914112
 20
357.8694275977
 30
-2.4
 40
3.5
 41
0.0
 71
     1
 72
     1
  1
5.250
  7
SLDTEXTSTYLE2
 11
0.9541464875877206
 21
0.2993400745373325
 31
0.0
 73
     1
 44
1.0
  0
ENDBLK
  5
11D
330
11B
100
AcDbEntity
  8
0
100
AcDbBlockEnd
  0
BLOCK
  5
128
330
127
100
AcDbEntity
  8
0
100
AcDbBlockBegin
  2
*D13
 70
     1
 10
0.0
 20
0.0
 30
0.0
  3
*D13
  1

  0
INSERT
  5
12A
330
127
100
AcDbEntity
  8
0
  6
Continuous
 62
     7
370
     0
100
AcDbBlockReference
  2
_CLOSED
 10
340.6619795811
 20
327.4050003405
 30
-2.4
 41
6.0
 42
6.0
 50
107.4179707922
  0
INSERT
  5
12B
330
127
100
AcDbEntity
  8
0
  6
Continuous
 62
     7
370
     0
100
AcDbBlockReference
  2
_CLOSED
 10
331.6518433375
 20
356.1248096169
 30
-2.4
 41
6.0
 42
6.0
 50
287.4179707922
  0
LINE
  5
12C
330
127
100
AcDbEntity
  8
0
  6
Continuous
 62
     7
370
     0
100
AcDbLine
 10
269.8548055589
 20
305.190984961
 30
0.0
 11
341.6161260687
 21
327.704340415
 31
0.0
  0
LINE
  5
12D
330
127
100
AcDbEntity
  8
0
  6
Continuous
 62
     7
370
     0
100
AcDbLine
 10
260.8446693153
 20
333.9107942374
 30
0.0
 11
332.6059898251
 21
356.4241496914
 31
0.0
  0
LINE
  5
12E
330
127
100
AcDbEntity
  8
0
  6
Continuous
 62
     7
370
     0
100
AcDbLine
 10
340.6619795811
 20
327.4050003405
 30
0.0
 11
344.2540604755
 21
315.9552424894
 31
0.0
  0
LINE
  5
12F
330
127
100
AcDbEntity
  8
0
  6
Continuous
 62
     7
370
     0
100
AcDbLine
 10
340.6619795811
 20
327.4050003405
 30
0.0
 11
331.6518433375
 21
356.1248096169
 31
0.0
  0
LINE
  5
130
330
127
100
AcDbEntity
  8
0
  6
Continuous
 62
     7
370
     0
100
AcDbLine
 10
331.6518433375
 20
356.1248096169
 30
0.0
 11
328.0597624431
 21
367.5745674679
 31
0.0
  0
MTEXT
  5
131
330
127
100
AcDbEntity
  8
0
  6
Continuous
 62
     7
370
     0
100
AcDbMText
 10
338.000099777
 20
350.962020532
 30
-2.4
 40
3.5
 41
0.0
 71
     1
 72
     1
  1
30.100
  7
SLDTEXTSTYLE2
 11
0.2993400745373179
 21
-0.9541464875877251
 31
0.0
 73
     1
 44
1.0
  0
ENDBLK
  5
129
330
127
100
AcDbEntity
  8
0
100
AcDbBlockEnd
  0
BLOCK
  5
135
330
134
100
AcDbEntity
  8
0
100
AcDbBlockBegin
  2
*D14
 70
     1
 10
0.0
 20
0.0
 30
0.0
  3
*D14
  1

  0
INSERT
  5
137
330
134
100
AcDbEntity
  8
0
  6
Continuous
 62
     7
370
     0
100
AcDbBlockReference
  2
_CLOSED
 10
382.3366312497
 20
102.9493471017
 30
-2.4
 41
6.0
 42
6.0
 50
270.0
  0
INSERT
  5
138
330
134
100
AcDbEntity
  8
0
  6
Continuous
 62
     7
370
     0
100
AcDbBlockReference
  2
_CLOSED
 10
382.3366312497
 20
90.7804006323
 30
-2.4
 41
6.0
 42
6.0
 50
90.0
  0
LINE
  5
139
330
134
100
AcDbEntity
  8
0
  6
Continuous
 62
     7
370
     0
100
AcDbLine
 10
327.7528056643
 20
102.9493471017
 30
0.0
 11
383.3366312497
 21
102.9493471017
 31
0.0
  0
LINE
  5
13A
330
134
100
AcDbEntity
  8
0
  6
Continuous
 62
     7
370
     0
100
AcDbLine
 10
343.4405557522
 20
90.7804006323
 30
0.0
 11
383.3366312497
 21
90.7804006323
 31
0.0
  0
LINE
  5
13B
330
134
100
AcDbEntity
  8
0
  6
Continuous
 62
     7
370
     0
100
AcDbLine
 10
382.3366312497
 20
102.9493471017
 30
0.0
 11
382.3366312497
 21
141.154655629
 31
0.0
  0
LINE
  5
13C
330
134
100
AcDbEntity
  8
0
  6
Continuous
 62
     7
370
     0
100
AcDbLine
 10
382.3366312497
 20
102.9493471017
 30
0.0
 11
382.3366312497
 21
90.7804006323
 31
0.0
  0
LINE
  5
13D
330
134
100
AcDbEntity
  8
0
  6
Continuous
 62
     7
370
     0
100
AcDbLine
 10
382.3366312497
 20
90.7804006323
 30
0.0
 11
382.3366312497
 21
78.7804006323
 31
0.0
  0
MTEXT
  5
13E
330
134
100
AcDbEntity
  8
0
  6
Continuous
 62
     7
370
     0
100
AcDbMText
 10
377.8248943352
 20
124.0872940059
 30
-2.4
 40
3.5
 41
0.0
 71
     1
 72
     1
  1
12.169
  7
SLDTEXTSTYLE2
 11
-7.044195017643634E-15
 21
1.0
 31
0.0
 73
     1
 44
1.0
  0
ENDBLK
  5
136
330
134
100
AcDbEntity
  8
0
100
AcDbBlockEnd
  0
BLOCK
  5
141
330
140
100
AcDbEntity
  8
0
100
AcDbBlockBegin
  2
*D15
 70
     1
 10
0.0
 20
0.0
 30
0.0
  3
*D15
  1

  0
ARC
  5
143
330
140
100
AcDbEntity
  8
0
  6
Continuous
 62
     7
370
     0
100
AcDbCircle
 10
330.5705143606
 20
90.7804006323
 30
0.0
 40
32.78909162449908
100
AcDbArc
 50
107.4179707922
 51
180.0
  0
INSERT
  5
144
330
140
100
AcDbEntity
  8
0
  6
Continuous
 62
     7
370
     0
100
AcDbBlockReference
  2
_CLOSED
 10
320.7554252297
 20
122.065997237
 30
-2.4
 41
6.0
 42
6.0
 50
22.602819041
  0
INSERT
  5
145
330
140
100
AcDbEntity
  8
0
  6
Continuous
 62
     7
370
     0
100
AcDbBlockReference
  2
_CLOSED
 10
297.7814227361
 20
90.7804006323
 30
-2.4
 41
6.0
 42
6.0
 50
264.8151517512
  0
MTEXT
  5
146
330
140
100
AcDbEntity
  8
0
  6
Continuous
 62
     7
370
     0
100
AcDbMText
 10
295.4492759667
 20
105.7691970908
 30
-2.4
 40
3.5
 41
0.0
 71
     1
 72
     1
  1
72.58бу
  7
SLDTEXTSTYLE2
 11
0.580300468650922
 21
0.8144024595269346
 31
0.0
 73
     1
 44
1.0
  0
ENDBLK
  5
142
330
140
100
AcDbEntity
  8
0
100
AcDbBlockEnd
  0
BLOCK
  5
14A
330
149
100
AcDbEntity
  8
0
100
AcDbBlockBegin
  2
*D16
 70
     1
 10
0.0
 20
0.0
 30
0.0
  3
*D16
  1

  0
INSERT
  5
14C
330
149
100
AcDbEntity
  8
0
  6
Continuous
 62
     7
370
     0
100
AcDbBlockReference
  2
_CLOSED
 10
320.955406461
 20
321.2225460283
 30
-2.4
 41
6.0
 42
6.0
 50
107.4179707922
  0
INSERT
  5
14D
330
149
100
AcDbEntity
  8
0
  6
Continuous
 62
     7
370
     0
100
AcDbBlockReference
  2
_CLOSED
 10
374.8066858702
 20
149.5715929113
 30
-2.4
 41
6.0
 42
6.0
 50
287.4179707922
  0
LINE
  5
14E
330
149
100
AcDbEntity
  8
0
  6
Continuous
 62
     7
370
     0
100
AcDbLine
 10
269.8548055589
 20
305.190984961
 30
0.0
 11
321.9095529486
 21
321.5218861028
 31
0.0
  0
LINE
  5
14F
330
149
100
AcDbEntity
  8
0
  6
Continuous
 62
     7
370
     0
100
AcDbLine
 10
323.7060849682
 20
133.5400318439
 30
0.0
 11
375.7608323578
 21
149.8709329858
 31
0.0
  0
LINE
  5
150
330
149
100
AcDbEntity
  8
0
  6
Continuous
 62
     7
370
     0
100
AcDbLine
 10
320.955406461
 20
321.2225460283
 30
0.0
 11
374.8066858702
 21
149.5715929113
 31
0.0
  0
MTEXT
  5
151
330
149
100
AcDbEntity
  8
0
  6
Continuous
 62
     7
370
     0
100
AcDbMText
 10
345.9892934704
 20
256.4993095019
 30
-2.4
 40
3.5
 41
0.0
 71
     1
 72
     1
  1
179.900
  7
SLDTEXTSTYLE2
 11
0.2993400745373391
 21
-0.9541464875877185
 31
0.0
 73
     1
 44
1.0
  0
ENDBLK
  5
14B
330
149
100
AcDbEntity
  8
0
100
AcDbBlockEnd
  0
BLOCK
  5
154
330
153
100
AcDbEntity
  8
0
100
AcDbBlockBegin
  2
*D17
 70
     1
 10
0.0
 20
0.0
 30
0.0
  3
*D17
  1

  0
INSERT
  5
156
330
153
100
AcDbEntity
  8
0
  6
Continuous
 62
     7
370
     0
100
AcDbBlockReference
  2
_CLOSED
 10
281.2810529182
 20
273.7804006323
 30
-2.4
 41
6.0
 42
6.0
 50
90.0
  0
INSERT
  5
157
330
153
100
AcDbEntity
  8
0
  6
Continuous
 62
     7
370
     0
100
AcDbBlockReference
  2
_CLOSED
 10
281.2810529182
 20
297.7804006323
 30
-2.4
 41
6.0
 42
6.0
 50
270.0
  0
LINE
  5
158
330
153
100
AcDbEntity
  8
0
  6
Continuous
 62
     7
370
     0
100
AcDbLine
 10
209.321664246
 20
273.7804006323
 30
0.0
 11
282.2810529182
 21
273.7804006323
 31
0.0
  0
LINE
  5
159
330
153
100
AcDbEntity
  8
0
  6
Continuous
 62
     7
370
     0
100
AcDbLine
 10
209.321664246
 20
297.7804006323
 30
0.0
 11
282.2810529182
 21
297.7804006323
 31
0.0
  0
LINE
  5
15A
330
153
100
AcDbEntity
  8
0
  6
Continuous
 62
     7
370
     0
100
AcDbLine
 10
281.2810529182
 20
273.7804006323
 30
0.0
 11
281.2810529182
 21
261.7804006323
 31
0.0
  0
LINE
  5
15B
330
153
100
AcDbEntity
  8
0
  6
Continuous
 62
     7
370
     0
100
AcDbLine
 10
281.2810529182
 20
273.7804006323
 30
0.0
 11
281.2810529182
 21
297.7804006323
 31
0.0
  0
LINE
  5
15C
330
153
100
AcDbEntity
  8
0
  6
Continuous
 62
     7
370
     0
100
AcDbLine
 10
281.2810529182
 20
297.7804006323
 30
0.0
 11
281.2810529182
 21
309.7804006323
 31
0.0
  0
MTEXT
  5
15D
330
153
100
AcDbEntity
  8
0
  6
Continuous
 62
     7
370
     0
100
AcDbMText
 10
276.769315829
 20
283.8117378818
 30
-2.4
 40
3.5
 41
0.0
 71
     1
 72
     1
  1
%%c
  7
SLDTEXTSTYLE2
 11
6.123233995736766E-17
 21
1.0
 31
0.0
 73
     1
 44
1.0
  0
MTEXT
  5
15E
330
153
100
AcDbEntity
  8
0
  6
Continuous
 62
     7
370
     0
100
AcDbMText
 10
276.7158436524
 20
289.0901752802
 30
-2.4
 40
3.5
 41
0.0
 71
     1
 72
     1
  1
24
  7
SLDTEXTSTYLE2
 11
6.123233995736766E-17
 21
1.0
 31
0.0
 73
     1
 44
1.0
  0
ENDBLK
  5
155
330
153
100
AcDbEntity
  8
0
100
AcDbBlockEnd
  0
BLOCK
  5
162
330
161
100
AcDbEntity
  8
0
100
AcDbBlockBegin
  2
_NONE
 70
     0
 10
0.0
 20
0.0
 30
0.0
  3
_NONE
  1

  0
ENDBLK
  5
163
330
161
100
AcDbEntity
  8
0
100
AcDbBlockEnd
  0
BLOCK
  5
165
330
164
100
AcDbEntity
  8
0
100
AcDbBlockBegin
  2
*D19
 70
     1
 10
0.0
 20
0.0
 30
0.0
  3
*D19
  1

  0
INSERT
  5
167
330
164
100
AcDbEntity
  8
0
  6
Continuous
 62
     7
370
     0
100
AcDbBlockReference
  2
_CLOSED
 10
144.321664246
 20
161.1727054777
 30
-2.4
 41
6.0
 42
6.0
 50
240.0
  0
LINE
  5
168
330
164
100
AcDbEntity
  8
0
  6
Continuous
 62
     7
370
     0
100
AcDbLine
 10
144.321664246
 20
161.1727054777
 30
0.0
 11
154.1850351359
 21
178.2565649928
 31
0.0
  0
LINE
  5
169
330
164
100
AcDbEntity
  8
0
  6
Continuous
 62
     7
370
     0
100
AcDbLine
 10
144.321664246
 20
161.1727054777
 30
0.0
 11
132.321664246
 21
140.3880957868
 31
0.0
  0
MTEXT
  5
16A
330
164
100
AcDbEntity
  8
0
  6
Continuous
 62
     7
370
     0
100
AcDbMText
 10
143.6454195121
 20
168.9905525715
 30
-2.4
 40
3.5
 41
0.0
 71
     1
 72
     1
  1
%%c
  7
SLDTEXTSTYLE2
 11
0.5000000000000004
 21
0.8660254037844384
 31
0.0
 73
     1
 44
1.0
  0
MTEXT
  5
16B
330
164
100
AcDbEntity
  8
0
  6
Continuous
 62
     7
370
     0
100
AcDbMText
 10
146.2383299479
 20
173.5885495391
 30
-2.4
 40
3.5
 41
0.0
 71
     1
 72
     1
  1
24
  7
SLDTEXTSTYLE2
 11
0.5000000000000004
 21
0.8660254037844384
 31
0.0
 73
     1
 44
1.0
  0
ENDBLK
  5
166
330
164
100
AcDbEntity
  8
0
100
AcDbBlockEnd
  0
BLOCK
  5
16E
330
16D
100
AcDbEntity
  8
0
100
AcDbBlockBegin
  2
*D20
 70
     1
 10
0.0
 20
0.0
 30
0.0
  3
*D20
  1

  0
INSERT
  5
170
330
16D
100
AcDbEntity
  8
0
  6
Continuous
 62
     7
370
     0
100
AcDbBlockReference
  2
_CLOSED
 10
272.321664246
 20
161.1727054777
 30
-2.4
 41
6.0
 42
6.0
 50
300.0
  0
LINE
  5
171
330
16D
100
AcDbEntity
  8
0
  6
Continuous
 62
     7
370
     0
100
AcDbLine
 10
272.321664246
 20
161.1727054777
 30
0.0
 11
261.9435179597
 21
179.148182134
 31
0.0
  0
LINE
  5
172
330
16D
100
AcDbEntity
  8
0
  6
Continuous
 62
     7
370
     0
100
AcDbLine
 10
272.321664246
 20
161.1727054777
 30
0.0
 11
284.321664246
 21
140.3880957868
 31
0.0
  0
MTEXT
  5
173
330
16D
100
AcDbEntity
  8
0
  6
Continuous
 62
     7
370
     0
100
AcDbMText
 10
265.8370556386
 20
181.396117161
 30
-2.4
 40
3.5
 41
0.0
 71
     1
 72
     1
  1
%%c
  7
SLDTEXTSTYLE2
 11
0.499999999999998
 21
-0.8660254037844398
 31
0.0
 73
     1
 44
1.0
  0
MTEXT
  5
174
330
16D
100
AcDbEntity
  8
0
  6
Continuous
 62
     7
370
     0
100
AcDbMText
 10
268.5225826011
 20
176.85159237
 30
-2.4
 40
3.5
 41
0.0
 71
     1
 72
     1
  1
24
  7
SLDTEXTSTYLE2
 11
0.499999999999998
 21
-0.8660254037844398
 31
0.0
 73
     1
 44
1.0
  0
ENDBLK
  5
16F
330
16D
100
AcDbEntity
  8
0
100
AcDbBlockEnd
  0
BLOCK
  5
177
330
176
100
AcDbEntity
  8
0
100
AcDbBlockBegin
  2
*D21
 70
     1
 10
0.0
 20
0.0
 30
0.0
  3
*D21
  1

  0
INSERT
  5
179
330
176
100
AcDbEntity
  8
0
  6
Continuous
 62
     7
370
     0
100
AcDbBlockReference
  2
_CLOSED
 10
43.9808977353
 20
150.7804006323
 30
-2.4
 41
6.0
 42
6.0
 50
90.0
  0
INSERT
  5
17A
330
176
100
AcDbEntity
  8
0
  6
Continuous
 62
     7
370
     0
100
AcDbBlockReference
  2
_CLOSED
 10
43.9808977353
 20
90.7804006323
 30
-2.4
 41
6.0
 42
6.0
 50
270.0
  0
LINE
  5
17B
330
176
100
AcDbEntity
  8
0
  6
Continuous
 62
     7
370
     0
100
AcDbLine
 10
122.821664246
 20
150.7804006323
 30
0.0
 11
42.9808977353
 21
150.7804006323
 31
0.0
  0
LINE
  5
17C
330
176
100
AcDbEntity
  8
0
  6
Continuous
 62
     7
370
     0
100
AcDbLine
 10
73.2027727398
 20
90.7804006323
 30
0.0
 11
42.9808977353
 21
90.7804006323
 31
0.0
  0
LINE
  5
17D
330
176
100
AcDbEntity
  8
0
  6
Continuous
 62
     7
370
     0
100
AcDbLine
 10
43.9808977353
 20
150.7804006323
 30
0.0
 11
43.9808977353
 21
200.3036912893
 31
0.0
  0
LINE
  5
17E
330
176
100
AcDbEntity
  8
0
  6
Continuous
 62
     7
370
     0
100
AcDbLine
 10
43.9808977353
 20
150.7804006323
 30
0.0
 11
43.9808977353
 21
90.7804006323
 31
0.0
  0
MTEXT
  5
17F
330
176
100
AcDbEntity
  8
0
  6
Continuous
 62
     7
370
     0
100
AcDbMText
 10
39.4691608208
 20
192.2877187271
 30
-2.4
 40
3.5
 41
0.0
 71
     1
 72
     1
  1
60
  7
SLDTEXTSTYLE2
 11
-7.044195017643634E-15
 21
1.0
 31
0.0
 73
     1
 44
1.0
  0
ENDBLK
  5
178
330
176
100
AcDbEntity
  8
0
100
AcDbBlockEnd
  0
BLOCK
  5
182
330
181
100
AcDbEntity
  8
0
100
AcDbBlockBegin
  2
*D22
 70
     1
 10
0.0
 20
0.0
 30
0.0
  3
*D22
  1

  0
INSERT
  5
184
330
181
100
AcDbEntity
  8
0
  6
Continuous
 62
     7
370
     0
100
AcDbBlockReference
  2
_CLOSED
 10
379.0490859225
 20
285.7804006323
 30
-2.4
 41
6.0
 42
6.0
 50
270.0
  0
INSERT
  5
185
330
181
100
AcDbEntity
  8
0
  6
Continuous
 62
     7
370
     0
100
AcDbBlockReference
  2
_CLOSED
 10
379.0490859225
 20
345.7804006323
 30
-2.4
 41
6.0
 42
6.0
 50
90.0
  0
LINE
  5
186
330
181
100
AcDbEntity
  8
0
  6
Continuous
 62
     7
370
     0
100
AcDbLine
 10
223.821664246
 20
285.7804006323
 30
0.0
 11
380.0490859225
 21
285.7804006323
 31
0.0
  0
LINE
  5
187
330
181
100
AcDbEntity
  8
0
  6
Continuous
 62
     7
370
     0
100
AcDbLine
 10
265.0707649425
 20
345.7804006323
 30
0.0
 11
380.0490859225
 21
345.7804006323
 31
0.0
  0
LINE
  5
188
330
181
100
AcDbEntity
  8
0
  6
Continuous
 62
     7
370
     0
100
AcDbLine
 10
379.0490859225
 20
285.7804006323
 30
0.0
 11
379.0490859225
 21
345.7804006323
 31
0.0
  0
LINE
  5
189
330
181
100
AcDbEntity
  8
0
  6
Continuous
 62
     7
370
     0
100
AcDbLine
 10
379.0490859225
 20
345.7804006323
 30
0.0
 11
379.0490859225
 21
389.2820577994
 31
0.0
  0
MTEXT
  5
18A
330
181
100
AcDbEntity
  8
0
  6
Continuous
 62
     7
370
     0
100
AcDbMText
 10
374.5373490079
 20
381.2660852373
 30
-2.4
 40
3.5
 41
0.0
 71
     1
 72
     1
  1
60
  7
SLDTEXTSTYLE2
 11
6.123233995736766E-17
 21
1.0
 31
0.0
 73
     1
 44
1.0
  0
ENDBLK
  5
183
330
181
100
AcDbEntity
  8
0
100
AcDbBlockEnd
  0
BLOCK
  5
18D
330
18C
100
AcDbEntity
  8
0
100
AcDbBlockBegin
  2
*D23
 70
     1
 10
0.0
 20
0.0
 30
0.0
  3
*D23
  1

  0
INSERT
  5
18F
330
18C
100
AcDbEntity
  8
0
  6
Continuous
 62
     7
370
     0
100
AcDbBlockReference
  2
_CLOSED
 10
138.321664246
 20
78.0022756367
 30
-2.4
 41
6.0
 42
6.0
 50
180.0
  0
INSERT
  5
190
330
18C
100
AcDbEntity
  8
0
  6
Continuous
 62
     7
370
     0
100
AcDbBlockReference
  2
_CLOSED
 10
278.321664246
 20
78.0022756367
 30
-2.4
 41
6.0
 42
6.0
 50
0.0
  0
LINE
  5
191
330
18C
100
AcDbEntity
  8
0
  6
Continuous
 62
     7
370
     0
100
AcDbLine
 10
138.321664246
 20
135.2804006323
 30
0.0
 11
138.321664246
 21
77.0022756367
 31
0.0
  0
LINE
  5
192
330
18C
100
AcDbEntity
  8
0
  6
Continuous
 62
     7
370
     0
100
AcDbLine
 10
278.321664246
 20
135.2804006323
 30
0.0
 11
278.321664246
 21
77.0022756367
 31
0.0
  0
LINE
  5
193
330
18C
100
AcDbEntity
  8
0
  6
Continuous
 62
     7
370
     0
100
AcDbLine
 10
138.321664246
 20
78.0022756367
 30
0.0
 11
278.321664246
 21
78.0022756367
 31
0.0
  0
MTEXT
  5
194
330
18C
100
AcDbEntity
  8
0
  6
Continuous
 62
     7
370
     0
100
AcDbMText
 10
203.0206227174
 20
82.5140125513
 30
-2.4
 40
3.5
 41
0.0
 71
     1
 72
     1
  1
140
  7
SLDTEXTSTYLE2
 73
     1
 44
1.0
  0
ENDBLK
  5
18E
330
18C
100
AcDbEntity
  8
0
100
AcDbBlockEnd
  0
BLOCK
  5
197
330
196
100
AcDbEntity
  8
0
100
AcDbBlockBegin
  2
*D24
 70
     1
 10
0.0
 20
0.0
 30
0.0
  3
*D24
  1

  0
INSERT
  5
199
330
196
100
AcDbEntity
  8
0
  6
Continuous
 62
     7
370
     0
100
AcDbBlockReference
  2
_CLOSED
 10
438.3674524196
 20
285.7804006323
 30
-2.4
 41
6.0
 42
6.0
 50
90.0
  0
INSERT
  5
19A
330
196
100
AcDbEntity
  8
0
  6
Continuous
 62
     7
370
     0
100
AcDbBlockReference
  2
_CLOSED
 10
438.3674524196
 20
150.7804006323
 30
-2.4
 41
6.0
 42
6.0
 50
270.0
  0
LINE
  5
19B
330
196
100
AcDbEntity
  8
0
  6
Continuous
 62
     7
370
     0
100
AcDbLine
 10
223.821664246
 20
285.7804006323
 30
0.0
 11
439.3674524196
 21
285.7804006323
 31
0.0
  0
LINE
  5
19C
330
196
100
AcDbEntity
  8
0
  6
Continuous
 62
     7
370
     0
100
AcDbLine
 10
153.821664246
 20
150.7804006323
 30
0.0
 11
439.3674524196
 21
150.7804006323
 31
0.0
  0
LINE
  5
19D
330
196
100
AcDbEntity
  8
0
  6
Continuous
 62
     7
370
     0
100
AcDbLine
 10
438.3674524196
 20
285.7804006323
 30
0.0
 11
438.3674524196
 21
150.7804006323
 31
0.0
  0
MTEXT
  5
19E
330
196
100
AcDbEntity
  8
0
  6
Continuous
 62
     7
370
     0
100
AcDbMText
 10
433.855715505
 20
200.2901977172
 30
-2.4
 40
3.5
 41
0.0
 71
     1
 72
     1
  1
135
  7
SLDTEXTSTYLE2
 11
-7.044195017643634E-15
 21
1.0
 31
0.0
 73
     1
 44
1.0
  0
ENDBLK
  5
198
330
196
100
AcDbEntity
  8
0
100
AcDbBlockEnd
  0
BLOCK
  5
1A1
330
1A0
100
AcDbEntity
  8
0
100
AcDbBlockBegin
  2
*D25
 70
     1
 10
0.0
 20
0.0
 30
0.0
  3
*D25
  1

  0
INSERT
  5
1A3
330
1A0
100
AcDbEntity
  8
0
  6
Continuous
 62
     7
370
     0
100
AcDbBlockReference
  2
_CLOSED
 10
61.9808977353
 20
218.2804006323
 30
-2.4
 41
6.0
 42
6.0
 50
90.0
  0
INSERT
  5
1A4
330
1A0
100
AcDbEntity
  8
0
  6
Continuous
 62
     7
370
     0
100
AcDbBlockReference
  2
_CLOSED
 10
61.9808977353
 20
90.7804006323
 30
-2.4
 41
6.0
 42
6.0
 50
270.0
  0
LINE
  5
1A5
330
1A0
100
AcDbEntity
  8
0
  6
Continuous
 62
     7
370
     0
100
AcDbLine
 10
126.5364970696
 20
218.2804006323
 30
0.0
 11
60.9808977353
 21
218.2804006323
 31
0.0
  0
LINE
  5
1A6
330
1A0
100
AcDbEntity
  8
0
  6
Continuous
 62
     7
370
     0
100
AcDbLine
 10
73.2027727398
 20
90.7804006323
 30
0.0
 11
60.9808977353
 21
90.7804006323
 31
0.0
  0
LINE
  5
1A7
330
1A0
100
AcDbEntity
  8
0
  6
Continuous
 62
     7
370
     0
100
AcDbLine
 10
61.9808977353
 20
218.2804006323
 30
0.0
 11
61.9808977353
 21
300.2856793868
 31
0.0
  0
LINE
  5
1A8
330
1A0
100
AcDbEntity
  8
0
  6
Continuous
 62
     7
370
     0
100
AcDbLine
 10
61.9808977353
 20
218.2804006323
 30
0.0
 11
61.9808977353
 21
90.7804006323
 31
0.0
  0
MTEXT
  5
1A9
330
1A0
100
AcDbEntity
  8
0
  6
Continuous
 62
     7
370
     0
100
AcDbMText
 10
57.4691608208
 20
280.6322063374
 30
-2.4
 40
3.5
 41
0.0
 71
     1
 72
     1
  1
127.500
  7
SLDTEXTSTYLE2
 11
-7.044195017643634E-15
 21
1.0
 31
0.0
 73
     1
 44
1.0
  0
ENDBLK
  5
1A2
330
1A0
100
AcDbEntity
  8
0
100
AcDbBlockEnd
  0
BLOCK
  5
1AC
330
1AB
100
AcDbEntity
  8
0
100
AcDbBlockBegin
  2
*D26
 70
     1
 10
0.0
 20
0.0
 30
0.0
  3
*D26
  1

  0
INSERT
  5
1AE
330
1AB
100
AcDbEntity
  8
0
  6
Continuous
 62
     7
370
     0
100
AcDbBlockReference
  2
_CLOSED
 10
68.321664246
 20
66.0022756367
 30
-2.4
 41
6.0
 42
6.0
 50
180.0
  0
INSERT
  5
1AF
330
1AB
100
AcDbEntity
  8
0
  6
Continuous
 62
     7
370
     0
100
AcDbBlockReference
  2
_CLOSED
 10
348.321664246
 20
66.0022756367
 30
-2.4
 41
6.0
 42
6.0
 50
0.0
  0
LINE
  5
1B0
330
1AB
100
AcDbEntity
  8
0
  6
Continuous
 62
     7
370
     0
100
AcDbLine
 10
68.321664246
 20
89.7804006323
 30
0.0
 11
68.321664246
 21
65.0022756367
 31
0.0
  0
LINE
  5
1B1
330
1AB
100
AcDbEntity
  8
0
  6
Continuous
 62
     7
370
     0
100
AcDbLine
 10
348.321664246
 20
89.7804006323
 30
0.0
 11
348.321664246
 21
65.0022756367
 31
0.0
  0
LINE
  5
1B2
330
1AB
100
AcDbEntity
  8
0
  6
Continuous
 62
     7
370
     0
100
AcDbLine
 10
68.321664246
 20
66.0022756367
 30
0.0
 11
348.321664246
 21
66.0022756367
 31
0.0
  0
MTEXT
  5
1B3
330
1AB
100
AcDbEntity
  8
0
  6
Continuous
 62
     7
370
     0
100
AcDbMText
 10
203.0206227174
 20
70.5140125513
 30
-2.4
 40
3.5
 41
0.0
 71
     1
 72
     1
  1
280
  7
SLDTEXTSTYLE2
 73
     1
 44
1.0
  0
ENDBLK
  5
1AD
330
1AB
100
AcDbEntity
  8
0
100
AcDbBlockEnd
  0
BLOCK
  5
1B6
330
1B5
100
AcDbEntity
  8
0
100
AcDbBlockBegin
  2
*D27
 70
     1
 10
0.0
 20
0.0
 30
0.0
  3
*D27
  1

  0
INSERT
  5
1B8
330
1B5
100
AcDbEntity
  8
0
  6
Continuous
 62
     7
370
     0
100
AcDbBlockReference
  2
_CLOSED
 10
148.321664246
 20
372.550194025
 30
-2.4
 41
6.0
 42
6.0
 50
180.0
  0
INSERT
  5
1B9
330
1B5
100
AcDbEntity
  8
0
  6
Continuous
 62
     7
370
     0
100
AcDbBlockReference
  2
_CLOSED
 10
268.321664246
 20
372.550194025
 30
-2.4
 41
6.0
 42
6.0
 50
0.0
  0
LINE
  5
1BA
330
1B5
100
AcDbEntity
  8
0
  6
Continuous
 62
     7
370
     0
100
AcDbLine
 10
148.321664246
 20
346.7804006323
 30
0.0
 11
148.321664246
 21
373.550194025
 31
0.0
  0
LINE
  5
1BB
330
1B5
100
AcDbEntity
  8
0
  6
Continuous
 62
     7
370
     0
100
AcDbLine
 10
268.321664246
 20
346.7804006323
 30
0.0
 11
268.321664246
 21
373.550194025
 31
0.0
  0
LINE
  5
1BC
330
1B5
100
AcDbEntity
  8
0
  6
Continuous
 62
     7
370
     0
100
AcDbLine
 10
148.321664246
 20
372.550194025
 30
0.0
 11
268.321664246
 21
372.550194025
 31
0.0
  0
MTEXT
  5
1BD
330
1B5
100
AcDbEntity
  8
0
  6
Continuous
 62
     7
370
     0
100
AcDbMText
 10
178.7019230142
 20
377.0619309396
 30
-2.4
 40
3.5
 41
0.0
 71
     1
 72
     1
  1
120
  7
SLDTEXTSTYLE2
 73
     1
 44
1.0
  0
ENDBLK
  5
1B7
330
1B5
100
AcDbEntity
  8
0
100
AcDbBlockEnd
  0
BLOCK
  5
1C0
330
1BF
100
AcDbEntity
  8
0
100
AcDbBlockBegin
  2
*D28
 70
     1
 10
0.0
 20
0.0
 30
0.0
  3
*D28
  1

  0
INSERT
  5
1C2
330
1BF
100
AcDbEntity
  8
0
  6
Continuous
 62
     7
370
     0
100
AcDbBlockReference
  2
_CLOSED
 10
121.8252993165
 20
253.3139275383
 30
-2.4
 41
6.0
 42
6.0
 50
9.2589624483
  0
INSERT
  5
1C3
330
1BF
100
AcDbEntity
  8
0
  6
Continuous
 62
     7
370
     0
100
AcDbBlockReference
  2
_CLOSED
 10
82.3464508983
 20
246.8780493869
 30
-2.4
 41
6.0
 42
6.0
 50
189.2589624483
  0
LINE
  5
1C4
330
1BF
100
AcDbEntity
  8
0
  6
Continuous
 62
     7
370
     0
100
AcDbLine
 10
127.3756001158
 20
219.2673718427
 30
0.0
 11
121.6644023627
 21
254.3008987487
 31
0.0
  0
LINE
  5
1C5
330
1BF
100
AcDbEntity
  8
0
  6
Continuous
 62
     7
370
     0
100
AcDbLine
 10
87.8967516977
 20
212.8314936913
 30
0.0
 11
82.1855539446
 21
247.8650205973
 31
0.0
  0
LINE
  5
1C6
330
1BF
100
AcDbEntity
  8
0
  6
Continuous
 62
     7
370
     0
100
AcDbLine
 10
121.8252993165
 20
253.3139275383
 30
0.0
 11
82.3464508983
 21
246.8780493869
 31
0.0
  0
MTEXT
  5
1C7
330
1BF
100
AcDbEntity
  8
0
  6
Continuous
 62
     7
370
     0
100
AcDbMText
 10
93.7173297508
 20
253.3030358674
 30
-2.4
 40
3.5
 41
0.0
 71
     1
 72
     1
  1
40
  7
SLDTEXTSTYLE2
 11
0.9869712104527975
 21
0.1608969537851475
 31
0.0
 73
     1
 44
1.0
  0
ENDBLK
  5
1C1
330
1BF
100
AcDbEntity
  8
0
100
AcDbBlockEnd
  0
BLOCK
  5
1CB
330
1CA
100
AcDbEntity
  8
0
100
AcDbBlockBegin
  2
*D29
 70
     1
 10
0.0
 20
0.0
 30
0.0
  3
*D29
  1

  0
INSERT
  5
1CD
330
1CA
100
AcDbEntity
  8
0
  6
Continuous
 62
     7
370
     0
100
AcDbBlockReference
  2
_CLOSED
 10
267.9844536862
 20
343.8921590447
 30
-2.4
 41
6.0
 42
6.0
 50
218.4880708987
  0
LINE
  5
1CE
330
1CA
100
AcDbEntity
  8
0
  6
Continuous
 62
     7
370
     0
100
AcDbLine
 10
267.9844536862
 20
343.8921590447
 30
0.0
 11
289.8944806022
 21
361.3127346289
 31
0.0
  0
LINE
  5
1CF
330
1CA
100
AcDbEntity
  8
0
  6
Continuous
 62
     7
370
     0
100
AcDbLine
 10
267.9844536862
 20
343.8921590447
 30
0.0
 11
264.0707649425
 21
340.7804006323
 31
0.0
  0
MTEXT
  5
1D0
330
1CA
100
AcDbEntity
  8
0
  6
Continuous
 62
     7
370
     0
100
AcDbMText
 10
280.6260188764
 20
359.691280292
 30
-2.4
 40
3.5
 41
0.0
 71
     1
 72
     1
  1
R5
  7
SLDTEXTSTYLE2
 11
0.782737748739998
 21
0.6223516824894424
 31
0.0
 73
     1
 44
1.0
  0
ENDBLK
  5
1CC
330
1CA
100
AcDbEntity
  8
0
100
AcDbBlockEnd
  0
BLOCK
  5
1D4
330
1D3
100
AcDbEntity
  8
0
100
AcDbBlockBegin
  2
*D30
 70
     1
 10
0.0
 20
0.0
 30
0.0
  3
*D30
  1

  0
INSERT
  5
1D6
330
1D3
100
AcDbEntity
  8
0
  6
Continuous
 62
     7
370
     0
100
AcDbBlockReference
  2
_CLOSED
 10
193.1896120608
 20
232.8033844208
 30
-2.4
 41
6.0
 42
6.0
 50
290.5448383164
  0
LINE
  5
1D7
330
1D3
100
AcDbEntity
  8
0
  6
Continuous
 62
     7
370
     0
100
AcDbLine
 10
193.1896120608
 20
232.8033844208
 30
0.0
 11
178.1594819749
 21
272.9075892416
 31
0.0
  0
LINE
  5
1D8
330
1D3
100
AcDbEntity
  8
0
  6
Continuous
 62
     7
370
     0
100
AcDbLine
 10
193.1896120608
 20
232.8033844208
 30
0.0
 11
195.821664246
 21
225.7804006323
 31
0.0
  0
MTEXT
  5
1D9
330
1D3
100
AcDbEntity
  8
0
  6
Continuous
 62
     7
370
     0
100
AcDbMText
 10
182.3785258432
 20
274.4887894789
 30
-2.4
 40
3.5
 41
0.0
 71
     1
 72
     1
  1
R7.500
  7
SLDTEXTSTYLE2
 11
0.3509402913578428
 21
-0.9363978384755447
 31
0.0
 73
     1
 44
1.0
  0
ENDBLK
  5
1D5
330
1D3
100
AcDbEntity
  8
0
100
AcDbBlockEnd
  0
BLOCK
  5
1DC
330
1DB
100
AcDbEntity
  8
0
100
AcDbBlockBegin
  2
*D31
 70
     1
 10
0.0
 20
0.0
 30
0.0
  3
*D31
  1

  0
INSERT
  5
1DE
330
1DB
100
AcDbEntity
  8
0
  6
Continuous
 62
     7
370
     0
100
AcDbBlockReference
  2
_CLOSED
 10
220.821664246
 20
243.2718781642
 30
-2.4
 41
6.0
 42
6.0
 50
180.0
  0
INSERT
  5
1DF
330
1DB
100
AcDbEntity
  8
0
  6
Continuous
 62
     7
370
     0
100
AcDbBlockReference
  2
_CLOSED
 10
195.821664246
 20
243.2718781642
 30
-2.4
 41
6.0
 42
6.0
 50
0.0
  0
LINE
  5
1E0
330
1DB
100
AcDbEntity
  8
0
  6
Continuous
 62
     7
370
     0
100
AcDbLine
 10
220.821664246
 20
234.2804006323
 30
0.0
 11
220.821664246
 21
244.2718781642
 31
0.0
  0
LINE
  5
1E1
330
1DB
100
AcDbEntity
  8
0
  6
Continuous
 62
     7
370
     0
100
AcDbLine
 10
195.821664246
 20
234.2804006323
 30
0.0
 11
195.821664246
 21
244.2718781642
 31
0.0
  0
LINE
  5
1E2
330
1DB
100
AcDbEntity
  8
0
  6
Continuous
 62
     7
370
     0
100
AcDbLine
 10
220.821664246
 20
243.2718781642
 30
0.0
 11
232.821664246
 21
243.2718781642
 31
0.0
  0
LINE
  5
1E3
330
1DB
100
AcDbEntity
  8
0
  6
Continuous
 62
     7
370
     0
100
AcDbLine
 10
220.821664246
 20
243.2718781642
 30
0.0
 11
195.821664246
 21
243.2718781642
 31
0.0
  0
LINE
  5
1E4
330
1DB
100
AcDbEntity
  8
0
  6
Continuous
 62
     7
370
     0
100
AcDbLine
 10
195.821664246
 20
243.2718781642
 30
0.0
 11
183.821664246
 21
243.2718781642
 31
0.0
  0
MTEXT
  5
1E5
330
1DB
100
AcDbEntity
  8
0
  6
Continuous
 62
     7
370
     0
100
AcDbMText
 10
210.5646967053
 20
247.7836150788
 30
-2.4
 40
3.5
 41
0.0
 71
     1
 72
     1
  1
25
  7
SLDTEXTSTYLE2
 73
     1
 44
1.0
  0
ENDBLK
  5
1DD
330
1DB
100
AcDbEntity
  8
0
100
AcDbBlockEnd
  0
BLOCK
  5
1E8
330
1E7
100
AcDbEntity
  8
0
100
AcDbBlockBegin
  2
*D32
 70
     1
 10
0.0
 20
0.0
 30
0.0
  3
*D32
  1

  0
INSERT
  5
1EA
330
1E7
100
AcDbEntity
  8
0
  6
Continuous
 62
     7
370
     0
100
AcDbBlockReference
  2
_CLOSED
 10
243.2464970075
 20
195.7804006323
 30
-2.4
 41
6.0
 42
6.0
 50
90.0
  0
INSERT
  5
1EB
330
1E7
100
AcDbEntity
  8
0
  6
Continuous
 62
     7
370
     0
100
AcDbBlockReference
  2
_CLOSED
 10
243.2464970075
 20
225.7804006323
 30
-2.4
 41
6.0
 42
6.0
 50
270.0
  0
LINE
  5
1EC
330
1E7
100
AcDbEntity
  8
0
  6
Continuous
 62
     7
370
     0
100
AcDbLine
 10
209.321664246
 20
195.7804006323
 30
0.0
 11
244.2464970075
 21
195.7804006323
 31
0.0
  0
LINE
  5
1ED
330
1E7
100
AcDbEntity
  8
0
  6
Continuous
 62
     7
370
     0
100
AcDbLine
 10
209.321664246
 20
225.7804006323
 30
0.0
 11
244.2464970075
 21
225.7804006323
 31
0.0
  0
LINE
  5
1EE
330
1E7
100
AcDbEntity
  8
0
  6
Continuous
 62
     7
370
     0
100
AcDbLine
 10
243.2464970075
 20
195.7804006323
 30
0.0
 11
243.2464970075
 21
183.7804006323
 31
0.0
  0
LINE
  5
1EF
330
1E7
100
AcDbEntity
  8
0
  6
Continuous
 62
     7
370
     0
100
AcDbLine
 10
243.2464970075
 20
195.7804006323
 30
0.0
 11
243.2464970075
 21
225.7804006323
 31
0.0
  0
LINE
  5
1F0
330
1E7
100
AcDbEntity
  8
0
  6
Continuous
 62
     7
370
     0
100
AcDbLine
 10
243.2464970075
 20
225.7804006323
 30
0.0
 11
243.2464970075
 21
237.7804006323
 31
0.0
  0
MTEXT
  5
1F1
330
1E7
100
AcDbEntity
  8
0
  6
Continuous
 62
     7
370
     0
100
AcDbMText
 10
238.7347600929
 20
206.6851346945
 30
-2.4
 40
3.5
 41
0.0
 71
     1
 72
     1
  1
30
  7
SLDTEXTSTYLE2
 11
6.123233995736766E-17
 21
1.0
 31
0.0
 73
     1
 44
1.0
  0
ENDBLK
  5
1E9
330
1E7
100
AcDbEntity
  8
0
100
AcDbBlockEnd
  0
BLOCK
  5
1F4
330
1F3
100
AcDbEntity
  8
0
100
AcDbBlockBegin
  2
*D33
 70
     1
 10
0.0
 20
0.0
 30
0.0
  3
*D33
  1

  0
INSERT
  5
1F6
330
1F3
100
AcDbEntity
  8
0
  6
Continuous
 62
     7
370
     0
100
AcDbBlockReference
  2
_CLOSED
 10
408.2186807478
 20
195.7804006323
 30
-2.4
 41
6.0
 42
6.0
 50
90.0
  0
INSERT
  5
1F7
330
1F3
100
AcDbEntity
  8
0
  6
Continuous
 62
     7
370
     0
100
AcDbBlockReference
  2
_CLOSED
 10
408.2186807478
 20
90.7804006323
 30
-2.4
 41
6.0
 42
6.0
 50
270.0
  0
LINE
  5
1F8
330
1F3
100
AcDbEntity
  8
0
  6
Continuous
 62
     7
370
     0
100
AcDbLine
 10
209.321664246
 20
195.7804006323
 30
0.0
 11
409.2186807478
 21
195.7804006323
 31
0.0
  0
LINE
  5
1F9
330
1F3
100
AcDbEntity
  8
0
  6
Continuous
 62
     7
370
     0
100
AcDbLine
 10
209.321664246
 20
90.7804006323
 30
0.0
 11
409.2186807478
 21
90.7804006323
 31
0.0
  0
LINE
  5
1FA
330
1F3
100
AcDbEntity
  8
0
  6
Continuous
 62
     7
370
     0
100
AcDbLine
 10
408.2186807478
 20
195.7804006323
 30
0.0
 11
408.2186807478
 21
90.7804006323
 31
0.0
  0
MTEXT
  5
1FB
330
1F3
100
AcDbEntity
  8
0
  6
Continuous
 62
     7
370
     0
100
AcDbMText
 10
403.7069438332
 20
132.8650763147
 30
-2.4
 40
3.5
 41
0.0
 71
     1
 72
     1
  1
105
  7
SLDTEXTSTYLE2
 11
-7.044195017643634E-15
 21
1.0
 31
0.0
 73
     1
 44
1.0
  0
ENDBLK
  5
1F5
330
1F3
100
AcDbEntity
  8
0
100
AcDbBlockEnd
  0
BLOCK
  5
1FF
330
1FE
100
AcDbEntity
  8
0
100
AcDbBlockBegin
  2
*D34
 70
     1
 10
0.0
 20
0.0
 30
0.0
  3
*D34
  1

  0
INSERT
  5
201
330
1FE
100
AcDbEntity
  8
0
  6
Continuous
 62
     7
370
     0
100
AcDbBlockReference
  2
_CLOSED
 10
156.7625906404
 20
227.573038999
 30
-2.4
 41
6.0
 42
6.0
 50
315.0
  0
LINE
  5
202
330
1FE
100
AcDbEntity
  8
0
  6
Continuous
 62
     7
370
     0
100
AcDbLine
 10
156.7625906404
 20
227.573038999
 30
0.0
 11
110.4489026189
 21
273.8867270204
 31
0.0
  0
LINE
  5
203
330
1FE
100
AcDbEntity
  8
0
  6
Continuous
 62
     7
370
     0
100
AcDbLine
 10
156.7625906404
 20
227.573038999
 30
0.0
 11
159.6970837824
 21
224.638545857
 31
0.0
  0
MTEXT
  5
204
330
1FE
100
AcDbEntity
  8
0
  6
Continuous
 62
     7
370
     0
100
AcDbMText
 10
113.6368481986
 20
277.0746726001
 30
-2.4
 40
3.5
 41
0.0
 71
     1
 72
     1
  1
%%c
  7
SLDTEXTSTYLE2
 11
0.7071067811865422
 21
-0.7071067811865528
 31
0.0
 73
     1
 44
1.0
  0
MTEXT
  5
205
330
1FE
100
AcDbEntity
  8
0
  6
Continuous
 62
     7
370
     0
100
AcDbMText
 10
117.4070776158
 20
273.3800642604
 30
-2.4
 40
3.5
 41
0.0
 71
     1
 72
     1
  1
4.150
  7
SLDTEXTSTYLE2
 11
0.7071067811865422
 21
-0.7071067811865528
 31
0.0
 73
     1
 44
1.0
  0
ENDBLK
  5
200
330
1FE
100
AcDbEntity
  8
0
100
AcDbBlockEnd
  0
BLOCK
  5
208
330
207
100
AcDbEntity
  8
0
100
AcDbBlockBegin
  2
*D35
 70
     1
 10
0.0
 20
0.0
 30
0.0
  3
*D35
  1

  0
INSERT
  5
20A
330
207
100
AcDbEntity
  8
0
  6
Continuous
 62
     7
370
     0
100
AcDbBlockReference
  2
_CLOSED
 10
184.9731361086
 20
174.1289287697
 30
-2.4
 41
6.0
 42
6.0
 50
315.0
  0
LINE
  5
20B
330
207
100
AcDbEntity
  8
0
  6
Continuous
 62
     7
370
     0
100
AcDbLine
 10
184.9731361086
 20
174.1289287697
 30
0.0
 11
121.9759626688
 21
237.1261022095
 31
0.0
  0
LINE
  5
20C
330
207
100
AcDbEntity
  8
0
  6
Continuous
 62
     7
370
     0
100
AcDbLine
 10
184.9731361086
 20
174.1289287697
 30
0.0
 11
186.6701923834
 21
172.4318724948
 31
0.0
  0
MTEXT
  5
20D
330
207
100
AcDbEntity
  8
0
  6
Continuous
 62
     7
370
     0
100
AcDbMText
 10
125.1650385539
 20
240.3151780945
 30
-2.4
 40
3.5
 41
0.0
 71
     1
 72
     1
  1
%%c
  7
SLDTEXTSTYLE2
 11
0.7071067811865422
 21
-0.7071067811865528
 31
0.0
 73
     1
 44
1.0
  0
MTEXT
  5
20E
330
207
100
AcDbEntity
  8
0
  6
Continuous
 62
     7
370
     0
100
AcDbMText
 10
128.9352679711
 20
236.6205697548
 30
-2.4
 40
3.5
 41
0.0
 71
     1
 72
     1
  1
2.400
  7
SLDTEXTSTYLE2
 11
0.7071067811865422
 21
-0.7071067811865528
 31
0.0
 73
     1
 44
1.0
  0
ENDBLK
  5
209
330
207
100
AcDbEntity
  8
0
100
AcDbBlockEnd
  0
BLOCK
  5
211
330
210
100
AcDbEntity
  8
0
100
AcDbBlockBegin
  2
*D36
 70
     1
 10
0.0
 20
0.0
 30
0.0
  3
*D36
  1

  0
INSERT
  5
213
330
210
100
AcDbEntity
  8
0
  6
Continuous
 62
     7
370
     0
100
AcDbBlockReference
  2
_CLOSED
 10
170.1131964809
 20
128.2804006323
 30
-2.4
 41
6.0
 42
6.0
 50
270.0
  0
INSERT
  5
214
330
210
100
AcDbEntity
  8
0
  6
Continuous
 62
     7
370
     0
100
AcDbBlockReference
  2
_CLOSED
 10
170.1131964809
 20
90.7804006323
 30
-2.4
 41
6.0
 42
6.0
 50
90.0
  0
LINE
  5
215
330
210
100
AcDbEntity
  8
0
  6
Continuous
 62
     7
370
     0
100
AcDbLine
 10
184.821664246
 20
128.2804006323
 30
0.0
 11
169.1131964809
 21
128.2804006323
 31
0.0
  0
LINE
  5
216
330
210
100
AcDbEntity
  8
0
  6
Continuous
 62
     7
370
     0
100
AcDbLine
 10
170.1131964809
 20
128.2804006323
 30
0.0
 11
170.1131964809
 21
140.2804006323
 31
0.0
  0
LINE
  5
217
330
210
100
AcDbEntity
  8
0
  6
Continuous
 62
     7
370
     0
100
AcDbLine
 10
170.1131964809
 20
128.2804006323
 30
0.0
 11
170.1131964809
 21
90.7804006323
 31
0.0
  0
LINE
  5
218
330
210
100
AcDbEntity
  8
0
  6
Continuous
 62
     7
370
     0
100
AcDbLine
 10
170.1131964809
 20
90.7804006323
 30
0.0
 11
170.1131964809
 21
78.7804006323
 31
0.0
  0
MTEXT
  5
219
330
210
100
AcDbEntity
  8
0
  6
Continuous
 62
     7
370
     0
100
AcDbMText
 10
165.6014595664
 20
100.3337678688
 30
-2.4
 40
3.5
 41
0.0
 71
     1
 72
     1
  1
37.500
  7
SLDTEXTSTYLE2
 11
-7.044195017643634E-15
 21
1.0
 31
0.0
 73
     1
 44
1.0
  0
ENDBLK
  5
212
330
210
100
AcDbEntity
  8
0
100
AcDbBlockEnd
  0
BLOCK
  5
21C
330
21B
100
AcDbEntity
  8
0
100
AcDbBlockBegin
  2
*D37
 70
     1
 10
0.0
 20
0.0
 30
0.0
  3
*D37
  1

  0
INSERT
  5
21E
330
21B
100
AcDbEntity
  8
0
  6
Continuous
 62
     7
370
     0
100
AcDbBlockReference
  2
_CLOSED
 10
249.2604105572
 20
128.2804006323
 30
-2.4
 41
6.0
 42
6.0
 50
270.0
  0
INSERT
  5
21F
330
21B
100
AcDbEntity
  8
0
  6
Continuous
 62
     7
370
     0
100
AcDbBlockReference
  2
_CLOSED
 10
249.2604105572
 20
173.2804006323
 30
-2.4
 41
6.0
 42
6.0
 50
90.0
  0
LINE
  5
220
330
21B
100
AcDbEntity
  8
0
  6
Continuous
 62
     7
370
     0
100
AcDbLine
 10
231.821664246
 20
128.2804006323
 30
0.0
 11
250.2604105572
 21
128.2804006323
 31
0.0
  0
LINE
  5
221
330
21B
100
AcDbEntity
  8
0
  6
Continuous
 62
     7
370
     0
100
AcDbLine
 10
231.821664246
 20
173.2804006323
 30
0.0
 11
250.2604105572
 21
173.2804006323
 31
0.0
  0
LINE
  5
222
330
21B
100
AcDbEntity
  8
0
  6
Continuous
 62
     7
370
     0
100
AcDbLine
 10
249.2604105572
 20
128.2804006323
 30
0.0
 11
249.2604105572
 21
173.2804006323
 31
0.0
  0
MTEXT
  5
223
330
21B
100
AcDbEntity
  8
0
  6
Continuous
 62
     7
370
     0
100
AcDbMText
 10
244.7486736426
 20
150.0620706393
 30
-2.4
 40
3.5
 41
0.0
 71
     1
 72
     1
  1
45
  7
SLDTEXTSTYLE2
 11
6.123233995736766E-17
 21
1.0
 31
0.0
 73
     1
 44
1.0
  0
ENDBLK
  5
21D
330
21B
100
AcDbEntity
  8
0
100
AcDbBlockEnd
  0
BLOCK
  5
226
330
225
100
AcDbEntity
  8
0
100
AcDbBlockBegin
  2
*D38
 70
     1
 10
0.0
 20
0.0
 30
0.0
  3
*D38
  1

  0
INSERT
  5
228
330
225
100
AcDbEntity
  8
0
  6
Continuous
 62
     7
370
     0
100
AcDbBlockReference
  2
_CLOSED
 10
230.821664246
 20
167.6789274736
 30
-2.4
 41
6.0
 42
6.0
 50
0.0
  0
INSERT
  5
229
330
225
100
AcDbEntity
  8
0
  6
Continuous
 62
     7
370
     0
100
AcDbBlockReference
  2
_CLOSED
 10
185.821664246
 20
167.6789274736
 30
-2.4
 41
6.0
 42
6.0
 50
180.0
  0
LINE
  5
22A
330
225
100
AcDbEntity
  8
0
  6
Continuous
 62
     7
370
     0
100
AcDbLine
 10
230.821664246
 20
172.2804006323
 30
0.0
 11
230.821664246
 21
166.6789274736
 31
0.0
  0
LINE
  5
22B
330
225
100
AcDbEntity
  8
0
  6
Continuous
 62
     7
370
     0
100
AcDbLine
 10
185.821664246
 20
172.2804006323
 30
0.0
 11
185.821664246
 21
166.6789274736
 31
0.0
  0
LINE
  5
22C
330
225
100
AcDbEntity
  8
0
  6
Continuous
 62
     7
370
     0
100
AcDbLine
 10
230.821664246
 20
167.6789274736
 30
0.0
 11
185.821664246
 21
167.6789274736
 31
0.0
  0
MTEXT
  5
22D
330
225
100
AcDbEntity
  8
0
  6
Continuous
 62
     7
370
     0
100
AcDbMText
 10
203.7642245666
 20
172.1906643882
 30
-2.4
 40
3.5
 41
0.0
 71
     1
 72
     1
  1
45
  7
SLDTEXTSTYLE2
 73
     1
 44
1.0
  0
ENDBLK
  5
227
330
225
100
AcDbEntity
  8
0
100
AcDbBlockEnd
  0
BLOCK
  5
230
330
22F
100
AcDbEntity
  8
0
100
AcDbBlockBegin
  2
*D39
 70
     1
 10
0.0
 20
0.0
 30
0.0
  3
*D39
  1

  0
INSERT
  5
232
330
22F
100
AcDbEntity
  8
0
  6
Continuous
 62
     7
370
     0
100
AcDbBlockReference
  2
_CLOSED
 10
190.5953142385
 20
107.7804006323
 30
-2.4
 41
6.0
 42
6.0
 50
270.0
  0
INSERT
  5
233
330
22F
100
AcDbEntity
  8
0
  6
Continuous
 62
     7
370
     0
100
AcDbBlockReference
  2
_CLOSED
 10
190.5953142385
 20
90.7804006323
 30
-2.4
 41
6.0
 42
6.0
 50
90.0
  0
LINE
  5
234
330
22F
100
AcDbEntity
  8
0
  6
Continuous
 62
     7
370
     0
100
AcDbLine
 10
207.321664246
 20
107.7804006323
 30
0.0
 11
189.5953142385
 21
107.7804006323
 31
0.0
  0
LINE
  5
235
330
22F
100
AcDbEntity
  8
0
  6
Continuous
 62
     7
370
     0
100
AcDbLine
 10
190.5953142385
 20
107.7804006323
 30
0.0
 11
190.5953142385
 21
119.7804006323
 31
0.0
  0
LINE
  5
236
330
22F
100
AcDbEntity
  8
0
  6
Continuous
 62
     7
370
     0
100
AcDbLine
 10
190.5953142385
 20
107.7804006323
 30
0.0
 11
190.5953142385
 21
90.7804006323
 31
0.0
  0
LINE
  5
237
330
22F
100
AcDbEntity
  8
0
  6
Continuous
 62
     7
370
     0
100
AcDbLine
 10
190.5953142385
 20
90.7804006323
 30
0.0
 11
190.5953142385
 21
78.7804006323
 31
0.0
  0
MTEXT
  5
238
330
22F
100
AcDbEntity
  8
0
  6
Continuous
 62
     7
370
     0
100
AcDbMText
 10
186.083577324
 20
97.3852429769
 30
-2.4
 40
3.5
 41
0.0
 71
     1
 72
     1
  1
17
  7
SLDTEXTSTYLE2
 11
-7.044195017643634E-15
 21
1.0
 31
0.0
 73
     1
 44
1.0
  0
ENDBLK
  5
231
330
22F
100
AcDbEntity
  8
0
100
AcDbBlockEnd
  0
BLOCK
  5
23A
330
239
100
AcDbEntity
  8
0
100
AcDbBlockBegin
  2
SW_CENTERMARKSYMBOL_0
 70
     0
 10
0.0
 20
0.0
 30
0.0
  3
SW_CENTERMARKSYMBOL_0
  1

  0
LINE
  5
23C
330
239
100
AcDbEntity
  8
0
  6
Continuous
 62
     0
370
     0
100
AcDbLine
 10
0.0
 20
0.0
 30
0.0
 11
0.0
 21
2.5
 31
0.0
  0
LINE
  5
23D
330
239
100
AcDbEntity
  8
0
  6
Continuous
 62
     0
370
     0
100
AcDbLine
 10
0.0
 20
0.0
 30
0.0
 11
-2.5
 21
0.0
 31
0.0
  0
LINE
  5
23E
330
239
100
AcDbEntity
  8
0
  6
Continuous
 62
     0
370
     0
100
AcDbLine
 10
0.0
 20
0.0
 30
0.0
 11
0.0
 21
-2.5
 31
0.0
  0
LINE
  5
23F
330
239
100
AcDbEntity
  8
0
  6
Continuous
 62
     0
370
     0
100
AcDbLine
 10
0.0
 20
0.0
 30
0.0
 11
2.5
 21
0.0
 31
0.0
  0
LINE
  5
240
330
239
100
AcDbEntity
  8
0
  6
Continuous
 62
     0
370
     0
100
AcDbLine
 10
0.0
 20
5.0
 30
0.0
 11
0.0
 21
14.5
 31
0.0
  0
LINE
  5
241
330
239
100
AcDbEntity
  8
0
  6
Continuous
 62
     0
370
     0
100
AcDbLine
 10
-5.0
 20
0.0
 30
0.0
 11
-14.5
 21
0.0
 31
0.0
  0
LINE
  5
242
330
239
100
AcDbEntity
  8
0
  6
Continuous
 62
     0
370
     0
100
AcDbLine
 10
0.0
 20
-5.0
 30
0.0
 11
0.0
 21
-14.5
 31
0.0
  0
LINE
  5
243
330
239
100
AcDbEntity
  8
0
  6
Continuous
 62
     0
370
     0
100
AcDbLine
 10
5.0
 20
0.0
 30
0.0
 11
14.5
 21
0.0
 31
0.0
  0
ENDBLK
  5
23B
330
239
100
AcDbEntity
  8
0
100
AcDbBlockEnd
  0
BLOCK
  5
246
330
245
100
AcDbEntity
  8
0
100
AcDbBlockBegin
  2
SW_CENTERMARKSYMBOL_1
 70
     0
 10
0.0
 20
0.0
 30
0.0
  3
SW_CENTERMARKSYMBOL_1
  1

  0
LINE
  5
248
330
245
100
AcDbEntity
  8
0
  6
Continuous
 62
     0
370
     0
100
AcDbLine
 10
0.0
 20
0.0
 30
0.0
 11
0.0
 21
2.5
 31
0.0
  0
LINE
  5
249
330
245
100
AcDbEntity
  8
0
  6
Continuous
 62
     0
370
     0
100
AcDbLine
 10
0.0
 20
0.0
 30
0.0
 11
-2.5
 21
0.0
 31
0.0
  0
LINE
  5
24A
330
245
100
AcDbEntity
  8
0
  6
Continuous
 62
     0
370
     0
100
AcDbLine
 10
0.0
 20
0.0
 30
0.0
 11
0.0
 21
-2.5
 31
0.0
  0
LINE
  5
24B
330
245
100
AcDbEntity
  8
0
  6
Continuous
 62
     0
370
     0
100
AcDbLine
 10
0.0
 20
0.0
 30
0.0
 11
2.5
 21
0.0
 31
0.0
  0
LINE
  5
24C
330
245
100
AcDbEntity
  8
0
  6
Continuous
 62
     0
370
     0
100
AcDbLine
 10
0.0
 20
5.0
 30
0.0
 11
0.0
 21
14.5
 31
0.0
  0
LINE
  5
24D
330
245
100
AcDbEntity
  8
0
  6
Continuous
 62
     0
370
     0
100
AcDbLine
 10
-5.0
 20
0.0
 30
0.0
 11
-14.5
 21
0.0
 31
0.0
  0
LINE
  5
24E
330
245
100
AcDbEntity
  8
0
  6
Continuous
 62
     0
370
     0
100
AcDbLine
 10
0.0
 20
-5.0
 30
0.0
 11
0.0
 21
-14.5
 31
0.0
  0
LINE
  5
24F
330
245
100
AcDbEntity
  8
0
  6
Continuous
 62
     0
370
     0
100
AcDbLine
 10
5.0
 20
0.0
 30
0.0
 11
14.5
 21
0.0
 31
0.0
  0
ENDBLK
  5
247
330
245
100
AcDbEntity
  8
0
100
AcDbBlockEnd
  0
BLOCK
  5
252
330
251
100
AcDbEntity
  8
0
100
AcDbBlockBegin
  2
SW_CENTERMARKSYMBOL_2
 70
     0
 10
0.0
 20
0.0
 30
0.0
  3
SW_CENTERMARKSYMBOL_2
  1

  0
LINE
  5
254
330
251
100
AcDbEntity
  8
0
  6
Continuous
 62
     0
370
     0
100
AcDbLine
 10
0.0
 20
0.0
 30
0.0
 11
0.0
 21
2.5
 31
0.0
  0
LINE
  5
255
330
251
100
AcDbEntity
  8
0
  6
Continuous
 62
     0
370
     0
100
AcDbLine
 10
0.0
 20
0.0
 30
0.0
 11
-2.5
 21
0.0
 31
0.0
  0
LINE
  5
256
330
251
100
AcDbEntity
  8
0
  6
Continuous
 62
     0
370
     0
100
AcDbLine
 10
0.0
 20
0.0
 30
0.0
 11
0.0
 21
-2.5
 31
0.0
  0
LINE
  5
257
330
251
100
AcDbEntity
  8
0
  6
Continuous
 62
     0
370
     0
100
AcDbLine
 10
0.0
 20
0.0
 30
0.0
 11
2.5
 21
0.0
 31
0.0
  0
LINE
  5
258
330
251
100
AcDbEntity
  8
0
  6
Continuous
 62
     0
370
     0
100
AcDbLine
 10
0.0
 20
5.0
 30
0.0
 11
0.0
 21
14.5
 31
0.0
  0
LINE
  5
259
330
251
100
AcDbEntity
  8
0
  6
Continuous
 62
     0
370
     0
100
AcDbLine
 10
-5.0
 20
0.0
 30
0.0
 11
-14.5
 21
0.0
 31
0.0
  0
LINE
  5
25A
330
251
100
AcDbEntity
  8
0
  6
Continuous
 62
     0
370
     0
100
AcDbLine
 10
0.0
 20
-5.0
 30
0.0
 11
0.0
 21
-14.5
 31
0.0
  0
LINE
  5
25B
330
251
100
AcDbEntity
  8
0
  6
Continuous
 62
     0
370
     0
100
AcDbLine
 10
5.0
 20
0.0
 30
0.0
 11
14.5
 21
0.0
 31
0.0
  0
ENDBLK
  5
253
330
251
100
AcDbEntity
  8
0
100
AcDbBlockEnd
  0
BLOCK
  5
2EF
330
2EE
100
AcDbEntity
  8
0
100
AcDbBlockBegin
  2
*D43
 70
     1
 10
0.0
 20
0.0
 30
0.0
  3
*D43
  1

  0
INSERT
  5
2F1
330
2EE
100
AcDbEntity
  8
0
  6
Continuous
 62
     7
370
     0
100
AcDbBlockReference
  2
_CLOSED
 10
363.4405557522
 20
26.5742984765
 30
-127.4
 41
6.0
 42
6.0
 50
90.0
  0
INSERT
  5
2F2
330
2EE
100
AcDbEntity
  8
0
  6
Continuous
 62
     7
370
     0
100
AcDbBlockReference
  2
_CLOSED
 10
363.4405557522
 20
31.5742984765
 30
-127.4
 41
6.0
 42
6.0
 50
270.0
  0
LINE
  5
2F3
330
2EE
100
AcDbEntity
  8
0
  6
Continuous
 62
     7
370
     0
100
AcDbLine
 10
348.3754118045
 20
26.5742984765
 30
0.0
 11
364.4405557522
 21
26.5742984765
 31
0.0
  0
LINE
  5
2F4
330
2EE
100
AcDbEntity
  8
0
  6
Continuous
 62
     7
370
     0
100
AcDbLine
 10
348.3754118045
 20
31.5742984765
 30
0.0
 11
364.4405557522
 21
31.5742984765
 31
0.0
  0
LINE
  5
2F5
330
2EE
100
AcDbEntity
  8
0
  6
Continuous
 62
     7
370
     0
100
AcDbLine
 10
363.4405557522
 20
26.5742984765
 30
0.0
 11
363.4405557522
 21
14.5742984765
 31
0.0
  0
LINE
  5
2F6
330
2EE
100
AcDbEntity
  8
0
  6
Continuous
 62
     7
370
     0
100
AcDbLine
 10
363.4405557522
 20
26.5742984765
 30
0.0
 11
363.4405557522
 21
31.5742984765
 31
0.0
  0
LINE
  5
2F7
330
2EE
100
AcDbEntity
  8
0
  6
Continuous
 62
     7
370
     0
100
AcDbLine
 10
363.4405557522
 20
31.5742984765
 30
0.0
 11
363.4405557522
 21
50.2892290444
 31
0.0
  0
MTEXT
  5
2F8
330
2EE
100
AcDbEntity
  8
0
  6
Continuous
 62
     7
370
     0
100
AcDbMText
 10
358.9288188376
 20
44.8593679086
 30
-127.4
 40
3.5
 41
0.0
 71
     1
 72
     1
  1
5
  7
SLDTEXTSTYLE2
 11
6.123233995736766E-17
 21
1.0
 31
0.0
 73
     1
 44
1.0
  0
ENDBLK
  5
2F0
330
2EE
100
AcDbEntity
  8
0
100
AcDbBlockEnd
  0
ENDSEC
  0
SECTION
  2
ENTITIES
  0
LINE
  5
45
330
1F
100
AcDbEntity
  8
0
  6
Continuous
 62
     7
370
    40
100
AcDbLine
 10
25.0788435654
 20
10.2147801566
 30
0.0
 11
25.0788435654
 21
410.2147801566
 31
0.0
  0
LINE
  5
46
330
1F
100
AcDbEntity
  8
0
  6
Continuous
 62
     7
370
    40
100
AcDbLine
 10
0.0788435654
 20
0.2147801566
 30
0.0
 11
594.0788435654
 21
0.2147801566
 31
0.0
  0
LINE
  5
47
330
1F
100
AcDbEntity
  8
0
  6
Continuous
 62
     7
370
    40
100
AcDbLine
 10
0.0788435654
 20
0.2147801566
 30
0.0
 11
0.0788435654
 21
420.2147801566
 31
0.0
  0
LINE
  5
48
330
1F
100
AcDbEntity
  8
0
  6
Continuous
 62
     7
370
    40
100
AcDbLine
 10
0.0788435654
 20
420.2147801566
 30
0.0
 11
594.0788435654
 21
420.2147801566
 31
0.0
  0
LINE
  5
49
330
1F
100
AcDbEntity
  8
0
  6
Continuous
 62
     7
370
    40
100
AcDbLine
 10
594.0788435654
 20
0.2147801566
 30
0.0
 11
594.0788435654
 21
420.2147801566
 31
0.0
  0
LINE
  5
4A
330
1F
100
AcDbEntity
  8
0
  6
Continuous
 62
     7
370
    40
100
AcDbLine
 10
25.0788435654
 20
410.2147801566
 30
0.0
 11
584.0788435654
 21
410.2147801566
 31
0.0
  0
LINE
  5
4B
330
1F
100
AcDbEntity
  8
0
  6
Continuous
 62
     7
370
    40
100
AcDbLine
 10
25.0788435654
 20
10.2147801566
 30
0.0
 11
584.0788435654
 21
10.2147801566
 31
0.0
  0
LINE
  5
4C
330
1F
100
AcDbEntity
  8
0
  6
Continuous
 62
     7
370
    40
100
AcDbLine
 10
584.0788435654
 20
410.2147801566
 30
0.0
 11
584.0788435654
 21
10.2147801566
 31
0.0
  0
LINE
  5
4D
330
1F
100
AcDbEntity
  8
0
  6
Continuous
 62
     7
370
    40
100
AcDbLine
 10
396.8788435654
 20
14.4647801566
 30
0.0
 11
584.0788435654
 21
14.4647801566
 31
0.0
  0
LINE
  5
4E
330
1F
100
AcDbEntity
  8
0
  6
Continuous
 62
     7
370
    40
100
AcDbLine
 10
584.0788435654
 20
48.4647801566
 30
0.0
 11
396.8788435654
 21
48.4647801566
 31
0.0
  0
LINE
  5
4F
330
1F
100
AcDbEntity
  8
0
  6
Continuous
 62
     7
370
    40
100
AcDbLine
 10
396.8788435654
 20
65.4647801566
 30
0.0
 11
584.0788435654
 21
65.4647801566
 31
0.0
  0
LINE
  5
50
330
1F
100
AcDbEntity
  8
0
  6
Continuous
 62
     7
370
    40
100
AcDbLine
 10
423.8697959991
 20
48.4647801566
 30
0.0
 11
423.8697959991
 21
10.2147801566
 31
0.0
  0
LINE
  5
51
330
1F
100
AcDbEntity
  8
0
  6
Continuous
 62
     7
370
    40
100
AcDbLine
 10
495.6788435654
 20
31.4647801566
 30
0.0
 11
396.8788435654
 21
31.4647801566
 31
0.0
  0
LINE
  5
52
330
1F
100
AcDbEntity
  8
0
  6
Continuous
 62
     7
370
    40
100
AcDbLine
 10
495.6788435654
 20
35.7147801566
 30
0.0
 11
396.8788435654
 21
35.7147801566
 31
0.0
  0
LINE
  5
53
330
1F
100
AcDbEntity
  8
0
  6
Continuous
 62
     7
370
    40
100
AcDbLine
 10
495.6788435654
 20
39.9647801566
 30
0.0
 11
396.8788435654
 21
39.9647801566
 31
0.0
  0
LINE
  5
54
330
1F
100
AcDbEntity
  8
0
  6
Continuous
 62
     7
370
    40
100
AcDbLine
 10
495.6788435654
 20
44.2147801566
 30
0.0
 11
396.8788435654
 21
44.2147801566
 31
0.0
  0
LINE
  5
55
330
1F
100
AcDbEntity
  8
0
  6
Continuous
 62
     7
370
    40
100
AcDbLine
 10
451.4788435654
 20
10.2147801566
 30
0.0
 11
451.4788435654
 21
48.4647801566
 31
0.0
  0
LINE
  5
56
330
1F
100
AcDbEntity
  8
0
  6
Continuous
 62
     7
370
    40
100
AcDbLine
 10
396.8788435654
 20
65.4647801566
 30
0.0
 11
396.8788435654
 21
10.2147801566
 31
0.0
  0
LINE
  5
57
330
1F
100
AcDbEntity
  8
0
  6
Continuous
 62
     7
370
    40
100
AcDbLine
 10
404.6788435654
 20
48.4647801566
 30
0.0
 11
404.6788435654
 21
10.2147801566
 31
0.0
  0
LINE
  5
58
330
1F
100
AcDbEntity
  8
0
  6
Continuous
 62
     7
370
    40
100
AcDbLine
 10
430.6788435654
 20
48.4647801566
 30
0.0
 11
430.6788435654
 21
65.4647801566
 31
0.0
  0
LINE
  5
59
330
1F
100
AcDbEntity
  8
0
  6
Continuous
 62
     7
370
    40
100
AcDbLine
 10
441.2777697289
 20
48.4647801566
 30
0.0
 11
441.2777697289
 21
10.2147801566
 31
0.0
  0
LINE
  5
5A
330
1F
100
AcDbEntity
  8
0
  6
Continuous
 62
     7
370
    40
100
AcDbLine
 10
461.8788435654
 20
31.4647801566
 30
0.0
 11
461.8788435654
 21
48.4647801566
 31
0.0
  0
LINE
  5
5B
330
1F
100
AcDbEntity
  8
0
  6
Continuous
 62
     7
370
    40
100
AcDbLine
 10
451.4788435654
 20
18.7147801566
 30
0.0
 11
396.8788435654
 21
18.7147801566
 31
0.0
  0
LINE
  5
5C
330
1F
100
AcDbEntity
  8
0
  6
Continuous
 62
     7
370
    40
100
AcDbLine
 10
477.4788435654
 20
65.4647801566
 30
0.0
 11
477.4788435654
 21
27.2147801566
 31
0.0
  0
LINE
  5
5D
330
1F
100
AcDbEntity
  8
0
  6
Continuous
 62
     7
370
    40
100
AcDbLine
 10
451.4788435654
 20
22.9647081566
 30
0.0
 11
396.8788435654
 21
22.9647081566
 31
0.0
  0
LINE
  5
5E
330
1F
100
AcDbEntity
  8
0
  6
Continuous
 62
     7
370
    40
100
AcDbLine
 10
451.4788435654
 20
27.2147801566
 30
0.0
 11
396.8788435654
 21
27.2147801566
 31
0.0
  0
LINE
  5
5F
330
1F
100
AcDbEntity
  8
0
  6
Continuous
 62
     7
370
    40
100
AcDbLine
 10
451.4788435654
 20
27.2147801566
 30
0.0
 11
584.0788435654
 21
27.2147801566
 31
0.0
  0
LINE
  5
60
330
1F
100
AcDbEntity
  8
0
  6
Continuous
 62
     7
370
    40
100
AcDbLine
 10
495.6788435654
 20
65.4647801566
 30
0.0
 11
495.6788435654
 21
10.2147801566
 31
0.0
  0
LINE
  5
61
330
1F
100
AcDbEntity
  8
0
  6
Continuous
 62
     7
370
    40
100
AcDbLine
 10
539.8788435654
 20
10.2147801566
 30
0.0
 11
539.8788435654
 21
14.4647801566
 31
0.0
  0
LINE
  5
62
330
1F
100
AcDbEntity
  8
0
  6
Continuous
 62
     7
370
    40
100
AcDbLine
 10
547.6788435654
 20
59.0897801566
 30
0.0
 11
547.6788435654
 21
65.4647801566
 31
0.0
  0
LINE
  5
63
330
1F
100
AcDbEntity
  8
0
  6
Continuous
 62
     7
370
    40
100
AcDbLine
 10
571.0788435654
 20
14.4647801566
 30
0.0
 11
571.0788435654
 21
27.2147801566
 31
0.0
  0
LINE
  5
64
330
1F
100
AcDbEntity
  8
0
  6
Continuous
 62
     7
370
    40
100
AcDbLine
 10
584.0788435654
 20
59.0897801566
 30
0.0
 11
495.6788435654
 21
59.0897801566
 31
0.0
  0
LINE
  5
65
330
1F
100
AcDbEntity
  8
0
  6
Continuous
 62
     7
370
    40
100
AcDbLine
 10
584.0788435654
 20
18.7147801566
 30
0.0
 11
571.0788435654
 21
18.7147801566
 31
0.0
  0
MTEXT
  5
67
330
1F
100
AcDbEntity
  8
0
  6
Continuous
 62
     7
370
     0
100
AcDbMText
 10
68.8668341335
 20
58.1532988872
 30
0.0
 40
5.0
 41
0.0
 71
     1
 72
     1
  1
\M+18DB6\M+18945╢╘\M+18FCC
  7
SLDTEXTSTYLE0
 73
     1
 44
1.0
  0
MTEXT
  5
69
330
1F
100
AcDbEntity
  8
0
  6
Continuous
 62
     7
370
     0
100
AcDbMText
 10
539.8555649543
 20
41.2496795977
 30
0.0
 40
6.35
 41
0.0
 71
     2
 72
     1
  1
\M+19AF1\M+194C2 / Mid Plate
  7
SLDTEXTSTYLE1
 73
     1
 44
1.0
  0
MTEXT
  5
6B
330
1F
100
AcDbEntity
  8
0
  6
Continuous
 62
     7
370
     0
100
AcDbMText
 10
536.7803537177
 20
24.8465185664
 30
0.0
 40
6.35
 41
0.0
 71
     2
 72
     1
  1
Popn Asc
  7
SLDTEXTSTYLE2
 73
     1
 44
1.0
  0
MTEXT
  5
6C
330
1F
100
AcDbEntity
  8
0
  6
Continuous
 62
     7
370
     0
100
AcDbMText
 10
452.4966546935
 20
13.1640920602
 30
0.0
 40
1.4986
 41
0.0
 71
     1
 72
     1
  1
WEIGHT:
  7
SLDTEXTSTYLE2
 73
     1
 44
1.0
  0
MTEXT
  5
6D
330
1F
100
AcDbEntity
  8
0
  6
Continuous
 62
     7
370
     0
100
AcDbMText
 10
574.9998284117
 20
24.5152246096
 30
0.0
 40
2.9104166667
 41
0.0
 71
     1
 72
     1
  1
A2
  7
SLDTEXTSTYLE2
 73
     1
 44
1.0
  0
MTEXT
  5
6F
330
1F
100
AcDbEntity
  8
0
  6
Continuous
 62
     7
370
     0
100
AcDbMText
 10
541.3571379932
 20
13.114867664
 30
0.0
 40
1.5
 41
0.0
 71
     1
 72
     1
  1
SHEET 2 OF 4
  7
SLDTEXTSTYLE3
 73
     1
 44
1.0
  0
MTEXT
  5
70
330
1F
100
AcDbEntity
  8
0
  6
Continuous
 62
     7
370
     0
100
AcDbMText
 10
496.9528096828
 20
13.114867664
 30
0.0
 40
1.5
 41
0.0
 71
     1
 72
     1
  1
SCALE:1:1
  7
SLDTEXTSTYLE2
 73
     1
 44
1.0
  0
MTEXT
  5
71
330
1F
100
AcDbEntity
  8
0
  6
Continuous
 62
     7
370
     0
100
AcDbMText
 10
496.9528096828
 20
25.0834182165
 30
0.0
 40
1.5
 41
0.0
 71
     1
 72
     1
  1
DWG NO.
  7
SLDTEXTSTYLE2
 73
     1
 44
1.0
  0
MTEXT
  5
72
330
1F
100
AcDbEntity
  8
0
  6
Continuous
 62
     7
370
     0
100
AcDbMText
 10
496.835030502
 20
46.4931146755
 30
0.0
 40
1.5
 41
0.0
 71
     1
 72
     1
  1
TITLE:
  7
SLDTEXTSTYLE2
 73
     1
 44
1.0
  0
MTEXT
  5
73
330
1F
100
AcDbEntity
  8
0
  6
Continuous
 62
     7
370
     0
100
AcDbMText
 10
550.2064252647
 20
62.5496890699
 30
0.0
 40
1.5
 41
0.0
 71
     1
 72
     1
  1
REVISION
  7
SLDTEXTSTYLE2
 73
     1
 44
1.0
  0
MTEXT
  5
74
330
1F
100
AcDbEntity
  8
0
  6
Continuous
 62
     7
370
     0
100
AcDbMText
 10
509.4934840882
 20
62.7477739645
 30
0.0
 40
1.5
 41
0.0
 71
     1
 72
     1
  1
DO NOT SCALE DRAWING
  7
SLDTEXTSTYLE2
 73
     1
 44
1.0
  0
MTEXT
  5
75
330
1F
100
AcDbEntity
  8
0
  6
Continuous
 62
     7
370
     0
100
AcDbMText
 10
452.5247058741
 20
26.2008366787
 30
0.0
 40
1.5
 41
0.0
 71
     1
 72
     1
  1
MATERIAL:
  7
SLDTEXTSTYLE2
 73
     1
 44
1.0
  0
MTEXT
  5
76
330
1F
100
AcDbEntity
  8
0
  6
Continuous
 62
     7
370
     0
100
AcDbMText
 10
444.0935455311
 20
46.7909596107
 30
0.0
 40
1.5
 41
0.0
 71
     1
 72
     1
  1
DATE
  7
SLDTEXTSTYLE2
 73
     1
 44
1.0
  0
MTEXT
  5
77
330
1F
100
AcDbEntity
  8
0
  6
Continuous
 62
     7
370
     0
100
AcDbMText
 10
426.9124311285
 20
46.776536769
 30
0.0
 40
1.5
 41
0.0
 71
     1
 72
     1
  1
SIGNATURE
  7
SLDTEXTSTYLE2
 73
     1
 44
1.0
  0
MTEXT
  5
78
330
1F
100
AcDbEntity
  8
0
  6
Continuous
 62
     7
370
     0
100
AcDbMText
 10
411.201082783
 20
46.7162630229
 30
0.0
 40
1.5
 41
0.0
 71
     1
 72
     1
  1
NAME
  7
SLDTEXTSTYLE2
 73
     1
 44
1.0
  0
INSERT
  5
7F
330
1F
100
AcDbEntity
  8
0
  6
Continuous
 62
     7
370
     0
100
AcDbBlockReference
  2
SW_NOTE_2
 10
478.1880592516
 20
62.2842700325
 30
0.0
  0
MTEXT
  5
80
330
1F
100
AcDbEntity
  8
0
  6
Continuous
 62
     7
370
     0
100
AcDbMText
 10
431.2501357322
 20
64.1340523846
 30
0.0
 40
1.5
 41
0.0
 71
     1
 72
     1
  1
FINISH:
  7
SLDTEXTSTYLE2
 73
     1
 44
1.0
  0
INSERT
  5
8A
330
1F
100
AcDbEntity
  8
0
  6
Continuous
 62
     7
370
     0
100
AcDbBlockReference
  2
SW_NOTE_3
 10
397.472512311
 20
62.2021502637
 30
0.0
  0
MTEXT
  5
8B
330
1F
100
AcDbEntity
  8
0
  6
Continuous
 62
     7
370
     0
100
AcDbMText
 10
397.5478864275
 20
25.5644295968
 30
0.0
 40
1.5
 41
0.0
 71
     1
 72
     1
  1
Q.A
  7
SLDTEXTSTYLE2
 73
     1
 44
1.0
  0
MTEXT
  5
8C
330
1F
100
AcDbEntity
  8
0
  6
Continuous
 62
     7
370
     0
100
AcDbMText
 10
397.3340300644
 20
29.9484850401
 30
0.0
 40
1.5
 41
0.0
 71
     1
 72
     1
  1
MFG
  7
SLDTEXTSTYLE2
 73
     1
 44
1.0
  0
MTEXT
  5
8D
330
1F
100
AcDbEntity
  8
0
  6
Continuous
 62
     7
370
     0
100
AcDbMText
 10
397.2805659737
 20
34.2790763926
 30
0.0
 40
1.5
 41
0.0
 71
     1
 72
     1
  1
APPV'D
  7
SLDTEXTSTYLE2
 73
     1
 44
1.0
  0
MTEXT
  5
8E
330
1F
100
AcDbEntity
  8
0
  6
Continuous
 62
     7
370
     0
100
AcDbMText
 10
397.289312433
 20
38.3691875495
 30
0.0
 40
1.5
 41
0.0
 71
     1
 72
     1
  1
CHK'D
  7
SLDTEXTSTYLE2
 73
     1
 44
1.0
  0
MTEXT
  5
8F
330
1F
100
AcDbEntity
  8
0
  6
Continuous
 62
     7
370
     0
100
AcDbMText
 10
397.0909928094
 20
42.6444952754
 30
0.0
 40
1.5
 41
0.0
 71
     1
 72
     1
  1
DRAWN
  7
SLDTEXTSTYLE2
 73
     1
 44
1.0
  0
CIRCLE
  5
90
330
1F
100
AcDbEntity
  8
0
  6
Continuous
 62
     7
370
    15
100
AcDbCircle
 10
208.321664246
 20
107.7804006323
 30
0.0
 40
2.075000000000003
  0
CIRCLE
  5
91
330
1F
100
AcDbEntity
  8
0
  6
Continuous
 62
     7
370
    15
100
AcDbCircle
 10
158.2298372114
 20
226.105792428
 30
0.0
 40
2.074999999999989
  0
CIRCLE
  5
92
330
1F
100
AcDbEntity
  8
0
  6
Continuous
 62
     7
370
    15
100
AcDbCircle
 10
230.821664246
 20
128.2804006323
 30
0.0
 40
1.200000000000017
  0
CIRCLE
  5
93
330
1F
100
AcDbEntity
  8
0
  6
Continuous
 62
     7
370
    15
100
AcDbCircle
 10
185.821664246
 20
173.2804006323
 30
0.0
 40
1.200000000000017
  0
ARC
  5
94
330
1F
100
AcDbEntity
  8
0
  6
Continuous
 62
     7
370
    15
100
AcDbCircle
 10
195.821664246
 20
225.7804006323
 30
0.0
 40
7.5
100
AcDbArc
 50
90.0
 51
270.0
  0
LINE
  5
95
330
1F
100
AcDbEntity
  8
0
  6
Continuous
 62
     7
370
    15
100
AcDbLine
 10
195.821664246
 20
218.2804006323
 30
0.0
 11
220.821664246
 21
218.2804006323
 31
0.0
  0
ARC
  5
96
330
1F
100
AcDbEntity
  8
0
  6
Continuous
 62
     7
370
    15
100
AcDbCircle
 10
220.821664246
 20
225.7804006323
 30
0.0
 40
7.5
100
AcDbArc
 50
270.0
 51
90.0
  0
LINE
  5
97
330
1F
100
AcDbEntity
  8
0
  6
Continuous
 62
     7
370
    15
100
AcDbLine
 10
220.821664246
 20
233.2804006323
 30
0.0
 11
195.821664246
 21
233.2804006323
 31
0.0
  0
CIRCLE
  5
98
330
1F
100
AcDbEntity
  8
0
  6
Continuous
 62
     7
370
    15
100
AcDbCircle
 10
138.321664246
 20
150.7804006323
 30
0.0
 40
12.0
  0
LINE
  5
99
330
1F
100
AcDbEntity
  8
0
  6
Continuous
 62
     7
370
    15
100
AcDbLine
 10
288.5278762966
 20
221.8318167897
 30
0.0
 11
269.0056209948
 21
341.5848854012
 31
0.0
  0
ARC
  5
9A
330
1F
100
AcDbEntity
  8
0
  6
Continuous
 62
     7
370
    15
100
AcDbCircle
 10
293.4627323489
 20
222.6363015587
 30
0.0
 40
5.000000000000027
100
AcDbArc
 50
189.2589624483
 51
260.7410375517
  0
LINE
  5
9B
330
1F
100
AcDbEntity
  8
0
  6
Continuous
 62
     7
370
    15
100
AcDbLine
 10
325.0342636831
 20
212.4234776067
 30
0.0
 11
292.65824758
 21
217.7014455064
 31
0.0
  0
ARC
  5
9C
330
1F
100
AcDbEntity
  8
0
  6
Continuous
 62
     7
370
    15
100
AcDbCircle
 10
324.2297789142
 20
207.4886215544
 30
0.0
 40
4.999999999999994
100
AcDbArc
 50
9.2589624483
 51
80.7410375517
  0
LINE
  5
9D
330
1F
100
AcDbEntity
  8
0
  6
Continuous
 62
     7
370
    15
100
AcDbLine
 10
347.3754118045
 20
96.5848854012
 30
0.0
 11
329.1646349664
 21
208.2931063234
 31
0.0
  0
ARC
  5
9E
330
1F
100
AcDbEntity
  8
0
  6
Continuous
 62
     7
370
    15
100
AcDbCircle
 10
342.4405557522
 20
95.7804006323
 30
0.0
 40
5.0
100
AcDbArc
 50
270.0
 51
9.2589624483
  0
LINE
  5
9F
330
1F
100
AcDbEntity
  8
0
  6
Continuous
 62
     7
370
    15
100
AcDbLine
 10
74.2027727398
 20
90.7804006323
 30
0.0
 11
342.4405557522
 21
90.7804006323
 31
0.0
  0
ARC
  5
A0
330
1F
100
AcDbEntity
  8
0
  6
Continuous
 62
     7
370
    15
100
AcDbCircle
 10
74.2027727398
 20
95.7804006323
 30
0.0
 40
5.0
100
AcDbArc
 50
170.7410375517
 51
270.0
  0
LINE
  5
A1
330
1F
100
AcDbEntity
  8
0
  6
Continuous
 62
     7
370
    15
100
AcDbLine
 10
87.4786935256
 20
208.2931063234
 30
0.0
 11
69.2679166876
 21
96.5848854012
 31
0.0
  0
ARC
  5
A2
330
1F
100
AcDbEntity
  8
0
  6
Continuous
 62
     7
370
    15
100
AcDbCircle
 10
92.4135495779
 20
207.4886215544
 30
0.0
 40
5.000000000000012
100
AcDbArc
 50
99.2589624483
 51
170.7410375517
  0
LINE
  5
A3
330
1F
100
AcDbEntity
  8
0
  6
Continuous
 62
     7
370
    15
100
AcDbLine
 10
123.9850809121
 20
217.7014455064
 30
0.0
 11
91.6090648089
 21
212.4234776067
 31
0.0
  0
ARC
  5
A4
330
1F
100
AcDbEntity
  8
0
  6
Continuous
 62
     7
370
    15
100
AcDbCircle
 10
123.1805961432
 20
222.6363015587
 30
0.0
 40
4.999999999999996
100
AcDbArc
 50
279.2589624483
 51
350.7410375517
  0
LINE
  5
A5
330
1F
100
AcDbEntity
  8
0
  6
Continuous
 62
     7
370
    15
100
AcDbLine
 10
147.6377074972
 20
341.5848854012
 30
0.0
 11
128.1154521954
 21
221.8318167897
 31
0.0
  0
ARC
  5
A6
330
1F
100
AcDbEntity
  8
0
  6
Continuous
 62
     7
370
    15
100
AcDbCircle
 10
152.5725635495
 20
340.7804006323
 30
0.0
 40
5.000000000000031
100
AcDbArc
 50
90.0
 51
170.7410375517
  0
LINE
  5
A7
330
1F
100
AcDbEntity
  8
0
  6
Continuous
 62
     7
370
    15
100
AcDbLine
 10
264.0707649425
 20
345.7804006323
 30
0.0
 11
152.5725635495
 21
345.7804006323
 31
0.0
  0
ARC
  5
A8
330
1F
100
AcDbEntity
  8
0
  6
Continuous
 62
     7
370
    15
100
AcDbCircle
 10
264.0707649425
 20
340.7804006323
 30
0.0
 40
5.000000000000031
100
AcDbArc
 50
9.2589624483
 51
90.0
  0
CIRCLE
  5
A9
330
1F
100
AcDbEntity
  8
0
  6
Continuous
 62
     7
370
    15
100
AcDbCircle
 10
208.321664246
 20
285.7804006323
 30
0.0
 40
12.0
  0
CIRCLE
  5
AA
330
1F
100
AcDbEntity
  8
0
  6
Continuous
 62
     7
370
    15
100
AcDbCircle
 10
278.321664246
 20
150.7804006323
 30
0.0
 40
12.0
  0
ARC
  5
AB
330
1F
100
AcDbEntity
  8
0
  6
Continuous
 62
     7
370
    15
100
AcDbCircle
 10
195.821664246
 20
195.7804006323
 30
0.0
 40
7.5
100
AcDbArc
 50
90.0
 51
270.0
  0
LINE
  5
AC
330
1F
100
AcDbEntity
  8
0
  6
Continuous
 62
     7
370
    15
100
AcDbLine
 10
195.821664246
 20
188.2804006323
 30
0.0
 11
220.821664246
 21
188.2804006323
 31
0.0
  0
ARC
  5
AD
330
1F
100
AcDbEntity
  8
0
  6
Continuous
 62
     7
370
    15
100
AcDbCircle
 10
220.821664246
 20
195.7804006323
 30
0.0
 40
7.5
100
AcDbArc
 50
270.0
 51
90.0
  0
LINE
  5
AE
330
1F
100
AcDbEntity
  8
0
  6
Continuous
 62
     7
370
    15
100
AcDbLine
 10
220.821664246
 20
203.2804006323
 30
0.0
 11
195.821664246
 21
203.2804006323
 31
0.0
  0
CIRCLE
  5
AF
330
1F
100
AcDbEntity
  8
0
  6
Continuous
 62
     7
370
    15
100
AcDbCircle
 10
230.821664246
 20
173.2804006323
 30
0.0
 40
1.200000000000017
  0
CIRCLE
  5
B0
330
1F
100
AcDbEntity
  8
0
  6
Continuous
 62
     7
370
    15
100
AcDbCircle
 10
185.821664246
 20
128.2804006323
 30
0.0
 40
1.200000000000017
  0
CIRCLE
  5
B1
330
1F
100
AcDbEntity
  8
0
  6
Continuous
 62
     7
370
    15
100
AcDbCircle
 10
258.4134912807
 20
226.105792428
 30
0.0
 40
2.074999999999989
  0
LINE
  5
B2
330
1F
100
AcDbEntity
  8
0
  6
Continuous
 62
     7
370
    15
100
AcDbLine
 10
326.7528056643
 20
102.9493471017
 30
0.0
 11
331.7620747241
 21
104.520882493
 31
0.0
  0
LINE
  5
B3
330
1F
100
AcDbEntity
  8
0
  6
Continuous
 62
     7
370
    15
100
AcDbLine
 10
331.7620747241
 20
104.520882493
 30
0.0
 11
322.7519384806
 21
133.2406917694
 31
0.0
  0
LINE
  5
B4
330
1F
100
AcDbEntity
  8
0
  6
Continuous
 62
     7
370
    15
100
AcDbLine
 10
322.7519384806
 20
133.2406917694
 30
0.0
 11
317.7426694207
 21
131.6691563781
 31
0.0
  0
LINE
  5
B5
330
1F
100
AcDbEntity
  8
0
  6
Continuous
 62
     7
370
    15
100
AcDbLine
 10
317.7426694207
 20
131.6691563781
 30
0.0
 11
326.7528056643
 21
102.9493471017
 31
0.0
  0
LINE
  5
B6
330
1F
100
AcDbEntity
  8
0
  6
Continuous
 62
     7
370
    15
100
AcDbLine
 10
152.7519384806
 20
303.3201094951
 30
0.0
 11
161.7620747241
 21
332.0399187715
 31
0.0
  0
LINE
  5
B7
330
1F
100
AcDbEntity
  8
0
  6
Continuous
 62
     7
370
    15
100
AcDbLine
 10
161.7620747241
 20
332.0399187715
 30
0.0
 11
156.7528056643
 21
333.6114541628
 31
0.0
  0
LINE
  5
B8
330
1F
100
AcDbEntity
  8
0
  6
Continuous
 62
     7
370
    15
100
AcDbLine
 10
156.7528056643
 20
333.6114541628
 30
0.0
 11
147.7426694207
 21
304.8916448864
 31
0.0
  0
LINE
  5
B9
330
1F
100
AcDbEntity
  8
0
  6
Continuous
 62
     7
370
    15
100
AcDbLine
 10
147.7426694207
 20
304.8916448864
 30
0.0
 11
152.7519384806
 21
303.3201094951
 31
0.0
  0
LINE
  5
BA
330
1F
100
AcDbEntity
  8
0
  6
Continuous
 62
     7
370
    15
100
AcDbLine
 10
89.8905228277
 20
102.9493471017
 30
0.0
 11
98.9006590713
 21
131.6691563781
 31
0.0
  0
LINE
  5
BB
330
1F
100
AcDbEntity
  8
0
  6
Continuous
 62
     7
370
    15
100
AcDbLine
 10
98.9006590713
 20
131.6691563781
 30
0.0
 11
93.8913900115
 21
133.2406917694
 31
0.0
  0
LINE
  5
BC
330
1F
100
AcDbEntity
  8
0
  6
Continuous
 62
     7
370
    15
100
AcDbLine
 10
93.8913900115
 20
133.2406917694
 30
0.0
 11
84.8812537679
 21
104.520882493
 31
0.0
  0
LINE
  5
BD
330
1F
100
AcDbEntity
  8
0
  6
Continuous
 62
     7
370
    15
100
AcDbLine
 10
84.8812537679
 20
104.520882493
 30
0.0
 11
89.8905228277
 21
102.9493471017
 31
0.0
  0
LINE
  5
BE
330
1F
100
AcDbEntity
  8
0
  6
Continuous
 62
     7
370
    15
100
AcDbLine
 10
259.8905228277
 20
333.6114541628
 30
0.0
 11
254.8812537679
 21
332.0399187715
 31
0.0
  0
LINE
  5
BF
330
1F
100
AcDbEntity
  8
0
  6
Continuous
 62
     7
370
    15
100
AcDbLine
 10
254.8812537679
 20
332.0399187715
 30
0.0
 11
263.8913900115
 21
303.3201094951
 31
0.0
  0
LINE
  5
C0
330
1F
100
AcDbEntity
  8
0
  6
Continuous
 62
     7
370
    15
100
AcDbLine
 10
263.8913900115
 20
303.3201094951
 30
0.0
 11
268.9006590713
 21
304.8916448864
 31
0.0
  0
LINE
  5
C1
330
1F
100
AcDbEntity
  8
0
  6
Continuous
 62
     7
370
    15
100
AcDbLine
 10
268.9006590713
 20
304.8916448864
 30
0.0
 11
259.8905228277
 21
333.6114541628
 31
0.0
  0
DIMENSION
  5
C2
330
1F
100
AcDbEntity
  8
0
  6
Continuous
 62
     7
370
     0
100
AcDbDimension
  2
*D4
 10
52.321664246
 20
345.7804006323
 30
0.0
 11
52.321664246
 21
212.3578199871
 31
0.0
 70
   160
 71
     2
 42
-1.0
  3
SLDDIMSTYLE0
100
AcDbAlignedDimension
 13
74.2027727398
 23
90.7804006323
 33
0.0
 14
152.5725635495
 24
345.7804006323
 34
0.0
 50
90.0
100
AcDbRotatedDimension
  0
DIMENSION
  5
D4
330
1F
100
AcDbEntity
  8
0
  6
Continuous
 62
     7
370
     0
100
AcDbDimension
  2
*D5
 10
152.5725635495
 20
355.7804006323
 30
0.0
 11
208.321664246
 21
355.7804006323
 31
0.0
 70
   160
 71
     2
 42
-1.0
  3
SLDDIMSTYLE0
100
AcDbAlignedDimension
 13
264.0707649425
 23
345.7804006323
 33
0.0
 14
152.5725635495
 24
345.7804006323
 34
0.0
100
AcDbRotatedDimension
  0
DIMENSION
  5
DE
330
1F
100
AcDbEntity
  8
0
  6
Continuous
 62
     7
370
     0
100
AcDbDimension
  2
*D6
 10
87.4786935256
 20
208.2931063234
 30
0.0
 11
113.5603739234
 21
131.8107232129
 31
0.0
 70
   162
 71
     1
 42
-1.0
  3
SLDDIMSTYLE1
100
AcDb2LineAngularDimension
 13
342.4405557522
 23
90.7804006323
 33
0.0
 14
74.2027727398
 24
90.7804006323
 34
0.0
 15
69.2679166876
 25
96.5848854012
 35
0.0
 16
114.8521832802
 26
130.3397108229
 36
0.0
  0
DIMENSION
  5
E7
330
1F
100
AcDbEntity
  8
0
  6
Continuous
 62
     7
370
     0
100
AcDbDimension
  2
*D7
 10
147.6377074972
 20
341.5848854012
 30
0.0
 11
179.3010190847
 21
302.9733038581
 31
0.0
 70
   162
 71
     1
 42
-1.0
  3
SLDDIMSTYLE1
100
AcDb2LineAngularDimension
 13
152.5725635495
 23
345.7804006323
 33
0.0
 14
264.0707649425
 24
345.7804006323
 34
0.0
 15
128.1154521954
 25
221.8318167897
 35
0.0
 16
182.5482375566
 26
305.5223624302
 36
0.0
  0
DIMENSION
  5
EF
330
1F
100
AcDbEntity
  8
0
  6
Continuous
 62
     7
370
     0
100
AcDbDimension
  2
*D8
 10
122.6268255363
 20
90.7804006323
 30
0.0
 11
122.6268255363
 21
119.9655619226
 31
0.0
 70
   160
 71
     2
 42
-1.0
  3
SLDDIMSTYLE0
100
AcDbAlignedDimension
 13
123.821664246
 23
150.7804006323
 33
0.0
 14
74.2027727398
 24
90.7804006323
 34
0.0
 50
90.0
100
AcDbRotatedDimension
  0
DIMENSION
  5
F8
330
1F
100
AcDbEntity
  8
0
  6
Continuous
 62
     7
370
     0
100
AcDbDimension
  2
*D9
 10
179.1874706976
 20
345.7804006323
 30
0.0
 11
179.1874706976
 21
316.0029812774
 31
0.0
 70
   160
 71
     2
 42
-1.0
  3
SLDDIMSTYLE0
100
AcDbAlignedDimension
 13
193.821664246
 23
285.7804006323
 33
0.0
 14
152.5725635495
 24
345.7804006323
 34
0.0
 50
90.0
100
AcDbRotatedDimension
  0
DIMENSION
  5
101
330
1F
100
AcDbEntity
  8
0
  6
Continuous
 62
     7
370
     0
100
AcDbDimension
  2
*D10
 10
315.5577572713
 20
138.6335638544
 30
0.0
 11
358.1479875649
 21
151.9952047308
 31
0.0
 70
   160
 71
     2
 42
-1.0
  3
SLDDIMSTYLE2
100
AcDbAlignedDimension
 13
322.7519384806
 23
133.2406917694
 33
0.0
 14
317.7426694207
 24
131.6691563781
 34
0.0
 50
17.4179707922
100
AcDbRotatedDimension
  0
DIMENSION
  5
10E
330
1F
100
AcDbEntity
  8
0
  6
Continuous
 62
     7
370
     0
100
AcDbDimension
  2
*D11
 10
383.7400495557
 20
152.3742168126
 30
0.0
 11
387.7742935948
 21
139.5150639379
 31
0.0
 70
   160
 71
     2
 42
-1.0
  3
SLDDIMSTYLE2
100
AcDbAlignedDimension
 13
331.7620747241
 23
104.520882493
 33
0.0
 14
322.7519384806
 24
133.2406917694
 34
0.0
 50
-72.5820292078
100
AcDbRotatedDimension
  0
DIMENSION
  5
11A
330
1F
100
AcDbEntity
  8
0
  6
Continuous
 62
     7
370
     0
100
AcDbDimension
  2
*D12
 10
252.8567620925
 20
338.4929859868
 30
0.0
 11
307.806052081
 21
355.7319789244
 31
0.0
 70
   160
 71
     2
 42
-1.0
  3
SLDDIMSTYLE2
100
AcDbAlignedDimension
 13
259.8905228277
 23
333.6114541628
 33
0.0
 14
254.8812537679
 24
332.0399187715
 34
0.0
 50
17.4179707922
100
AcDbRotatedDimension
  0
DIMENSION
  5
126
330
1F
100
AcDbEntity
  8
0
  6
Continuous
 62
     7
370
     0
100
AcDbDimension
  2
*D13
 10
331.6518433375
 20
356.1248096169
 30
0.0
 11
336.2497144972
 21
341.4690952952
 31
0.0
 70
   160
 71
     2
 42
-1.0
  3
SLDDIMSTYLE2
100
AcDbAlignedDimension
 13
268.9006590713
 23
304.8916448864
 33
0.0
 14
259.8905228277
 24
333.6114541628
 34
0.0
 50
-72.5820292078
100
AcDbRotatedDimension
  0
DIMENSION
  5
132
330
1F
100
AcDbEntity
  8
0
  6
Continuous
 62
     7
370
     0
100
AcDbDimension
  2
*D14
 10
382.3366312497
 20
90.7804006323
 30
0.0
 11
382.3366312497
 21
132.6209748174
 31
0.0
 70
   160
 71
     2
 42
-1.0
  3
SLDDIMSTYLE3
100
AcDbAlignedDimension
 13
326.7528056643
 23
102.9493471017
 33
0.0
 14
342.4405557522
 24
90.7804006323
 34
0.0
 50
90.0
100
AcDbRotatedDimension
  0
DIMENSION
  5
13F
330
1F
100
AcDbEntity
  8
0
  6
Continuous
 62
     7
370
     0
100
AcDbDimension
  2
*D15
 10
74.2027727398
 20
90.7804006323
 30
0.0
 11
303.866997496
 21
109.8079258686
 31
0.0
 70
   162
 71
     1
 42
-1.0
  3
SLDDIMSTYLE1
100
AcDb2LineAngularDimension
 13
326.7528056643
 23
102.9493471017
 33
0.0
 14
317.7426694207
 24
131.6691563781
 34
0.0
 15
342.4405557522
 25
90.7804006323
 35
0.0
 16
304.1418141809
 26
110.1878305593
 36
0.0
  0
DIMENSION
  5
147
330
1F
100
AcDbEntity
  8
0
  6
Continuous
 62
     7
370
     0
100
AcDbDimension
  2
*D16
 10
374.8066858702
 20
149.5715929113
 30
0.0
 11
344.6259715842
 21
245.7726196981
 31
0.0
 70
   160
 71
     2
 42
-1.0
  3
SLDDIMSTYLE4
100
AcDbAlignedDimension
 13
268.9006590713
 23
304.8916448864
 33
0.0
 14
322.7519384806
 24
133.2406917694
 34
0.0
 50
-72.5820292078
100
AcDbRotatedDimension
  0
DIMENSION
  5
152
330
1F
100
AcDbEntity
  8
0
  6
Continuous
 62
     7
370
     0
100
AcDbDimension
  2
*D17
 10
278.4761917471
 20
297.7804006323
 30
0.0
 11
278.4761917471
 21
290.4589428621
 31
0.0
 70
   160
  1
%%c<>
 71
     2
 42
-1.0
  3
SLDDIMSTYLE3
100
AcDbAlignedDimension
 13
208.321664246
 23
273.7804006323
 33
0.0
 14
208.321664246
 24
297.7804006323
 34
0.0
 50
90.0
100
AcDbRotatedDimension
  0
DIMENSION
  5
15F
330
1F
100
AcDbEntity
  8
0
  6
Continuous
 62
     7
370
     0
100
AcDbDimension
  2
*D19
 10
132.321664246
 20
140.3880957868
 30
0.0
 11
150.9386706886
 21
172.6336895098
 31
0.0
 70
   163
  1
<>
 71
     1
 42
-1.0
  3
SLDDIMSTYLE5
100
AcDbDiametricDimension
 15
144.321664246
 25
161.1727054777
 35
0.0
 40
0.0
  0
DIMENSION
  5
16C
330
1F
100
AcDbEntity
  8
0
  6
Continuous
 62
     7
370
     0
100
AcDbDimension
  2
*D20
 10
284.321664246
 20
140.3880957868
 30
0.0
 11
265.1928610552
 21
173.5201821219
 31
0.0
 70
   163
  1
<>
 71
     1
 42
-1.0
  3
SLDDIMSTYLE5
100
AcDbDiametricDimension
 15
272.321664246
 25
161.1727054777
 35
0.0
 40
0.0
  0
DIMENSION
  5
175
330
1F
100
AcDbEntity
  8
0
  6
Continuous
 62
     7
370
     0
100
AcDbDimension
  2
*D21
 10
41.2027727398
 20
90.7804006323
 30
0.0
 11
41.2027727398
 21
196.2957050082
 31
0.0
 70
   160
 71
     2
 42
-1.0
  3
SLDDIMSTYLE0
100
AcDbAlignedDimension
 13
138.321664246
 23
150.7804006323
 33
0.0
 14
74.2027727398
 24
90.7804006323
 34
0.0
 50
90.0
100
AcDbRotatedDimension
  0
DIMENSION
  5
180
330
1F
100
AcDbEntity
  8
0
  6
Continuous
 62
     7
370
     0
100
AcDbDimension
  2
*D22
 10
376.2709609269
 20
345.7804006323
 30
0.0
 11
376.2709609269
 21
385.2740715183
 31
0.0
 70
   160
 71
     2
 42
-1.0
  3
SLDDIMSTYLE0
100
AcDbAlignedDimension
 13
208.321664246
 23
285.7804006323
 33
0.0
 14
264.0707649425
 24
345.7804006323
 34
0.0
 50
90.0
100
AcDbRotatedDimension
  0
DIMENSION
  5
18B
330
1F
100
AcDbEntity
  8
0
  6
Continuous
 62
     7
370
     0
100
AcDbDimension
  2
*D23
 10
278.321664246
 20
80.7804006323
 30
0.0
 11
208.321664246
 21
80.7804006323
 31
0.0
 70
   160
 71
     2
 42
-1.0
  3
SLDDIMSTYLE0
100
AcDbAlignedDimension
 13
138.321664246
 23
150.7804006323
 33
0.0
 14
278.321664246
 24
150.7804006323
 34
0.0
100
AcDbRotatedDimension
  0
DIMENSION
  5
195
330
1F
100
AcDbEntity
  8
0
  6
Continuous
 62
     7
370
     0
100
AcDbDimension
  2
*D24
 10
435.589327424
 20
150.7804006323
 30
0.0
 11
435.589327424
 21
205.5912392458
 31
0.0
 70
   160
 71
     2
 42
-1.0
  3
SLDDIMSTYLE0
100
AcDbAlignedDimension
 13
208.321664246
 23
285.7804006323
 33
0.0
 14
138.321664246
 24
150.7804006323
 34
0.0
 50
90.0
100
AcDbRotatedDimension
  0
DIMENSION
  5
19F
330
1F
100
AcDbEntity
  8
0
  6
Continuous
 62
     7
370
     0
100
AcDbDimension
  2
*D25
 10
59.2027727398
 20
90.7804006323
 30
0.0
 11
59.2027727398
 21
290.4589428621
 31
0.0
 70
   160
 71
     2
 42
-1.0
  3
SLDDIMSTYLE4
100
AcDbAlignedDimension
 13
127.5364970696
 23
218.2804006323
 33
0.0
 14
74.2027727398
 24
90.7804006323
 34
0.0
 50
90.0
100
AcDbRotatedDimension
  0
DIMENSION
  5
1AA
330
1F
100
AcDbEntity
  8
0
  6
Continuous
 62
     7
370
     0
100
AcDbDimension
  2
*D26
 10
348.321664246
 20
68.7804006323
 30
0.0
 11
208.321664246
 21
68.7804006323
 31
0.0
 70
   160
 71
     2
 42
-1.0
  3
SLDDIMSTYLE0
100
AcDbAlignedDimension
 13
68.321664246
 23
90.7804006323
 33
0.0
 14
348.321664246
 24
90.7804006323
 34
0.0
100
AcDbRotatedDimension
  0
DIMENSION
  5
1B4
330
1F
100
AcDbEntity
  8
0
  6
Continuous
 62
     7
370
     0
100
AcDbDimension
  2
*D27
 10
268.321664246
 20
375.3283190206
 30
0.0
 11
184.0029645427
 21
375.3283190206
 31
0.0
 70
   160
 71
     2
 42
-1.0
  3
SLDDIMSTYLE0
100
AcDbAlignedDimension
 13
148.321664246
 23
345.7804006323
 33
0.0
 14
268.321664246
 24
345.7804006323
 34
0.0
100
AcDbRotatedDimension
  0
DIMENSION
  5
1BE
330
1F
100
AcDbEntity
  8
0
  6
Continuous
 62
     7
370
     0
100
AcDbDimension
  2
*D28
 10
81.8994590493
 20
249.6199787765
 30
0.0
 11
97.9520296989
 21
252.2368835966
 31
0.0
 70
   160
 71
     2
 42
-1.0
  3
SLDDIMSTYLE0
100
AcDbAlignedDimension
 13
127.5364970696
 23
218.2804006323
 33
0.0
 14
88.0576486515
 24
211.8445224809
 34
0.0
 50
9.2589624483
100
AcDbRotatedDimension
  0
DIMENSION
  5
1C8
330
1F
100
AcDbEntity
  8
0
  6
Continuous
 62
     7
370
     0
100
AcDbDimension
  2
*D29
 10
264.0707649425
 20
340.7804006323
 30
0.0
 11
286.7637366645
 21
358.8234945784
 31
0.0
 70
   164
  1
<>
 71
     1
 42
-1.0
  3
SLDDIMSTYLE6
100
AcDbRadialDimension
 15
267.9844536862
 25
343.8921590447
 35
0.0
 40
0.0
  0
DIMENSION
  5
1D1
330
1F
100
AcDbEntity
  8
0
  6
Continuous
 62
     7
370
     0
100
AcDbDimension
  2
*D30
 10
195.821664246
 20
225.7804006323
 30
0.0
 11
181.1654859406
 21
264.8868437989
 31
0.0
 70
   164
  1
<>
 71
     1
 42
-1.0
  3
SLDDIMSTYLE7
100
AcDbRadialDimension
 15
193.1896120608
 25
232.8033844208
 35
0.0
 40
0.0
  0
DIMENSION
  5
1DA
330
1F
100
AcDbEntity
  8
0
  6
Continuous
 62
     7
370
     0
100
AcDbDimension
  2
*D31
 10
195.821664246
 20
246.0500031598
 30
0.0
 11
214.5726829864
 21
246.0500031598
 31
0.0
 70
   160
 71
     2
 42
-1.0
  3
SLDDIMSTYLE3
100
AcDbAlignedDimension
 13
220.821664246
 23
233.2804006323
 33
0.0
 14
195.821664246
 24
233.2804006323
 34
0.0
100
AcDbRotatedDimension
  0
DIMENSION
  5
1E6
330
1F
100
AcDbEntity
  8
0
  6
Continuous
 62
     7
370
     0
100
AcDbDimension
  2
*D32
 10
240.4683720119
 20
225.7804006323
 30
0.0
 11
240.4683720119
 21
210.6931209756
 31
0.0
 70
   160
 71
     2
 42
-1.0
  3
SLDDIMSTYLE3
100
AcDbAlignedDimension
 13
208.321664246
 23
195.7804006323
 33
0.0
 14
208.321664246
 24
225.7804006323
 34
0.0
 50
90.0
100
AcDbRotatedDimension
  0
DIMENSION
  5
1F2
330
1F
100
AcDbEntity
  8
0
  6
Continuous
 62
     7
370
     0
100
AcDbDimension
  2
*D33
 10
405.4405557522
 20
90.7804006323
 30
0.0
 11
405.4405557522
 21
138.1661178433
 31
0.0
 70
   160
 71
     2
 42
-1.0
  3
SLDDIMSTYLE0
100
AcDbAlignedDimension
 13
208.321664246
 23
195.7804006323
 33
0.0
 14
208.321664246
 24
90.7804006323
 34
0.0
 50
90.0
100
AcDbRotatedDimension
  0
DIMENSION
  5
1FC
330
1F
100
AcDbEntity
  8
0
  6
Continuous
 62
     7
370
     0
100
AcDbDimension
  2
*D34
 10
159.6970837824
 20
224.638545857
 30
0.0
 11
117.3869469627
 21
266.9487026767
 31
0.0
 70
   163
  1
<>
 71
     1
 42
-1.0
  3
SLDDIMSTYLE8
100
AcDbDiametricDimension
 15
156.7625906404
 25
227.573038999
 35
0.0
 40
0.0
  0
DIMENSION
  5
206
330
1F
100
AcDbEntity
  8
0
  6
Continuous
 62
     7
370
     0
100
AcDbDimension
  2
*D35
 10
186.6701923834
 20
172.4318724948
 30
0.0
 11
128.9275393487
 21
230.1745455296
 31
0.0
 70
   163
  1
<>
 71
     1
 42
-1.0
  3
SLDDIMSTYLE8
100
AcDbDiametricDimension
 15
184.9731361086
 25
174.1289287697
 35
0.0
 40
0.0
  0
DIMENSION
  5
20F
330
1F
100
AcDbEntity
  8
0
  6
Continuous
 62
     7
370
     0
100
AcDbDimension
  2
*D36
 10
170.1131964809
 20
90.7804006323
 30
0.0
 11
170.1131964809
 21
108.8674486804
 31
0.0
 70
   160
 71
     2
 42
-1.0
  3
SLDDIMSTYLE2
100
AcDbAlignedDimension
 13
185.821664246
 23
128.2804006323
 33
0.0
 14
74.2027727398
 24
90.7804006323
 34
0.0
 50
90.0
100
AcDbRotatedDimension
  0
DIMENSION
  5
21A
330
1F
100
AcDbEntity
  8
0
  6
Continuous
 62
     7
370
     0
100
AcDbDimension
  2
*D37
 10
249.2604105572
 20
173.2804006323
 30
0.0
 11
249.2604105572
 21
154.0700569203
 31
0.0
 70
   160
 71
     2
 42
-1.0
  3
SLDDIMSTYLE0
100
AcDbAlignedDimension
 13
230.821664246
 23
128.2804006323
 33
0.0
 14
230.821664246
 24
173.2804006323
 34
0.0
 50
90.0
100
AcDbRotatedDimension
  0
DIMENSION
  5
224
330
1F
100
AcDbEntity
  8
0
  6
Continuous
 62
     7
370
     0
100
AcDbDimension
  2
*D38
 10
185.821664246
 20
167.6789274736
 30
0.0
 11
207.7722108477
 21
167.6789274736
 31
0.0
 70
   160
 71
     2
 42
-1.0
  3
SLDDIMSTYLE0
100
AcDbAlignedDimension
 13
230.821664246
 23
173.2804006323
 33
0.0
 14
185.821664246
 24
173.2804006323
 34
0.0
100
AcDbRotatedDimension
  0
DIMENSION
  5
22E
330
1F
100
AcDbEntity
  8
0
  6
Continuous
 62
     7
370
     0
100
AcDbDimension
  2
*D39
 10
190.5953142385
 20
90.7804006323
 30
0.0
 11
190.5953142385
 21
101.393229258
 31
0.0
 70
   160
 71
     2
 42
-1.0
  3
SLDDIMSTYLE3
100
AcDbAlignedDimension
 13
208.321664246
 23
107.7804006323
 33
0.0
 14
74.2027727398
 24
90.7804006323
 34
0.0
 50
90.0
100
AcDbRotatedDimension
  0
INSERT
  5
244
330
1F
100
AcDbEntity
  8
0
  6
Continuous
 62
     7
370
     0
100
AcDbBlockReference
  2
SW_CENTERMARKSYMBOL_0
 10
208.321664246
 20
285.7804006323
 30
0.0
  0
INSERT
  5
250
330
1F
100
AcDbEntity
  8
0
  6
Continuous
 62
     7
370
     0
100
AcDbBlockReference
  2
SW_CENTERMARKSYMBOL_1
 10
138.321664246
 20
150.7804006323
 30
0.0
  0
INSERT
  5
25C
330
1F
100
AcDbEntity
  8
0
  6
Continuous
 62
     7
370
     0
100
AcDbBlockReference
  2
SW_CENTERMARKSYMBOL_2
 10
278.321664246
 20
150.7804006323
 30
0.0
  0
LINE
  5
25D
330
1F
100
AcDbEntity
  8
0
  6
Continuous
 62
     7
370
    15
100
AcDbLine
 10
424.5460237397
 20
386.4906273518
 30
0.0
 11
421.0104898338
 21
384.4496070722
 31
0.0
  0
LINE
  5
25E
330
1F
100
AcDbEntity
  8
0
  6
Continuous
 62
     7
370
    15
100
AcDbLine
 10
560.2670283138
 20
98.2317350315
 30
0.0
 11
563.8025622197
 21
100.272755311
 31
0.0
  0
LINE
  5
25F
330
1F
100
AcDbEntity
  8
0
  6
Continuous
 62
     7
370
    15
100
AcDbLine
 10
382.0071770109
 20
302.2096033487
 30
0.0
 11
378.471643105
 21
300.1685830692
 31
0.0
  0
LWPOLYLINE
  5
260
330
1F
100
AcDbEntity
  8
0
  6
Continuous
 62
     7
370
    15
100
AcDbPolyline
 90
       18
 70
   128
 43
0.0
 10
462.9308538129
 20
165.4140223885
 10
463.4608844089
 20
165.2224560382
 10
463.919331436
 20
165.2855893846
 10
464.2442790826
 20
165.5948959195
 10
464.3918413687
 20
166.1086020814
 10
464.3420891898
 20
166.7573290065
 10
464.1017418532
 20
167.453462529
 10
463.7032595988
 20
168.1029859591
 10
463.2004596629
 20
168.6181775586
 10
462.661247963
 20
168.9294578472
 10
462.1584480271
 20
168.9947866969
 10
461.7599657726
 20
168.8053410847
 10
461.5196184361
 20
168.3867066903
 10
461.4698662572
 20
167.7954224083
 10
461.6174285433
 20
167.1113444574
 10
461.9423761899
 20
166.4268613555
 10
462.4008232169
 20
165.8344163384
 10
462.9308538129
 20
165.4140223885
  0
LWPOLYLINE
  5
261
330
1F
100
AcDbEntity
  8
0
  6
Continuous
 62
     7
370
    15
100
AcDbPolyline
 90
       18
 70
   128
 43
0.0
 10
427.5105832347
 20
282.4792208357
 10
428.0406138307
 20
282.2876544854
 10
428.4990608577
 20
282.3507878318
 10
428.8240085044
 20
282.6600943666
 10
428.9715707905
 20
283.1738005285
 10
428.9218186115
 20
283.8225274536
 10
428.681471275
 20
284.5186609761
 10
428.2829890206
 20
285.1681844063
 10
427.7801890847
 20
285.6833760058
 10
427.2409773848
 20
285.9946562943
 10
426.7381774489
 20
286.0599851441
 10
426.3396951944
 20
285.8705395319
 10
426.0993478579
 20
285.4519051374
 10
426.049595679
 20
284.8606208554
 10
426.197157965
 20
284.1765429045
 10
426.5221056117
 20
283.4920598027
 10
426.9805526387
 20
282.8996147856
 10
427.5105832347
 20
282.4792208357
  0
LWPOLYLINE
  5
262
330
1F
100
AcDbEntity
  8
0
  6
Continuous
 62
     7
370
    15
100
AcDbPolyline
 90
       17
 70
   128
 43
0.0
 10
478.8407563896
 20
173.6829909846
 10
479.1654740497
 20
173.5701220315
 10
479.4407563896
 20
173.6236094774
 10
479.6246941686
 20
173.8353103434
 10
479.6892845271
 20
174.1729950917
 10
479.6246941686
 20
174.5852542807
 10
479.4407563896
 20
175.0093251858
 10
479.1654740497
 20
175.380646856
 10
478.8407563896
 20
175.6426889331
 10
478.5160387296
 20
175.7555578862
 10
478.2407563896
 20
175.7020704403
 10
478.0568186107
 20
175.4903695743
 10
477.9922282522
 20
175.1526848259
 10
478.0568186107
 20
174.740425637
 10
478.2407563896
 20
174.3163547319
 10
478.5160387296
 20
173.9450330616
 10
478.8407563896
 20
173.6829909846
  0
LWPOLYLINE
  5
263
330
1F
100
AcDbEntity
  8
0
  6
Continuous
 62
     7
370
    15
100
AcDbPolyline
 90
       17
 70
   128
 43
0.0
 10
447.0209512362
 20
228.7965100354
 10
447.3456688963
 20
228.6836410824
 10
447.6209512362
 20
228.7371285282
 10
447.8048890152
 20
228.9488293942
 10
447.8694793737
 20
229.2865141426
 10
447.8048890152
 20
229.6987733316
 10
447.6209512362
 20
230.1228442367
 10
447.3456688963
 20
230.4941659069
 10
447.0209512362
 20
230.756207984
 10
446.6962335762
 20
230.8690769371
 10
446.4209512362
 20
230.8155894912
 10
446.2370134573
 20
230.6038886252
 10
446.1724230988
 20
230.2662038768
 10
446.2370134573
 20
229.8539446879
 10
446.4209512362
 20
229.4298737827
 10
446.6962335762
 20
229.0585521125
 10
447.0209512362
 20
228.7965100354
  0
LWPOLYLINE
  5
264
330
1F
100
AcDbEntity
  8
0
  6
Continuous
 62
     7
370
    15
100
AcDbPolyline
 90
       17
 70
   128
 43
0.0
 10
454.0920190481
 20
274.6867671637
 10
453.0573963758
 20
275.1663700986
 10
452.0625336726
 20
275.3921981205
 10
451.1456629542
 20
275.3555727852
 10
450.3420190481
 20
275.0579015839
 10
449.682485539
 20
274.5106238539
 10
449.1924079298
 20
273.7347711714
 10
448.8906196282
 20
272.7601591199
 10
448.7887181892
 20
271.6242414939
 10
448.8906196282
 20
270.3706709709
 10
449.1924079298
 20
269.047621563
 10
449.682485539
 20
267.7059373169
 10
450.3420190481
 20
266.3971784059
 10
451.1456629542
 20
265.1716397009
 10
452.0625336726
 20
264.0764179671
 10
453.0573963758
 20
263.1536019614
 10
454.0920190481
 20
262.4386549855
  0
LINE
  5
265
330
1F
100
AcDbEntity
  8
0
  6
Continuous
 62
     7
370
    15
100
AcDbLine
 10
454.0920190481
 20
262.4386549855
 30
0.0
 11
471.7696885778
 21
252.2335535877
 31
0.0
  0
LWPOLYLINE
  5
266
330
1F
100
AcDbEntity
  8
0
  6
Continuous
 62
     7
370
    15
100
AcDbPolyline
 90
       17
 70
   128
 43
0.0
 10
471.7696885778
 20
252.2335535877
 10
472.8043112501
 20
251.7539506529
 10
473.7991739533
 20
251.5281226309
 10
474.7160446717
 20
251.5647479662
 10
475.5196885778
 20
251.8624191675
 10
476.1792220868
 20
252.4096968975
 10
476.6692996961
 20
253.18554958
 10
476.9710879977
 20
254.1601616315
 10
477.0729894367
 20
255.2960792575
 10
476.9710879977
 20
256.5496497805
 10
476.6692996961
 20
257.8726991884
 10
476.1792220868
 20
259.2143834345
 10
475.5196885778
 20
260.5231423455
 10
474.7160446717
 20
261.7486810505
 10
473.7991739533
 20
262.8439027844
 10
472.8043112501
 20
263.76671879
 10
471.7696885778
 20
264.481665766
  0
LINE
  5
267
330
1F
100
AcDbEntity
  8
0
  6
Continuous
 62
     7
370
    15
100
AcDbLine
 10
471.7696885778
 20
264.481665766
 30
0.0
 11
454.0920190481
 21
274.6867671637
 31
0.0
  0
LWPOLYLINE
  5
268
330
1F
100
AcDbEntity
  8
0
  6
Continuous
 62
     7
370
    15
100
AcDbPolyline
 90
       43
 70
   128
 43
0.0
 10
413.4333791299
 20
220.9953936554
 10
414.698044695
 20
220.3747587994
 10
415.9344597213
 20
219.9868699699
 10
417.11500474
 20
219.8403919623
 10
418.2133083263
 20
219.9385968532
 10
419.204836193
 20
220.2792909078
 10
420.0674392459
 20
220.8548635837
 10
420.7818483582
 20
221.6524575386
 10
421.332104811
 20
222.6542558414
 10
421.7059167843
 20
223.8378799735
 10
421.8949339364
 20
225.1768897276
 10
421.8949339364
 20
226.6413738386
 10
421.7059167843
 20
228.1986181513
 10
421.332104811
 20
229.813836401
 10
420.7818483582
 20
231.4509472812
 10
420.0674392459
 20
233.07338044
 10
419.204836193
 20
234.6448934017
 10
418.2133083263
 20
236.1303811634
 10
417.11500474
 20
237.4966603834
 10
415.9344597213
 20
238.7132106416
 10
414.698044695
 20
239.7528562154
 10
413.4333791299
 20
240.5923731407
 10
412.1687135647
 20
241.2130079967
 10
410.9322985385
 20
241.6008968262
 10
409.7517535198
 20
241.7473748339
 10
408.6534499335
 20
241.6491699429
 10
407.6619220668
 20
241.3084758884
 10
406.7993190139
 20
240.7329032124
 10
406.0849099015
 20
239.9353092576
 10
405.5346534487
 20
238.9335109547
 10
405.1608414754
 20
237.7498868226
 10
404.9718243233
 20
236.4108770685
 10
404.9718243233
 20
234.9463929576
 10
405.1608414754
 20
233.3891486449
 10
405.5346534487
 20
231.7739303951
 10
406.0849099015
 20
230.1368195149
 10
406.7993190139
 20
228.5143863561
 10
407.6619220668
 20
226.9428733945
 10
408.6534499335
 20
225.4573856327
 10
409.7517535198
 20
224.0911064127
 10
410.9322985385
 20
222.8745561546
 10
412.1687135647
 20
221.8349105808
 10
413.4333791299
 20
220.9953936554
  0
LINE
  5
269
330
1F
100
AcDbEntity
  8
0
  6
Continuous
 62
     7
370
    15
100
AcDbLine
 10
519.6452102472
 20
227.4954794508
 30
0.0
 11
505.8408911392
 21
333.2478111153
 31
0.0
  0
ARC
  5
26A
330
1F
100
AcDbEntity
  8
0
  6
Continuous
 62
     7
370
    15
100
AcDbCircle
 10
527.5830591101
 20
228.7059646162
 30
0.0
 40
8.029615115652359
100
AcDbArc
 50
188.6705419634
 51
231.3294581822
  0
LINE
  5
26B
330
1F
100
AcDbEntity
  8
0
  6
Continuous
 62
     7
370
    15
100
AcDbLine
 10
545.4591243248
 20
204.911131138
 30
0.0
 11
522.5658237905
 21
222.4368284194
 31
0.0
  0
ARC
  5
26C
330
1F
100
AcDbEntity
  8
0
  6
Continuous
 62
     7
370
    15
100
AcDbCircle
 10
540.4418890052
 20
198.6419949412
 30
0.0
 40
8.029615115652813
100
AcDbArc
 50
8.6705419634
 51
51.3294581822
  0
LINE
  5
26D
330
1F
100
AcDbEntity
  8
0
  6
Continuous
 62
     7
370
    15
100
AcDbLine
 10
561.2567016609
 20
101.2044457339
 30
0.0
 11
548.3797378681
 21
199.8524801066
 31
0.0
  0
LWPOLYLINE
  5
26E
330
1F
100
AcDbEntity
  8
0
  6
Continuous
 62
     7
370
    15
100
AcDbPolyline
 90
        9
 70
   128
 43
0.0
 10
557.7672314822
 20
98.479275284
 10
558.5268796939
 20
98.1360926982
 10
559.251044202
 20
97.9996463975
 10
559.9058987721
 20
98.0763098849
 10
560.4608546855
 20
98.3625021547
 10
560.8899895602
 20
98.8448549643
 10
561.1732582038
 20
99.500837274
 10
561.2974289382
 20
100.2998076876
 10
561.2567016609
 20
101.2044457339
  0
LINE
  5
26F
330
1F
100
AcDbEntity
  8
0
  6
Continuous
 62
     7
370
    15
100
AcDbLine
 10
368.0944761437
 20
207.9750262583
 30
0.0
 11
557.7672314822
 21
98.479275284
 31
0.0
  0
ARC
  5
270
330
1F
100
AcDbEntity
  8
0
  6
Continuous
 62
     7
370
    15
100
AcDbCircle
 10
372.0349871654
 20
214.2893239513
 30
0.0
 40
7.442982095131567
100
AcDbArc
 50
176.6130093317
 51
238.0332945864
  0
LINE
  5
271
330
1F
100
AcDbEntity
  8
0
  6
Continuous
 62
     7
370
    15
100
AcDbLine
 10
377.4819697578
 20
298.5096616595
 30
0.0
 11
364.605005965
 21
214.72905322
 31
0.0
  0
ARC
  5
272
330
1F
100
AcDbEntity
  8
0
  6
Continuous
 62
     7
370
    15
100
AcDbCircle
 10
379.4886921395
 20
298.4067383066
 30
0.0
 40
2.009360080609064
100
AcDbArc
 50
62.9468384821
 51
177.0639132726
  0
LINE
  5
273
330
1F
100
AcDbEntity
  8
0
  6
Continuous
 62
     7
370
    15
100
AcDbLine
 10
403.2958838354
 20
291.2898991767
 30
0.0
 11
380.4025833011
 21
300.1962440703
 31
0.0
  0
ARC
  5
274
330
1F
100
AcDbEntity
  8
0
  6
Continuous
 62
     7
370
    15
100
AcDbCircle
 10
404.209774997
 20
293.0794049404
 30
0.0
 40
2.009360080609002
100
AcDbArc
 50
242.9468384821
 51
357.0639132726
  0
LINE
  5
275
330
1F
100
AcDbEntity
  8
0
  6
Continuous
 62
     7
370
    15
100
AcDbLine
 10
420.0208164867
 20
382.7906856625
 30
0.0
 11
406.2164973787
 21
292.9764815875
 31
0.0
  0
LWPOLYLINE
  5
276
330
1F
100
AcDbEntity
  8
0
  6
Continuous
 62
     7
370
    15
100
AcDbPolyline
 90
        9
 70
   128
 43
0.0
 10
423.5102866654
 20
384.2020668197
 10
422.8907194139
 20
384.4965585172
 10
422.2903268638
 20
384.6555823996
 10
421.7276902877
 20
384.6742169099
 10
421.2202224657
 20
384.5518853373
 10
420.7836287857
 20
384.2923736652
 10
420.4314211844
 20
383.903713401
 10
420.1744999727
 20
383.397933012
 10
420.0208164867
 20
382.7906856625
  0
LINE
  5
277
330
1F
100
AcDbEntity
  8
0
  6
Continuous
 62
     7
370
    15
100
AcDbLine
 10
502.3514209605
 20
338.6880487843
 30
0.0
 11
423.5102866654
 21
384.2020668197
 31
0.0
  0
ARC
  5
278
330
1F
100
AcDbEntity
  8
0
  6
Continuous
 62
     7
370
    15
100
AcDbCircle
 10
498.1071457233
 20
332.1264667259
 30
0.0
 40
7.814616522775889
100
AcDbArc
 50
8.2500338923
 51
57.1037093831
  0
LWPOLYLINE
  5
279
330
1F
100
AcDbEntity
  8
0
  6
Continuous
 62
     7
370
    15
100
AcDbPolyline
 90
       43
 70
   128
 43
0.0
 10
462.9308538129
 20
302.6541193462
 10
464.1955193781
 20
302.0334844902
 10
465.4319344043
 20
301.6455956607
 10
466.6124794231
 20
301.4991176531
 10
467.7107830094
 20
301.597322544
 10
468.702310876
 20
301.9380165986
 10
469.5649139289
 20
302.5135892745
 10
470.2793230413
 20
303.3111832294
 10
470.8295794941
 20
304.3129815322
 10
471.2033914674
 20
305.4966056643
 10
471.3924086195
 20
306.8356154184
 10
471.3924086195
 20
308.3000995294
 10
471.2033914674
 20
309.8573438421
 10
470.8295794941
 20
311.4725620918
 10
470.2793230413
 20
313.109672972
 10
469.5649139289
 20
314.7321061308
 10
468.702310876
 20
316.3036190925
 10
467.7107830094
 20
317.7891068542
 10
466.6124794231
 20
319.1553860742
 10
465.4319344043
 20
320.3719363323
 10
464.1955193781
 20
321.4115819062
 10
462.9308538129
 20
322.2510988315
 10
461.6661882478
 20
322.8717336875
 10
460.4297732216
 20
323.259622517
 10
459.2492282028
 20
323.4061005246
 10
458.1509246165
 20
323.3078956337
 10
457.1593967499
 20
322.9672015791
 10
456.296793697
 20
322.3916289032
 10
455.5823845846
 20
321.5940349483
 10
455.0321281318
 20
320.5922366455
 10
454.6583161585
 20
319.4086125134
 10
454.4692990064
 20
318.0696027593
 10
454.4692990064
 20
316.6051186483
 10
454.6583161585
 20
315.0478743356
 10
455.0321281318
 20
313.4326560859
 10
455.5823845846
 20
311.7955452057
 10
456.296793697
 20
310.1731120469
 10
457.1593967499
 20
308.6015990853
 10
458.1509246165
 20
307.1161113235
 10
459.2492282028
 20
305.7498321035
 10
460.4297732216
 20
304.5332818454
 10
461.6661882478
 20
303.4936362716
 10
462.9308538129
 20
302.6541193462
  0
LWPOLYLINE
  5
27A
330
1F
100
AcDbEntity
  8
0
  6
Continuous
 62
     7
370
    15
100
AcDbPolyline
 90
       43
 70
   128
 43
0.0
 10
512.428328496
 20
163.8468258279
 10
513.6929940612
 20
163.2261909719
 10
514.9294090874
 20
162.8383021423
 10
516.1099541061
 20
162.6918241347
 10
517.2082576924
 20
162.7900290257
 10
518.1997855591
 20
163.1307230802
 10
519.062388612
 20
163.7062957561
 10
519.7767977244
 20
164.503889711
 10
520.3270541771
 20
165.5056880138
 10
520.7008661505
 20
166.6893121459
 10
520.8898833025
 20
168.0283219001
 10
520.8898833025
 20
169.492806011
 10
520.7008661505
 20
171.0500503237
 10
520.3270541771
 20
172.6652685734
 10
519.7767977244
 20
174.3023794536
 10
519.062388612
 20
175.9248126124
 10
518.1997855591
 20
177.4963255741
 10
517.2082576924
 20
178.9818133358
 10
516.1099541061
 20
180.3480925558
 10
514.9294090874
 20
181.564642814
 10
513.6929940612
 20
182.6042883878
 10
512.428328496
 20
183.4438053131
 10
511.1636629308
 20
184.0644401691
 10
509.9272479046
 20
184.4523289987
 10
508.7467028859
 20
184.5988070063
 10
507.6483992996
 20
184.5006021153
 10
506.6568714329
 20
184.1599080608
 10
505.79426838
 20
183.5843353848
 10
505.0798592677
 20
182.78674143
 10
504.5296028149
 20
181.7849431272
 10
504.1557908415
 20
180.6013189951
 10
503.9667736895
 20
179.2623092409
 10
503.9667736895
 20
177.79782513
 10
504.1557908415
 20
176.2405808173
 10
504.5296028149
 20
174.6253625675
 10
505.0798592677
 20
172.9882516873
 10
505.79426838
 20
171.3658185285
 10
506.6568714329
 20
169.7943055669
 10
507.6483992996
 20
168.3088178051
 10
508.7467028859
 20
166.9425385851
 10
509.9272479046
 20
165.725988327
 10
511.1636629308
 20
164.6863427532
 10
512.428328496
 20
163.8468258279
  0
LWPOLYLINE
  5
27B
330
1F
100
AcDbEntity
  8
0
  6
Continuous
 62
     7
370
    15
100
AcDbPolyline
 90
       17
 70
   128
 43
0.0
 10
454.0920190481
 20
250.1905428072
 10
453.0573963758
 20
250.670145742
 10
452.0625336726
 20
250.8959737639
 10
451.1456629542
 20
250.8593484287
 10
450.3420190481
 20
250.5616772273
 10
449.682485539
 20
250.0143994973
 10
449.1924079298
 20
249.2385468148
 10
448.8906196282
 20
248.2639347633
 10
448.7887181892
 20
247.1280171374
 10
448.8906196282
 20
245.8744466143
 10
449.1924079298
 20
244.5513972064
 10
449.682485539
 20
243.2097129604
 10
450.3420190481
 20
241.9009540493
 10
451.1456629542
 20
240.6754153443
 10
452.0625336726
 20
239.5801936105
 10
453.0573963758
 20
238.6573776048
 10
454.0920190481
 20
237.9424306289
  0
LINE
  5
27C
330
1F
100
AcDbEntity
  8
0
  6
Continuous
 62
     7
370
    15
100
AcDbLine
 10
454.0920190481
 20
237.9424306289
 30
0.0
 11
471.7696885778
 21
227.7373292311
 31
0.0
  0
LWPOLYLINE
  5
27D
330
1F
100
AcDbEntity
  8
0
  6
Continuous
 62
     7
370
    15
100
AcDbPolyline
 90
       17
 70
   128
 43
0.0
 10
471.7696885778
 20
227.7373292311
 10
472.8043112501
 20
227.2577262963
 10
473.7991739533
 20
227.0318982744
 10
474.7160446717
 20
227.0685236096
 10
475.5196885778
 20
227.3661948109
 10
476.1792220868
 20
227.913472541
 10
476.6692996961
 20
228.6893252235
 10
476.9710879977
 20
229.663937275
 10
477.0729894367
 20
230.7998549009
 10
476.9710879977
 20
232.0534254239
 10
476.6692996961
 20
233.3764748318
 10
476.1792220868
 20
234.7181590779
 10
475.5196885778
 20
236.0269179889
 10
474.7160446717
 20
237.2524566939
 10
473.7991739533
 20
238.3476784278
 10
472.8043112501
 20
239.2704944335
 10
471.7696885778
 20
239.9854414094
  0
LINE
  5
27E
330
1F
100
AcDbEntity
  8
0
  6
Continuous
 62
     7
370
    15
100
AcDbLine
 10
471.7696885778
 20
239.9854414094
 30
0.0
 11
454.0920190481
 21
250.1905428072
 31
0.0
  0
LWPOLYLINE
  5
27F
330
1F
100
AcDbEntity
  8
0
  6
Continuous
 62
     7
370
    15
100
AcDbPolyline
 90
       17
 70
   128
 43
0.0
 10
478.8407563896
 20
210.4273275194
 10
479.1654740497
 20
210.3144585664
 10
479.4407563896
 20
210.3679460122
 10
479.6246941686
 20
210.5796468782
 10
479.6892845271
 20
210.9173316266
 10
479.6246941686
 20
211.3295908156
 10
479.4407563896
 20
211.7536617207
 10
479.1654740497
 20
212.1249833909
 10
478.8407563896
 20
212.387025468
 10
478.5160387296
 20
212.499894421
 10
478.2407563896
 20
212.4464069752
 10
478.0568186107
 20
212.2347061092
 10
477.9922282522
 20
211.8970213608
 10
478.0568186107
 20
211.4847621718
 10
478.2407563896
 20
211.0606912667
 10
478.5160387296
 20
210.6893695965
 10
478.8407563896
 20
210.4273275194
  0
LWPOLYLINE
  5
280
330
1F
100
AcDbEntity
  8
0
  6
Continuous
 62
     7
370
    15
100
AcDbPolyline
 90
       17
 70
   128
 43
0.0
 10
447.0209512362
 20
192.0521735006
 10
447.3456688963
 20
191.9393045475
 10
447.6209512362
 20
191.9927919934
 10
447.8048890152
 20
192.2044928594
 10
447.8694793737
 20
192.5421776078
 10
447.8048890152
 20
192.9544367967
 10
447.6209512362
 20
193.3785077018
 10
447.3456688963
 20
193.7498293721
 10
447.0209512362
 20
194.0118714491
 10
446.6962335762
 20
194.1247404022
 10
446.4209512362
 20
194.0712529563
 10
446.2370134573
 20
193.8595520903
 10
446.1724230988
 20
193.5218673419
 10
446.2370134573
 20
193.109608153
 10
446.4209512362
 20
192.6855372479
 10
446.6962335762
 20
192.3142155776
 10
447.0209512362
 20
192.0521735006
  0
LWPOLYLINE
  5
281
330
1F
100
AcDbEntity
  8
0
  6
Continuous
 62
     7
370
    15
100
AcDbPolyline
 90
       18
 70
   128
 43
0.0
 10
498.3511243912
 20
241.5838469086
 10
498.8811549872
 20
241.3922805583
 10
499.3396020142
 20
241.4554139047
 10
499.6645496608
 20
241.7647204395
 10
499.8121119469
 20
242.2784266014
 10
499.762359768
 20
242.9271535265
 10
499.5220124315
 20
243.623287049
 10
499.123530177
 20
244.2728104792
 10
498.6207302411
 20
244.7880020787
 10
498.0815185412
 20
245.0992823672
 10
497.5787186053
 20
245.164611217
 10
497.1802363509
 20
244.9751656048
 10
496.9398890143
 20
244.5565312103
 10
496.8901368354
 20
243.9652469283
 10
497.0376991215
 20
243.2811689774
 10
497.3626467681
 20
242.5966858756
 10
497.8210937952
 20
242.0042408585
 10
498.3511243912
 20
241.5838469086
  0
LINE
  5
282
330
1F
100
AcDbEntity
  8
0
  6
Continuous
 62
     7
370
    15
100
AcDbLine
 10
546.6743170135
 20
114.8195199279
 30
0.0
 11
550.2164051345
 21
114.0579387649
 31
0.0
  0
LINE
  5
283
330
1F
100
AcDbEntity
  8
0
  6
Continuous
 62
     7
370
    15
100
AcDbLine
 10
550.2164051345
 20
114.0579387649
 30
0.0
 11
543.8452766972
 21
141.1868093076
 31
0.0
  0
LINE
  5
284
330
1F
100
AcDbEntity
  8
0
  6
Continuous
 62
     7
370
    15
100
AcDbLine
 10
543.8452766972
 20
141.1868093076
 30
0.0
 11
540.3031885762
 21
141.9483904706
 31
0.0
  0
LINE
  5
285
330
1F
100
AcDbEntity
  8
0
  6
Continuous
 62
     7
370
    15
100
AcDbLine
 10
540.3031885762
 20
141.9483904706
 30
0.0
 11
546.6743170135
 21
114.8195199279
 31
0.0
  0
LINE
  5
286
330
1F
100
AcDbEntity
  8
0
  6
Continuous
 62
     7
370
    15
100
AcDbLine
 10
423.6371238955
 20
349.4582846473
 30
0.0
 11
430.0082523328
 21
369.2312068721
 31
0.0
  0
LINE
  5
287
330
1F
100
AcDbEntity
  8
0
  6
Continuous
 62
     7
370
    15
100
AcDbLine
 10
430.0082523328
 20
369.2312068721
 30
0.0
 11
426.4661642118
 21
372.5592336038
 31
0.0
  0
LINE
  5
288
330
1F
100
AcDbEntity
  8
0
  6
Continuous
 62
     7
370
    15
100
AcDbLine
 10
426.4661642118
 20
372.5592336038
 30
0.0
 11
420.0950357745
 21
352.786311379
 31
0.0
  0
LINE
  5
289
330
1F
100
AcDbEntity
  8
0
  6
Continuous
 62
     7
370
    15
100
AcDbLine
 10
420.0950357745
 20
352.786311379
 30
0.0
 11
423.6371238955
 21
349.4582846473
 31
0.0
  0
LINE
  5
28A
330
1F
100
AcDbEntity
  8
0
  6
Continuous
 62
     7
370
    15
100
AcDbLine
 10
379.1873906124
 20
211.5076644742
 30
0.0
 11
385.5585190497
 21
231.280586699
 31
0.0
  0
LINE
  5
28B
330
1F
100
AcDbEntity
  8
0
  6
Continuous
 62
     7
370
    15
100
AcDbLine
 10
385.5585190497
 20
231.280586699
 30
0.0
 11
382.0164309287
 21
234.6086134308
 31
0.0
  0
LINE
  5
28C
330
1F
100
AcDbEntity
  8
0
  6
Continuous
 62
     7
370
    15
100
AcDbLine
 10
382.0164309287
 20
234.6086134308
 30
0.0
 11
375.6453024914
 21
214.8356912059
 31
0.0
  0
LINE
  5
28D
330
1F
100
AcDbEntity
  8
0
  6
Continuous
 62
     7
370
    15
100
AcDbLine
 10
375.6453024914
 20
214.8356912059
 30
0.0
 11
379.1873906124
 21
211.5076644742
 31
0.0
  0
LINE
  5
28E
330
1F
100
AcDbEntity
  8
0
  6
Continuous
 62
     7
370
    15
100
AcDbLine
 10
499.3955434141
 20
330.4579991403
 30
0.0
 11
495.8534552931
 21
331.2195803033
 31
0.0
  0
LINE
  5
28F
330
1F
100
AcDbEntity
  8
0
  6
Continuous
 62
     7
370
    15
100
AcDbLine
 10
495.8534552931
 20
331.2195803033
 30
0.0
 11
502.2245837304
 21
304.0907097606
 31
0.0
  0
LINE
  5
290
330
1F
100
AcDbEntity
  8
0
  6
Continuous
 62
     7
370
    15
100
AcDbLine
 10
502.2245837304
 20
304.0907097606
 30
0.0
 11
505.7666718514
 21
303.3291285976
 31
0.0
  0
LINE
  5
291
330
1F
100
AcDbEntity
  8
0
  6
Continuous
 62
     7
370
    15
100
AcDbLine
 10
505.7666718514
 20
303.3291285976
 30
0.0
 11
499.3955434141
 21
330.4579991403
 31
0.0
  0
LINE
  5
292
330
1F
100
AcDbEntity
  8
0
  6
Continuous
 62
     7
370
    15
100
AcDbLine
 10
519.6452102472
 20
227.4954794508
 30
0.0
 11
523.1807441531
 21
229.5364997304
 31
0.0
  0
LINE
  5
293
330
1F
100
AcDbEntity
  8
0
  6
Continuous
 62
     7
370
    15
100
AcDbLine
 10
505.8408911392
 20
333.2478111153
 30
0.0
 11
509.3764250452
 21
335.2888313949
 31
0.0
  0
LINE
  5
294
330
1F
100
AcDbEntity
  8
0
  6
Continuous
 62
     7
370
    15
100
AcDbLine
 10
523.1807441531
 20
229.5364997304
 30
0.0
 11
509.3764250452
 21
335.2888313949
 31
0.0
  0
LINE
  5
295
330
1F
100
AcDbEntity
  8
0
  6
Continuous
 62
     7
370
    15
100
AcDbLine
 10
502.3514209605
 20
338.6880487843
 30
0.0
 11
505.8869548664
 21
340.7290690638
 31
0.0
  0
ARC
  5
296
330
1F
100
AcDbEntity
  8
0
  6
Continuous
 62
     7
370
    15
100
AcDbCircle
 10
501.6426796293
 20
334.1674870054
 30
0.0
 40
7.814616522775826
100
AcDbArc
 50
8.2500338923
 51
57.1037093831
  0
LINE
  5
297
330
1F
100
AcDbEntity
  8
0
  6
Continuous
 62
     7
370
    15
100
AcDbLine
 10
423.5102866654
 20
384.2020668197
 30
0.0
 11
427.0458205713
 21
386.2430870993
 31
0.0
  0
LINE
  5
298
330
1F
100
AcDbEntity
  8
0
  6
Continuous
 62
     7
370
    15
100
AcDbLine
 10
505.8869548664
 20
340.7290690638
 30
0.0
 11
427.0458205713
 21
386.2430870993
 31
0.0
  0
LINE
  5
299
330
1F
100
AcDbEntity
  8
0
  6
Continuous
 62
     7
370
    15
100
AcDbLine
 10
505.1862865456
 20
305.8004644027
 30
0.0
 11
502.2245837304
 21
304.0907097606
 31
0.0
  0
LINE
  5
29A
330
1F
100
AcDbEntity
  8
0
  6
Continuous
 62
     7
370
    15
100
AcDbLine
 10
561.2567016609
 20
101.2044457339
 30
0.0
 11
564.7922355669
 21
103.2454660134
 31
0.0
  0
LINE
  5
29B
330
1F
100
AcDbEntity
  8
0
  6
Continuous
 62
     7
370
    15
100
AcDbLine
 10
548.3797378681
 20
199.8524801066
 30
0.0
 11
551.915271774
 21
201.8935003861
 31
0.0
  0
LINE
  5
29C
330
1F
100
AcDbEntity
  8
0
  6
Continuous
 62
     7
370
    15
100
AcDbLine
 10
564.7922355669
 20
103.2454660134
 30
0.0
 11
551.915271774
 21
201.8935003861
 31
0.0
  0
LINE
  5
29D
330
1F
100
AcDbEntity
  8
0
  6
Continuous
 62
     7
370
    15
100
AcDbLine
 10
545.4591243248
 20
204.911131138
 30
0.0
 11
548.9946582307
 21
206.9521514175
 31
0.0
  0
LINE
  5
29E
330
1F
100
AcDbEntity
  8
0
  6
Continuous
 62
     7
370
    15
100
AcDbLine
 10
522.5658237905
 20
222.4368284194
 30
0.0
 11
526.1013576964
 21
224.477848699
 31
0.0
  0
LINE
  5
29F
330
1F
100
AcDbEntity
  8
0
  6
Continuous
 62
     7
370
    15
100
AcDbLine
 10
548.9946582307
 20
206.9521514175
 30
0.0
 11
526.1013576964
 21
224.477848699
 31
0.0
  0
ARC
  5
2A0
330
1F
100
AcDbEntity
  8
0
  6
Continuous
 62
     7
370
    15
100
AcDbCircle
 10
543.9774229111
 20
200.6830152208
 30
0.0
 40
8.02961511565429
100
AcDbArc
 50
8.6705419634
 51
51.3294581822
  0
ARC
  5
2A1
330
1F
100
AcDbEntity
  8
0
  6
Continuous
 62
     7
370
    15
100
AcDbCircle
 10
470.4250524207
 20
310.9119639551
 30
0.0
 40
7.370205625555776
100
AcDbArc
 50
237.512386512
 51
270.0530117822
  0
LWPOLYLINE
  5
2A2
330
1F
100
AcDbEntity
  8
0
  6
Continuous
 62
     7
370
    15
100
AcDbPolyline
 90
       15
 70
   128
 43
0.0
 10
458.9653699757
 20
323.4044769731
 10
458.5676620377
 20
322.6332569251
 10
458.1938500644
 20
321.449632793
 10
458.0048329123
 20
320.1106230388
 10
458.0048329123
 20
318.6461389279
 10
458.1938500644
 20
317.0888946152
 10
458.5676620377
 20
315.4736763654
 10
459.1179184905
 20
313.8365654853
 10
459.8323276029
 20
312.2141323265
 10
460.6949306558
 20
310.6426193648
 10
461.6864585225
 20
309.157131603
 10
462.7847621088
 20
307.7908523831
 10
463.9653071275
 20
306.5743021249
 10
465.2017221537
 20
305.5346565511
 10
466.4663877189
 20
304.6951396258
  0
ARC
  5
2A3
330
1F
100
AcDbEntity
  8
0
  6
Continuous
 62
     7
370
    15
100
AcDbCircle
 10
531.118593016
 20
230.7469848957
 30
0.0
 40
8.029615115653188
100
AcDbArc
 50
188.6705419634
 51
231.3294581822
  0
ARC
  5
2A4
330
1F
100
AcDbEntity
  8
0
  6
Continuous
 62
     7
370
    15
100
AcDbCircle
 10
425.5893596374
 20
384.2808759634
 30
0.0
 40
2.443675713707416
100
AcDbArc
 50
53.4151652204
 51
115.2743763505
  0
LINE
  5
2A5
330
1F
100
AcDbEntity
  8
0
  6
Continuous
 62
     7
370
    15
100
AcDbLine
 10
423.6305696805
 20
354.8273316586
 30
0.0
 11
420.0950357745
 21
352.786311379
 31
0.0
  0
LINE
  5
2A6
330
1F
100
AcDbEntity
  8
0
  6
Continuous
 62
     7
370
    15
100
AcDbLine
 10
428.6752635737
 20
370.4836382267
 30
0.0
 11
423.6305696805
 21
354.8273316586
 31
0.0
  0
LINE
  5
2A7
330
1F
100
AcDbEntity
  8
0
  6
Continuous
 62
     7
370
    15
100
AcDbLine
 10
471.7696885778
 20
252.2335535877
 30
0.0
 11
475.3052224837
 21
254.2745738672
 31
0.0
  0
LWPOLYLINE
  5
2A8
330
1F
100
AcDbEntity
  8
0
  6
Continuous
 62
     7
370
    15
100
AcDbPolyline
 90
        3
 70
   128
 43
0.0
 10
475.3052224837
 20
254.2745738672
 10
476.339845156
 20
253.7949709324
 10
476.8444526707
 20
253.6496120539
  0
LINE
  5
2A9
330
1F
100
AcDbEntity
  8
0
  6
Continuous
 62
     7
370
    15
100
AcDbLine
 10
549.6360198287
 20
116.52927457
 30
0.0
 11
546.6743170135
 21
114.8195199279
 31
0.0
  0
LINE
  5
2AA
330
1F
100
AcDbEntity
  8
0
  6
Continuous
 62
     7
370
    15
100
AcDbLine
 10
423.6305696805
 20
354.8273316586
 30
0.0
 11
424.9635584396
 21
353.574900304
 31
0.0
  0
ARC
  5
2AB
330
1F
100
AcDbEntity
  8
0
  6
Continuous
 62
     7
370
    15
100
AcDbCircle
 10
519.9225271037
 20
172.1046704367
 30
0.0
 40
7.37020562555879
100
AcDbArc
 50
237.512386512
 51
270.0530117822
  0
LWPOLYLINE
  5
2AC
330
1F
100
AcDbEntity
  8
0
  6
Continuous
 62
     7
370
    15
100
AcDbPolyline
 90
       15
 70
   128
 43
0.0
 10
508.4628446588
 20
184.5971834547
 10
508.0651367208
 20
183.8259634067
 10
507.6913247475
 20
182.6423392746
 10
507.5023075954
 20
181.3033295205
 10
507.5023075954
 20
179.8388454095
 10
507.6913247475
 20
178.2816010968
 10
508.0651367208
 20
176.6663828471
 10
508.6153931736
 20
175.0292719669
 10
509.329802286
 20
173.4068388081
 10
510.1924053389
 20
171.8353258464
 10
511.1839332055
 20
170.3498380847
 10
512.2822367918
 20
168.9835588647
 10
513.4627818105
 20
167.7670086066
 10
514.6991968368
 20
166.7273630327
 10
515.9638624019
 20
165.8878461074
  0
ARC
  5
2AD
330
1F
100
AcDbEntity
  8
0
  6
Continuous
 62
     7
370
    15
100
AcDbCircle
 10
562.0516819706
 20
102.5067536071
 30
0.0
 40
2.838367494464126
100
AcDbArc
 50
308.0873209366
 51
15.085466811
  0
LINE
  5
2AE
330
1F
100
AcDbEntity
  8
0
  6
Continuous
 62
     7
370
    15
100
AcDbLine
 10
454.0920190481
 20
262.4386549855
 30
0.0
 11
457.627552954
 21
264.479675265
 31
0.0
  0
LINE
  5
2AF
330
1F
100
AcDbEntity
  8
0
  6
Continuous
 62
     7
370
    15
100
AcDbLine
 10
457.627552954
 20
264.479675265
 30
0.0
 11
475.3052224837
 21
254.2745738672
 31
0.0
  0
LINE
  5
2B0
330
1F
100
AcDbEntity
  8
0
  6
Continuous
 62
     7
370
    15
100
AcDbLine
 10
471.7696885778
 20
227.7373292311
 30
0.0
 11
475.3052224837
 21
229.7783495107
 31
0.0
  0
LWPOLYLINE
  5
2B1
330
1F
100
AcDbEntity
  8
0
  6
Continuous
 62
     7
370
    15
100
AcDbPolyline
 90
        3
 70
   128
 43
0.0
 10
475.3052224837
 20
229.7783495107
 10
476.339845156
 20
229.2987465758
 10
476.8444526707
 20
229.1533876973
  0
LWPOLYLINE
  5
2B2
330
1F
100
AcDbEntity
  8
0
  6
Continuous
 62
     7
370
    15
100
AcDbPolyline
 90
       11
 70
   128
 43
0.0
 10
452.5527888611
 20
275.3117289771
 10
452.4261535341
 20
274.8011793994
 10
452.3242520951
 20
273.6652617735
 10
452.4261535341
 20
272.4116912505
 10
452.7279418358
 20
271.0886418426
 10
453.218019445
 20
269.7469575965
 10
453.877552954
 20
268.4381986855
 10
454.6811968601
 20
267.2126599805
 10
455.5980675785
 20
266.1174382466
 10
456.5929302817
 20
265.1946222409
 10
457.627552954
 20
264.479675265
  0
LINE
  5
2B3
330
1F
100
AcDbEntity
  8
0
  6
Continuous
 62
     7
370
    15
100
AcDbLine
 10
454.0920190481
 20
237.9424306289
 30
0.0
 11
457.627552954
 21
239.9834509084
 31
0.0
  0
LINE
  5
2B4
330
1F
100
AcDbEntity
  8
0
  6
Continuous
 62
     7
370
    15
100
AcDbLine
 10
457.627552954
 20
239.9834509084
 30
0.0
 11
475.3052224837
 21
229.7783495107
 31
0.0
  0
LWPOLYLINE
  5
2B5
330
1F
100
AcDbEntity
  8
0
  6
Continuous
 62
     7
370
    15
100
AcDbPolyline
 90
       11
 70
   128
 43
0.0
 10
452.5527888611
 20
250.8155046205
 10
452.4261535341
 20
250.3049550429
 10
452.3242520951
 20
249.1690374169
 10
452.4261535341
 20
247.9154668939
 10
452.7279418358
 20
246.592417486
 10
453.218019445
 20
245.2507332399
 10
453.877552954
 20
243.9419743289
 10
454.6811968601
 20
242.7164356239
 10
455.5980675785
 20
241.62121389
 10
456.5929302817
 20
240.6983978844
 10
457.627552954
 20
239.9834509084
  0
LINE
  5
2B6
330
1F
100
AcDbEntity
  8
0
  6
Continuous
 62
     7
370
    15
100
AcDbLine
 10
380.4025833011
 20
300.1962440703
 30
0.0
 11
383.938117207
 21
302.2372643499
 31
0.0
  0
LINE
  5
2B7
330
1F
100
AcDbEntity
  8
0
  6
Continuous
 62
     7
370
    15
100
AcDbLine
 10
406.3025946869
 20
293.5366512817
 30
0.0
 11
383.938117207
 21
302.2372643499
 31
0.0
  0
ARC
  5
2B8
330
1F
100
AcDbEntity
  8
0
  6
Continuous
 62
     7
370
    15
100
AcDbCircle
 10
420.9275777376
 20
229.2532382643
 30
0.0
 40
7.370205625557426
100
AcDbArc
 50
237.512386512
 51
270.0530117822
  0
LWPOLYLINE
  5
2B9
330
1F
100
AcDbEntity
  8
0
  6
Continuous
 62
     7
370
    15
100
AcDbPolyline
 90
       15
 70
   128
 43
0.0
 10
409.4678952927
 20
241.7457512823
 10
409.0701873547
 20
240.9745312343
 10
408.6963753814
 20
239.7909071022
 10
408.5073582293
 20
238.4518973481
 10
408.5073582293
 20
236.9874132371
 10
408.6963753814
 20
235.4301689244
 10
409.0701873547
 20
233.8149506747
 10
409.6204438075
 20
232.1778397945
 10
410.3348529198
 20
230.5554066357
 10
411.1974559727
 20
228.983893674
 10
412.1889838394
 20
227.4984059123
 10
413.2872874257
 20
226.1321266923
 10
414.4678324444
 20
224.9155764341
 10
415.7042474707
 20
223.8759308603
 10
416.9689130358
 20
223.036413935
  0
ARC
  5
2BA
330
1F
100
AcDbEntity
  8
0
  6
Continuous
 62
     7
370
    15
100
AcDbCircle
 10
383.001232287
 20
300.2279793436
 30
0.0
 40
2.216975324555469
100
AcDbArc
 50
65.0014069063
 51
116.6400216888
  0
LINE
  5
2BB
330
1F
100
AcDbEntity
  8
0
  6
Continuous
 62
     7
370
    15
100
AcDbLine
 10
379.1808363973
 20
216.8767114855
 30
0.0
 11
375.6453024914
 21
214.8356912059
 31
0.0
  0
LINE
  5
2BC
330
1F
100
AcDbEntity
  8
0
  6
Continuous
 62
     7
370
    15
100
AcDbLine
 10
384.2255302906
 20
232.5330180536
 30
0.0
 11
379.1808363973
 21
216.8767114855
 31
0.0
  0
LINE
  5
2BD
330
1F
100
AcDbEntity
  8
0
  6
Continuous
 62
     7
370
    15
100
AcDbLine
 10
379.1808363973
 20
216.8767114855
 30
0.0
 11
380.5138251565
 21
215.6242801309
 31
0.0
  0
LINE
  5
2BE
330
1F
100
AcDbEntity
  8
0
  6
Continuous
 62
     8
370
    15
100
AcDbLine
 10
403.2958838354
 20
291.2898991767
 30
0.0
 11
406.2164048774
 21
292.9758800871
 31
0.0
  0
LINE
  5
2BF
330
1F
100
AcDbEntity
  8
0
  6
Continuous
 62
     7
370
    15
100
AcDbLine
 10
69.2027727398
 20
31.5742984765
 30
0.0
 11
69.2027727398
 21
26.5742984765
 31
0.0
  0
LINE
  5
2C0
330
1F
100
AcDbEntity
  8
0
  6
Continuous
 62
     7
370
    15
100
AcDbLine
 10
347.4405557522
 20
26.5742984765
 30
0.0
 11
347.4405557522
 21
31.5742984765
 31
0.0
  0
LINE
  5
2C1
330
1F
100
AcDbEntity
  8
0
  6
Continuous
 62
     7
370
    15
100
AcDbLine
 10
269.0056209948
 20
26.5742984765
 30
0.0
 11
269.0056209948
 21
31.5742984765
 31
0.0
  0
LINE
  5
2C2
330
1F
100
AcDbEntity
  8
0
  6
Continuous
 62
     7
370
    15
100
AcDbLine
 10
264.0707649425
 20
26.5742984765
 30
0.0
 11
264.0707649425
 21
31.5742984765
 31
0.0
  0
LINE
  5
2C3
330
1F
100
AcDbEntity
  8
0
  6
Continuous
 62
     7
370
    15
100
AcDbLine
 10
269.0056209948
 20
31.5742984765
 30
0.0
 11
264.0707649425
 21
31.5742984765
 31
0.0
  0
LINE
  5
2C4
330
1F
100
AcDbEntity
  8
0
  6
Continuous
 62
     7
370
    15
100
AcDbLine
 10
269.0056209948
 20
26.5742984765
 30
0.0
 11
264.0707649425
 21
26.5742984765
 31
0.0
  0
LINE
  5
2C5
330
1F
100
AcDbEntity
  8
0
  6
Continuous
 62
     7
370
    15
100
AcDbLine
 10
152.5725635495
 20
26.5742984765
 30
0.0
 11
152.5725635495
 21
31.5742984765
 31
0.0
  0
LINE
  5
2C6
330
1F
100
AcDbEntity
  8
0
  6
Continuous
 62
     7
370
    15
100
AcDbLine
 10
264.0707649425
 20
31.5742984765
 30
0.0
 11
152.5725635495
 21
31.5742984765
 31
0.0
  0
LINE
  5
2C7
330
1F
100
AcDbEntity
  8
0
  6
Continuous
 62
     7
370
    15
100
AcDbLine
 10
264.0707649425
 20
26.5742984765
 30
0.0
 11
152.5725635495
 21
26.5742984765
 31
0.0
  0
LINE
  5
2C8
330
1F
100
AcDbEntity
  8
0
  6
Continuous
 62
     7
370
    15
100
AcDbLine
 10
147.6377074972
 20
26.5742984765
 30
0.0
 11
147.6377074972
 21
31.5742984765
 31
0.0
  0
LINE
  5
2C9
330
1F
100
AcDbEntity
  8
0
  6
Continuous
 62
     7
370
    15
100
AcDbLine
 10
152.5725635495
 20
31.5742984765
 30
0.0
 11
147.6377074972
 21
31.5742984765
 31
0.0
  0
LINE
  5
2CA
330
1F
100
AcDbEntity
  8
0
  6
Continuous
 62
     7
370
    15
100
AcDbLine
 10
152.5725635495
 20
26.5742984765
 30
0.0
 11
147.6377074972
 21
26.5742984765
 31
0.0
  0
LINE
  5
2CB
330
1F
100
AcDbEntity
  8
0
  6
Continuous
 62
     7
370
    15
100
AcDbLine
 10
128.1154521954
 20
26.5742984765
 30
0.0
 11
128.1154521954
 21
31.5742984765
 31
0.0
  0
LINE
  5
2CC
330
1F
100
AcDbEntity
  8
0
  6
Continuous
 62
     7
370
    15
100
AcDbLine
 10
147.6377074972
 20
31.5742984765
 30
0.0
 11
128.1154521954
 21
31.5742984765
 31
0.0
  0
LINE
  5
2CD
330
1F
100
AcDbEntity
  8
0
  6
Continuous
 62
     7
370
    15
100
AcDbLine
 10
147.6377074972
 20
26.5742984765
 30
0.0
 11
128.1154521954
 21
26.5742984765
 31
0.0
  0
LINE
  5
2CE
330
1F
100
AcDbEntity
  8
0
  6
Continuous
 62
     7
370
    15
100
AcDbLine
 10
288.5278762966
 20
26.5742984765
 30
0.0
 11
288.5278762966
 21
31.5742984765
 31
0.0
  0
LINE
  5
2CF
330
1F
100
AcDbEntity
  8
0
  6
Continuous
 62
     7
370
    15
100
AcDbLine
 10
288.5278762966
 20
31.5742984765
 30
0.0
 11
269.0056209948
 21
31.5742984765
 31
0.0
  0
LINE
  5
2D0
330
1F
100
AcDbEntity
  8
0
  6
Continuous
 62
     7
370
    15
100
AcDbLine
 10
288.5278762966
 20
26.5742984765
 30
0.0
 11
269.0056209948
 21
26.5742984765
 31
0.0
  0
LINE
  5
2D1
330
1F
100
AcDbEntity
  8
0
  6
Continuous
 62
     7
370
    15
100
AcDbLine
 10
292.65824758
 20
26.5742984765
 30
0.0
 11
292.65824758
 21
31.5742984765
 31
0.0
  0
LINE
  5
2D2
330
1F
100
AcDbEntity
  8
0
  6
Continuous
 62
     7
370
    15
100
AcDbLine
 10
292.65824758
 20
31.5742984765
 30
0.0
 11
288.5278762966
 21
31.5742984765
 31
0.0
  0
LINE
  5
2D3
330
1F
100
AcDbEntity
  8
0
  6
Continuous
 62
     7
370
    15
100
AcDbLine
 10
292.65824758
 20
26.5742984765
 30
0.0
 11
288.5278762966
 21
26.5742984765
 31
0.0
  0
LINE
  5
2D4
330
1F
100
AcDbEntity
  8
0
  6
Continuous
 62
     7
370
    15
100
AcDbLine
 10
123.9850809121
 20
26.5742984765
 30
0.0
 11
123.9850809121
 21
31.5742984765
 31
0.0
  0
LINE
  5
2D5
330
1F
100
AcDbEntity
  8
0
  6
Continuous
 62
     7
370
    15
100
AcDbLine
 10
128.1154521954
 20
31.5742984765
 30
0.0
 11
123.9850809121
 21
31.5742984765
 31
0.0
  0
LINE
  5
2D6
330
1F
100
AcDbEntity
  8
0
  6
Continuous
 62
     7
370
    15
100
AcDbLine
 10
128.1154521954
 20
26.5742984765
 30
0.0
 11
123.9850809121
 21
26.5742984765
 31
0.0
  0
LINE
  5
2D7
330
1F
100
AcDbEntity
  8
0
  6
Continuous
 62
     7
370
    15
100
AcDbLine
 10
325.0342636831
 20
26.5742984765
 30
0.0
 11
325.0342636831
 21
31.5742984765
 31
0.0
  0
LINE
  5
2D8
330
1F
100
AcDbEntity
  8
0
  6
Continuous
 62
     7
370
    15
100
AcDbLine
 10
325.0342636831
 20
31.5742984765
 30
0.0
 11
292.65824758
 21
31.5742984765
 31
0.0
  0
LINE
  5
2D9
330
1F
100
AcDbEntity
  8
0
  6
Continuous
 62
     7
370
    15
100
AcDbLine
 10
325.0342636831
 20
26.5742984765
 30
0.0
 11
292.65824758
 21
26.5742984765
 31
0.0
  0
LINE
  5
2DA
330
1F
100
AcDbEntity
  8
0
  6
Continuous
 62
     7
370
    15
100
AcDbLine
 10
91.6090648089
 20
26.5742984765
 30
0.0
 11
91.6090648089
 21
31.5742984765
 31
0.0
  0
LINE
  5
2DB
330
1F
100
AcDbEntity
  8
0
  6
Continuous
 62
     7
370
    15
100
AcDbLine
 10
123.9850809121
 20
31.5742984765
 30
0.0
 11
91.6090648089
 21
31.5742984765
 31
0.0
  0
LINE
  5
2DC
330
1F
100
AcDbEntity
  8
0
  6
Continuous
 62
     7
370
    15
100
AcDbLine
 10
123.9850809121
 20
26.5742984765
 30
0.0
 11
91.6090648089
 21
26.5742984765
 31
0.0
  0
LINE
  5
2DD
330
1F
100
AcDbEntity
  8
0
  6
Continuous
 62
     7
370
    15
100
AcDbLine
 10
87.4786935256
 20
26.5742984765
 30
0.0
 11
87.4786935256
 21
31.5742984765
 31
0.0
  0
LINE
  5
2DE
330
1F
100
AcDbEntity
  8
0
  6
Continuous
 62
     7
370
    15
100
AcDbLine
 10
91.6090648089
 20
31.5742984765
 30
0.0
 11
87.4786935256
 21
31.5742984765
 31
0.0
  0
LINE
  5
2DF
330
1F
100
AcDbEntity
  8
0
  6
Continuous
 62
     7
370
    15
100
AcDbLine
 10
91.6090648089
 20
26.5742984765
 30
0.0
 11
87.4786935256
 21
26.5742984765
 31
0.0
  0
LINE
  5
2E0
330
1F
100
AcDbEntity
  8
0
  6
Continuous
 62
     7
370
    15
100
AcDbLine
 10
329.1646349664
 20
26.5742984765
 30
0.0
 11
329.1646349664
 21
31.5742984765
 31
0.0
  0
LINE
  5
2E1
330
1F
100
AcDbEntity
  8
0
  6
Continuous
 62
     7
370
    15
100
AcDbLine
 10
329.1646349664
 20
31.5742984765
 30
0.0
 11
325.0342636831
 21
31.5742984765
 31
0.0
  0
LINE
  5
2E2
330
1F
100
AcDbEntity
  8
0
  6
Continuous
 62
     7
370
    15
100
AcDbLine
 10
329.1646349664
 20
26.5742984765
 30
0.0
 11
325.0342636831
 21
26.5742984765
 31
0.0
  0
LINE
  5
2E3
330
1F
100
AcDbEntity
  8
0
  6
Continuous
 62
     7
370
    15
100
AcDbLine
 10
347.3754118045
 20
26.5742984765
 30
0.0
 11
347.3754118045
 21
31.5742984765
 31
0.0
  0
LINE
  5
2E4
330
1F
100
AcDbEntity
  8
0
  6
Continuous
 62
     7
370
    15
100
AcDbLine
 10
347.3754118045
 20
31.5742984765
 30
0.0
 11
329.1646349664
 21
31.5742984765
 31
0.0
  0
LINE
  5
2E5
330
1F
100
AcDbEntity
  8
0
  6
Continuous
 62
     7
370
    15
100
AcDbLine
 10
347.3754118045
 20
26.5742984765
 30
0.0
 11
329.1646349664
 21
26.5742984765
 31
0.0
  0
LINE
  5
2E6
330
1F
100
AcDbEntity
  8
0
  6
Continuous
 62
     7
370
    15
100
AcDbLine
 10
69.2679166876
 20
26.5742984765
 30
0.0
 11
69.2679166876
 21
31.5742984765
 31
0.0
  0
LINE
  5
2E7
330
1F
100
AcDbEntity
  8
0
  6
Continuous
 62
     7
370
    15
100
AcDbLine
 10
87.4786935256
 20
31.5742984765
 30
0.0
 11
69.2679166876
 21
31.5742984765
 31
0.0
  0
LINE
  5
2E8
330
1F
100
AcDbEntity
  8
0
  6
Continuous
 62
     7
370
    15
100
AcDbLine
 10
87.4786935256
 20
26.5742984765
 30
0.0
 11
69.2679166876
 21
26.5742984765
 31
0.0
  0
LINE
  5
2E9
330
1F
100
AcDbEntity
  8
0
  6
Continuous
 62
     7
370
    15
100
AcDbLine
 10
69.2679166876
 20
31.5742984765
 30
0.0
 11
69.2027727398
 21
31.5742984765
 31
0.0
  0
LINE
  5
2EA
330
1F
100
AcDbEntity
  8
0
  6
Continuous
 62
     7
370
    15
100
AcDbLine
 10
69.2679166876
 20
26.5742984765
 30
0.0
 11
69.2027727398
 21
26.5742984765
 31
0.0
  0
LINE
  5
2EB
330
1F
100
AcDbEntity
  8
0
  6
Continuous
 62
     7
370
    15
100
AcDbLine
 10
347.4405557522
 20
31.5742984765
 30
0.0
 11
347.3754118045
 21
31.5742984765
 31
0.0
  0
LINE
  5
2EC
330
1F
100
AcDbEntity
  8
0
  6
Continuous
 62
     7
370
    15
100
AcDbLine
 10
347.4405557522
 20
26.5742984765
 30
0.0
 11
347.3754118045
 21
26.5742984765
 31
0.0
  0
DIMENSION
  5
2ED
330
1F
100
AcDbEntity
  8
0
  6
Continuous
 62
     7
370
     0
100
AcDbDimension
  2
*D43
 10
363.4405557522
 20
31.5742984765
 30
0.0
 11
363.4405557522
 21
47.5742984765
 31
0.0
 70
   160
 71
     2
 42
-1.0
  3
SLDDIMSTYLE3
100
AcDbAlignedDimension
 13
347.3754118045
 23
26.5742984765
 33
0.0
 14
347.3754118045
 24
31.5742984765
 34
0.0
 50
90.0
100
AcDbRotatedDimension
  0
ENDSEC
  0
SECTION
  2
OBJECTS
  0
DICTIONARY
  5
C
330
0
100
AcDbDictionary
281
     1
  3
ACAD_GROUP
350
D
  3
ACAD_LAYOUT
350
1A
  3
ACAD_MLINESTYLE
350
17
  3
ACAD_PLOTSETTINGS
350
19
  3
ACAD_PLOTSTYLENAME
350
E
  0
DICTIONARY
  5
D
102
{ACAD_REACTORS
330
C
102
}
330
C
100
AcDbDictionary
281
     1
  0
DICTIONARY
  5
1A
102
{ACAD_REACTORS
330
C
102
}
330
C
100
AcDbDictionary
281
     1
  3
Layout1
350
1E
  3
Layout2
350
26
  3
Model
350
22
  0
DICTIONARY
  5
17
102
{ACAD_REACTORS
330
C
102
}
330
C
100
AcDbDictionary
281
     1
  3
Standard
350
18
  0
DICTIONARY
  5
19
102
{ACAD_REACTORS
330
C
102
}
330
C
100
AcDbDictionary
281
     1
  0
ACDBDICTIONARYWDFLT
  5
E
102
{ACAD_REACTORS
330
C
102
}
330
C
100
AcDbDictionary
281
     1
  3
Normal
350
F
100
AcDbDictionaryWithDefault
340
F
  0
LAYOUT
  5
1E
102
{ACAD_REACTORS
330
1A
102
}
330
1A
100
AcDbPlotSettings
  1

  2
none_device
  4

  6

 40
0.0
 41
0.0
 42
0.0
 43
0.0
 44
0.0
 45
0.0
 46
0.0
 47
0.0
 48
0.0
 49
0.0
140
0.0
141
0.0
142
1.0
143
1.0
 70
   688
 72
     0
 73
     0
 74
     5
  7

 75
    16
147
1.0
148
0.0
149
0.0
100
AcDbLayout
  1
Layout1
 70
     1
 71
     1
 10
0.0
 20
0.0
 11
420.0
 21
297.0
 12
0.0
 22
0.0
 32
0.0
 14
1.0000000000E+20
 24
1.0000000000E+20
 34
1.0000000000E+20
 15
-1.0000000000E+20
 25
-1.0000000000E+20
 35
-1.0000000000E+20
146
0.0
 13
0.0
 23
0.0
 33
0.0
 16
1.0
 26
0.0
 36
0.0
 17
0.0
 27
1.0
 37
0.0
 76
     0
330
1B
  0
LAYOUT
  5
26
102
{ACAD_REACTORS
330
1A
102
}
330
1A
100
AcDbPlotSettings
  1

  2
none_device
  4

  6

 40
0.0
 41
0.0
 42
0.0
 43
0.0
 44
0.0
 45
0.0
 46
0.0
 47
0.0
 48
0.0
 49
0.0
140
0.0
141
0.0
142
1.0
143
1.0
 70
   688
 72
     0
 73
     0
 74
     5
  7

 75
    16
147
1.0
148
0.0
149
0.0
100
AcDbLayout
  1
Layout2
 70
     1
 71
     2
 10
0.0
 20
0.0
 11
0.0
 21
0.0
 12
0.0
 22
0.0
 32
0.0
 14
0.0
 24
0.0
 34
0.0
 15
0.0
 25
0.0
 35
0.0
146
0.0
 13
0.0
 23
0.0
 33
0.0
 16
1.0
 26
0.0
 36
0.0
 17
0.0
 27
1.0
 37
0.0
 76
     0
330
23
  0
LAYOUT
  5
22
102
{ACAD_REACTORS
330
1A
102
}
330
1A
100
AcDbPlotSettings
  1

  2
none_device
  4

  6

 40
0.0
 41
0.0
 42
0.0
 43
0.0
 44
0.0
 45
0.0
 46
0.0
 47
0.0
 48
0.0
 49
0.0
140
0.0
141
0.0
142
1.0
143
1.0
 70
  1712
 72
     0
 73
     0
 74
     0
  7

 75
     0
147
1.0
148
0.0
149
0.0
100
AcDbLayout
  1
Model
 70
     1
 71
     0
 10
0.0
 20
0.0
 11
594.0
 21
420.0
 12
0.0
 22
0.0
 32
0.0
 14
0.0
 24
0.0
 34
0.0
 15
594.0
 25
420.0
 35
0.0
146
0.0
 13
0.0
 23
0.0
 33
0.0
 16
1.0
 26
0.0
 36
0.0
 17
0.0
 27
1.0
 37
0.0
 76
     0
330
1F
331
29
  0
MLINESTYLE
  5
18
102
{ACAD_REACTORS
330
17
102
}
330
17
100
AcDbMlineStyle
  2
Standard
 70
     0
  3

 62
   256
 51
90.0
 52
90.0
 71
     2
 49
0.5
 62
   256
  6
BYLAYER
 49
-0.5
 62
   256
  6
BYLAYER
  0
ACDBPLACEHOLDER
  5
F
102
{ACAD_REACTORS
330
E
102
}
330
E
  0
ENDSEC
  0
EOF
