  0
SECTION
  2
HEADER
  9
$ACADVER
  1
AC1015
  9
$ACADMAINTVER
 70
     6
  9
$DWGCODEPAGE
  3
ANSI_936
  9
$INSBASE
 10
0.0
 20
0.0
 30
0.0
  9
$EXTMIN
 10
0.0
 20
0.0
 30
0.0
  9
$EXTMAX
 10
594.0
 20
420.0
 30
0.0
  9
$LIMMIN
 10
0.0
 20
0.0
  9
$LIMMAX
 10
594.0
 20
420.0
  9
$ORTHOMODE
 70
     0
  9
$REGENMODE
 70
     1
  9
$FILLMODE
 70
     1
  9
$QTEXTMODE
 70
     0
  9
$MIRRTEXT
 70
     1
  9
$LTSCALE
 40
1.0
  9
$ATTMODE
 70
     1
  9
$TEXTSIZE
 40
3.5
  9
$TRACEWID
 40
1.0
  9
$TEXTSTYLE
  7
Standard
  9
$CLAYER
  8
0
  9
$CELTYPE
  6
ByLayer
  9
$CECOLOR
 62
   256
  9
$CELTSCALE
 40
1.0
  9
$DISPSILH
 70
     0
  9
$DIMSCALE
 40
1.0
  9
$DIMASZ
 40
6.0
  9
$DIMEXO
 40
1.0
  9
$DIMDLI
 40
3.75
  9
$DIMRND
 40
0.0
  9
$DIMDLE
 40
0.0
  9
$DIMEXE
 40
1.0
  9
$DIMTP
 40
0.0
  9
$DIMTM
 40
0.0
  9
$DIMTXT
 40
3.5
  9
$DIMCEN
 40
2.5
  9
$DIMTSZ
 40
0.0
  9
$DIMTOL
 70
     0
  9
$DIMLIM
 70
     0
  9
$DIMTIH
 70
     1
  9
$DIMTOH
 70
     1
  9
$DIMSE1
 70
     0
  9
$DIMSE2
 70
     0
  9
$DIMTAD
 70
     1
  9
$DIMZIN
 70
     0
  9
$DIMBLK
  1

  9
$DIMASO
 70
     1
  9
$DIMSHO
 70
     1
  9
$DIMPOST
  1

  9
$DIMAPOST
  1

  9
$DIMALT
 70
     0
  9
$DIMALTD
 70
     3
  9
$DIMALTF
 40
0.0393700787
  9
$DIMLFAC
 40
1.0
  9
$DIMTOFL
 70
     1
  9
$DIMTVP
 40
0.0
  9
$DIMTIX
 70
     0
  9
$DIMSOXD
 70
     0
  9
$DIMSAH
 70
     0
  9
$DIMBLK1
  1

  9
$DIMBLK2
  1

  9
$DIMSTYLE
  2
ISO-25
  9
$DIMCLRD
 70
     0
  9
$DIMCLRE
 70
     0
  9
$DIMCLRT
 70
     0
  9
$DIMTFAC
 40
1.0
  9
$DIMGAP
 40
1.524
  9
$DIMJUST
 70
     0
  9
$DIMSD1
 70
     0
  9
$DIMSD2
 70
     0
  9
$DIMTOLJ
 70
     0
  9
$DIMTZIN
 70
     0
  9
$DIMALTZ
 70
     0
  9
$DIMALTTZ
 70
     0
  9
$DIMUPT
 70
     0
  9
$DIMDEC
 70
     3
  9
$DIMTDEC
 70
     3
  9
$DIMALTU
 70
     2
  9
$DIMALTTD
 70
     3
  9
$DIMTXSTY
  7
Standard
  9
$DIMAUNIT
 70
     0
  9
$DIMADEC
 70
     2
  9
$DIMALTRND
 40
0.0
  9
$DIMAZIN
 70
     0
  9
$DIMDSEP
 70
    44
  9
$DIMATFIT
 70
     3
  9
$DIMFRAC
 70
     0
  9
$DIMLDRBLK
  1

  9
$DIMLUNIT
 70
     2
  9
$DIMLWD
 70
    -2
  9
$DIMLWE
 70
    -2
  9
$DIMTMOVE
 70
     0
  9
$LUNITS
 70
     2
  9
$LUPREC
 70
     2
  9
$SKETCHINC
 40
1.0
  9
$FILLETRAD
 40
10.0
  9
$AUNITS
 70
     0
  9
$AUPREC
 70
     2
  9
$MENU
  1
.
  9
$ELEVATION
 40
0.0
  9
$PELEVATION
 40
0.0
  9
$THICKNESS
 40
0.0
  9
$LIMCHECK
 70
     0
  9
$CHAMFERA
 40
10.0
  9
$CHAMFERB
 40
10.0
  9
$CHAMFERC
 40
20.0
  9
$CHAMFERD
 40
0.0
  9
$SKPOLY
 70
     0
  9
$TDCREATE
 40
2455780.781084028
  9
$TDUCREATE
 40
2455780.447750695
  9
$TDUPDATE
 40
2455780.781084039
  9
$TDUUPDATE
 40
2455780.447750706
  9
$TDINDWG
 40
0.0000000116
  9
$TDUSRTIMER
 40
0.0000000116
  9
$USRTIMER
 70
     1
  9
$ANGBASE
 50
0.0
  9
$ANGDIR
 70
     0
  9
$PDMODE
 70
     0
  9
$PDSIZE
 40
-1.0
  9
$PLINEWID
 40
0.0
  9
$SPLFRAME
 70
     0
  9
$SPLINETYPE
 70
     6
  9
$SPLINESEGS
 70
     8
  9
$HANDSEED
  5
263
  9
$SURFTAB1
 70
     6
  9
$SURFTAB2
 70
     6
  9
$SURFTYPE
 70
     6
  9
$SURFU
 70
     6
  9
$SURFV
 70
     6
  9
$UCSBASE
  2

  9
$UCSNAME
  2

  9
$UCSORG
 10
0.0
 20
0.0
 30
0.0
  9
$UCSXDIR
 10
1.0
 20
0.0
 30
0.0
  9
$UCSYDIR
 10
0.0
 20
1.0
 30
0.0
  9
$UCSORTHOREF
  2

  9
$UCSORTHOVIEW
 70
     0
  9
$UCSORGTOP
 10
0.0
 20
0.0
 30
0.0
  9
$UCSORGBOTTOM
 10
0.0
 20
0.0
 30
0.0
  9
$UCSORGLEFT
 10
0.0
 20
0.0
 30
0.0
  9
$UCSORGRIGHT
 10
0.0
 20
0.0
 30
0.0
  9
$UCSORGFRONT
 10
0.0
 20
0.0
 30
0.0
  9
$UCSORGBACK
 10
0.0
 20
0.0
 30
0.0
  9
$PUCSBASE
  2

  9
$PUCSNAME
  2

  9
$PUCSORG
 10
0.0
 20
0.0
 30
0.0
  9
$PUCSXDIR
 10
1.0
 20
0.0
 30
0.0
  9
$PUCSYDIR
 10
0.0
 20
1.0
 30
0.0
  9
$PUCSORTHOREF
  2

  9
$PUCSORTHOVIEW
 70
     0
  9
$PUCSORGTOP
 10
0.0
 20
0.0
 30
0.0
  9
$PUCSORGBOTTOM
 10
0.0
 20
0.0
 30
0.0
  9
$PUCSORGLEFT
 10
0.0
 20
0.0
 30
0.0
  9
$PUCSORGRIGHT
 10
0.0
 20
0.0
 30
0.0
  9
$PUCSORGFRONT
 10
0.0
 20
0.0
 30
0.0
  9
$PUCSORGBACK
 10
0.0
 20
0.0
 30
0.0
  9
$USERI1
 70
     0
  9
$USERI2
 70
     0
  9
$USERI3
 70
     0
  9
$USERI4
 70
     0
  9
$USERI5
 70
     0
  9
$USERR1
 40
0.0
  9
$USERR2
 40
0.0
  9
$USERR3
 40
0.0
  9
$USERR4
 40
0.0
  9
$USERR5
 40
0.0
  9
$WORLDVIEW
 70
     1
  9
$SHADEDGE
 70
     3
  9
$SHADEDIF
 70
    70
  9
$TILEMODE
 70
     1
  9
$MAXACTVP
 70
    64
  9
$PINSBASE
 10
0.0
 20
0.0
 30
0.0
  9
$PLIMCHECK
 70
     0
  9
$PEXTMIN
 10
1.0000000000E+20
 20
1.0000000000E+20
 30
1.0000000000E+20
  9
$PEXTMAX
 10
-1.0000000000E+20
 20
-1.0000000000E+20
 30
-1.0000000000E+20
  9
$PLIMMIN
 10
0.0
 20
0.0
  9
$PLIMMAX
 10
420.0
 20
297.0
  9
$UNITMODE
 70
     0
  9
$VISRETAIN
 70
     1
  9
$PLINEGEN
 70
     0
  9
$PSLTSCALE
 70
     1
  9
$TREEDEPTH
 70
  3020
  9
$CMLSTYLE
  2
Standard
  9
$CMLJUST
 70
     0
  9
$CMLSCALE
 40
20.0
  9
$PROXYGRAPHICS
 70
     1
  9
$MEASUREMENT
 70
     1
  9
$CELWEIGHT
370
    -1
  9
$ENDCAPS
280
     0
  9
$JOINSTYLE
280
     0
  9
$LWDISPLAY
290
     1
  9
$INSUNITS
 70
     4
  9
$HYPERLINKBASE
  1

  9
$STYLESHEET
  1

  9
$XEDIT
290
     1
  9
$CEPSNTYPE
380
     0
  9
$PSTYLEMODE
290
     1
  9
$FINGERPRINTGUID
  2
{0B5615D2-663D-4C0D-A05F-E230A06B7CC3}
  9
$VERSIONGUID
  2
{FAEB1C32-E019-11D5-929B-00C0DF256EC4}
  9
$EXTNAMES
290
     1
  9
$PSVPSCALE
 40
0.0
  9
$OLESTARTUP
290
     0
  0
ENDSEC
  0
SECTION
  2
CLASSES
  0
CLASS
  1
ACDBDICTIONARYWDFLT
  2
AcDbDictionaryWithDefault
  3
ObjectDBX Classes
 90
        0
280
     0
281
     0
  0
CLASS
  1
VISUALSTYLE
  2
AcDbVisualStyle
  3
ObjectDBX Classes
 90
     4095
280
     0
281
     0
  0
CLASS
  1
MATERIAL
  2
AcDbMaterial
  3
ObjectDBX Classes
 90
     1153
280
     0
281
     0
  0
CLASS
  1
ACDBPLACEHOLDER
  2
AcDbPlaceHolder
  3
ObjectDBX Classes
 90
        0
280
     0
281
     0
  0
CLASS
  1
LAYOUT
  2
AcDbLayout
  3
ObjectDBX Classes
 90
        0
280
     0
281
     0
  0
ENDSEC
  0
SECTION
  2
TABLES
  0
TABLE
  2
VPORT
  5
8
330
0
100
AcDbSymbolTable
 70
     1
  0
VPORT
  5
29
330
8
100
AcDbSymbolTableRecord
100
AcDbViewportTableRecord
  2
*Active
 70
     0
 10
0.0
 20
0.0
 11
1.0
 21
1.0
 12
297.0
 22
210.0
 13
0.0
 23
0.0
 14
10.0
 24
10.0
 15
10.0
 25
10.0
 16
0.0
 26
0.0
 36
1.0
 17
0.0
 27
0.0
 37
0.0
 40
420.0
 41
1.4142857143
 42
50.0
 43
0.0
 44
0.0
 50
0.0
 51
0.0
 71
     0
 72
  2000
 73
     1
 74
     3
 75
     0
 76
     0
 77
     0
 78
     0
281
     0
 65
     1
110
0.0
120
0.0
130
0.0
111
1.0
121
0.0
131
0.0
112
0.0
122
1.0
132
0.0
 79
     0
146
0.0
  0
ENDTAB
  0
TABLE
  2
LTYPE
  5
5
330
0
100
AcDbSymbolTable
 70
     6
  0
LTYPE
  5
14
330
5
100
AcDbSymbolTableRecord
100
AcDbLinetypeTableRecord
  2
ByBlock
 70
     0
  3

 72
    65
 73
     0
 40
0.0
  0
LTYPE
  5
15
330
5
100
AcDbSymbolTableRecord
100
AcDbLinetypeTableRecord
  2
ByLayer
 70
     0
  3

 72
    65
 73
     0
 40
0.0
  0
LTYPE
  5
16
330
5
100
AcDbSymbolTableRecord
100
AcDbLinetypeTableRecord
  2
Continuous
 70
     0
  3
Solid line
 72
    65
 73
     0
 40
0.0
  0
LTYPE
  5
3F
330
5
100
AcDbSymbolTableRecord
100
AcDbLinetypeTableRecord
  2
HIDDEN
 70
     0
  3
Hidden __ __ __ __ __ __ __ __ __ __ __ __ __ __
 72
    65
 73
     2
 40
1.905
 49
1.27
 74
     0
 49
-0.635
 74
     0
  0
LTYPE
  5
40
330
5
100
AcDbSymbolTableRecord
100
AcDbLinetypeTableRecord
  2
PHANTOM
 70
     0
  3
Phantom ______  __  __  ______  __  __  ______
 72
    65
 73
     6
 40
12.7
 49
6.35
 74
     0
 49
-1.27
 74
     0
 49
1.27
 74
     0
 49
-1.27
 74
     0
 49
1.27
 74
     0
 49
-1.27
 74
     0
  0
LTYPE
  5
41
330
5
100
AcDbSymbolTableRecord
100
AcDbLinetypeTableRecord
  2
CENTER
 70
     0
  3
Center ____ _ ____ _ ____ _ ____ _ ____ _ ____
 72
    65
 73
     4
 40
10.16
 49
6.35
 74
     0
 49
-1.27
 74
     0
 49
1.27
 74
     0
 49
-1.27
 74
     0
  0
LTYPE
  5
42
330
5
100
AcDbSymbolTableRecord
100
AcDbLinetypeTableRecord
  2
CENTERX2
 70
     0
  3
Center (2x) ________  __  ________  __  _____
 72
    65
 73
     4
 40
20.32
 49
12.7
 74
     0
 49
-2.54
 74
     0
 49
2.54
 74
     0
 49
-2.54
 74
     0
  0
LTYPE
  5
43
330
5
100
AcDbSymbolTableRecord
100
AcDbLinetypeTableRecord
  2
DOT2
 70
     0
  3
Dot (.5x) ........................................
 72
    65
 73
     2
 40
0.635
 49
0.0
 74
     0
 49
-0.635
 74
     0
  0
ENDTAB
  0
TABLE
  2
LAYER
  5
2
330
0
100
AcDbSymbolTable
 70
     2
  0
LAYER
  5
10
330
2
100
AcDbSymbolTableRecord
100
AcDbLayerTableRecord
  2
0
 70
     0
 62
     7
  6
Continuous
370
    -3
390
F
  0
LAYER
  5
44
330
2
100
AcDbSymbolTableRecord
100
AcDbLayerTableRecord
  2
FORMAT
 70
     0
 62
     7
  6
Continuous
370
    -3
390
F
  0
ENDTAB
  0
TABLE
  2
STYLE
  5
3
330
0
100
AcDbSymbolTable
 70
     4
  0
STYLE
  5
11
330
3
100
AcDbSymbolTableRecord
100
AcDbTextStyleTableRecord
  2
Standard
 70
     0
 40
0.0
 41
1.0
 50
0.0
 71
     0
 42
2.5
  3
txt
  4

  0
STYLE
  5
66
330
3
100
AcDbSymbolTableRecord
100
AcDbTextStyleTableRecord
  2
SLDTEXTSTYLE0
 70
     0
 40
0.0
 41
0.75
 50
0.0
 71
     0
 42
0.2
  3
TXT
  4
bigfont
  0
STYLE
  5
68
330
3
100
AcDbSymbolTableRecord
100
AcDbTextStyleTableRecord
  2
SLDTEXTSTYLE1
 70
     0
 40
0.0
 41
0.75
 50
0.0
 71
     0
 42
0.2
  3
TXT
  4

  0
STYLE
  5
6C
330
3
100
AcDbSymbolTableRecord
100
AcDbTextStyleTableRecord
  2
SLDTEXTSTYLE2
 70
     0
 40
0.0
 41
0.6875
 50
0.0
 71
     0
 42
0.2
  3
TXT
  4

  0
ENDTAB
  0
TABLE
  2
VIEW
  5
6
330
0
100
AcDbSymbolTable
 70
     0
  0
ENDTAB
  0
TABLE
  2
UCS
  5
7
330
0
100
AcDbSymbolTable
 70
     0
  0
ENDTAB
  0
TABLE
  2
APPID
  5
9
330
0
100
AcDbSymbolTable
 70
     1
  0
APPID
  5
12
330
9
100
AcDbSymbolTableRecord
100
AcDbRegAppTableRecord
  2
ACAD
 70
     0
  0
ENDTAB
  0
TABLE
  2
DIMSTYLE
  5
A
330
0
100
AcDbSymbolTable
 70
     5
100
AcDbDimStyleTable
  0
DIMSTYLE
105
27
330
A
100
AcDbSymbolTableRecord
100
AcDbDimStyleTableRecord
  2
ISO-25
 70
     0
 41
2.5
 42
0.625
 43
3.75
 44
1.25
 73
     0
 74
     0
 77
     1
 78
     8
140
2.5
141
2.5
143
0.0393700787
147
0.625
171
     3
172
     1
178
     0
271
     2
272
     2
274
     3
278
    44
283
     0
284
     8
340
11
  0
DIMSTYLE
105
B5
102
{ACAD_REACTORS
330
B4
330
C7
330
DD
330
117
330
12D
330
138
330
143
330
14E
330
1D2
330
259
102
}
330
A
100
AcDbSymbolTableRecord
100
AcDbDimStyleTableRecord
  2
SLDDIMSTYLE0
 70
     0
 41
6.0
 44
0.0
 45
0.000000001
 73
     0
 74
     0
 77
     1
 78
    12
 79
     3
140
3.5
147
0.875
173
     1
178
     0
271
     2
272
     2
276
     2
284
    12
340
68
341
B6
343
B6
344
B6
  0
DIMSTYLE
105
D3
102
{ACAD_REACTORS
330
D2
330
E7
102
}
330
A
100
AcDbSymbolTableRecord
100
AcDbDimStyleTableRecord
  2
SLDDIMSTYLE1
 70
     0
 41
6.0
 44
0.0
 45
0.000000001
 73
     0
 74
     0
 77
     1
 78
     4
 79
     1
140
3.5
147
0.875
173
     1
178
     0
271
     2
272
     2
276
     2
284
    12
340
68
341
B6
343
B6
344
B6
  0
DIMSTYLE
105
F3
102
{ACAD_REACTORS
330
F2
330
FF
330
10B
330
121
330
159
330
165
330
17E
330
18A
330
196
330
1A2
330
1AE
330
1BA
330
1C6
330
24D
102
}
330
A
100
AcDbSymbolTableRecord
100
AcDbDimStyleTableRecord
  2
SLDDIMSTYLE2
 70
     0
 41
6.0
 44
0.0
 45
0.000000001
 73
     0
 74
     0
 77
     1
 78
    12
 79
     3
140
3.5
147
0.875
172
     1
173
     1
178
     0
271
     2
272
     2
276
     2
284
    12
289
     0
340
68
341
B6
343
B6
344
B6
  0
DIMSTYLE
105
172
102
{ACAD_REACTORS
330
171
102
}
330
A
100
AcDbSymbolTableRecord
100
AcDbDimStyleTableRecord
  2
SLDDIMSTYLE3
 70
     0
 41
6.0
 44
0.0
 45
0.000000001
 73
     0
 74
     0
 77
     1
 78
     4
 79
     1
140
3.5
147
0.875
172
     1
173
     1
178
     0
271
     2
272
     2
276
     2
284
    12
289
     0
340
68
341
B6
343
B6
344
B6
  0
ENDTAB
  0
TABLE
  2
BLOCK_RECORD
  5
1
330
0
100
AcDbSymbolTable
 70
    31
  0
BLOCK_RECORD
  5
1F
330
1
100
AcDbSymbolTableRecord
100
AcDbBlockTableRecord
  2
*Model_Space
340
22
  0
BLOCK_RECORD
  5
1B
330
1
100
AcDbSymbolTableRecord
100
AcDbBlockTableRecord
  2
*Paper_Space
340
1E
  0
BLOCK_RECORD
  5
23
330
1
100
AcDbSymbolTableRecord
100
AcDbBlockTableRecord
  2
*Paper_Space0
340
26
  0
BLOCK_RECORD
  5
77
330
1
100
AcDbSymbolTableRecord
100
AcDbBlockTableRecord
  2
SW_NOTE_4
340
0
102
{BLKREFS
331
7D
102
}
  0
BLOCK_RECORD
  5
7F
330
1
100
AcDbSymbolTableRecord
100
AcDbBlockTableRecord
  2
SW_NOTE_5
340
0
102
{BLKREFS
331
88
102
}
  0
BLOCK_RECORD
  5
B6
330
1
100
AcDbSymbolTableRecord
100
AcDbBlockTableRecord
  2
_CLOSED
340
0
102
{BLKREFS
331
C0
331
C1
331
CB
331
CC
331
D7
331
D8
331
E1
331
E2
331
EB
331
EC
331
F7
331
F8
331
103
331
104
331
10F
331
110
331
11B
331
11C
331
125
331
126
331
131
331
132
331
13C
331
13D
331
147
331
148
331
152
331
153
331
15D
331
15E
331
169
331
16A
331
176
331
177
331
182
331
183
331
18E
331
18F
331
19A
331
19B
331
1A6
331
1A7
331
1B2
331
1B3
331
1BE
331
1BF
331
1CA
331
1CB
331
1D6
331
1D7
331
251
331
252
331
25D
331
25E
102
}
  0
BLOCK_RECORD
  5
BD
330
1
100
AcDbSymbolTableRecord
100
AcDbBlockTableRecord
  2
*D4
340
0
  0
BLOCK_RECORD
  5
C8
330
1
100
AcDbSymbolTableRecord
100
AcDbBlockTableRecord
  2
*D5
340
0
  0
BLOCK_RECORD
  5
D4
330
1
100
AcDbSymbolTableRecord
100
AcDbBlockTableRecord
  2
*D6
340
0
  0
BLOCK_RECORD
  5
DE
330
1
100
AcDbSymbolTableRecord
100
AcDbBlockTableRecord
  2
*D7
340
0
  0
BLOCK_RECORD
  5
E8
330
1
100
AcDbSymbolTableRecord
100
AcDbBlockTableRecord
  2
*D8
340
0
  0
BLOCK_RECORD
  5
F4
330
1
100
AcDbSymbolTableRecord
100
AcDbBlockTableRecord
  2
*D9
340
0
  0
BLOCK_RECORD
  5
100
330
1
100
AcDbSymbolTableRecord
100
AcDbBlockTableRecord
  2
*D10
340
0
  0
BLOCK_RECORD
  5
10C
330
1
100
AcDbSymbolTableRecord
100
AcDbBlockTableRecord
  2
*D11
340
0
  0
BLOCK_RECORD
  5
118
330
1
100
AcDbSymbolTableRecord
100
AcDbBlockTableRecord
  2
*D12
340
0
  0
BLOCK_RECORD
  5
122
330
1
100
AcDbSymbolTableRecord
100
AcDbBlockTableRecord
  2
*D13
340
0
  0
BLOCK_RECORD
  5
12E
330
1
100
AcDbSymbolTableRecord
100
AcDbBlockTableRecord
  2
*D14
340
0
  0
BLOCK_RECORD
  5
139
330
1
100
AcDbSymbolTableRecord
100
AcDbBlockTableRecord
  2
*D15
340
0
  0
BLOCK_RECORD
  5
144
330
1
100
AcDbSymbolTableRecord
100
AcDbBlockTableRecord
  2
*D16
340
0
  0
BLOCK_RECORD
  5
14F
330
1
100
AcDbSymbolTableRecord
100
AcDbBlockTableRecord
  2
*D17
340
0
  0
BLOCK_RECORD
  5
15A
330
1
100
AcDbSymbolTableRecord
100
AcDbBlockTableRecord
  2
*D18
340
0
  0
BLOCK_RECORD
  5
166
330
1
100
AcDbSymbolTableRecord
100
AcDbBlockTableRecord
  2
*D19
340
0
  0
BLOCK_RECORD
  5
173
330
1
100
AcDbSymbolTableRecord
100
AcDbBlockTableRecord
  2
*D20
340
0
  0
BLOCK_RECORD
  5
17F
330
1
100
AcDbSymbolTableRecord
100
AcDbBlockTableRecord
  2
*D21
340
0
  0
BLOCK_RECORD
  5
18B
330
1
100
AcDbSymbolTableRecord
100
AcDbBlockTableRecord
  2
*D22
340
0
  0
BLOCK_RECORD
  5
197
330
1
100
AcDbSymbolTableRecord
100
AcDbBlockTableRecord
  2
*D23
340
0
  0
BLOCK_RECORD
  5
1A3
330
1
100
AcDbSymbolTableRecord
100
AcDbBlockTableRecord
  2
*D24
340
0
  0
BLOCK_RECORD
  5
1AF
330
1
100
AcDbSymbolTableRecord
100
AcDbBlockTableRecord
  2
*D25
340
0
  0
BLOCK_RECORD
  5
1BB
330
1
100
AcDbSymbolTableRecord
100
AcDbBlockTableRecord
  2
*D26
340
0
  0
BLOCK_RECORD
  5
1C7
330
1
100
AcDbSymbolTableRecord
100
AcDbBlockTableRecord
  2
*D27
340
0
  0
BLOCK_RECORD
  5
1D3
330
1
100
AcDbSymbolTableRecord
100
AcDbBlockTableRecord
  2
*D28
340
0
  0
BLOCK_RECORD
  5
24E
330
1
100
AcDbSymbolTableRecord
100
AcDbBlockTableRecord
  2
*D29
340
0
  0
BLOCK_RECORD
  5
25A
330
1
100
AcDbSymbolTableRecord
100
AcDbBlockTableRecord
  2
*D30
340
0
  0
ENDTAB
  0
ENDSEC
  0
SECTION
  2
BLOCKS
  0
BLOCK
  5
20
330
1F
100
AcDbEntity
  8
0
100
AcDbBlockBegin
  2
*Model_Space
 70
     0
 10
0.0
 20
0.0
 30
0.0
  3
*Model_Space
  1

  0
ENDBLK
  5
21
330
1F
100
AcDbEntity
  8
0
100
AcDbBlockEnd
  0
BLOCK
  5
1C
330
1B
100
AcDbEntity
 67
     1
  8
0
100
AcDbBlockBegin
  2
*Paper_Space
 70
     0
 10
0.0
 20
0.0
 30
0.0
  3
*Paper_Space
  1

  0
ENDBLK
  5
1D
330
1B
100
AcDbEntity
 67
     1
  8
0
100
AcDbBlockEnd
  0
BLOCK
  5
24
330
23
100
AcDbEntity
  8
0
100
AcDbBlockBegin
  2
*Paper_Space0
 70
     0
 10
0.0
 20
0.0
 30
0.0
  3
*Paper_Space0
  1

  0
ENDBLK
  5
25
330
23
100
AcDbEntity
  8
0
100
AcDbBlockEnd
  0
BLOCK
  5
78
330
77
100
AcDbEntity
  8
0
100
AcDbBlockBegin
  2
SW_NOTE_4
 70
     0
 10
0.0
 20
0.0
 30
0.0
  3
SW_NOTE_4
  1

  0
MTEXT
  5
7A
330
77
100
AcDbEntity
  8
0
  6
Continuous
 62
     0
370
     0
100
AcDbMText
 10
0.0
 20
1.9336016097
 30
0.0
 40
1.5
 41
0.0
 71
     1
 72
     1
  1
DEBUR AND
  7
SLDTEXTSTYLE1
 73
     1
 44
1.0
  0
MTEXT
  5
7B
330
77
100
AcDbEntity
  8
0
  6
Continuous
 62
     0
370
     0
100
AcDbMText
 10
0.0
 20
-0.5663983345
 30
0.0
 40
1.5
 41
0.0
 71
     1
 72
     1
  1
BREAK SHARP
  7
SLDTEXTSTYLE1
 73
     1
 44
1.0
  0
MTEXT
  5
7C
330
77
100
AcDbEntity
  8
0
  6
Continuous
 62
     0
370
     0
100
AcDbMText
 10
0.0
 20
-3.0663982786
 30
0.0
 40
1.5
 41
0.0
 71
     1
 72
     1
  1
EDGES
  7
SLDTEXTSTYLE1
 73
     1
 44
1.0
  0
ENDBLK
  5
79
330
77
100
AcDbEntity
  8
0
100
AcDbBlockEnd
  0
BLOCK
  5
80
330
7F
100
AcDbEntity
  8
0
100
AcDbBlockBegin
  2
SW_NOTE_5
 70
     0
 10
0.0
 20
0.0
 30
0.0
  3
SW_NOTE_5
  1

  0
MTEXT
  5
82
330
7F
100
AcDbEntity
  8
0
  6
Continuous
 62
     0
370
     0
100
AcDbMText
 10
0.0
 20
1.9336016097
 30
0.0
 40
1.5
 41
0.0
 71
     1
 72
     1
  1
UNLESS OTHERWISE SPECIFIED:
  7
SLDTEXTSTYLE1
 73
     1
 44
1.0
  0
MTEXT
  5
83
330
7F
100
AcDbEntity
  8
0
  6
Continuous
 62
     0
370
     0
100
AcDbMText
 10
0.0
 20
-0.5663983345
 30
0.0
 40
1.5
 41
0.0
 71
     1
 72
     1
  1
DIMENSIONS ARE IN MILLIMETERS
  7
SLDTEXTSTYLE1
 73
     1
 44
1.0
  0
MTEXT
  5
84
330
7F
100
AcDbEntity
  8
0
  6
Continuous
 62
     0
370
     0
100
AcDbMText
 10
0.0
 20
-3.0663982786
 30
0.0
 40
1.5
 41
0.0
 71
     1
 72
     1
  1
SURFACE FINISH:
  7
SLDTEXTSTYLE1
 73
     1
 44
1.0
  0
MTEXT
  5
85
330
7F
100
AcDbEntity
  8
0
  6
Continuous
 62
     0
370
     0
100
AcDbMText
 10
0.0
 20
-5.5663982227
 30
0.0
 40
1.5
 41
0.0
 71
     1
 72
     1
  1
TOLERANCES:
  7
SLDTEXTSTYLE1
 73
     1
 44
1.0
  0
MTEXT
  5
86
330
7F
100
AcDbEntity
  8
0
  6
Continuous
 62
     0
370
     0
100
AcDbMText
 10
1.6875
 20
-8.0663981668
 30
0.0
 40
1.5
 41
0.0
 71
     1
 72
     1
  1
LINEAR:
  7
SLDTEXTSTYLE1
 73
     1
 44
1.0
  0
MTEXT
  5
87
330
7F
100
AcDbEntity
  8
0
  6
Continuous
 62
     0
370
     0
100
AcDbMText
 10
1.6875
 20
-10.5663981109
 30
0.0
 40
1.5
 41
0.0
 71
     1
 72
     1
  1
ANGULAR:
  7
SLDTEXTSTYLE1
 73
     1
 44
1.0
  0
ENDBLK
  5
81
330
7F
100
AcDbEntity
  8
0
100
AcDbBlockEnd
  0
BLOCK
  5
B7
330
B6
100
AcDbEntity
  8
0
100
AcDbBlockBegin
  2
_CLOSED
 70
     0
 10
0.0
 20
0.0
 30
0.0
  3
_CLOSED
  1

  0
LINE
  5
B9
330
B6
100
AcDbEntity
  8
0
  6
ByBlock
 62
     0
370
    -2
100
AcDbLine
 10
-1.0
 20
0.166667
 30
0.0
 11
0.0
 21
0.0
 31
0.0
  0
LINE
  5
BA
330
B6
100
AcDbEntity
  8
0
  6
ByBlock
 62
     0
370
    -2
100
AcDbLine
 10
0.0
 20
0.0
 30
0.0
 11
-1.0
 21
-0.166667
 31
0.0
  0
LINE
  5
BB
330
B6
100
AcDbEntity
  8
0
  6
ByBlock
 62
     0
370
    -2
100
AcDbLine
 10
-1.0
 20
0.166667
 30
0.0
 11
-1.0
 21
-0.166667
 31
0.0
  0
LINE
  5
BC
330
B6
100
AcDbEntity
  8
0
  6
ByBlock
 62
     0
370
    -2
100
AcDbLine
 10
0.0
 20
0.0
 30
0.0
 11
-1.0
 21
0.0
 31
0.0
  0
ENDBLK
  5
B8
330
B6
100
AcDbEntity
  8
0
100
AcDbBlockEnd
  0
BLOCK
  5
BE
330
BD
100
AcDbEntity
  8
0
100
AcDbBlockBegin
  2
*D4
 70
     1
 10
0.0
 20
0.0
 30
0.0
  3
*D4
  1

  0
INSERT
  5
C0
330
BD
100
AcDbEntity
  8
0
  6
Continuous
 62
     7
370
     0
100
AcDbBlockReference
  2
_CLOSED
 10
103.7962042931
 20
275.2849340294
 30
-2.4
 41
6.0
 42
6.0
 50
0.0
  0
INSERT
  5
C1
330
BD
100
AcDbEntity
  8
0
  6
Continuous
 62
     7
370
     0
100
AcDbBlockReference
  2
_CLOSED
 10
88.7962042931
 20
275.2849340294
 30
-2.4
 41
6.0
 42
6.0
 50
180.0
  0
LINE
  5
C2
330
BD
100
AcDbEntity
  8
0
  6
Continuous
 62
     7
370
     0
100
AcDbLine
 10
103.7962042931
 20
254.2849340294
 30
0.0
 11
103.7962042931
 21
276.2849340294
 31
0.0
  0
LINE
  5
C3
330
BD
100
AcDbEntity
  8
0
  6
Continuous
 62
     7
370
     0
100
AcDbLine
 10
88.7962042931
 20
254.2849340294
 30
0.0
 11
88.7962042931
 21
276.2849340294
 31
0.0
  0
LINE
  5
C4
330
BD
100
AcDbEntity
  8
0
  6
Continuous
 62
     7
370
     0
100
AcDbLine
 10
103.7962042931
 20
275.2849340294
 30
0.0
 11
88.7962042931
 21
275.2849340294
 31
0.0
  0
LINE
  5
C5
330
BD
100
AcDbEntity
  8
0
  6
Continuous
 62
     7
370
     0
100
AcDbLine
 10
88.7962042931
 20
275.2849340294
 30
0.0
 11
68.788218012
 21
275.2849340294
 31
0.0
  0
MTEXT
  5
C6
330
BD
100
AcDbEntity
  8
0
  6
Continuous
 62
     7
370
     0
100
AcDbMText
 10
68.788218012
 20
279.796670944
 30
-2.4
 40
3.5
 41
0.0
 71
     1
 72
     1
  1
15
  7
SLDTEXTSTYLE1
 73
     1
 44
1.0
  0
ENDBLK
  5
BF
330
BD
100
AcDbEntity
  8
0
100
AcDbBlockEnd
  0
BLOCK
  5
C9
330
C8
100
AcDbEntity
  8
0
100
AcDbBlockBegin
  2
*D5
 70
     1
 10
0.0
 20
0.0
 30
0.0
  3
*D5
  1

  0
INSERT
  5
CB
330
C8
100
AcDbEntity
  8
0
  6
Continuous
 62
     7
370
     0
100
AcDbBlockReference
  2
_CLOSED
 10
88.7962042931
 20
281.2849340294
 30
-2.4
 41
6.0
 42
6.0
 50
180.0
  0
INSERT
  5
CC
330
C8
100
AcDbEntity
  8
0
  6
Continuous
 62
     7
370
     0
100
AcDbBlockReference
  2
_CLOSED
 10
108.7962042931
 20
281.2849340294
 30
-2.4
 41
6.0
 42
6.0
 50
0.0
  0
LINE
  5
CD
330
C8
100
AcDbEntity
  8
0
  6
Continuous
 62
     7
370
     0
100
AcDbLine
 10
88.7962042931
 20
254.2849340294
 30
0.0
 11
88.7962042931
 21
282.2849340294
 31
0.0
  0
LINE
  5
CE
330
C8
100
AcDbEntity
  8
0
  6
Continuous
 62
     7
370
     0
100
AcDbLine
 10
108.7962042931
 20
252.2849340294
 30
0.0
 11
108.7962042931
 21
282.2849340294
 31
0.0
  0
LINE
  5
CF
330
C8
100
AcDbEntity
  8
0
  6
Continuous
 62
     7
370
     0
100
AcDbLine
 10
88.7962042931
 20
281.2849340294
 30
0.0
 11
108.7962042931
 21
281.2849340294
 31
0.0
  0
LINE
  5
D0
330
C8
100
AcDbEntity
  8
0
  6
Continuous
 62
     7
370
     0
100
AcDbLine
 10
108.7962042931
 20
281.2849340294
 30
0.0
 11
129.4620655829
 21
281.2849340294
 31
0.0
  0
MTEXT
  5
D1
330
C8
100
AcDbEntity
  8
0
  6
Continuous
 62
     7
370
     0
100
AcDbMText
 10
121.4460930207
 20
285.796670944
 30
-2.4
 40
3.5
 41
0.0
 71
     1
 72
     1
  1
20
  7
SLDTEXTSTYLE1
 73
     1
 44
1.0
  0
ENDBLK
  5
CA
330
C8
100
AcDbEntity
  8
0
100
AcDbBlockEnd
  0
BLOCK
  5
D5
330
D4
100
AcDbEntity
  8
0
100
AcDbBlockBegin
  2
*D6
 70
     1
 10
0.0
 20
0.0
 30
0.0
  3
*D6
  1

  0
INSERT
  5
D7
330
D4
100
AcDbEntity
  8
0
  6
Continuous
 62
     7
370
     0
100
AcDbBlockReference
  2
_CLOSED
 10
54.7962042931
 20
181.0349340294
 30
-2.4
 41
6.0
 42
6.0
 50
270.0
  0
INSERT
  5
D8
330
D4
100
AcDbEntity
  8
0
  6
Continuous
 62
     7
370
     0
100
AcDbBlockReference
  2
_CLOSED
 10
54.7962042931
 20
253.2849340294
 30
-2.4
 41
6.0
 42
6.0
 50
90.0
  0
LINE
  5
D9
330
D4
100
AcDbEntity
  8
0
  6
Continuous
 62
     7
370
     0
100
AcDbLine
 10
87.7962042931
 20
181.0349340294
 30
0.0
 11
53.7962042931
 21
181.0349340294
 31
0.0
  0
LINE
  5
DA
330
D4
100
AcDbEntity
  8
0
  6
Continuous
 62
     7
370
     0
100
AcDbLine
 10
312.7962042931
 20
253.2849340294
 30
0.0
 11
53.7962042931
 21
253.2849340294
 31
0.0
  0
LINE
  5
DB
330
D4
100
AcDbEntity
  8
0
  6
Continuous
 62
     7
370
     0
100
AcDbLine
 10
54.7962042931
 20
181.0349340294
 30
0.0
 11
54.7962042931
 21
253.2849340294
 31
0.0
  0
MTEXT
  5
DC
330
D4
100
AcDbEntity
  8
0
  6
Continuous
 62
     7
370
     0
100
AcDbMText
 10
50.2844673785
 20
206.9690228203
 30
-2.4
 40
3.5
 41
0.0
 71
     1
 72
     1
  1
72.250
  7
SLDTEXTSTYLE1
 11
6.123233995736766E-17
 21
1.0
 31
0.0
 73
     1
 44
1.0
  0
ENDBLK
  5
D6
330
D4
100
AcDbEntity
  8
0
100
AcDbBlockEnd
  0
BLOCK
  5
DF
330
DE
100
AcDbEntity
  8
0
100
AcDbBlockBegin
  2
*D7
 70
     1
 10
0.0
 20
0.0
 30
0.0
  3
*D7
  1

  0
INSERT
  5
E1
330
DE
100
AcDbEntity
  8
0
  6
Continuous
 62
     7
370
     0
100
AcDbBlockReference
  2
_CLOSED
 10
176.8094028023
 20
165.0349340294
 30
-2.4
 41
6.0
 42
6.0
 50
180.0
  0
INSERT
  5
E2
330
DE
100
AcDbEntity
  8
0
  6
Continuous
 62
     7
370
     0
100
AcDbBlockReference
  2
_CLOSED
 10
228.8094028023
 20
165.0349340294
 30
-2.4
 41
6.0
 42
6.0
 50
0.0
  0
LINE
  5
E3
330
DE
100
AcDbEntity
  8
0
  6
Continuous
 62
     7
370
     0
100
AcDbLine
 10
176.8094028023
 20
195.0349340294
 30
0.0
 11
176.8094028023
 21
164.0349340294
 31
0.0
  0
LINE
  5
E4
330
DE
100
AcDbEntity
  8
0
  6
Continuous
 62
     7
370
     0
100
AcDbLine
 10
228.8094028023
 20
195.0349340294
 30
0.0
 11
228.8094028023
 21
164.0349340294
 31
0.0
  0
LINE
  5
E5
330
DE
100
AcDbEntity
  8
0
  6
Continuous
 62
     7
370
     0
100
AcDbLine
 10
176.8094028023
 20
165.0349340294
 30
0.0
 11
228.8094028023
 21
165.0349340294
 31
0.0
  0
MTEXT
  5
E6
330
DE
100
AcDbEntity
  8
0
  6
Continuous
 62
     7
370
     0
100
AcDbMText
 10
200.679185754
 20
169.546670944
 30
-2.4
 40
3.5
 41
0.0
 71
     1
 72
     1
  1
52
  7
SLDTEXTSTYLE1
 73
     1
 44
1.0
  0
ENDBLK
  5
E0
330
DE
100
AcDbEntity
  8
0
100
AcDbBlockEnd
  0
BLOCK
  5
E9
330
E8
100
AcDbEntity
  8
0
100
AcDbBlockBegin
  2
*D8
 70
     1
 10
0.0
 20
0.0
 30
0.0
  3
*D8
  1

  0
INSERT
  5
EB
330
E8
100
AcDbEntity
  8
0
  6
Continuous
 62
     7
370
     0
100
AcDbBlockReference
  2
_CLOSED
 10
195.2344028023
 20
173.9391275778
 30
-2.4
 41
6.0
 42
6.0
 50
180.0
  0
INSERT
  5
EC
330
E8
100
AcDbEntity
  8
0
  6
Continuous
 62
     7
370
     0
100
AcDbBlockReference
  2
_CLOSED
 10
210.3844028023
 20
173.9391275778
 30
-2.4
 41
6.0
 42
6.0
 50
0.0
  0
LINE
  5
ED
330
E8
100
AcDbEntity
  8
0
  6
Continuous
 62
     7
370
     0
100
AcDbLine
 10
195.2344028023
 20
190.0349340294
 30
0.0
 11
195.2344028023
 21
172.9391275778
 31
0.0
  0
LINE
  5
EE
330
E8
100
AcDbEntity
  8
0
  6
Continuous
 62
     7
370
     0
100
AcDbLine
 10
210.3844028023
 20
190.0349340294
 30
0.0
 11
210.3844028023
 21
172.9391275778
 31
0.0
  0
LINE
  5
EF
330
E8
100
AcDbEntity
  8
0
  6
Continuous
 62
     7
370
     0
100
AcDbLine
 10
195.2344028023
 20
173.9391275778
 30
0.0
 11
210.3844028023
 21
173.9391275778
 31
0.0
  0
LINE
  5
F0
330
E8
100
AcDbEntity
  8
0
  6
Continuous
 62
     7
370
     0
100
AcDbLine
 10
210.3844028023
 20
173.9391275778
 30
0.0
 11
236.6150463949
 21
173.9391275778
 31
0.0
  0
MTEXT
  5
F1
330
E8
100
AcDbEntity
  8
0
  6
Continuous
 62
     7
370
     0
100
AcDbMText
 10
219.5476847719
 20
178.4508644924
 30
-2.4
 40
3.5
 41
0.0
 71
     1
 72
     1
  1
15.150
  7
SLDTEXTSTYLE1
 73
     1
 44
1.0
  0
ENDBLK
  5
EA
330
E8
100
AcDbEntity
  8
0
100
AcDbBlockEnd
  0
BLOCK
  5
F5
330
F4
100
AcDbEntity
  8
0
100
AcDbBlockBegin
  2
*D9
 70
     1
 10
0.0
 20
0.0
 30
0.0
  3
*D9
  1

  0
INSERT
  5
F7
330
F4
100
AcDbEntity
  8
0
  6
Continuous
 62
     7
370
     0
100
AcDbBlockReference
  2
_CLOSED
 10
344.7962042931
 20
196.0349340294
 30
-2.4
 41
6.0
 42
6.0
 50
90.0
  0
INSERT
  5
F8
330
F4
100
AcDbEntity
  8
0
  6
Continuous
 62
     7
370
     0
100
AcDbBlockReference
  2
_CLOSED
 10
344.7962042931
 20
204.0349340294
 30
-2.4
 41
6.0
 42
6.0
 50
270.0
  0
LINE
  5
F9
330
F4
100
AcDbEntity
  8
0
  6
Continuous
 62
     7
370
     0
100
AcDbLine
 10
229.8094028023
 20
196.0349340294
 30
0.0
 11
345.7962042931
 21
196.0349340294
 31
0.0
  0
LINE
  5
FA
330
F4
100
AcDbEntity
  8
0
  6
Continuous
 62
     7
370
     0
100
AcDbLine
 10
229.8094028023
 20
204.0349340294
 30
0.0
 11
345.7962042931
 21
204.0349340294
 31
0.0
  0
LINE
  5
FB
330
F4
100
AcDbEntity
  8
0
  6
Continuous
 62
     7
370
     0
100
AcDbLine
 10
344.7962042931
 20
196.0349340294
 30
0.0
 11
344.7962042931
 21
184.0349340294
 31
0.0
  0
LINE
  5
FC
330
F4
100
AcDbEntity
  8
0
  6
Continuous
 62
     7
370
     0
100
AcDbLine
 10
344.7962042931
 20
196.0349340294
 30
0.0
 11
344.7962042931
 21
204.0349340294
 31
0.0
  0
LINE
  5
FD
330
F4
100
AcDbEntity
  8
0
  6
Continuous
 62
     7
370
     0
100
AcDbLine
 10
344.7962042931
 20
204.0349340294
 30
0.0
 11
344.7962042931
 21
218.2176341997
 31
0.0
  0
MTEXT
  5
FE
330
F4
100
AcDbEntity
  8
0
  6
Continuous
 62
     7
370
     0
100
AcDbMText
 10
340.2844673785
 20
212.7877730639
 30
-2.4
 40
3.5
 41
0.0
 71
     1
 72
     1
  1
8
  7
SLDTEXTSTYLE1
 11
6.123233995736766E-17
 21
1.0
 31
0.0
 73
     1
 44
1.0
  0
ENDBLK
  5
F6
330
F4
100
AcDbEntity
  8
0
100
AcDbBlockEnd
  0
BLOCK
  5
101
330
100
100
AcDbEntity
  8
0
100
AcDbBlockBegin
  2
*D10
 70
     1
 10
0.0
 20
0.0
 30
0.0
  3
*D10
  1

  0
INSERT
  5
103
330
100
100
AcDbEntity
  8
0
  6
Continuous
 62
     7
370
     0
100
AcDbBlockReference
  2
_CLOSED
 10
350.7962042931
 20
191.0349340294
 30
-2.4
 41
6.0
 42
6.0
 50
90.0
  0
INSERT
  5
104
330
100
100
AcDbEntity
  8
0
  6
Continuous
 62
     7
370
     0
100
AcDbBlockReference
  2
_CLOSED
 10
350.7962042931
 20
196.0349340294
 30
-2.4
 41
6.0
 42
6.0
 50
270.0
  0
LINE
  5
105
330
100
100
AcDbEntity
  8
0
  6
Continuous
 62
     7
370
     0
100
AcDbLine
 10
211.3844028023
 20
191.0349340294
 30
0.0
 11
351.7962042931
 21
191.0349340294
 31
0.0
  0
LINE
  5
106
330
100
100
AcDbEntity
  8
0
  6
Continuous
 62
     7
370
     0
100
AcDbLine
 10
229.8094028023
 20
196.0349340294
 30
0.0
 11
351.7962042931
 21
196.0349340294
 31
0.0
  0
LINE
  5
107
330
100
100
AcDbEntity
  8
0
  6
Continuous
 62
     7
370
     0
100
AcDbLine
 10
350.7962042931
 20
191.0349340294
 30
0.0
 11
350.7962042931
 21
179.0349340294
 31
0.0
  0
LINE
  5
108
330
100
100
AcDbEntity
  8
0
  6
Continuous
 62
     7
370
     0
100
AcDbLine
 10
350.7962042931
 20
191.0349340294
 30
0.0
 11
350.7962042931
 21
196.0349340294
 31
0.0
  0
LINE
  5
109
330
100
100
AcDbEntity
  8
0
  6
Continuous
 62
     7
370
     0
100
AcDbLine
 10
350.7962042931
 20
196.0349340294
 30
0.0
 11
350.7962042931
 21
218.2176341997
 31
0.0
  0
MTEXT
  5
10A
330
100
100
AcDbEntity
  8
0
  6
Continuous
 62
     7
370
     0
100
AcDbMText
 10
346.2844673785
 20
212.7877730639
 30
-2.4
 40
3.5
 41
0.0
 71
     1
 72
     1
  1
5
  7
SLDTEXTSTYLE1
 11
6.123233995736766E-17
 21
1.0
 31
0.0
 73
     1
 44
1.0
  0
ENDBLK
  5
102
330
100
100
AcDbEntity
  8
0
100
AcDbBlockEnd
  0
BLOCK
  5
10D
330
10C
100
AcDbEntity
  8
0
100
AcDbBlockBegin
  2
*D11
 70
     1
 10
0.0
 20
0.0
 30
0.0
  3
*D11
  1

  0
INSERT
  5
10F
330
10C
100
AcDbEntity
  8
0
  6
Continuous
 62
     7
370
     0
100
AcDbBlockReference
  2
_CLOSED
 10
356.7962042931
 20
191.0349340294
 30
-2.4
 41
6.0
 42
6.0
 50
270.0
  0
INSERT
  5
110
330
10C
100
AcDbEntity
  8
0
  6
Continuous
 62
     7
370
     0
100
AcDbBlockReference
  2
_CLOSED
 10
356.7962042931
 20
181.0349340294
 30
-2.4
 41
6.0
 42
6.0
 50
90.0
  0
LINE
  5
111
330
10C
100
AcDbEntity
  8
0
  6
Continuous
 62
     7
370
     0
100
AcDbLine
 10
211.3844028023
 20
191.0349340294
 30
0.0
 11
357.7962042931
 21
191.0349340294
 31
0.0
  0
LINE
  5
112
330
10C
100
AcDbEntity
  8
0
  6
Continuous
 62
     7
370
     0
100
AcDbLine
 10
304.7962042931
 20
181.0349340294
 30
0.0
 11
357.7962042931
 21
181.0349340294
 31
0.0
  0
LINE
  5
113
330
10C
100
AcDbEntity
  8
0
  6
Continuous
 62
     7
370
     0
100
AcDbLine
 10
356.7962042931
 20
191.0349340294
 30
0.0
 11
356.7962042931
 21
219.5106899129
 31
0.0
  0
LINE
  5
114
330
10C
100
AcDbEntity
  8
0
  6
Continuous
 62
     7
370
     0
100
AcDbLine
 10
356.7962042931
 20
191.0349340294
 30
0.0
 11
356.7962042931
 21
181.0349340294
 31
0.0
  0
LINE
  5
115
330
10C
100
AcDbEntity
  8
0
  6
Continuous
 62
     7
370
     0
100
AcDbLine
 10
356.7962042931
 20
181.0349340294
 30
0.0
 11
356.7962042931
 21
169.0349340294
 31
0.0
  0
MTEXT
  5
116
330
10C
100
AcDbEntity
  8
0
  6
Continuous
 62
     7
370
     0
100
AcDbMText
 10
352.2844673785
 20
211.4947173507
 30
-2.4
 40
3.5
 41
0.0
 71
     1
 72
     1
  1
10
  7
SLDTEXTSTYLE1
 11
-7.044195017643634E-15
 21
1.0
 31
0.0
 73
     1
 44
1.0
  0
ENDBLK
  5
10E
330
10C
100
AcDbEntity
  8
0
100
AcDbBlockEnd
  0
BLOCK
  5
119
330
118
100
AcDbEntity
  8
0
100
AcDbBlockBegin
  2
*D12
 70
     1
 10
0.0
 20
0.0
 30
0.0
  3
*D12
  1

  0
INSERT
  5
11B
330
118
100
AcDbEntity
  8
0
  6
Continuous
 62
     7
370
     0
100
AcDbBlockReference
  2
_CLOSED
 10
176.8094028023
 20
147.0349340294
 30
-2.4
 41
6.0
 42
6.0
 50
0.0
  0
INSERT
  5
11C
330
118
100
AcDbEntity
  8
0
  6
Continuous
 62
     7
370
     0
100
AcDbBlockReference
  2
_CLOSED
 10
88.7962042931
 20
147.0349340294
 30
-2.4
 41
6.0
 42
6.0
 50
180.0
  0
LINE
  5
11D
330
118
100
AcDbEntity
  8
0
  6
Continuous
 62
     7
370
     0
100
AcDbLine
 10
176.8094028023
 20
195.0349340294
 30
0.0
 11
176.8094028023
 21
146.0349340294
 31
0.0
  0
LINE
  5
11E
330
118
100
AcDbEntity
  8
0
  6
Continuous
 62
     7
370
     0
100
AcDbLine
 10
88.7962042931
 20
180.0349340294
 30
0.0
 11
88.7962042931
 21
146.0349340294
 31
0.0
  0
LINE
  5
11F
330
118
100
AcDbEntity
  8
0
  6
Continuous
 62
     7
370
     0
100
AcDbLine
 10
176.8094028023
 20
147.0349340294
 30
0.0
 11
88.7962042931
 21
147.0349340294
 31
0.0
  0
MTEXT
  5
120
330
118
100
AcDbEntity
  8
0
  6
Continuous
 62
     7
370
     0
100
AcDbMText
 10
120.7898904778
 20
151.546670944
 30
-2.4
 40
3.5
 41
0.0
 71
     1
 72
     1
  1
88.013
  7
SLDTEXTSTYLE1
 73
     1
 44
1.0
  0
ENDBLK
  5
11A
330
118
100
AcDbEntity
  8
0
100
AcDbBlockEnd
  0
BLOCK
  5
123
330
122
100
AcDbEntity
  8
0
100
AcDbBlockBegin
  2
*D13
 70
     1
 10
0.0
 20
0.0
 30
0.0
  3
*D13
  1

  0
INSERT
  5
125
330
122
100
AcDbEntity
  8
0
  6
Continuous
 62
     7
370
     0
100
AcDbBlockReference
  2
_CLOSED
 10
118.7962042931
 20
270.8849340294
 30
-2.4
 41
6.0
 42
6.0
 50
180.0
  0
INSERT
  5
126
330
122
100
AcDbEntity
  8
0
  6
Continuous
 62
     7
370
     0
100
AcDbBlockReference
  2
_CLOSED
 10
108.7962042931
 20
270.8849340294
 30
-2.4
 41
6.0
 42
6.0
 50
0.0
  0
LINE
  5
127
330
122
100
AcDbEntity
  8
0
  6
Continuous
 62
     7
370
     0
100
AcDbLine
 10
118.7962042931
 20
236.0349340294
 30
0.0
 11
118.7962042931
 21
271.8849340294
 31
0.0
  0
LINE
  5
128
330
122
100
AcDbEntity
  8
0
  6
Continuous
 62
     7
370
     0
100
AcDbLine
 10
108.7962042931
 20
252.2849340294
 30
0.0
 11
108.7962042931
 21
271.8849340294
 31
0.0
  0
LINE
  5
129
330
122
100
AcDbEntity
  8
0
  6
Continuous
 62
     7
370
     0
100
AcDbLine
 10
118.7962042931
 20
270.8849340294
 30
0.0
 11
144.1390292838
 21
270.8849340294
 31
0.0
  0
LINE
  5
12A
330
122
100
AcDbEntity
  8
0
  6
Continuous
 62
     7
370
     0
100
AcDbLine
 10
118.7962042931
 20
270.8849340294
 30
0.0
 11
108.7962042931
 21
270.8849340294
 31
0.0
  0
LINE
  5
12B
330
122
100
AcDbEntity
  8
0
  6
Continuous
 62
     7
370
     0
100
AcDbLine
 10
108.7962042931
 20
270.8849340294
 30
0.0
 11
96.7962042931
 21
270.8849340294
 31
0.0
  0
MTEXT
  5
12C
330
122
100
AcDbEntity
  8
0
  6
Continuous
 62
     7
370
     0
100
AcDbMText
 10
136.1230567217
 20
275.396670944
 30
-2.4
 40
3.5
 41
0.0
 71
     1
 72
     1
  1
10
  7
SLDTEXTSTYLE1
 73
     1
 44
1.0
  0
ENDBLK
  5
124
330
122
100
AcDbEntity
  8
0
100
AcDbBlockEnd
  0
BLOCK
  5
12F
330
12E
100
AcDbEntity
  8
0
100
AcDbBlockBegin
  2
*D14
 70
     1
 10
0.0
 20
0.0
 30
0.0
  3
*D14
  1

  0
INSERT
  5
131
330
12E
100
AcDbEntity
  8
0
  6
Continuous
 62
     7
370
     0
100
AcDbBlockReference
  2
_CLOSED
 10
298.7962042931
 20
258.6320308036
 30
-2.4
 41
6.0
 42
6.0
 50
180.0
  0
INSERT
  5
132
330
12E
100
AcDbEntity
  8
0
  6
Continuous
 62
     7
370
     0
100
AcDbBlockReference
  2
_CLOSED
 10
328.7962042931
 20
258.6320308036
 30
-2.4
 41
6.0
 42
6.0
 50
0.0
  0
LINE
  5
133
330
12E
100
AcDbEntity
  8
0
  6
Continuous
 62
     7
370
     0
100
AcDbLine
 10
298.7962042931
 20
252.2849340294
 30
0.0
 11
298.7962042931
 21
259.6320308036
 31
0.0
  0
LINE
  5
134
330
12E
100
AcDbEntity
  8
0
  6
Continuous
 62
     7
370
     0
100
AcDbLine
 10
328.7962042931
 20
254.2849340294
 30
0.0
 11
328.7962042931
 21
259.6320308036
 31
0.0
  0
LINE
  5
135
330
12E
100
AcDbEntity
  8
0
  6
Continuous
 62
     7
370
     0
100
AcDbLine
 10
298.7962042931
 20
258.6320308036
 30
0.0
 11
328.7962042931
 21
258.6320308036
 31
0.0
  0
LINE
  5
136
330
12E
100
AcDbEntity
  8
0
  6
Continuous
 62
     7
370
     0
100
AcDbLine
 10
328.7962042931
 20
258.6320308036
 30
0.0
 11
341.6570938
 21
258.6320308036
 31
0.0
  0
MTEXT
  5
137
330
12E
100
AcDbEntity
  8
0
  6
Continuous
 62
     7
370
     0
100
AcDbMText
 10
333.6411212378
 20
263.1437677182
 30
-2.4
 40
3.5
 41
0.0
 71
     1
 72
     1
  1
30
  7
SLDTEXTSTYLE1
 73
     1
 44
1.0
  0
ENDBLK
  5
130
330
12E
100
AcDbEntity
  8
0
100
AcDbBlockEnd
  0
BLOCK
  5
13A
330
139
100
AcDbEntity
  8
0
100
AcDbBlockBegin
  2
*D15
 70
     1
 10
0.0
 20
0.0
 30
0.0
  3
*D15
  1

  0
INSERT
  5
13C
330
139
100
AcDbEntity
  8
0
  6
Continuous
 62
     7
370
     0
100
AcDbBlockReference
  2
_CLOSED
 10
328.7962042931
 20
267.2197727391
 30
-2.4
 41
6.0
 42
6.0
 50
0.0
  0
INSERT
  5
13D
330
139
100
AcDbEntity
  8
0
  6
Continuous
 62
     7
370
     0
100
AcDbBlockReference
  2
_CLOSED
 10
313.7962042931
 20
267.2197727391
 30
-2.4
 41
6.0
 42
6.0
 50
180.0
  0
LINE
  5
13E
330
139
100
AcDbEntity
  8
0
  6
Continuous
 62
     7
370
     0
100
AcDbLine
 10
328.7962042931
 20
254.2849340294
 30
0.0
 11
328.7962042931
 21
268.2197727391
 31
0.0
  0
LINE
  5
13F
330
139
100
AcDbEntity
  8
0
  6
Continuous
 62
     7
370
     0
100
AcDbLine
 10
313.7962042931
 20
254.2849340294
 30
0.0
 11
313.7962042931
 21
268.2197727391
 31
0.0
  0
LINE
  5
140
330
139
100
AcDbEntity
  8
0
  6
Continuous
 62
     7
370
     0
100
AcDbLine
 10
328.7962042931
 20
267.2197727391
 30
0.0
 11
341.3609647677
 21
267.2197727391
 31
0.0
  0
LINE
  5
141
330
139
100
AcDbEntity
  8
0
  6
Continuous
 62
     7
370
     0
100
AcDbLine
 10
328.7962042931
 20
267.2197727391
 30
0.0
 11
313.7962042931
 21
267.2197727391
 31
0.0
  0
MTEXT
  5
142
330
139
100
AcDbEntity
  8
0
  6
Continuous
 62
     7
370
     0
100
AcDbMText
 10
333.3449922056
 20
271.7315096537
 30
-2.4
 40
3.5
 41
0.0
 71
     1
 72
     1
  1
15
  7
SLDTEXTSTYLE1
 73
     1
 44
1.0
  0
ENDBLK
  5
13B
330
139
100
AcDbEntity
  8
0
100
AcDbBlockEnd
  0
BLOCK
  5
145
330
144
100
AcDbEntity
  8
0
100
AcDbBlockBegin
  2
*D16
 70
     1
 10
0.0
 20
0.0
 30
0.0
  3
*D16
  1

  0
INSERT
  5
147
330
144
100
AcDbEntity
  8
0
  6
Continuous
 62
     7
370
     0
100
AcDbBlockReference
  2
_CLOSED
 10
276.8851013116
 20
159.0349340294
 30
-2.4
 41
6.0
 42
6.0
 50
180.0
  0
INSERT
  5
148
330
144
100
AcDbEntity
  8
0
  6
Continuous
 62
     7
370
     0
100
AcDbBlockReference
  2
_CLOSED
 10
328.7962042931
 20
159.0349340294
 30
-2.4
 41
6.0
 42
6.0
 50
0.0
  0
LINE
  5
149
330
144
100
AcDbEntity
  8
0
  6
Continuous
 62
     7
370
     0
100
AcDbLine
 10
276.8851013116
 20
197.3349340294
 30
0.0
 11
276.8851013116
 21
158.0349340294
 31
0.0
  0
LINE
  5
14A
330
144
100
AcDbEntity
  8
0
  6
Continuous
 62
     7
370
     0
100
AcDbLine
 10
328.7962042931
 20
180.0349340294
 30
0.0
 11
328.7962042931
 21
158.0349340294
 31
0.0
  0
LINE
  5
14B
330
144
100
AcDbEntity
  8
0
  6
Continuous
 62
     7
370
     0
100
AcDbLine
 10
276.8851013116
 20
159.0349340294
 30
0.0
 11
328.7962042931
 21
159.0349340294
 31
0.0
  0
LINE
  5
14C
330
144
100
AcDbEntity
  8
0
  6
Continuous
 62
     7
370
     0
100
AcDbLine
 10
328.7962042931
 20
159.0349340294
 30
0.0
 11
377.358801546
 21
159.0349340294
 31
0.0
  0
MTEXT
  5
14D
330
144
100
AcDbEntity
  8
0
  6
Continuous
 62
     7
370
     0
100
AcDbMText
 10
360.2914399229
 20
163.546670944
 30
-2.4
 40
3.5
 41
0.0
 71
     1
 72
     1
  1
51.911
  7
SLDTEXTSTYLE1
 73
     1
 44
1.0
  0
ENDBLK
  5
146
330
144
100
AcDbEntity
  8
0
100
AcDbBlockEnd
  0
BLOCK
  5
150
330
14F
100
AcDbEntity
  8
0
100
AcDbBlockBegin
  2
*D17
 70
     1
 10
0.0
 20
0.0
 30
0.0
  3
*D17
  1

  0
INSERT
  5
152
330
14F
100
AcDbEntity
  8
0
  6
Continuous
 62
     7
370
     0
100
AcDbBlockReference
  2
_CLOSED
 10
128.7337042931
 20
153.0349340294
 30
-2.4
 41
6.0
 42
6.0
 50
0.0
  0
INSERT
  5
153
330
14F
100
AcDbEntity
  8
0
  6
Continuous
 62
     7
370
     0
100
AcDbBlockReference
  2
_CLOSED
 10
88.7962042931
 20
153.0349340294
 30
-2.4
 41
6.0
 42
6.0
 50
180.0
  0
LINE
  5
154
330
14F
100
AcDbEntity
  8
0
  6
Continuous
 62
     7
370
     0
100
AcDbLine
 10
128.7337042931
 20
197.3349340294
 30
0.0
 11
128.7337042931
 21
152.0349340294
 31
0.0
  0
LINE
  5
155
330
14F
100
AcDbEntity
  8
0
  6
Continuous
 62
     7
370
     0
100
AcDbLine
 10
88.7962042931
 20
180.0349340294
 30
0.0
 11
88.7962042931
 21
152.0349340294
 31
0.0
  0
LINE
  5
156
330
14F
100
AcDbEntity
  8
0
  6
Continuous
 62
     7
370
     0
100
AcDbLine
 10
128.7337042931
 20
153.0349340294
 30
0.0
 11
88.7962042931
 21
153.0349340294
 31
0.0
  0
LINE
  5
157
330
14F
100
AcDbEntity
  8
0
  6
Continuous
 62
     7
370
     0
100
AcDbLine
 10
88.7962042931
 20
153.0349340294
 30
0.0
 11
70.2531249853
 21
153.0349340294
 31
0.0
  0
MTEXT
  5
158
330
14F
100
AcDbEntity
  8
0
  6
Continuous
 62
     7
370
     0
100
AcDbMText
 10
70.2531249853
 20
157.546670944
 30
-2.4
 40
3.5
 41
0.0
 71
     1
 72
     1
  1
39.938
  7
SLDTEXTSTYLE1
 73
     1
 44
1.0
  0
ENDBLK
  5
151
330
14F
100
AcDbEntity
  8
0
100
AcDbBlockEnd
  0
BLOCK
  5
15B
330
15A
100
AcDbEntity
  8
0
100
AcDbBlockBegin
  2
*D18
 70
     1
 10
0.0
 20
0.0
 30
0.0
  3
*D18
  1

  0
INSERT
  5
15D
330
15A
100
AcDbEntity
  8
0
  6
Continuous
 62
     7
370
     0
100
AcDbBlockReference
  2
_CLOSED
 10
133.8587042931
 20
171.0349340294
 30
-2.4
 41
6.0
 42
6.0
 50
180.0
  0
INSERT
  5
15E
330
15A
100
AcDbEntity
  8
0
  6
Continuous
 62
     7
370
     0
100
AcDbBlockReference
  2
_CLOSED
 10
128.7337042931
 20
171.0349340294
 30
-2.4
 41
6.0
 42
6.0
 50
0.0
  0
LINE
  5
15F
330
15A
100
AcDbEntity
  8
0
  6
Continuous
 62
     7
370
     0
100
AcDbLine
 10
133.8587042931
 20
197.3349340294
 30
0.0
 11
133.8587042931
 21
170.0349340294
 31
0.0
  0
LINE
  5
160
330
15A
100
AcDbEntity
  8
0
  6
Continuous
 62
     7
370
     0
100
AcDbLine
 10
128.7337042931
 20
197.3349340294
 30
0.0
 11
128.7337042931
 21
170.0349340294
 31
0.0
  0
LINE
  5
161
330
15A
100
AcDbEntity
  8
0
  6
Continuous
 62
     7
370
     0
100
AcDbLine
 10
133.8587042931
 20
171.0349340294
 30
0.0
 11
145.8587042931
 21
171.0349340294
 31
0.0
  0
LINE
  5
162
330
15A
100
AcDbEntity
  8
0
  6
Continuous
 62
     7
370
     0
100
AcDbLine
 10
133.8587042931
 20
171.0349340294
 30
0.0
 11
128.7337042931
 21
171.0349340294
 31
0.0
  0
LINE
  5
163
330
15A
100
AcDbEntity
  8
0
  6
Continuous
 62
     7
370
     0
100
AcDbLine
 10
128.7337042931
 20
171.0349340294
 30
0.0
 11
102.6569242854
 21
171.0349340294
 31
0.0
  0
MTEXT
  5
164
330
15A
100
AcDbEntity
  8
0
  6
Continuous
 62
     7
370
     0
100
AcDbMText
 10
102.6569242854
 20
175.546670944
 30
-2.4
 40
3.5
 41
0.0
 71
     1
 72
     1
  1
5.125
  7
SLDTEXTSTYLE1
 73
     1
 44
1.0
  0
ENDBLK
  5
15C
330
15A
100
AcDbEntity
  8
0
100
AcDbBlockEnd
  0
BLOCK
  5
167
330
166
100
AcDbEntity
  8
0
100
AcDbBlockBegin
  2
*D19
 70
     1
 10
0.0
 20
0.0
 30
0.0
  3
*D19
  1

  0
INSERT
  5
169
330
166
100
AcDbEntity
  8
0
  6
Continuous
 62
     7
370
     0
100
AcDbBlockReference
  2
_CLOSED
 10
276.8851013116
 20
171.0349340294
 30
-2.4
 41
6.0
 42
6.0
 50
180.0
  0
INSERT
  5
16A
330
166
100
AcDbEntity
  8
0
  6
Continuous
 62
     7
370
     0
100
AcDbBlockReference
  2
_CLOSED
 10
271.7601013116
 20
171.0349340294
 30
-2.4
 41
6.0
 42
6.0
 50
0.0
  0
LINE
  5
16B
330
166
100
AcDbEntity
  8
0
  6
Continuous
 62
     7
370
     0
100
AcDbLine
 10
276.8851013116
 20
197.3349340294
 30
0.0
 11
276.8851013116
 21
170.0349340294
 31
0.0
  0
LINE
  5
16C
330
166
100
AcDbEntity
  8
0
  6
Continuous
 62
     7
370
     0
100
AcDbLine
 10
271.7601013116
 20
197.3349340294
 30
0.0
 11
271.7601013116
 21
170.0349340294
 31
0.0
  0
LINE
  5
16D
330
166
100
AcDbEntity
  8
0
  6
Continuous
 62
     7
370
     0
100
AcDbLine
 10
276.8851013116
 20
171.0349340294
 30
0.0
 11
302.9618813193
 21
171.0349340294
 31
0.0
  0
LINE
  5
16E
330
166
100
AcDbEntity
  8
0
  6
Continuous
 62
     7
370
     0
100
AcDbLine
 10
276.8851013116
 20
171.0349340294
 30
0.0
 11
271.7601013116
 21
171.0349340294
 31
0.0
  0
LINE
  5
16F
330
166
100
AcDbEntity
  8
0
  6
Continuous
 62
     7
370
     0
100
AcDbLine
 10
271.7601013116
 20
171.0349340294
 30
0.0
 11
259.7601013116
 21
171.0349340294
 31
0.0
  0
MTEXT
  5
170
330
166
100
AcDbEntity
  8
0
  6
Continuous
 62
     7
370
     0
100
AcDbMText
 10
288.4806311226
 20
175.546670944
 30
-2.4
 40
3.5
 41
0.0
 71
     1
 72
     1
  1
5.125
  7
SLDTEXTSTYLE1
 73
     1
 44
1.0
  0
ENDBLK
  5
168
330
166
100
AcDbEntity
  8
0
100
AcDbBlockEnd
  0
BLOCK
  5
174
330
173
100
AcDbEntity
  8
0
100
AcDbBlockBegin
  2
*D20
 70
     1
 10
0.0
 20
0.0
 30
0.0
  3
*D20
  1

  0
INSERT
  5
176
330
173
100
AcDbEntity
  8
0
  6
Continuous
 62
     7
370
     0
100
AcDbBlockReference
  2
_CLOSED
 10
72.7962042931
 20
231.0349340294
 30
-2.4
 41
6.0
 42
6.0
 50
270.0
  0
INSERT
  5
177
330
173
100
AcDbEntity
  8
0
  6
Continuous
 62
     7
370
     0
100
AcDbBlockReference
  2
_CLOSED
 10
72.7962042931
 20
198.3349340294
 30
-2.4
 41
6.0
 42
6.0
 50
90.0
  0
LINE
  5
178
330
173
100
AcDbEntity
  8
0
  6
Continuous
 62
     7
370
     0
100
AcDbLine
 10
117.7962042931
 20
231.0349340294
 30
0.0
 11
71.7962042931
 21
231.0349340294
 31
0.0
  0
LINE
  5
179
330
173
100
AcDbEntity
  8
0
  6
Continuous
 62
     7
370
     0
100
AcDbLine
 10
127.7337042931
 20
198.3349340294
 30
0.0
 11
71.7962042931
 21
198.3349340294
 31
0.0
  0
LINE
  5
17A
330
173
100
AcDbEntity
  8
0
  6
Continuous
 62
     7
370
     0
100
AcDbLine
 10
72.7962042931
 20
231.0349340294
 30
0.0
 11
72.7962042931
 21
243.0349340294
 31
0.0
  0
LINE
  5
17B
330
173
100
AcDbEntity
  8
0
  6
Continuous
 62
     7
370
     0
100
AcDbLine
 10
72.7962042931
 20
231.0349340294
 30
0.0
 11
72.7962042931
 21
198.3349340294
 31
0.0
  0
LINE
  5
17C
330
173
100
AcDbEntity
  8
0
  6
Continuous
 62
     7
370
     0
100
AcDbLine
 10
72.7962042931
 20
198.3349340294
 30
0.0
 11
72.7962042931
 21
186.3349340294
 31
0.0
  0
MTEXT
  5
17D
330
173
100
AcDbEntity
  8
0
  6
Continuous
 62
     7
370
     0
100
AcDbMText
 10
68.2844673785
 20
206.9690228203
 30
-2.4
 40
3.5
 41
0.0
 71
     1
 72
     1
  1
32.700
  7
SLDTEXTSTYLE1
 11
-7.044195017643634E-15
 21
1.0
 31
0.0
 73
     1
 44
1.0
  0
ENDBLK
  5
175
330
173
100
AcDbEntity
  8
0
100
AcDbBlockEnd
  0
BLOCK
  5
180
330
17F
100
AcDbEntity
  8
0
100
AcDbBlockBegin
  2
*D21
 70
     1
 10
0.0
 20
0.0
 30
0.0
  3
*D21
  1

  0
INSERT
  5
182
330
17F
100
AcDbEntity
  8
0
  6
Continuous
 62
     7
370
     0
100
AcDbBlockReference
  2
_CLOSED
 10
78.7962042931
 20
231.0349340294
 30
-2.4
 41
6.0
 42
6.0
 50
90.0
  0
INSERT
  5
183
330
17F
100
AcDbEntity
  8
0
  6
Continuous
 62
     7
370
     0
100
AcDbBlockReference
  2
_CLOSED
 10
78.7962042931
 20
235.0349340294
 30
-2.4
 41
6.0
 42
6.0
 50
270.0
  0
LINE
  5
184
330
17F
100
AcDbEntity
  8
0
  6
Continuous
 62
     7
370
     0
100
AcDbLine
 10
117.7962042931
 20
231.0349340294
 30
0.0
 11
77.7962042931
 21
231.0349340294
 31
0.0
  0
LINE
  5
185
330
17F
100
AcDbEntity
  8
0
  6
Continuous
 62
     7
370
     0
100
AcDbLine
 10
107.7962042931
 20
235.0349340294
 30
0.0
 11
77.7962042931
 21
235.0349340294
 31
0.0
  0
LINE
  5
186
330
17F
100
AcDbEntity
  8
0
  6
Continuous
 62
     7
370
     0
100
AcDbLine
 10
78.7962042931
 20
231.0349340294
 30
0.0
 11
78.7962042931
 21
219.0349340294
 31
0.0
  0
LINE
  5
187
330
17F
100
AcDbEntity
  8
0
  6
Continuous
 62
     7
370
     0
100
AcDbLine
 10
78.7962042931
 20
231.0349340294
 30
0.0
 11
78.7962042931
 21
235.0349340294
 31
0.0
  0
LINE
  5
188
330
17F
100
AcDbEntity
  8
0
  6
Continuous
 62
     7
370
     0
100
AcDbLine
 10
78.7962042931
 20
235.0349340294
 30
0.0
 11
78.7962042931
 21
252.3359757908
 31
0.0
  0
MTEXT
  5
189
330
17F
100
AcDbEntity
  8
0
  6
Continuous
 62
     7
370
     0
100
AcDbMText
 10
74.2844673785
 20
246.9061146551
 30
-2.4
 40
3.5
 41
0.0
 71
     1
 72
     1
  1
4
  7
SLDTEXTSTYLE1
 11
6.123233995736766E-17
 21
1.0
 31
0.0
 73
     1
 44
1.0
  0
ENDBLK
  5
181
330
17F
100
AcDbEntity
  8
0
100
AcDbBlockEnd
  0
BLOCK
  5
18C
330
18B
100
AcDbEntity
  8
0
100
AcDbBlockBegin
  2
*D22
 70
     1
 10
0.0
 20
0.0
 30
0.0
  3
*D22
  1

  0
INSERT
  5
18E
330
18B
100
AcDbEntity
  8
0
  6
Continuous
 62
     7
370
     0
100
AcDbBlockReference
  2
_CLOSED
 10
141.8759855175
 20
251.2849340294
 30
-2.4
 41
6.0
 42
6.0
 50
90.0
  0
INSERT
  5
18F
330
18B
100
AcDbEntity
  8
0
  6
Continuous
 62
     7
370
     0
100
AcDbBlockReference
  2
_CLOSED
 10
141.8759855175
 20
253.2849340294
 30
-2.4
 41
6.0
 42
6.0
 50
270.0
  0
LINE
  5
190
330
18B
100
AcDbEntity
  8
0
  6
Continuous
 62
     7
370
     0
100
AcDbLine
 10
109.7962042931
 20
251.2849340294
 30
0.0
 11
142.8759855175
 21
251.2849340294
 31
0.0
  0
LINE
  5
191
330
18B
100
AcDbEntity
  8
0
  6
Continuous
 62
     7
370
     0
100
AcDbLine
 10
104.7962042931
 20
253.2849340294
 30
0.0
 11
142.8759855175
 21
253.2849340294
 31
0.0
  0
LINE
  5
192
330
18B
100
AcDbEntity
  8
0
  6
Continuous
 62
     7
370
     0
100
AcDbLine
 10
141.8759855175
 20
251.2849340294
 30
0.0
 11
141.8759855175
 21
239.2849340294
 31
0.0
  0
LINE
  5
193
330
18B
100
AcDbEntity
  8
0
  6
Continuous
 62
     7
370
     0
100
AcDbLine
 10
141.8759855175
 20
251.2849340294
 30
0.0
 11
141.8759855175
 21
253.2849340294
 31
0.0
  0
LINE
  5
194
330
18B
100
AcDbEntity
  8
0
  6
Continuous
 62
     7
370
     0
100
AcDbLine
 10
141.8759855175
 20
253.2849340294
 30
0.0
 11
141.8759855175
 21
265.9998645973
 31
0.0
  0
MTEXT
  5
195
330
18B
100
AcDbEntity
  8
0
  6
Continuous
 62
     7
370
     0
100
AcDbMText
 10
137.364248603
 20
260.5700034615
 30
-2.4
 40
3.5
 41
0.0
 71
     1
 72
     1
  1
2
  7
SLDTEXTSTYLE1
 11
6.123233995736766E-17
 21
1.0
 31
0.0
 73
     1
 44
1.0
  0
ENDBLK
  5
18D
330
18B
100
AcDbEntity
  8
0
100
AcDbBlockEnd
  0
BLOCK
  5
198
330
197
100
AcDbEntity
  8
0
100
AcDbBlockBegin
  2
*D23
 70
     1
 10
0.0
 20
0.0
 30
0.0
  3
*D23
  1

  0
INSERT
  5
19A
330
197
100
AcDbEntity
  8
0
  6
Continuous
 62
     7
370
     0
100
AcDbBlockReference
  2
_CLOSED
 10
113.7962042931
 20
165.0349340294
 30
-2.4
 41
6.0
 42
6.0
 50
180.0
  0
INSERT
  5
19B
330
197
100
AcDbEntity
  8
0
  6
Continuous
 62
     7
370
     0
100
AcDbBlockReference
  2
_CLOSED
 10
103.7962042931
 20
165.0349340294
 30
-2.4
 41
6.0
 42
6.0
 50
0.0
  0
LINE
  5
19C
330
197
100
AcDbEntity
  8
0
  6
Continuous
 62
     7
370
     0
100
AcDbLine
 10
113.7962042931
 20
180.0349340294
 30
0.0
 11
113.7962042931
 21
164.0349340294
 31
0.0
  0
LINE
  5
19D
330
197
100
AcDbEntity
  8
0
  6
Continuous
 62
     7
370
     0
100
AcDbLine
 10
103.7962042931
 20
180.0349340294
 30
0.0
 11
103.7962042931
 21
164.0349340294
 31
0.0
  0
LINE
  5
19E
330
197
100
AcDbEntity
  8
0
  6
Continuous
 62
     7
370
     0
100
AcDbLine
 10
113.7962042931
 20
165.0349340294
 30
0.0
 11
125.7962042931
 21
165.0349340294
 31
0.0
  0
LINE
  5
19F
330
197
100
AcDbEntity
  8
0
  6
Continuous
 62
     7
370
     0
100
AcDbLine
 10
113.7962042931
 20
165.0349340294
 30
0.0
 11
103.7962042931
 21
165.0349340294
 31
0.0
  0
LINE
  5
1A0
330
197
100
AcDbEntity
  8
0
  6
Continuous
 62
     7
370
     0
100
AcDbLine
 10
103.7962042931
 20
165.0349340294
 30
0.0
 11
91.7962042931
 21
165.0349340294
 31
0.0
  0
MTEXT
  5
1A1
330
197
100
AcDbEntity
  8
0
  6
Continuous
 62
     7
370
     0
100
AcDbMText
 10
104.788218012
 20
169.546670944
 30
-2.4
 40
3.5
 41
0.0
 71
     1
 72
     1
  1
10
  7
SLDTEXTSTYLE1
 73
     1
 44
1.0
  0
ENDBLK
  5
199
330
197
100
AcDbEntity
  8
0
100
AcDbBlockEnd
  0
BLOCK
  5
1A4
330
1A3
100
AcDbEntity
  8
0
100
AcDbBlockBegin
  2
*D24
 70
     1
 10
0.0
 20
0.0
 30
0.0
  3
*D24
  1

  0
INSERT
  5
1A6
330
1A3
100
AcDbEntity
  8
0
  6
Continuous
 62
     7
370
     0
100
AcDbBlockReference
  2
_CLOSED
 10
313.7962042931
 20
171.0349340294
 30
-2.4
 41
6.0
 42
6.0
 50
180.0
  0
INSERT
  5
1A7
330
1A3
100
AcDbEntity
  8
0
  6
Continuous
 62
     7
370
     0
100
AcDbBlockReference
  2
_CLOSED
 10
303.7962042931
 20
171.0349340294
 30
-2.4
 41
6.0
 42
6.0
 50
0.0
  0
LINE
  5
1A8
330
1A3
100
AcDbEntity
  8
0
  6
Continuous
 62
     7
370
     0
100
AcDbLine
 10
313.7962042931
 20
180.0349340294
 30
0.0
 11
313.7962042931
 21
170.0349340294
 31
0.0
  0
LINE
  5
1A9
330
1A3
100
AcDbEntity
  8
0
  6
Continuous
 62
     7
370
     0
100
AcDbLine
 10
303.7962042931
 20
180.0349340294
 30
0.0
 11
303.7962042931
 21
170.0349340294
 31
0.0
  0
LINE
  5
1AA
330
1A3
100
AcDbEntity
  8
0
  6
Continuous
 62
     7
370
     0
100
AcDbLine
 10
313.7962042931
 20
171.0349340294
 30
0.0
 11
325.7962042931
 21
171.0349340294
 31
0.0
  0
LINE
  5
1AB
330
1A3
100
AcDbEntity
  8
0
  6
Continuous
 62
     7
370
     0
100
AcDbLine
 10
313.7962042931
 20
171.0349340294
 30
0.0
 11
303.7962042931
 21
171.0349340294
 31
0.0
  0
LINE
  5
1AC
330
1A3
100
AcDbEntity
  8
0
  6
Continuous
 62
     7
370
     0
100
AcDbLine
 10
303.7962042931
 20
171.0349340294
 30
0.0
 11
291.7962042931
 21
171.0349340294
 31
0.0
  0
MTEXT
  5
1AD
330
1A3
100
AcDbEntity
  8
0
  6
Continuous
 62
     7
370
     0
100
AcDbMText
 10
304.788218012
 20
175.546670944
 30
-2.4
 40
3.5
 41
0.0
 71
     1
 72
     1
  1
10
  7
SLDTEXTSTYLE1
 73
     1
 44
1.0
  0
ENDBLK
  5
1A5
330
1A3
100
AcDbEntity
  8
0
100
AcDbBlockEnd
  0
BLOCK
  5
1B0
330
1AF
100
AcDbEntity
  8
0
100
AcDbBlockBegin
  2
*D25
 70
     1
 10
0.0
 20
0.0
 30
0.0
  3
*D25
  1

  0
INSERT
  5
1B2
330
1AF
100
AcDbEntity
  8
0
  6
Continuous
 62
     7
370
     0
100
AcDbBlockReference
  2
_CLOSED
 10
66.7962042931
 20
185.0349340294
 30
-2.4
 41
6.0
 42
6.0
 50
270.0
  0
INSERT
  5
1B3
330
1AF
100
AcDbEntity
  8
0
  6
Continuous
 62
     7
370
     0
100
AcDbBlockReference
  2
_CLOSED
 10
66.7962042931
 20
181.0349340294
 30
-2.4
 41
6.0
 42
6.0
 50
90.0
  0
LINE
  5
1B4
330
1AF
100
AcDbEntity
  8
0
  6
Continuous
 62
     7
370
     0
100
AcDbLine
 10
102.7962042931
 20
185.0349340294
 30
0.0
 11
65.7962042931
 21
185.0349340294
 31
0.0
  0
LINE
  5
1B5
330
1AF
100
AcDbEntity
  8
0
  6
Continuous
 62
     7
370
     0
100
AcDbLine
 10
87.7962042931
 20
181.0349340294
 30
0.0
 11
65.7962042931
 21
181.0349340294
 31
0.0
  0
LINE
  5
1B6
330
1AF
100
AcDbEntity
  8
0
  6
Continuous
 62
     7
370
     0
100
AcDbLine
 10
66.7962042931
 20
185.0349340294
 30
0.0
 11
66.7962042931
 21
197.0349340294
 31
0.0
  0
LINE
  5
1B7
330
1AF
100
AcDbEntity
  8
0
  6
Continuous
 62
     7
370
     0
100
AcDbLine
 10
66.7962042931
 20
185.0349340294
 30
0.0
 11
66.7962042931
 21
181.0349340294
 31
0.0
  0
LINE
  5
1B8
330
1AF
100
AcDbEntity
  8
0
  6
Continuous
 62
     7
370
     0
100
AcDbLine
 10
66.7962042931
 20
181.0349340294
 30
0.0
 11
66.7962042931
 21
163.733892268
 31
0.0
  0
MTEXT
  5
1B9
330
1AF
100
AcDbEntity
  8
0
  6
Continuous
 62
     7
370
     0
100
AcDbMText
 10
62.2844673785
 20
163.733892268
 30
-2.4
 40
3.5
 41
0.0
 71
     1
 72
     1
  1
4
  7
SLDTEXTSTYLE1
 11
-7.044195017643634E-15
 21
1.0
 31
0.0
 73
     1
 44
1.0
  0
ENDBLK
  5
1B1
330
1AF
100
AcDbEntity
  8
0
100
AcDbBlockEnd
  0
BLOCK
  5
1BC
330
1BB
100
AcDbEntity
  8
0
100
AcDbBlockBegin
  2
*D26
 70
     1
 10
0.0
 20
0.0
 30
0.0
  3
*D26
  1

  0
INSERT
  5
1BE
330
1BB
100
AcDbEntity
  8
0
  6
Continuous
 62
     7
370
     0
100
AcDbBlockReference
  2
_CLOSED
 10
313.7962042931
 20
165.0349340294
 30
-2.4
 41
6.0
 42
6.0
 50
0.0
  0
INSERT
  5
1BF
330
1BB
100
AcDbEntity
  8
0
  6
Continuous
 62
     7
370
     0
100
AcDbBlockReference
  2
_CLOSED
 10
328.7962042931
 20
165.0349340294
 30
-2.4
 41
6.0
 42
6.0
 50
180.0
  0
LINE
  5
1C0
330
1BB
100
AcDbEntity
  8
0
  6
Continuous
 62
     7
370
     0
100
AcDbLine
 10
313.7962042931
 20
180.0349340294
 30
0.0
 11
313.7962042931
 21
164.0349340294
 31
0.0
  0
LINE
  5
1C1
330
1BB
100
AcDbEntity
  8
0
  6
Continuous
 62
     7
370
     0
100
AcDbLine
 10
328.7962042931
 20
180.0349340294
 30
0.0
 11
328.7962042931
 21
164.0349340294
 31
0.0
  0
LINE
  5
1C2
330
1BB
100
AcDbEntity
  8
0
  6
Continuous
 62
     7
370
     0
100
AcDbLine
 10
313.7962042931
 20
165.0349340294
 30
0.0
 11
301.7962042931
 21
165.0349340294
 31
0.0
  0
LINE
  5
1C3
330
1BB
100
AcDbEntity
  8
0
  6
Continuous
 62
     7
370
     0
100
AcDbLine
 10
313.7962042931
 20
165.0349340294
 30
0.0
 11
328.7962042931
 21
165.0349340294
 31
0.0
  0
LINE
  5
1C4
330
1BB
100
AcDbEntity
  8
0
  6
Continuous
 62
     7
370
     0
100
AcDbLine
 10
328.7962042931
 20
165.0349340294
 30
0.0
 11
340.7962042931
 21
165.0349340294
 31
0.0
  0
MTEXT
  5
1C5
330
1BB
100
AcDbEntity
  8
0
  6
Continuous
 62
     7
370
     0
100
AcDbMText
 10
317.288218012
 20
169.546670944
 30
-2.4
 40
3.5
 41
0.0
 71
     1
 72
     1
  1
15
  7
SLDTEXTSTYLE1
 73
     1
 44
1.0
  0
ENDBLK
  5
1BD
330
1BB
100
AcDbEntity
  8
0
100
AcDbBlockEnd
  0
BLOCK
  5
1C8
330
1C7
100
AcDbEntity
  8
0
100
AcDbBlockBegin
  2
*D27
 70
     1
 10
0.0
 20
0.0
 30
0.0
  3
*D27
  1

  0
INSERT
  5
1CA
330
1C7
100
AcDbEntity
  8
0
  6
Continuous
 62
     7
370
     0
100
AcDbBlockReference
  2
_CLOSED
 10
88.7962042931
 20
159.0349340294
 30
-2.4
 41
6.0
 42
6.0
 50
0.0
  0
INSERT
  5
1CB
330
1C7
100
AcDbEntity
  8
0
  6
Continuous
 62
     7
370
     0
100
AcDbBlockReference
  2
_CLOSED
 10
103.7962042931
 20
159.0349340294
 30
-2.4
 41
6.0
 42
6.0
 50
180.0
  0
LINE
  5
1CC
330
1C7
100
AcDbEntity
  8
0
  6
Continuous
 62
     7
370
     0
100
AcDbLine
 10
88.7962042931
 20
180.0349340294
 30
0.0
 11
88.7962042931
 21
158.0349340294
 31
0.0
  0
LINE
  5
1CD
330
1C7
100
AcDbEntity
  8
0
  6
Continuous
 62
     7
370
     0
100
AcDbLine
 10
103.7962042931
 20
180.0349340294
 30
0.0
 11
103.7962042931
 21
158.0349340294
 31
0.0
  0
LINE
  5
1CE
330
1C7
100
AcDbEntity
  8
0
  6
Continuous
 62
     7
370
     0
100
AcDbLine
 10
88.7962042931
 20
159.0349340294
 30
0.0
 11
76.7962042931
 21
159.0349340294
 31
0.0
  0
LINE
  5
1CF
330
1C7
100
AcDbEntity
  8
0
  6
Continuous
 62
     7
370
     0
100
AcDbLine
 10
88.7962042931
 20
159.0349340294
 30
0.0
 11
103.7962042931
 21
159.0349340294
 31
0.0
  0
LINE
  5
1D0
330
1C7
100
AcDbEntity
  8
0
  6
Continuous
 62
     7
370
     0
100
AcDbLine
 10
103.7962042931
 20
159.0349340294
 30
0.0
 11
115.7962042931
 21
159.0349340294
 31
0.0
  0
MTEXT
  5
1D1
330
1C7
100
AcDbEntity
  8
0
  6
Continuous
 62
     7
370
     0
100
AcDbMText
 10
92.288218012
 20
163.546670944
 30
-2.4
 40
3.5
 41
0.0
 71
     1
 72
     1
  1
15
  7
SLDTEXTSTYLE1
 73
     1
 44
1.0
  0
ENDBLK
  5
1C9
330
1C7
100
AcDbEntity
  8
0
100
AcDbBlockEnd
  0
BLOCK
  5
1D4
330
1D3
100
AcDbEntity
  8
0
100
AcDbBlockBegin
  2
*D28
 70
     1
 10
0.0
 20
0.0
 30
0.0
  3
*D28
  1

  0
INSERT
  5
1D6
330
1D3
100
AcDbEntity
  8
0
  6
Continuous
 62
     7
370
     0
100
AcDbBlockReference
  2
_CLOSED
 10
60.7587042931
 20
231.0349340294
 30
-2.4
 41
6.0
 42
6.0
 50
90.0
  0
INSERT
  5
1D7
330
1D3
100
AcDbEntity
  8
0
  6
Continuous
 62
     7
370
     0
100
AcDbBlockReference
  2
_CLOSED
 10
60.7587042931
 20
181.0349340294
 30
-2.4
 41
6.0
 42
6.0
 50
270.0
  0
LINE
  5
1D8
330
1D3
100
AcDbEntity
  8
0
  6
Continuous
 62
     7
370
     0
100
AcDbLine
 10
132.8587042931
 20
231.0349340294
 30
0.0
 11
59.7587042931
 21
231.0349340294
 31
0.0
  0
LINE
  5
1D9
330
1D3
100
AcDbEntity
  8
0
  6
Continuous
 62
     7
370
     0
100
AcDbLine
 10
112.7962042931
 20
181.0349340294
 30
0.0
 11
59.7587042931
 21
181.0349340294
 31
0.0
  0
LINE
  5
1DA
330
1D3
100
AcDbEntity
  8
0
  6
Continuous
 62
     7
370
     0
100
AcDbLine
 10
60.7587042931
 20
231.0349340294
 30
0.0
 11
60.7587042931
 21
181.0349340294
 31
0.0
  0
MTEXT
  5
1DB
330
1D3
100
AcDbEntity
  8
0
  6
Continuous
 62
     7
370
     0
100
AcDbMText
 10
56.2469673785
 20
202.0269477484
 30
-2.4
 40
3.5
 41
0.0
 71
     1
 72
     1
  1
50
  7
SLDTEXTSTYLE1
 11
-7.044195017643634E-15
 21
1.0
 31
0.0
 73
     1
 44
1.0
  0
ENDBLK
  5
1D5
330
1D3
100
AcDbEntity
  8
0
100
AcDbBlockEnd
  0
BLOCK
  5
24F
330
24E
100
AcDbEntity
  8
0
100
AcDbBlockBegin
  2
*D29
 70
     1
 10
0.0
 20
0.0
 30
0.0
  3
*D29
  1

  0
INSERT
  5
251
330
24E
100
AcDbEntity
  8
0
  6
Continuous
 62
     7
370
     0
100
AcDbBlockReference
  2
_CLOSED
 10
336.8866976473
 20
87.0840448421
 30
-34.4
 41
6.0
 42
6.0
 50
90.0
  0
INSERT
  5
252
330
24E
100
AcDbEntity
  8
0
  6
Continuous
 62
     7
370
     0
100
AcDbBlockReference
  2
_CLOSED
 10
336.8866976473
 20
92.0840448421
 30
-34.4
 41
6.0
 42
6.0
 50
270.0
  0
LINE
  5
253
330
24E
100
AcDbEntity
  8
0
  6
Continuous
 62
     7
370
     0
100
AcDbLine
 10
329.7962042931
 20
87.0840448421
 30
0.0
 11
337.8866976473
 21
87.0840448421
 31
0.0
  0
LINE
  5
254
330
24E
100
AcDbEntity
  8
0
  6
Continuous
 62
     7
370
     0
100
AcDbLine
 10
329.7962042931
 20
92.0840448421
 30
0.0
 11
337.8866976473
 21
92.0840448421
 31
0.0
  0
LINE
  5
255
330
24E
100
AcDbEntity
  8
0
  6
Continuous
 62
     7
370
     0
100
AcDbLine
 10
336.8866976473
 20
87.0840448421
 30
0.0
 11
336.8866976473
 21
75.0840448421
 31
0.0
  0
LINE
  5
256
330
24E
100
AcDbEntity
  8
0
  6
Continuous
 62
     7
370
     0
100
AcDbLine
 10
336.8866976473
 20
87.0840448421
 30
0.0
 11
336.8866976473
 21
92.0840448421
 31
0.0
  0
LINE
  5
257
330
24E
100
AcDbEntity
  8
0
  6
Continuous
 62
     7
370
     0
100
AcDbLine
 10
336.8866976473
 20
92.0840448421
 30
0.0
 11
336.8866976473
 21
104.7136804527
 31
0.0
  0
MTEXT
  5
258
330
24E
100
AcDbEntity
  8
0
  6
Continuous
 62
     7
370
     0
100
AcDbMText
 10
332.3749607327
 20
99.2838193169
 30
-34.4
 40
3.5
 41
0.0
 71
     1
 72
     1
  1
5
  7
SLDTEXTSTYLE1
 11
6.123233995736766E-17
 21
1.0
 31
0.0
 73
     1
 44
1.0
  0
ENDBLK
  5
250
330
24E
100
AcDbEntity
  8
0
100
AcDbBlockEnd
  0
BLOCK
  5
25B
330
25A
100
AcDbEntity
  8
0
100
AcDbBlockBegin
  2
*D30
 70
     1
 10
0.0
 20
0.0
 30
0.0
  3
*D30
  1

  0
INSERT
  5
25D
330
25A
100
AcDbEntity
  8
0
  6
Continuous
 62
     7
370
     0
100
AcDbBlockReference
  2
_CLOSED
 10
328.7962042931
 20
77.0840448421
 30
-34.4
 41
6.0
 42
6.0
 50
0.0
  0
INSERT
  5
25E
330
25A
100
AcDbEntity
  8
0
  6
Continuous
 62
     7
370
     0
100
AcDbBlockReference
  2
_CLOSED
 10
88.7962042931
 20
77.0840448421
 30
-34.4
 41
6.0
 42
6.0
 50
180.0
  0
LINE
  5
25F
330
25A
100
AcDbEntity
  8
0
  6
Continuous
 62
     7
370
     0
100
AcDbLine
 10
328.7962042931
 20
86.0840448421
 30
0.0
 11
328.7962042931
 21
76.0840448421
 31
0.0
  0
LINE
  5
260
330
25A
100
AcDbEntity
  8
0
  6
Continuous
 62
     7
370
     0
100
AcDbLine
 10
88.7962042931
 20
86.0840448421
 30
0.0
 11
88.7962042931
 21
76.0840448421
 31
0.0
  0
LINE
  5
261
330
25A
100
AcDbEntity
  8
0
  6
Continuous
 62
     7
370
     0
100
AcDbLine
 10
328.7962042931
 20
77.0840448421
 30
0.0
 11
88.7962042931
 21
77.0840448421
 31
0.0
  0
MTEXT
  5
262
330
25A
100
AcDbEntity
  8
0
  6
Continuous
 62
     7
370
     0
100
AcDbMText
 10
203.4951627645
 20
81.5957817567
 30
-34.4
 40
3.5
 41
0.0
 71
     1
 72
     1
  1
240
  7
SLDTEXTSTYLE1
 73
     1
 44
1.0
  0
ENDBLK
  5
25C
330
25A
100
AcDbEntity
  8
0
100
AcDbBlockEnd
  0
ENDSEC
  0
SECTION
  2
ENTITIES
  0
LINE
  5
45
330
1F
100
AcDbEntity
  8
0
  6
Continuous
 62
     7
370
    40
100
AcDbLine
 10
25.0788435654
 20
10.2147801566
 30
0.0
 11
25.0788435654
 21
410.2147801566
 31
0.0
  0
LINE
  5
46
330
1F
100
AcDbEntity
  8
0
  6
Continuous
 62
     7
370
    40
100
AcDbLine
 10
0.0788435654
 20
0.2147801566
 30
0.0
 11
594.0788435654
 21
0.2147801566
 31
0.0
  0
LINE
  5
47
330
1F
100
AcDbEntity
  8
0
  6
Continuous
 62
     7
370
    40
100
AcDbLine
 10
0.0788435654
 20
0.2147801566
 30
0.0
 11
0.0788435654
 21
420.2147801566
 31
0.0
  0
LINE
  5
48
330
1F
100
AcDbEntity
  8
0
  6
Continuous
 62
     7
370
    40
100
AcDbLine
 10
0.0788435654
 20
420.2147801566
 30
0.0
 11
594.0788435654
 21
420.2147801566
 31
0.0
  0
LINE
  5
49
330
1F
100
AcDbEntity
  8
0
  6
Continuous
 62
     7
370
    40
100
AcDbLine
 10
594.0788435654
 20
0.2147801566
 30
0.0
 11
594.0788435654
 21
420.2147801566
 31
0.0
  0
LINE
  5
4A
330
1F
100
AcDbEntity
  8
0
  6
Continuous
 62
     7
370
    40
100
AcDbLine
 10
25.0788435654
 20
410.2147801566
 30
0.0
 11
584.0788435654
 21
410.2147801566
 31
0.0
  0
LINE
  5
4B
330
1F
100
AcDbEntity
  8
0
  6
Continuous
 62
     7
370
    40
100
AcDbLine
 10
25.0788435654
 20
10.2147801566
 30
0.0
 11
584.0788435654
 21
10.2147801566
 31
0.0
  0
LINE
  5
4C
330
1F
100
AcDbEntity
  8
0
  6
Continuous
 62
     7
370
    40
100
AcDbLine
 10
584.0788435654
 20
410.2147801566
 30
0.0
 11
584.0788435654
 21
10.2147801566
 31
0.0
  0
LINE
  5
4D
330
1F
100
AcDbEntity
  8
0
  6
Continuous
 62
     7
370
    40
100
AcDbLine
 10
396.8788435654
 20
14.4647801566
 30
0.0
 11
584.0788435654
 21
14.4647801566
 31
0.0
  0
LINE
  5
4E
330
1F
100
AcDbEntity
  8
0
  6
Continuous
 62
     7
370
    40
100
AcDbLine
 10
584.0788435654
 20
48.4647801566
 30
0.0
 11
396.8788435654
 21
48.4647801566
 31
0.0
  0
LINE
  5
4F
330
1F
100
AcDbEntity
  8
0
  6
Continuous
 62
     7
370
    40
100
AcDbLine
 10
396.8788435654
 20
65.4647801566
 30
0.0
 11
584.0788435654
 21
65.4647801566
 31
0.0
  0
LINE
  5
50
330
1F
100
AcDbEntity
  8
0
  6
Continuous
 62
     7
370
    40
100
AcDbLine
 10
423.8697959991
 20
48.4647801566
 30
0.0
 11
423.8697959991
 21
10.2147801566
 31
0.0
  0
LINE
  5
51
330
1F
100
AcDbEntity
  8
0
  6
Continuous
 62
     7
370
    40
100
AcDbLine
 10
495.6788435654
 20
31.4647801566
 30
0.0
 11
396.8788435654
 21
31.4647801566
 31
0.0
  0
LINE
  5
52
330
1F
100
AcDbEntity
  8
0
  6
Continuous
 62
     7
370
    40
100
AcDbLine
 10
495.6788435654
 20
35.7147801566
 30
0.0
 11
396.8788435654
 21
35.7147801566
 31
0.0
  0
LINE
  5
53
330
1F
100
AcDbEntity
  8
0
  6
Continuous
 62
     7
370
    40
100
AcDbLine
 10
495.6788435654
 20
39.9647801566
 30
0.0
 11
396.8788435654
 21
39.9647801566
 31
0.0
  0
LINE
  5
54
330
1F
100
AcDbEntity
  8
0
  6
Continuous
 62
     7
370
    40
100
AcDbLine
 10
495.6788435654
 20
44.2147801566
 30
0.0
 11
396.8788435654
 21
44.2147801566
 31
0.0
  0
LINE
  5
55
330
1F
100
AcDbEntity
  8
0
  6
Continuous
 62
     7
370
    40
100
AcDbLine
 10
451.4788435654
 20
10.2147801566
 30
0.0
 11
451.4788435654
 21
48.4647801566
 31
0.0
  0
LINE
  5
56
330
1F
100
AcDbEntity
  8
0
  6
Continuous
 62
     7
370
    40
100
AcDbLine
 10
396.8788435654
 20
65.4647801566
 30
0.0
 11
396.8788435654
 21
10.2147801566
 31
0.0
  0
LINE
  5
57
330
1F
100
AcDbEntity
  8
0
  6
Continuous
 62
     7
370
    40
100
AcDbLine
 10
404.6788435654
 20
48.4647801566
 30
0.0
 11
404.6788435654
 21
10.2147801566
 31
0.0
  0
LINE
  5
58
330
1F
100
AcDbEntity
  8
0
  6
Continuous
 62
     7
370
    40
100
AcDbLine
 10
430.6788435654
 20
48.4647801566
 30
0.0
 11
430.6788435654
 21
65.4647801566
 31
0.0
  0
LINE
  5
59
330
1F
100
AcDbEntity
  8
0
  6
Continuous
 62
     7
370
    40
100
AcDbLine
 10
441.2777697289
 20
48.4647801566
 30
0.0
 11
441.2777697289
 21
10.2147801566
 31
0.0
  0
LINE
  5
5A
330
1F
100
AcDbEntity
  8
0
  6
Continuous
 62
     7
370
    40
100
AcDbLine
 10
461.8788435654
 20
31.4647801566
 30
0.0
 11
461.8788435654
 21
48.4647801566
 31
0.0
  0
LINE
  5
5B
330
1F
100
AcDbEntity
  8
0
  6
Continuous
 62
     7
370
    40
100
AcDbLine
 10
451.4788435654
 20
18.7147801566
 30
0.0
 11
396.8788435654
 21
18.7147801566
 31
0.0
  0
LINE
  5
5C
330
1F
100
AcDbEntity
  8
0
  6
Continuous
 62
     7
370
    40
100
AcDbLine
 10
477.4788435654
 20
65.4647801566
 30
0.0
 11
477.4788435654
 21
27.2147801566
 31
0.0
  0
LINE
  5
5D
330
1F
100
AcDbEntity
  8
0
  6
Continuous
 62
     7
370
    40
100
AcDbLine
 10
451.4788435654
 20
22.9647081566
 30
0.0
 11
396.8788435654
 21
22.9647081566
 31
0.0
  0
LINE
  5
5E
330
1F
100
AcDbEntity
  8
0
  6
Continuous
 62
     7
370
    40
100
AcDbLine
 10
451.4788435654
 20
27.2147801566
 30
0.0
 11
396.8788435654
 21
27.2147801566
 31
0.0
  0
LINE
  5
5F
330
1F
100
AcDbEntity
  8
0
  6
Continuous
 62
     7
370
    40
100
AcDbLine
 10
451.4788435654
 20
27.2147801566
 30
0.0
 11
584.0788435654
 21
27.2147801566
 31
0.0
  0
LINE
  5
60
330
1F
100
AcDbEntity
  8
0
  6
Continuous
 62
     7
370
    40
100
AcDbLine
 10
495.6788435654
 20
65.4647801566
 30
0.0
 11
495.6788435654
 21
10.2147801566
 31
0.0
  0
LINE
  5
61
330
1F
100
AcDbEntity
  8
0
  6
Continuous
 62
     7
370
    40
100
AcDbLine
 10
539.8788435654
 20
10.2147801566
 30
0.0
 11
539.8788435654
 21
14.4647801566
 31
0.0
  0
LINE
  5
62
330
1F
100
AcDbEntity
  8
0
  6
Continuous
 62
     7
370
    40
100
AcDbLine
 10
547.6788435654
 20
59.0897801566
 30
0.0
 11
547.6788435654
 21
65.4647801566
 31
0.0
  0
LINE
  5
63
330
1F
100
AcDbEntity
  8
0
  6
Continuous
 62
     7
370
    40
100
AcDbLine
 10
571.0788435654
 20
14.4647801566
 30
0.0
 11
571.0788435654
 21
27.2147801566
 31
0.0
  0
LINE
  5
64
330
1F
100
AcDbEntity
  8
0
  6
Continuous
 62
     7
370
    40
100
AcDbLine
 10
584.0788435654
 20
59.0897801566
 30
0.0
 11
495.6788435654
 21
59.0897801566
 31
0.0
  0
LINE
  5
65
330
1F
100
AcDbEntity
  8
0
  6
Continuous
 62
     7
370
    40
100
AcDbLine
 10
584.0788435654
 20
18.7147801566
 30
0.0
 11
571.0788435654
 21
18.7147801566
 31
0.0
  0
MTEXT
  5
67
330
1F
100
AcDbEntity
  8
0
  6
Continuous
 62
     7
370
     0
100
AcDbMText
 10
539.9641506756
 20
41.2496795977
 30
0.0
 40
6.35
 41
0.0
 71
     2
 72
     1
  1
\M+18E78\M+1928C / Support
  7
SLDTEXTSTYLE0
 73
     1
 44
1.0
  0
MTEXT
  5
69
330
1F
100
AcDbEntity
  8
0
  6
Continuous
 62
     7
370
     0
100
AcDbMText
 10
536.7803537177
 20
24.8465185664
 30
0.0
 40
6.35
 41
0.0
 71
     2
 72
     1
  1
Popn Asc
  7
SLDTEXTSTYLE1
 73
     1
 44
1.0
  0
MTEXT
  5
6A
330
1F
100
AcDbEntity
  8
0
  6
Continuous
 62
     7
370
     0
100
AcDbMText
 10
452.4966546935
 20
13.1640920602
 30
0.0
 40
1.4986
 41
0.0
 71
     1
 72
     1
  1
WEIGHT:
  7
SLDTEXTSTYLE1
 73
     1
 44
1.0
  0
MTEXT
  5
6B
330
1F
100
AcDbEntity
  8
0
  6
Continuous
 62
     7
370
     0
100
AcDbMText
 10
574.9998284117
 20
24.5152246096
 30
0.0
 40
2.9104166667
 41
0.0
 71
     1
 72
     1
  1
A2
  7
SLDTEXTSTYLE1
 73
     1
 44
1.0
  0
MTEXT
  5
6D
330
1F
100
AcDbEntity
  8
0
  6
Continuous
 62
     7
370
     0
100
AcDbMText
 10
541.3571379932
 20
13.114867664
 30
0.0
 40
1.5
 41
0.0
 71
     1
 72
     1
  1
SHEET 3 OF 4
  7
SLDTEXTSTYLE2
 73
     1
 44
1.0
  0
MTEXT
  5
6E
330
1F
100
AcDbEntity
  8
0
  6
Continuous
 62
     7
370
     0
100
AcDbMText
 10
496.9528096828
 20
13.114867664
 30
0.0
 40
1.5
 41
0.0
 71
     1
 72
     1
  1
SCALE:1:1
  7
SLDTEXTSTYLE1
 73
     1
 44
1.0
  0
MTEXT
  5
6F
330
1F
100
AcDbEntity
  8
0
  6
Continuous
 62
     7
370
     0
100
AcDbMText
 10
496.9528096828
 20
25.0834182165
 30
0.0
 40
1.5
 41
0.0
 71
     1
 72
     1
  1
DWG NO.
  7
SLDTEXTSTYLE1
 73
     1
 44
1.0
  0
MTEXT
  5
70
330
1F
100
AcDbEntity
  8
0
  6
Continuous
 62
     7
370
     0
100
AcDbMText
 10
496.835030502
 20
46.4931146755
 30
0.0
 40
1.5
 41
0.0
 71
     1
 72
     1
  1
TITLE:
  7
SLDTEXTSTYLE1
 73
     1
 44
1.0
  0
MTEXT
  5
71
330
1F
100
AcDbEntity
  8
0
  6
Continuous
 62
     7
370
     0
100
AcDbMText
 10
550.2064252647
 20
62.5496890699
 30
0.0
 40
1.5
 41
0.0
 71
     1
 72
     1
  1
REVISION
  7
SLDTEXTSTYLE1
 73
     1
 44
1.0
  0
MTEXT
  5
72
330
1F
100
AcDbEntity
  8
0
  6
Continuous
 62
     7
370
     0
100
AcDbMText
 10
509.4934840882
 20
62.7477739645
 30
0.0
 40
1.5
 41
0.0
 71
     1
 72
     1
  1
DO NOT SCALE DRAWING
  7
SLDTEXTSTYLE1
 73
     1
 44
1.0
  0
MTEXT
  5
73
330
1F
100
AcDbEntity
  8
0
  6
Continuous
 62
     7
370
     0
100
AcDbMText
 10
452.5247058741
 20
26.2008366787
 30
0.0
 40
1.5
 41
0.0
 71
     1
 72
     1
  1
MATERIAL:
  7
SLDTEXTSTYLE1
 73
     1
 44
1.0
  0
MTEXT
  5
74
330
1F
100
AcDbEntity
  8
0
  6
Continuous
 62
     7
370
     0
100
AcDbMText
 10
444.0935455311
 20
46.7909596107
 30
0.0
 40
1.5
 41
0.0
 71
     1
 72
     1
  1
DATE
  7
SLDTEXTSTYLE1
 73
     1
 44
1.0
  0
MTEXT
  5
75
330
1F
100
AcDbEntity
  8
0
  6
Continuous
 62
     7
370
     0
100
AcDbMText
 10
426.9124311285
 20
46.776536769
 30
0.0
 40
1.5
 41
0.0
 71
     1
 72
     1
  1
SIGNATURE
  7
SLDTEXTSTYLE1
 73
     1
 44
1.0
  0
MTEXT
  5
76
330
1F
100
AcDbEntity
  8
0
  6
Continuous
 62
     7
370
     0
100
AcDbMText
 10
411.201082783
 20
46.7162630229
 30
0.0
 40
1.5
 41
0.0
 71
     1
 72
     1
  1
NAME
  7
SLDTEXTSTYLE1
 73
     1
 44
1.0
  0
INSERT
  5
7D
330
1F
100
AcDbEntity
  8
0
  6
Continuous
 62
     7
370
     0
100
AcDbBlockReference
  2
SW_NOTE_4
 10
478.1880592516
 20
62.2842700325
 30
0.0
  0
MTEXT
  5
7E
330
1F
100
AcDbEntity
  8
0
  6
Continuous
 62
     7
370
     0
100
AcDbMText
 10
431.2501357322
 20
64.1340523846
 30
0.0
 40
1.5
 41
0.0
 71
     1
 72
     1
  1
FINISH:
  7
SLDTEXTSTYLE1
 73
     1
 44
1.0
  0
INSERT
  5
88
330
1F
100
AcDbEntity
  8
0
  6
Continuous
 62
     7
370
     0
100
AcDbBlockReference
  2
SW_NOTE_5
 10
397.472512311
 20
62.2021502637
 30
0.0
  0
MTEXT
  5
89
330
1F
100
AcDbEntity
  8
0
  6
Continuous
 62
     7
370
     0
100
AcDbMText
 10
397.5478864275
 20
25.5644295968
 30
0.0
 40
1.5
 41
0.0
 71
     1
 72
     1
  1
Q.A
  7
SLDTEXTSTYLE1
 73
     1
 44
1.0
  0
MTEXT
  5
8A
330
1F
100
AcDbEntity
  8
0
  6
Continuous
 62
     7
370
     0
100
AcDbMText
 10
397.3340300644
 20
29.9484850401
 30
0.0
 40
1.5
 41
0.0
 71
     1
 72
     1
  1
MFG
  7
SLDTEXTSTYLE1
 73
     1
 44
1.0
  0
MTEXT
  5
8B
330
1F
100
AcDbEntity
  8
0
  6
Continuous
 62
     7
370
     0
100
AcDbMText
 10
397.2805659737
 20
34.2790763926
 30
0.0
 40
1.5
 41
0.0
 71
     1
 72
     1
  1
APPV'D
  7
SLDTEXTSTYLE1
 73
     1
 44
1.0
  0
MTEXT
  5
8C
330
1F
100
AcDbEntity
  8
0
  6
Continuous
 62
     7
370
     0
100
AcDbMText
 10
397.289312433
 20
38.3691875495
 30
0.0
 40
1.5
 41
0.0
 71
     1
 72
     1
  1
CHK'D
  7
SLDTEXTSTYLE1
 73
     1
 44
1.0
  0
MTEXT
  5
8D
330
1F
100
AcDbEntity
  8
0
  6
Continuous
 62
     7
370
     0
100
AcDbMText
 10
397.0909928094
 20
42.6444952754
 30
0.0
 40
1.5
 41
0.0
 71
     1
 72
     1
  1
DRAWN
  7
SLDTEXTSTYLE1
 73
     1
 44
1.0
  0
LINE
  5
8E
330
1F
100
AcDbEntity
  8
0
  6
Continuous
 62
     7
370
    15
100
AcDbLine
 10
113.7962042931
 20
181.0349340294
 30
0.0
 11
113.7962042931
 21
185.0349340294
 31
0.0
  0
LINE
  5
8F
330
1F
100
AcDbEntity
  8
0
  6
Continuous
 62
     7
370
    15
100
AcDbLine
 10
113.7962042931
 20
185.0349340294
 30
0.0
 11
103.7962042931
 21
185.0349340294
 31
0.0
  0
LINE
  5
90
330
1F
100
AcDbEntity
  8
0
  6
Continuous
 62
     7
370
    15
100
AcDbLine
 10
103.7962042931
 20
185.0349340294
 30
0.0
 11
103.7962042931
 21
181.0349340294
 31
0.0
  0
LINE
  5
91
330
1F
100
AcDbEntity
  8
0
  6
Continuous
 62
     7
370
    15
100
AcDbLine
 10
313.7962042931
 20
181.0349340294
 30
0.0
 11
313.7962042931
 21
185.0349340294
 31
0.0
  0
LINE
  5
92
330
1F
100
AcDbEntity
  8
0
  6
Continuous
 62
     7
370
    15
100
AcDbLine
 10
313.7962042931
 20
185.0349340294
 30
0.0
 11
303.7962042931
 21
185.0349340294
 31
0.0
  0
LINE
  5
93
330
1F
100
AcDbEntity
  8
0
  6
Continuous
 62
     7
370
    15
100
AcDbLine
 10
303.7962042931
 20
185.0349340294
 30
0.0
 11
303.7962042931
 21
181.0349340294
 31
0.0
  0
LINE
  5
94
330
1F
100
AcDbEntity
  8
0
  6
Continuous
 62
     7
370
    15
100
AcDbLine
 10
195.2344028023
 20
191.0349340294
 30
0.0
 11
195.2344028023
 21
196.0349340294
 31
0.0
  0
LINE
  5
95
330
1F
100
AcDbEntity
  8
0
  6
Continuous
 62
     7
370
    15
100
AcDbLine
 10
210.3844028023
 20
191.0349340294
 30
0.0
 11
195.2344028023
 21
191.0349340294
 31
0.0
  0
LINE
  5
96
330
1F
100
AcDbEntity
  8
0
  6
Continuous
 62
     7
370
    15
100
AcDbLine
 10
210.3844028023
 20
196.0349340294
 30
0.0
 11
210.3844028023
 21
191.0349340294
 31
0.0
  0
LINE
  5
97
330
1F
100
AcDbEntity
  8
0
  6
Continuous
 62
     7
370
    15
100
AcDbLine
 10
228.8094028023
 20
196.0349340294
 30
0.0
 11
210.3844028023
 21
196.0349340294
 31
0.0
  0
LINE
  5
98
330
1F
100
AcDbEntity
  8
0
  6
Continuous
 62
     7
370
    15
100
AcDbLine
 10
228.8094028023
 20
204.0349340294
 30
0.0
 11
228.8094028023
 21
196.0349340294
 31
0.0
  0
LINE
  5
99
330
1F
100
AcDbEntity
  8
0
  6
Continuous
 62
     7
370
    15
100
AcDbLine
 10
176.8094028023
 20
204.0349340294
 30
0.0
 11
228.8094028023
 21
204.0349340294
 31
0.0
  0
LINE
  5
9A
330
1F
100
AcDbEntity
  8
0
  6
Continuous
 62
     7
370
    15
100
AcDbLine
 10
176.8094028023
 20
196.0349340294
 30
0.0
 11
176.8094028023
 21
204.0349340294
 31
0.0
  0
LINE
  5
9B
330
1F
100
AcDbEntity
  8
0
  6
Continuous
 62
     7
370
    15
100
AcDbLine
 10
195.2344028023
 20
196.0349340294
 30
0.0
 11
176.8094028023
 21
196.0349340294
 31
0.0
  0
LINE
  5
9C
330
1F
100
AcDbEntity
  8
0
  6
Continuous
 62
     7
370
    15
100
AcDbLine
 10
128.7337042931
 20
231.0349340294
 30
0.0
 11
118.7962042931
 21
231.0349340294
 31
0.0
  0
LINE
  5
9D
330
1F
100
AcDbEntity
  8
0
  6
Continuous
 62
     7
370
    15
100
AcDbLine
 10
271.7601013116
 20
231.0349340294
 30
0.0
 11
133.8587042931
 21
231.0349340294
 31
0.0
  0
LINE
  5
9E
330
1F
100
AcDbEntity
  8
0
  6
Continuous
 62
     7
370
    15
100
AcDbLine
 10
88.7962042931
 20
181.0349340294
 30
0.0
 11
103.7962042931
 21
181.0349340294
 31
0.0
  0
LINE
  5
9F
330
1F
100
AcDbEntity
  8
0
  6
Continuous
 62
     7
370
    15
100
AcDbLine
 10
113.7962042931
 20
181.0349340294
 30
0.0
 11
303.7962042931
 21
181.0349340294
 31
0.0
  0
LINE
  5
A0
330
1F
100
AcDbEntity
  8
0
  6
Continuous
 62
     7
370
    15
100
AcDbLine
 10
313.7962042931
 20
251.2849340294
 30
0.0
 11
298.7962042931
 21
251.2849340294
 31
0.0
  0
LINE
  5
A1
330
1F
100
AcDbEntity
  8
0
  6
Continuous
 62
     7
370
    15
100
AcDbLine
 10
313.7962042931
 20
253.2849340294
 30
0.0
 11
313.7962042931
 21
251.2849340294
 31
0.0
  0
LINE
  5
A2
330
1F
100
AcDbEntity
  8
0
  6
Continuous
 62
     7
370
    15
100
AcDbLine
 10
328.7962042931
 20
253.2849340294
 30
0.0
 11
313.7962042931
 21
253.2849340294
 31
0.0
  0
LINE
  5
A3
330
1F
100
AcDbEntity
  8
0
  6
Continuous
 62
     7
370
    15
100
AcDbLine
 10
328.7962042931
 20
181.0349340294
 30
0.0
 11
328.7962042931
 21
253.2849340294
 31
0.0
  0
LINE
  5
A4
330
1F
100
AcDbEntity
  8
0
  6
Continuous
 62
     7
370
    15
100
AcDbLine
 10
313.7962042931
 20
181.0349340294
 30
0.0
 11
328.7962042931
 21
181.0349340294
 31
0.0
  0
LINE
  5
A5
330
1F
100
AcDbEntity
  8
0
  6
Continuous
 62
     7
370
    15
100
AcDbLine
 10
88.7962042931
 20
253.2849340294
 30
0.0
 11
88.7962042931
 21
181.0349340294
 31
0.0
  0
LINE
  5
A6
330
1F
100
AcDbEntity
  8
0
  6
Continuous
 62
     7
370
    15
100
AcDbLine
 10
103.7962042931
 20
253.2849340294
 30
0.0
 11
88.7962042931
 21
253.2849340294
 31
0.0
  0
LINE
  5
A7
330
1F
100
AcDbEntity
  8
0
  6
Continuous
 62
     7
370
    15
100
AcDbLine
 10
103.7962042931
 20
251.2849340294
 30
0.0
 11
103.7962042931
 21
253.2849340294
 31
0.0
  0
LINE
  5
A8
330
1F
100
AcDbEntity
  8
0
  6
Continuous
 62
     7
370
    15
100
AcDbLine
 10
108.7962042931
 20
251.2849340294
 30
0.0
 11
103.7962042931
 21
251.2849340294
 31
0.0
  0
LINE
  5
A9
330
1F
100
AcDbEntity
  8
0
  6
Continuous
 62
     7
370
    15
100
AcDbLine
 10
108.7962042931
 20
235.0349340294
 30
0.0
 11
108.7962042931
 21
251.2849340294
 31
0.0
  0
LINE
  5
AA
330
1F
100
AcDbEntity
  8
0
  6
Continuous
 62
     7
370
    15
100
AcDbLine
 10
118.7962042931
 20
235.0349340294
 30
0.0
 11
108.7962042931
 21
235.0349340294
 31
0.0
  0
LINE
  5
AB
330
1F
100
AcDbEntity
  8
0
  6
Continuous
 62
     7
370
    15
100
AcDbLine
 10
118.7962042931
 20
231.0349340294
 30
0.0
 11
118.7962042931
 21
235.0349340294
 31
0.0
  0
LINE
  5
AC
330
1F
100
AcDbEntity
  8
0
  6
Continuous
 62
     7
370
    15
100
AcDbLine
 10
298.7962042931
 20
251.2849340294
 30
0.0
 11
298.7962042931
 21
231.0349340294
 31
0.0
  0
LINE
  5
AD
330
1F
100
AcDbEntity
  8
0
  6
Continuous
 62
     7
370
    15
100
AcDbLine
 10
298.7962042931
 20
231.0349340294
 30
0.0
 11
276.8851013116
 21
231.0349340294
 31
0.0
  0
LINE
  5
AE
330
1F
100
AcDbEntity
  8
0
  6
Continuous
 62
     7
370
    15
100
AcDbLine
 10
133.8587042931
 20
198.3349340294
 30
0.0
 11
128.7337042931
 21
198.3349340294
 31
0.0
  0
LINE
  5
AF
330
1F
100
AcDbEntity
  8
0
  6
Continuous
 62
     7
370
    15
100
AcDbLine
 10
128.7337042931
 20
231.0349340294
 30
0.0
 11
128.7337042931
 21
198.3349340294
 31
0.0
  0
LINE
  5
B0
330
1F
100
AcDbEntity
  8
0
  6
Continuous
 62
     7
370
    15
100
AcDbLine
 10
133.8587042931
 20
198.3349340294
 30
0.0
 11
133.8587042931
 21
231.0349340294
 31
0.0
  0
LINE
  5
B1
330
1F
100
AcDbEntity
  8
0
  6
Continuous
 62
     7
370
    15
100
AcDbLine
 10
276.8851013116
 20
198.3349340294
 30
0.0
 11
271.7601013116
 21
198.3349340294
 31
0.0
  0
LINE
  5
B2
330
1F
100
AcDbEntity
  8
0
  6
Continuous
 62
     7
370
    15
100
AcDbLine
 10
276.8851013116
 20
198.3349340294
 30
0.0
 11
276.8851013116
 21
231.0349340294
 31
0.0
  0
LINE
  5
B3
330
1F
100
AcDbEntity
  8
0
  6
Continuous
 62
     7
370
    15
100
AcDbLine
 10
271.7601013116
 20
231.0349340294
 30
0.0
 11
271.7601013116
 21
198.3349340294
 31
0.0
  0
DIMENSION
  5
B4
330
1F
100
AcDbEntity
  8
0
  6
Continuous
 62
     7
370
     0
100
AcDbDimension
  2
*D4
 10
88.7962042931
 20
275.2849340294
 30
0.0
 11
72.7962042931
 21
275.2849340294
 31
0.0
 70
   160
 71
     2
 42
-1.0
  3
SLDDIMSTYLE0
100
AcDbAlignedDimension
 13
103.7962042931
 23
253.2849340294
 33
0.0
 14
88.7962042931
 24
253.2849340294
 34
0.0
100
AcDbRotatedDimension
  0
DIMENSION
  5
C7
330
1F
100
AcDbEntity
  8
0
  6
Continuous
 62
     7
370
     0
100
AcDbDimension
  2
*D5
 10
108.7962042931
 20
281.2849340294
 30
0.0
 11
125.4540793018
 21
281.2849340294
 31
0.0
 70
   160
 71
     2
 42
-1.0
  3
SLDDIMSTYLE0
100
AcDbAlignedDimension
 13
88.7962042931
 23
253.2849340294
 33
0.0
 14
108.7962042931
 24
251.2849340294
 34
0.0
100
AcDbRotatedDimension
  0
DIMENSION
  5
D2
330
1F
100
AcDbEntity
  8
0
  6
Continuous
 62
     7
370
     0
100
AcDbDimension
  2
*D6
 10
54.7962042931
 20
253.2849340294
 30
0.0
 11
54.7962042931
 21
215.5027036318
 31
0.0
 70
   160
 71
     2
 42
-1.0
  3
SLDDIMSTYLE1
100
AcDbAlignedDimension
 13
88.7962042931
 23
181.0349340294
 33
0.0
 14
313.7962042931
 24
253.2849340294
 34
0.0
 50
90.0
100
AcDbRotatedDimension
  0
DIMENSION
  5
DD
330
1F
100
AcDbEntity
  8
0
  6
Continuous
 62
     7
370
     0
100
AcDbDimension
  2
*D7
 10
228.8094028023
 20
165.0349340294
 30
0.0
 11
204.687172035
 21
165.0349340294
 31
0.0
 70
   160
 71
     2
 42
-1.0
  3
SLDDIMSTYLE0
100
AcDbAlignedDimension
 13
176.8094028023
 23
196.0349340294
 33
0.0
 14
228.8094028023
 24
196.0349340294
 34
0.0
100
AcDbRotatedDimension
  0
DIMENSION
  5
E7
330
1F
100
AcDbEntity
  8
0
  6
Continuous
 62
     7
370
     0
100
AcDbDimension
  2
*D8
 10
210.3844028023
 20
173.9391275778
 30
0.0
 11
228.0813655834
 21
173.9391275778
 31
0.0
 70
   160
 71
     2
 42
-1.0
  3
SLDDIMSTYLE1
100
AcDbAlignedDimension
 13
195.2344028023
 23
191.0349340294
 33
0.0
 14
210.3844028023
 24
191.0349340294
 34
0.0
100
AcDbRotatedDimension
  0
DIMENSION
  5
F2
330
1F
100
AcDbEntity
  8
0
  6
Continuous
 62
     7
370
     0
100
AcDbDimension
  2
*D9
 10
344.7962042931
 20
204.0349340294
 30
0.0
 11
344.7962042931
 21
215.5027036318
 31
0.0
 70
   160
 71
     2
 42
-1.0
  3
SLDDIMSTYLE2
100
AcDbAlignedDimension
 13
228.8094028023
 23
196.0349340294
 33
0.0
 14
228.8094028023
 24
204.0349340294
 34
0.0
 50
90.0
100
AcDbRotatedDimension
  0
DIMENSION
  5
FF
330
1F
100
AcDbEntity
  8
0
  6
Continuous
 62
     7
370
     0
100
AcDbDimension
  2
*D10
 10
350.7962042931
 20
196.0349340294
 30
0.0
 11
350.7962042931
 21
215.5027036318
 31
0.0
 70
   160
 71
     2
 42
-1.0
  3
SLDDIMSTYLE2
100
AcDbAlignedDimension
 13
210.3844028023
 23
191.0349340294
 33
0.0
 14
228.8094028023
 24
196.0349340294
 34
0.0
 50
90.0
100
AcDbRotatedDimension
  0
DIMENSION
  5
10B
330
1F
100
AcDbEntity
  8
0
  6
Continuous
 62
     7
370
     0
100
AcDbDimension
  2
*D11
 10
356.7962042931
 20
181.0349340294
 30
0.0
 11
356.7962042931
 21
215.5027036318
 31
0.0
 70
   160
 71
     2
 42
-1.0
  3
SLDDIMSTYLE2
100
AcDbAlignedDimension
 13
210.3844028023
 23
191.0349340294
 33
0.0
 14
303.7962042931
 24
181.0349340294
 34
0.0
 50
90.0
100
AcDbRotatedDimension
  0
DIMENSION
  5
117
330
1F
100
AcDbEntity
  8
0
  6
Continuous
 62
     7
370
     0
100
AcDbDimension
  2
*D12
 10
88.7962042931
 20
147.0349340294
 30
0.0
 11
129.3235712894
 21
147.0349340294
 31
0.0
 70
   160
 71
     2
 42
-1.0
  3
SLDDIMSTYLE0
100
AcDbAlignedDimension
 13
176.8094028023
 23
196.0349340294
 33
0.0
 14
88.7962042931
 24
181.0349340294
 34
0.0
100
AcDbRotatedDimension
  0
DIMENSION
  5
121
330
1F
100
AcDbEntity
  8
0
  6
Continuous
 62
     7
370
     0
100
AcDbDimension
  2
*D13
 10
108.7962042931
 20
270.8849340294
 30
0.0
 11
140.1310430028
 21
270.8849340294
 31
0.0
 70
   160
 71
     2
 42
-1.0
  3
SLDDIMSTYLE2
100
AcDbAlignedDimension
 13
118.7962042931
 23
235.0349340294
 33
0.0
 14
108.7962042931
 24
251.2849340294
 34
0.0
 50
0.0
100
AcDbRotatedDimension
  0
DIMENSION
  5
12D
330
1F
100
AcDbEntity
  8
0
  6
Continuous
 62
     7
370
     0
100
AcDbDimension
  2
*D14
 10
328.7962042931
 20
258.6320308036
 30
0.0
 11
337.6491075189
 21
258.6320308036
 31
0.0
 70
   160
 71
     2
 42
-1.0
  3
SLDDIMSTYLE0
100
AcDbAlignedDimension
 13
298.7962042931
 23
251.2849340294
 33
0.0
 14
328.7962042931
 24
253.2849340294
 34
0.0
100
AcDbRotatedDimension
  0
DIMENSION
  5
138
330
1F
100
AcDbEntity
  8
0
  6
Continuous
 62
     7
370
     0
100
AcDbDimension
  2
*D15
 10
313.7962042931
 20
267.2197727391
 30
0.0
 11
337.3529784866
 21
267.2197727391
 31
0.0
 70
   160
 71
     2
 42
-1.0
  3
SLDDIMSTYLE0
100
AcDbAlignedDimension
 13
328.7962042931
 23
253.2849340294
 33
0.0
 14
313.7962042931
 24
253.2849340294
 34
0.0
100
AcDbRotatedDimension
  0
DIMENSION
  5
143
330
1F
100
AcDbEntity
  8
0
  6
Continuous
 62
     7
370
     0
100
AcDbDimension
  2
*D16
 10
328.7962042931
 20
159.0349340294
 30
0.0
 11
368.8251207345
 21
159.0349340294
 31
0.0
 70
   160
 71
     2
 42
-1.0
  3
SLDDIMSTYLE0
100
AcDbAlignedDimension
 13
276.8851013116
 23
198.3349340294
 33
0.0
 14
328.7962042931
 24
181.0349340294
 34
0.0
100
AcDbRotatedDimension
  0
DIMENSION
  5
14E
330
1F
100
AcDbEntity
  8
0
  6
Continuous
 62
     7
370
     0
100
AcDbDimension
  2
*D17
 10
88.7962042931
 20
153.0349340294
 30
0.0
 11
78.7868057968
 21
153.0349340294
 31
0.0
 70
   160
 71
     2
 42
-1.0
  3
SLDDIMSTYLE0
100
AcDbAlignedDimension
 13
128.7337042931
 23
198.3349340294
 33
0.0
 14
88.7962042931
 24
181.0349340294
 34
0.0
100
AcDbRotatedDimension
  0
DIMENSION
  5
159
330
1F
100
AcDbEntity
  8
0
  6
Continuous
 62
     7
370
     0
100
AcDbDimension
  2
*D18
 10
128.7337042931
 20
171.0349340294
 30
0.0
 11
109.8975493837
 21
171.0349340294
 31
0.0
 70
   160
 71
     2
 42
-1.0
  3
SLDDIMSTYLE2
100
AcDbAlignedDimension
 13
133.8587042931
 23
198.3349340294
 33
0.0
 14
128.7337042931
 24
198.3349340294
 34
0.0
100
AcDbRotatedDimension
  0
DIMENSION
  5
165
330
1F
100
AcDbEntity
  8
0
  6
Continuous
 62
     7
370
     0
100
AcDbDimension
  2
*D19
 10
271.7601013116
 20
171.0349340294
 30
0.0
 11
295.7212562209
 21
171.0349340294
 31
0.0
 70
   160
 71
     2
 42
-1.0
  3
SLDDIMSTYLE2
100
AcDbAlignedDimension
 13
276.8851013116
 23
198.3349340294
 33
0.0
 14
271.7601013116
 24
198.3349340294
 34
0.0
100
AcDbRotatedDimension
  0
DIMENSION
  5
171
330
1F
100
AcDbEntity
  8
0
  6
Continuous
 62
     7
370
     0
100
AcDbDimension
  2
*D20
 10
72.7962042931
 20
198.3349340294
 30
0.0
 11
72.7962042931
 21
215.5027036318
 31
0.0
 70
   160
 71
     2
 42
-1.0
  3
SLDDIMSTYLE3
100
AcDbAlignedDimension
 13
118.7962042931
 23
231.0349340294
 33
0.0
 14
128.7337042931
 24
198.3349340294
 34
0.0
 50
90.0
100
AcDbRotatedDimension
  0
DIMENSION
  5
17E
330
1F
100
AcDbEntity
  8
0
  6
Continuous
 62
     7
370
     0
100
AcDbDimension
  2
*D21
 10
78.7962042931
 20
235.0349340294
 30
0.0
 11
78.7962042931
 21
249.6210452229
 31
0.0
 70
   160
 71
     2
 42
-1.0
  3
SLDDIMSTYLE2
100
AcDbAlignedDimension
 13
118.7962042931
 23
231.0349340294
 33
0.0
 14
108.7962042931
 24
235.0349340294
 34
0.0
 50
90.0
100
AcDbRotatedDimension
  0
DIMENSION
  5
18A
330
1F
100
AcDbEntity
  8
0
  6
Continuous
 62
     7
370
     0
100
AcDbDimension
  2
*D22
 10
141.8759855175
 20
253.2849340294
 30
0.0
 11
141.8759855175
 21
263.2849340294
 31
0.0
 70
   160
 71
     2
 42
-1.0
  3
SLDDIMSTYLE2
100
AcDbAlignedDimension
 13
108.7962042931
 23
251.2849340294
 33
0.0
 14
103.7962042931
 24
253.2849340294
 34
0.0
 50
90.0
100
AcDbRotatedDimension
  0
DIMENSION
  5
196
330
1F
100
AcDbEntity
  8
0
  6
Continuous
 62
     7
370
     0
100
AcDbDimension
  2
*D23
 10
103.7962042931
 20
165.0349340294
 30
0.0
 11
108.7962042931
 21
165.0349340294
 31
0.0
 70
   160
 71
     2
 42
-1.0
  3
SLDDIMSTYLE2
100
AcDbAlignedDimension
 13
113.7962042931
 23
181.0349340294
 33
0.0
 14
103.7962042931
 24
181.0349340294
 34
0.0
100
AcDbRotatedDimension
  0
DIMENSION
  5
1A2
330
1F
100
AcDbEntity
  8
0
  6
Continuous
 62
     7
370
     0
100
AcDbDimension
  2
*D24
 10
303.7962042931
 20
171.0349340294
 30
0.0
 11
308.7962042931
 21
171.0349340294
 31
0.0
 70
   160
 71
     2
 42
-1.0
  3
SLDDIMSTYLE2
100
AcDbAlignedDimension
 13
313.7962042931
 23
181.0349340294
 33
0.0
 14
303.7962042931
 24
181.0349340294
 34
0.0
100
AcDbRotatedDimension
  0
DIMENSION
  5
1AE
330
1F
100
AcDbEntity
  8
0
  6
Continuous
 62
     7
370
     0
100
AcDbDimension
  2
*D25
 10
66.7962042931
 20
181.0349340294
 30
0.0
 11
66.7962042931
 21
166.4488228359
 31
0.0
 70
   160
 71
     2
 42
-1.0
  3
SLDDIMSTYLE2
100
AcDbAlignedDimension
 13
103.7962042931
 23
185.0349340294
 33
0.0
 14
88.7962042931
 24
181.0349340294
 34
0.0
 50
90.0
100
AcDbRotatedDimension
  0
DIMENSION
  5
1BA
330
1F
100
AcDbEntity
  8
0
  6
Continuous
 62
     7
370
     0
100
AcDbDimension
  2
*D26
 10
328.7962042931
 20
165.0349340294
 30
0.0
 11
321.2962042931
 21
165.0349340294
 31
0.0
 70
   160
 71
     2
 42
-1.0
  3
SLDDIMSTYLE2
100
AcDbAlignedDimension
 13
313.7962042931
 23
181.0349340294
 33
0.0
 14
328.7962042931
 24
181.0349340294
 34
0.0
100
AcDbRotatedDimension
  0
DIMENSION
  5
1C6
330
1F
100
AcDbEntity
  8
0
  6
Continuous
 62
     7
370
     0
100
AcDbDimension
  2
*D27
 10
103.7962042931
 20
159.0349340294
 30
0.0
 11
96.2962042931
 21
159.0349340294
 31
0.0
 70
   160
 71
     2
 42
-1.0
  3
SLDDIMSTYLE2
100
AcDbAlignedDimension
 13
88.7962042931
 23
181.0349340294
 33
0.0
 14
103.7962042931
 24
181.0349340294
 34
0.0
100
AcDbRotatedDimension
  0
DIMENSION
  5
1D2
330
1F
100
AcDbEntity
  8
0
  6
Continuous
 62
     7
370
     0
100
AcDbDimension
  2
*D28
 10
60.7587042931
 20
181.0349340294
 30
0.0
 11
60.7587042931
 21
206.0349340294
 31
0.0
 70
   160
 71
     2
 42
-1.0
  3
SLDDIMSTYLE0
100
AcDbAlignedDimension
 13
133.8587042931
 23
231.0349340294
 33
0.0
 14
113.7962042931
 24
181.0349340294
 34
0.0
 50
90.0
100
AcDbRotatedDimension
  0
LINE
  5
1DC
330
1F
100
AcDbEntity
  8
0
  6
Continuous
 62
     7
370
    15
100
AcDbLine
 10
536.7539767469
 20
274.5364907197
 30
0.0
 11
540.2895106529
 21
276.5775109993
 31
0.0
  0
LINE
  5
1DD
330
1F
100
AcDbEntity
  8
0
  6
Continuous
 62
     7
370
    15
100
AcDbLine
 10
536.7539767469
 20
274.5364907197
 30
0.0
 11
526.1473750291
 21
280.6595515584
 31
0.0
  0
LINE
  5
1DE
330
1F
100
AcDbEntity
  8
0
  6
Continuous
 62
     7
370
    15
100
AcDbLine
 10
526.1473750291
 20
280.6595515584
 30
0.0
 11
529.6829089351
 21
282.7005718379
 31
0.0
  0
LINE
  5
1DF
330
1F
100
AcDbEntity
  8
0
  6
Continuous
 62
     7
370
    15
100
AcDbLine
 10
540.2895106529
 20
276.5775109993
 30
0.0
 11
529.6829089351
 21
282.7005718379
 31
0.0
  0
LINE
  5
1E0
330
1F
100
AcDbEntity
  8
0
  6
Continuous
 62
     7
370
    15
100
AcDbLine
 10
536.7539767469
 20
215.541417061
 30
0.0
 11
540.2895106529
 21
217.5824373405
 31
0.0
  0
LINE
  5
1E1
330
1F
100
AcDbEntity
  8
0
  6
Continuous
 62
     7
370
    15
100
AcDbLine
 10
536.7539767469
 20
215.541417061
 30
0.0
 11
536.7539767469
 21
274.5364907197
 31
0.0
  0
LINE
  5
1E2
330
1F
100
AcDbEntity
  8
0
  6
Continuous
 62
     7
370
    15
100
AcDbLine
 10
540.2895106529
 20
217.5824373405
 30
0.0
 11
540.2895106529
 21
276.5775109993
 31
0.0
  0
LINE
  5
1E3
330
1F
100
AcDbEntity
  8
0
  6
Continuous
 62
     7
370
    15
100
AcDbLine
 10
384.7260187918
 20
303.3052890819
 30
0.0
 11
384.7260187918
 21
306.5714523294
 31
0.0
  0
LINE
  5
1E4
330
1F
100
AcDbEntity
  8
0
  6
Continuous
 62
     7
370
    15
100
AcDbLine
 10
384.7260187918
 20
306.5714523294
 30
0.0
 11
377.65495098
 21
310.6534928886
 31
0.0
  0
LINE
  5
1E5
330
1F
100
AcDbEntity
  8
0
  6
Continuous
 62
     7
370
    15
100
AcDbLine
 10
377.65495098
 20
310.6534928886
 30
0.0
 11
377.65495098
 21
307.387329641
 31
0.0
  0
LINE
  5
1E6
330
1F
100
AcDbEntity
  8
0
  6
Continuous
 62
     7
370
    15
100
AcDbLine
 10
367.0483492622
 20
313.5103904797
 30
0.0
 11
377.65495098
 21
307.387329641
 31
0.0
  0
LINE
  5
1E7
330
1F
100
AcDbEntity
  8
0
  6
Continuous
 62
     7
370
    15
100
AcDbLine
 10
367.0483492622
 20
372.5054641384
 30
0.0
 11
367.0483492622
 21
313.5103904797
 31
0.0
  0
LINE
  5
1E8
330
1F
100
AcDbEntity
  8
0
  6
Continuous
 62
     7
370
    15
100
AcDbLine
 10
377.65495098
 20
366.3824032998
 30
0.0
 11
367.0483492622
 21
372.5054641384
 31
0.0
  0
LINE
  5
1E9
330
1F
100
AcDbEntity
  8
0
  6
Continuous
 62
     7
370
    15
100
AcDbLine
 10
377.65495098
 20
364.749321676
 30
0.0
 11
377.65495098
 21
366.3824032998
 31
0.0
  0
LINE
  5
1EA
330
1F
100
AcDbEntity
  8
0
  6
Continuous
 62
     7
370
    15
100
AcDbLine
 10
381.1904848859
 20
362.7083013964
 30
0.0
 11
377.65495098
 21
364.749321676
 31
0.0
  0
LINE
  5
1EB
330
1F
100
AcDbEntity
  8
0
  6
Continuous
 62
     7
370
    15
100
AcDbLine
 10
381.1904848859
 20
349.4395132033
 30
0.0
 11
381.1904848859
 21
362.7083013964
 31
0.0
  0
LINE
  5
1EC
330
1F
100
AcDbEntity
  8
0
  6
Continuous
 62
     7
370
    15
100
AcDbLine
 10
388.2615526978
 20
345.3574726442
 30
0.0
 11
381.1904848859
 21
349.4395132033
 31
0.0
  0
LINE
  5
1ED
330
1F
100
AcDbEntity
  8
0
  6
Continuous
 62
     7
370
    15
100
AcDbLine
 10
388.2615526978
 20
342.0913093966
 30
0.0
 11
388.2615526978
 21
345.3574726442
 31
0.0
  0
LINE
  5
1EE
330
1F
100
AcDbEntity
  8
0
  6
Continuous
 62
     7
370
    15
100
AcDbLine
 10
395.2884263358
 20
338.034781591
 30
0.0
 11
388.2615526978
 21
342.0913093966
 31
0.0
  0
LINE
  5
1EF
330
1F
100
AcDbEntity
  8
0
  6
Continuous
 62
     7
370
    15
100
AcDbLine
 10
395.2884263358
 20
338.034781591
 30
0.0
 11
395.2884263358
 21
311.3338970423
 31
0.0
  0
LINE
  5
1F0
330
1F
100
AcDbEntity
  8
0
  6
Continuous
 62
     7
370
    15
100
AcDbLine
 10
398.9123485894
 20
309.2418512558
 30
0.0
 11
395.2884263358
 21
311.3338970423
 31
0.0
  0
LINE
  5
1F1
330
1F
100
AcDbEntity
  8
0
  6
Continuous
 62
     7
370
    15
100
AcDbLine
 10
398.9123485894
 20
309.2418512558
 30
0.0
 11
398.9123485894
 21
335.9427358045
 31
0.0
  0
LINE
  5
1F2
330
1F
100
AcDbEntity
  8
0
  6
Continuous
 62
     7
370
    15
100
AcDbLine
 10
496.4233615563
 20
279.6508262257
 30
0.0
 11
398.9123485894
 21
335.9427358045
 31
0.0
  0
LINE
  5
1F3
330
1F
100
AcDbEntity
  8
0
  6
Continuous
 62
     7
370
    15
100
AcDbLine
 10
496.4233615563
 20
279.6508262257
 30
0.0
 11
496.4233615563
 21
252.949941677
 31
0.0
  0
LINE
  5
1F4
330
1F
100
AcDbEntity
  8
0
  6
Continuous
 62
     7
370
    15
100
AcDbLine
 10
500.0472838098
 20
250.8578958905
 30
0.0
 11
496.4233615563
 21
252.949941677
 31
0.0
  0
LINE
  5
1F5
330
1F
100
AcDbEntity
  8
0
  6
Continuous
 62
     7
370
    15
100
AcDbLine
 10
500.0472838098
 20
250.8578958905
 30
0.0
 11
500.0472838098
 21
277.5587804391
 31
0.0
  0
LINE
  5
1F6
330
1F
100
AcDbEntity
  8
0
  6
Continuous
 62
     7
370
    15
100
AcDbLine
 10
515.5407733113
 20
268.6145793326
 30
0.0
 11
500.0472838098
 21
277.5587804391
 31
0.0
  0
LINE
  5
1F7
330
1F
100
AcDbEntity
  8
0
  6
Continuous
 62
     7
370
    15
100
AcDbLine
 10
515.5407733113
 20
285.1495307733
 30
0.0
 11
515.5407733113
 21
268.6145793326
 31
0.0
  0
LINE
  5
1F8
330
1F
100
AcDbEntity
  8
0
  6
Continuous
 62
     7
370
    15
100
AcDbLine
 10
526.1473750291
 20
279.0264699346
 30
0.0
 11
515.5407733113
 21
285.1495307733
 31
0.0
  0
LINE
  5
1F9
330
1F
100
AcDbEntity
  8
0
  6
Continuous
 62
     7
370
    15
100
AcDbLine
 10
526.1473750291
 20
280.6595515584
 30
0.0
 11
526.1473750291
 21
279.0264699346
 31
0.0
  0
LINE
  5
1FA
330
1F
100
AcDbEntity
  8
0
  6
Continuous
 62
     7
370
    15
100
AcDbLine
 10
526.1473750291
 20
221.6644778996
 30
0.0
 11
536.7539767469
 21
215.541417061
 31
0.0
  0
LINE
  5
1FB
330
1F
100
AcDbEntity
  8
0
  6
Continuous
 62
     7
370
    15
100
AcDbLine
 10
526.1473750291
 20
221.6644778996
 30
0.0
 11
526.1473750291
 21
224.9306411472
 31
0.0
  0
LINE
  5
1FC
330
1F
100
AcDbEntity
  8
0
  6
Continuous
 62
     7
370
    15
100
AcDbLine
 10
526.1473750291
 20
224.9306411472
 30
0.0
 11
519.0763072173
 21
229.0126817063
 31
0.0
  0
LINE
  5
1FD
330
1F
100
AcDbEntity
  8
0
  6
Continuous
 62
     7
370
    15
100
AcDbLine
 10
519.0763072173
 20
229.0126817063
 30
0.0
 11
519.0763072173
 21
225.7465184587
 31
0.0
  0
LINE
  5
1FE
330
1F
100
AcDbEntity
  8
0
  6
Continuous
 62
     7
370
    15
100
AcDbLine
 10
384.7260187918
 20
303.3052890819
 30
0.0
 11
519.0763072173
 21
225.7465184587
 31
0.0
  0
LINE
  5
1FF
330
1F
100
AcDbEntity
  8
0
  6
Continuous
 62
     7
370
    15
100
AcDbLine
 10
442.3115212053
 20
278.2272942632
 30
0.0
 11
442.3115212053
 21
282.3099983226
 31
0.0
  0
LINE
  5
200
330
1F
100
AcDbEntity
  8
0
  6
Continuous
 62
     7
370
    15
100
AcDbLine
 10
453.0241889403
 20
272.0430028161
 30
0.0
 11
442.3115212053
 21
278.2272942632
 31
0.0
  0
LINE
  5
201
330
1F
100
AcDbEntity
  8
0
  6
Continuous
 62
     7
370
    15
100
AcDbLine
 10
453.0241889403
 20
276.1257068755
 30
0.0
 11
453.0241889403
 21
272.0430028161
 31
0.0
  0
LINE
  5
202
330
1F
100
AcDbEntity
  8
0
  6
Continuous
 62
     7
370
    15
100
AcDbLine
 10
466.0526313837
 20
268.6045471454
 30
0.0
 11
453.0241889403
 21
276.1257068755
 31
0.0
  0
LINE
  5
203
330
1F
100
AcDbEntity
  8
0
  6
Continuous
 62
     7
370
    15
100
AcDbLine
 10
466.0526313837
 20
275.1368736405
 30
0.0
 11
466.0526313837
 21
268.6045471454
 31
0.0
  0
LINE
  5
204
330
1F
100
AcDbEntity
  8
0
  6
Continuous
 62
     7
370
    15
100
AcDbLine
 10
429.283078762
 20
296.3634845479
 30
0.0
 11
466.0526313837
 21
275.1368736405
 31
0.0
  0
LINE
  5
205
330
1F
100
AcDbEntity
  8
0
  6
Continuous
 62
     7
370
    15
100
AcDbLine
 10
429.283078762
 20
289.8311580528
 30
0.0
 11
429.283078762
 21
296.3634845479
 31
0.0
  0
LINE
  5
206
330
1F
100
AcDbEntity
  8
0
  6
Continuous
 62
     7
370
    15
100
AcDbLine
 10
442.3115212053
 20
282.3099983226
 30
0.0
 11
429.283078762
 21
289.8311580528
 31
0.0
  0
LINE
  5
207
330
1F
100
AcDbEntity
  8
0
  6
Continuous
 62
     7
370
    15
100
AcDbLine
 10
515.5407733113
 20
285.1495307733
 30
0.0
 11
519.0763072173
 21
287.1905510528
 31
0.0
  0
LINE
  5
208
330
1F
100
AcDbEntity
  8
0
  6
Continuous
 62
     7
370
    15
100
AcDbLine
 10
528.2684655045
 20
281.884031026
 30
0.0
 11
519.0763072173
 21
287.1905510528
 31
0.0
  0
LINE
  5
209
330
1F
100
AcDbEntity
  8
0
  6
Continuous
 62
     7
370
    15
100
AcDbLine
 10
503.5828177158
 20
279.5998007187
 30
0.0
 11
500.0472838098
 21
277.5587804391
 31
0.0
  0
LINE
  5
20A
330
1F
100
AcDbEntity
  8
0
  6
Continuous
 62
     7
370
    15
100
AcDbLine
 10
515.5407733113
 20
272.6966198917
 30
0.0
 11
503.5828177158
 21
279.5998007187
 31
0.0
  0
LINE
  5
20B
330
1F
100
AcDbEntity
  8
0
  6
Continuous
 62
     7
370
    15
100
AcDbLine
 10
496.4233615563
 20
279.6508262257
 30
0.0
 11
499.9588954622
 21
281.6918465052
 31
0.0
  0
LINE
  5
20C
330
1F
100
AcDbEntity
  8
0
  6
Continuous
 62
     7
370
    15
100
AcDbLine
 10
496.4233615563
 20
252.949941677
 30
0.0
 11
499.9588954622
 21
254.9909619566
 31
0.0
  0
LINE
  5
20D
330
1F
100
AcDbEntity
  8
0
  6
Continuous
 62
     7
370
    15
100
AcDbLine
 10
499.9588954622
 20
281.6918465052
 30
0.0
 11
499.9588954622
 21
254.9909619566
 31
0.0
  0
LINE
  5
20E
330
1F
100
AcDbEntity
  8
0
  6
Continuous
 62
     7
370
    15
100
AcDbLine
 10
402.4478824953
 20
337.983756084
 30
0.0
 11
398.9123485894
 21
335.9427358045
 31
0.0
  0
LINE
  5
20F
330
1F
100
AcDbEntity
  8
0
  6
Continuous
 62
     7
370
    15
100
AcDbLine
 10
499.9588954622
 20
281.6918465052
 30
0.0
 11
402.4478824953
 21
337.983756084
 31
0.0
  0
LINE
  5
210
330
1F
100
AcDbEntity
  8
0
  6
Continuous
 62
     7
370
    15
100
AcDbLine
 10
521.9051940783
 20
227.3796000825
 30
0.0
 11
519.0763072173
 21
225.7465184587
 31
0.0
  0
LINE
  5
211
330
1F
100
AcDbEntity
  8
0
  6
Continuous
 62
     7
370
    15
100
AcDbLine
 10
500.0472838098
 20
254.9399364496
 30
0.0
 11
499.9588954622
 21
254.9909619566
 31
0.0
  0
LINE
  5
212
330
1F
100
AcDbEntity
  8
0
  6
Continuous
 62
     7
370
    15
100
AcDbLine
 10
453.0241889403
 20
276.1257068755
 30
0.0
 11
456.5597228462
 21
278.1667271551
 31
0.0
  0
LINE
  5
213
330
1F
100
AcDbEntity
  8
0
  6
Continuous
 62
     7
370
    15
100
AcDbLine
 10
466.0526313837
 20
272.6865877045
 30
0.0
 11
456.5597228462
 21
278.1667271551
 31
0.0
  0
LINE
  5
214
330
1F
100
AcDbEntity
  8
0
  6
Continuous
 62
     7
370
    15
100
AcDbLine
 10
442.3115212053
 20
278.2272942632
 30
0.0
 11
445.8470551113
 21
280.2683145427
 31
0.0
  0
LINE
  5
215
330
1F
100
AcDbEntity
  8
0
  6
Continuous
 62
     7
370
    15
100
AcDbLine
 10
453.0241889403
 20
276.1250433752
 30
0.0
 11
445.8470551113
 21
280.2683145427
 31
0.0
  0
LINE
  5
216
330
1F
100
AcDbEntity
  8
0
  6
Continuous
 62
     7
370
    15
100
AcDbLine
 10
442.3115212053
 20
282.3099983226
 30
0.0
 11
445.8470551113
 21
284.3510186022
 31
0.0
  0
LINE
  5
217
330
1F
100
AcDbEntity
  8
0
  6
Continuous
 62
     7
370
    15
100
AcDbLine
 10
445.8470551113
 20
280.2683145427
 30
0.0
 11
445.8470551113
 21
284.3510186022
 31
0.0
  0
LINE
  5
218
330
1F
100
AcDbEntity
  8
0
  6
Continuous
 62
     7
370
    15
100
AcDbLine
 10
429.283078762
 20
289.8311580528
 30
0.0
 11
432.8186126679
 21
291.8721783323
 31
0.0
  0
LINE
  5
219
330
1F
100
AcDbEntity
  8
0
  6
Continuous
 62
     7
370
    15
100
AcDbLine
 10
445.8470551113
 20
284.3510186022
 30
0.0
 11
432.8186126679
 21
291.8721783323
 31
0.0
  0
LINE
  5
21A
330
1F
100
AcDbEntity
  8
0
  6
Continuous
 62
     7
370
    15
100
AcDbLine
 10
432.8186126679
 20
291.8721783323
 30
0.0
 11
432.8186126679
 21
294.3224642683
 31
0.0
  0
LINE
  5
21B
330
1F
100
AcDbEntity
  8
0
  6
Continuous
 62
     7
370
    15
100
AcDbLine
 10
381.1904848859
 20
362.7083013964
 30
0.0
 11
384.7260187918
 21
364.749321676
 31
0.0
  0
LINE
  5
21C
330
1F
100
AcDbEntity
  8
0
  6
Continuous
 62
     7
370
    15
100
AcDbLine
 10
377.65495098
 20
364.749321676
 30
0.0
 11
381.1904848859
 21
366.7903419555
 31
0.0
  0
LINE
  5
21D
330
1F
100
AcDbEntity
  8
0
  6
Continuous
 62
     7
370
    15
100
AcDbLine
 10
384.7260187918
 20
364.749321676
 30
0.0
 11
381.1904848859
 21
366.7903419555
 31
0.0
  0
LINE
  5
21E
330
1F
100
AcDbEntity
  8
0
  6
Continuous
 62
     7
370
    15
100
AcDbLine
 10
381.1904848859
 20
349.4395132033
 30
0.0
 11
384.7260187918
 21
351.4805334828
 31
0.0
  0
LINE
  5
21F
330
1F
100
AcDbEntity
  8
0
  6
Continuous
 62
     7
370
    15
100
AcDbLine
 10
384.7260187918
 20
351.4805334828
 30
0.0
 11
384.7260187918
 21
364.749321676
 31
0.0
  0
LINE
  5
220
330
1F
100
AcDbEntity
  8
0
  6
Continuous
 62
     7
370
    15
100
AcDbLine
 10
395.2884263358
 20
338.034781591
 30
0.0
 11
398.8239602417
 21
340.0758018706
 31
0.0
  0
LINE
  5
221
330
1F
100
AcDbEntity
  8
0
  6
Continuous
 62
     7
370
    15
100
AcDbLine
 10
395.2884263358
 20
311.3338970423
 30
0.0
 11
398.8239602417
 21
313.3749173219
 31
0.0
  0
LINE
  5
222
330
1F
100
AcDbEntity
  8
0
  6
Continuous
 62
     7
370
    15
100
AcDbLine
 10
398.8239602417
 20
340.0758018706
 30
0.0
 11
398.8239602417
 21
313.3749173219
 31
0.0
  0
LINE
  5
223
330
1F
100
AcDbEntity
  8
0
  6
Continuous
 62
     7
370
    15
100
AcDbLine
 10
388.2615526978
 20
342.0913093966
 30
0.0
 11
391.7970866037
 21
344.1323296762
 31
0.0
  0
LINE
  5
224
330
1F
100
AcDbEntity
  8
0
  6
Continuous
 62
     7
370
    15
100
AcDbLine
 10
398.8239602417
 20
340.0758018706
 30
0.0
 11
391.7970866037
 21
344.1323296762
 31
0.0
  0
LINE
  5
225
330
1F
100
AcDbEntity
  8
0
  6
Continuous
 62
     7
370
    15
100
AcDbLine
 10
377.65495098
 20
366.3824032998
 30
0.0
 11
381.1904848859
 21
368.4234235793
 31
0.0
  0
LINE
  5
226
330
1F
100
AcDbEntity
  8
0
  6
Continuous
 62
     7
370
    15
100
AcDbLine
 10
367.0483492622
 20
372.5054641384
 30
0.0
 11
370.5838831681
 21
374.546484418
 31
0.0
  0
LINE
  5
227
330
1F
100
AcDbEntity
  8
0
  6
Continuous
 62
     7
370
    15
100
AcDbLine
 10
381.1904848859
 20
368.4234235793
 30
0.0
 11
370.5838831681
 21
374.546484418
 31
0.0
  0
LINE
  5
228
330
1F
100
AcDbEntity
  8
0
  6
Continuous
 62
     7
370
    15
100
AcDbLine
 10
381.1904848859
 20
366.7903419555
 30
0.0
 11
381.1904848859
 21
368.4234235793
 31
0.0
  0
LINE
  5
229
330
1F
100
AcDbEntity
  8
0
  6
Continuous
 62
     7
370
    15
100
AcDbLine
 10
388.2615526978
 20
345.3574726442
 30
0.0
 11
391.7970866037
 21
347.3984929237
 31
0.0
  0
LINE
  5
22A
330
1F
100
AcDbEntity
  8
0
  6
Continuous
 62
     7
370
    15
100
AcDbLine
 10
391.7970866037
 20
344.1323296762
 30
0.0
 11
391.7970866037
 21
347.3984929237
 31
0.0
  0
LINE
  5
22B
330
1F
100
AcDbEntity
  8
0
  6
Continuous
 62
     7
370
    15
100
AcDbLine
 10
391.7970866037
 20
347.3984929237
 30
0.0
 11
384.7260187918
 21
351.4805334828
 31
0.0
  0
LINE
  5
22C
330
1F
100
AcDbEntity
  8
0
  6
Continuous
 62
     7
370
    15
100
AcDbLine
 10
398.9123485894
 20
313.3238918149
 30
0.0
 11
398.8239602417
 21
313.3749173219
 31
0.0
  0
LINE
  5
22D
330
1F
100
AcDbEntity
  8
0
  6
Continuous
 62
     7
370
    15
100
AcDbLine
 10
380.483837841
 20
309.0204112648
 30
0.0
 11
377.65495098
 21
307.387329641
 31
0.0
  0
LINE
  5
22E
330
1F
100
AcDbEntity
  8
0
  6
Continuous
 62
     7
370
    15
100
AcDbLine
 10
328.7962042931
 20
87.0840448421
 30
0.0
 11
313.7962042931
 21
87.0840448421
 31
0.0
  0
LINE
  5
22F
330
1F
100
AcDbEntity
  8
0
  6
Continuous
 62
     7
370
    15
100
AcDbLine
 10
313.7962042931
 20
87.0840448421
 30
0.0
 11
313.7962042931
 21
92.0840448421
 31
0.0
  0
LINE
  5
230
330
1F
100
AcDbEntity
  8
0
  6
Continuous
 62
     7
370
    15
100
AcDbLine
 10
328.7962042931
 20
87.0840448421
 30
0.0
 11
328.7962042931
 21
92.0840448421
 31
0.0
  0
LINE
  5
231
330
1F
100
AcDbEntity
  8
0
  6
Continuous
 62
     7
370
    15
100
AcDbLine
 10
328.7962042931
 20
92.0840448421
 30
0.0
 11
313.7962042931
 21
92.0840448421
 31
0.0
  0
LINE
  5
232
330
1F
100
AcDbEntity
  8
0
  6
Continuous
 62
     7
370
    15
100
AcDbLine
 10
88.7962042931
 20
87.0840448421
 30
0.0
 11
88.7962042931
 21
92.0840448421
 31
0.0
  0
LINE
  5
233
330
1F
100
AcDbEntity
  8
0
  6
Continuous
 62
     7
370
    15
100
AcDbLine
 10
103.7962042931
 20
87.0840448421
 30
0.0
 11
103.7962042931
 21
92.0840448421
 31
0.0
  0
LINE
  5
234
330
1F
100
AcDbEntity
  8
0
  6
Continuous
 62
     7
370
    15
100
AcDbLine
 10
103.7962042931
 20
87.0840448421
 30
0.0
 11
88.7962042931
 21
87.0840448421
 31
0.0
  0
LINE
  5
235
330
1F
100
AcDbEntity
  8
0
  6
Continuous
 62
     7
370
    15
100
AcDbLine
 10
103.7962042931
 20
92.0840448421
 30
0.0
 11
88.7962042931
 21
92.0840448421
 31
0.0
  0
LINE
  5
236
330
1F
100
AcDbEntity
  8
0
  6
Continuous
 62
     7
370
    15
100
AcDbLine
 10
298.7962042931
 20
87.0840448421
 30
0.0
 11
298.7962042931
 21
92.0840448421
 31
0.0
  0
LINE
  5
237
330
1F
100
AcDbEntity
  8
0
  6
Continuous
 62
     7
370
    15
100
AcDbLine
 10
313.7962042931
 20
87.0840448421
 30
0.0
 11
298.7962042931
 21
87.0840448421
 31
0.0
  0
LINE
  5
238
330
1F
100
AcDbEntity
  8
0
  6
Continuous
 62
     7
370
    15
100
AcDbLine
 10
313.7962042931
 20
92.0840448421
 30
0.0
 11
298.7962042931
 21
92.0840448421
 31
0.0
  0
LINE
  5
239
330
1F
100
AcDbEntity
  8
0
  6
Continuous
 62
     7
370
    15
100
AcDbLine
 10
108.7962042931
 20
87.0840448421
 30
0.0
 11
108.7962042931
 21
92.0840448421
 31
0.0
  0
LINE
  5
23A
330
1F
100
AcDbEntity
  8
0
  6
Continuous
 62
     7
370
    15
100
AcDbLine
 10
108.7962042931
 20
87.0840448421
 30
0.0
 11
103.7962042931
 21
87.0840448421
 31
0.0
  0
LINE
  5
23B
330
1F
100
AcDbEntity
  8
0
  6
Continuous
 62
     7
370
    15
100
AcDbLine
 10
108.7962042931
 20
92.0840448421
 30
0.0
 11
103.7962042931
 21
92.0840448421
 31
0.0
  0
LINE
  5
23C
330
1F
100
AcDbEntity
  8
0
  6
Continuous
 62
     7
370
    15
100
AcDbLine
 10
118.7962042931
 20
87.0840448421
 30
0.0
 11
118.7962042931
 21
92.0840448421
 31
0.0
  0
LINE
  5
23D
330
1F
100
AcDbEntity
  8
0
  6
Continuous
 62
     7
370
    15
100
AcDbLine
 10
118.7962042931
 20
87.0840448421
 30
0.0
 11
108.7962042931
 21
87.0840448421
 31
0.0
  0
LINE
  5
23E
330
1F
100
AcDbEntity
  8
0
  6
Continuous
 62
     7
370
    15
100
AcDbLine
 10
118.7962042931
 20
92.0840448421
 30
0.0
 11
108.7962042931
 21
92.0840448421
 31
0.0
  0
LINE
  5
23F
330
1F
100
AcDbEntity
  8
0
  6
Continuous
 62
     7
370
    15
100
AcDbLine
 10
276.8851013116
 20
92.0840448421
 30
0.0
 11
276.8851013116
 21
87.0840448421
 31
0.0
  0
LINE
  5
240
330
1F
100
AcDbEntity
  8
0
  6
Continuous
 62
     7
370
    15
100
AcDbLine
 10
298.7962042931
 20
87.0840448421
 30
0.0
 11
276.8851013116
 21
87.0840448421
 31
0.0
  0
LINE
  5
241
330
1F
100
AcDbEntity
  8
0
  6
Continuous
 62
     7
370
    15
100
AcDbLine
 10
298.7962042931
 20
92.0840448421
 30
0.0
 11
276.8851013116
 21
92.0840448421
 31
0.0
  0
LINE
  5
242
330
1F
100
AcDbEntity
  8
0
  6
Continuous
 62
     7
370
    15
100
AcDbLine
 10
133.8587042931
 20
92.0840448421
 30
0.0
 11
133.8587042931
 21
87.0840448421
 31
0.0
  0
LINE
  5
243
330
1F
100
AcDbEntity
  8
0
  6
Continuous
 62
     7
370
    15
100
AcDbLine
 10
271.7601013116
 20
87.0840448421
 30
0.0
 11
271.7601013116
 21
92.0840448421
 31
0.0
  0
LINE
  5
244
330
1F
100
AcDbEntity
  8
0
  6
Continuous
 62
     7
370
    15
100
AcDbLine
 10
271.7601013116
 20
87.0840448421
 30
0.0
 11
133.8587042931
 21
87.0840448421
 31
0.0
  0
LINE
  5
245
330
1F
100
AcDbEntity
  8
0
  6
Continuous
 62
     7
370
    15
100
AcDbLine
 10
271.7601013116
 20
92.0840448421
 30
0.0
 11
133.8587042931
 21
92.0840448421
 31
0.0
  0
LINE
  5
246
330
1F
100
AcDbEntity
  8
0
  6
Continuous
 62
     7
370
    15
100
AcDbLine
 10
128.7337042931
 20
87.0840448421
 30
0.0
 11
128.7337042931
 21
92.0840448421
 31
0.0
  0
LINE
  5
247
330
1F
100
AcDbEntity
  8
0
  6
Continuous
 62
     7
370
    15
100
AcDbLine
 10
128.7337042931
 20
87.0840448421
 30
0.0
 11
118.7962042931
 21
87.0840448421
 31
0.0
  0
LINE
  5
248
330
1F
100
AcDbEntity
  8
0
  6
Continuous
 62
     7
370
    15
100
AcDbLine
 10
128.7337042931
 20
92.0840448421
 30
0.0
 11
118.7962042931
 21
92.0840448421
 31
0.0
  0
LINE
  5
249
330
1F
100
AcDbEntity
  8
0
  6
Continuous
 62
     7
370
    15
100
AcDbLine
 10
276.8851013116
 20
87.0840448421
 30
0.0
 11
271.7601013116
 21
87.0840448421
 31
0.0
  0
LINE
  5
24A
330
1F
100
AcDbEntity
  8
0
  6
Continuous
 62
     7
370
    15
100
AcDbLine
 10
276.8851013116
 20
92.0840448421
 30
0.0
 11
271.7601013116
 21
92.0840448421
 31
0.0
  0
LINE
  5
24B
330
1F
100
AcDbEntity
  8
0
  6
Continuous
 62
     7
370
    15
100
AcDbLine
 10
133.8587042931
 20
87.0840448421
 30
0.0
 11
128.7337042931
 21
87.0840448421
 31
0.0
  0
LINE
  5
24C
330
1F
100
AcDbEntity
  8
0
  6
Continuous
 62
     7
370
    15
100
AcDbLine
 10
133.8587042931
 20
92.0840448421
 30
0.0
 11
128.7337042931
 21
92.0840448421
 31
0.0
  0
DIMENSION
  5
24D
330
1F
100
AcDbEntity
  8
0
  6
Continuous
 62
     7
370
     0
100
AcDbDimension
  2
*D29
 10
336.8866976473
 20
92.0840448421
 30
0.0
 11
336.8866976473
 21
101.9987498848
 31
0.0
 70
   160
 71
     2
 42
-1.0
  3
SLDDIMSTYLE2
100
AcDbAlignedDimension
 13
328.7962042931
 23
87.0840448421
 33
0.0
 14
328.7962042931
 24
92.0840448421
 34
0.0
 50
90.0
100
AcDbRotatedDimension
  0
DIMENSION
  5
259
330
1F
100
AcDbEntity
  8
0
  6
Continuous
 62
     7
370
     0
100
AcDbDimension
  2
*D30
 10
88.7962042931
 20
77.0840448421
 30
0.0
 11
208.7962042931
 21
77.0840448421
 31
0.0
 70
   160
 71
     2
 42
-1.0
  3
SLDDIMSTYLE0
100
AcDbAlignedDimension
 13
328.7962042931
 23
87.0840448421
 33
0.0
 14
88.7962042931
 24
87.0840448421
 34
0.0
100
AcDbRotatedDimension
  0
ENDSEC
  0
SECTION
  2
OBJECTS
  0
DICTIONARY
  5
C
330
0
100
AcDbDictionary
281
     1
  3
ACAD_GROUP
350
D
  3
ACAD_LAYOUT
350
1A
  3
ACAD_MLINESTYLE
350
17
  3
ACAD_PLOTSETTINGS
350
19
  3
ACAD_PLOTSTYLENAME
350
E
  0
DICTIONARY
  5
D
102
{ACAD_REACTORS
330
C
102
}
330
C
100
AcDbDictionary
281
     1
  0
DICTIONARY
  5
1A
102
{ACAD_REACTORS
330
C
102
}
330
C
100
AcDbDictionary
281
     1
  3
Layout1
350
1E
  3
Layout2
350
26
  3
Model
350
22
  0
DICTIONARY
  5
17
102
{ACAD_REACTORS
330
C
102
}
330
C
100
AcDbDictionary
281
     1
  3
Standard
350
18
  0
DICTIONARY
  5
19
102
{ACAD_REACTORS
330
C
102
}
330
C
100
AcDbDictionary
281
     1
  0
ACDBDICTIONARYWDFLT
  5
E
102
{ACAD_REACTORS
330
C
102
}
330
C
100
AcDbDictionary
281
     1
  3
Normal
350
F
100
AcDbDictionaryWithDefault
340
F
  0
LAYOUT
  5
1E
102
{ACAD_REACTORS
330
1A
102
}
330
1A
100
AcDbPlotSettings
  1

  2
none_device
  4

  6

 40
0.0
 41
0.0
 42
0.0
 43
0.0
 44
0.0
 45
0.0
 46
0.0
 47
0.0
 48
0.0
 49
0.0
140
0.0
141
0.0
142
1.0
143
1.0
 70
   688
 72
     0
 73
     0
 74
     5
  7

 75
    16
147
1.0
148
0.0
149
0.0
100
AcDbLayout
  1
Layout1
 70
     1
 71
     1
 10
0.0
 20
0.0
 11
420.0
 21
297.0
 12
0.0
 22
0.0
 32
0.0
 14
1.0000000000E+20
 24
1.0000000000E+20
 34
1.0000000000E+20
 15
-1.0000000000E+20
 25
-1.0000000000E+20
 35
-1.0000000000E+20
146
0.0
 13
0.0
 23
0.0
 33
0.0
 16
1.0
 26
0.0
 36
0.0
 17
0.0
 27
1.0
 37
0.0
 76
     0
330
1B
  0
LAYOUT
  5
26
102
{ACAD_REACTORS
330
1A
102
}
330
1A
100
AcDbPlotSettings
  1

  2
none_device
  4

  6

 40
0.0
 41
0.0
 42
0.0
 43
0.0
 44
0.0
 45
0.0
 46
0.0
 47
0.0
 48
0.0
 49
0.0
140
0.0
141
0.0
142
1.0
143
1.0
 70
   688
 72
     0
 73
     0
 74
     5
  7

 75
    16
147
1.0
148
0.0
149
0.0
100
AcDbLayout
  1
Layout2
 70
     1
 71
     2
 10
0.0
 20
0.0
 11
0.0
 21
0.0
 12
0.0
 22
0.0
 32
0.0
 14
0.0
 24
0.0
 34
0.0
 15
0.0
 25
0.0
 35
0.0
146
0.0
 13
0.0
 23
0.0
 33
0.0
 16
1.0
 26
0.0
 36
0.0
 17
0.0
 27
1.0
 37
0.0
 76
     0
330
23
  0
LAYOUT
  5
22
102
{ACAD_REACTORS
330
1A
102
}
330
1A
100
AcDbPlotSettings
  1

  2
none_device
  4

  6

 40
0.0
 41
0.0
 42
0.0
 43
0.0
 44
0.0
 45
0.0
 46
0.0
 47
0.0
 48
0.0
 49
0.0
140
0.0
141
0.0
142
1.0
143
1.0
 70
  1712
 72
     0
 73
     0
 74
     0
  7

 75
     0
147
1.0
148
0.0
149
0.0
100
AcDbLayout
  1
Model
 70
     1
 71
     0
 10
0.0
 20
0.0
 11
594.0
 21
420.0
 12
0.0
 22
0.0
 32
0.0
 14
0.0
 24
0.0
 34
0.0
 15
594.0
 25
420.0
 35
0.0
146
0.0
 13
0.0
 23
0.0
 33
0.0
 16
1.0
 26
0.0
 36
0.0
 17
0.0
 27
1.0
 37
0.0
 76
     0
330
1F
331
29
  0
MLINESTYLE
  5
18
102
{ACAD_REACTORS
330
17
102
}
330
17
100
AcDbMlineStyle
  2
Standard
 70
     0
  3

 62
   256
 51
90.0
 52
90.0
 71
     2
 49
0.5
 62
   256
  6
BYLAYER
 49
-0.5
 62
   256
  6
BYLAYER
  0
ACDBPLACEHOLDER
  5
F
102
{ACAD_REACTORS
330
E
102
}
330
E
  0
ENDSEC
  0
EOF
